<svg width="42" height="42" viewBox="0 0 42 42" fill="none" xmlns="http://www.w3.org/2000/svg">
<path d="M41.1368 24.3792L26.3839 2.06078C26.3109 1.95273 26.1425 1.99722 26.1361 2.12751C26.1012 2.69318 25.6247 5.709 22.2255 5.709C19.4681 5.709 18.1942 5.21327 15.3542 5.21327C14.3726 5.21327 13.2035 5.76939 12.5904 6.70052L11.4309 8.45472L22.5305 25.2405H26.8732C28.1534 25.2405 29.3479 25.8824 30.0531 26.9502L32.7024 30.9639H41.7308V26.3496C41.7308 25.6504 41.5243 24.964 41.1368 24.3792ZM29.0302 14.8201C27.248 14.0987 25.8598 10.9335 25.8598 10.9335C29.4622 10.9335 31.8893 15.2269 31.8893 15.2269C31.8893 15.2269 30.8155 15.5415 29.0334 14.8201H29.0302Z" fill="url(#paint0_linear_264_140)"/>
<path d="M27.7849 39.544H11.4817C10.3095 39.544 9.21987 38.9596 8.57183 37.9808L1.63376 27.484C0.788746 26.2065 0.788746 24.5508 1.63376 23.2733L9.35331 11.6072H9.35646L27.7849 39.5472V39.544Z" fill="url(#paint1_linear_264_140)"/>
<defs>
<linearGradient id="paint0_linear_264_140" x1="26.5809" y1="30.9639" x2="26.5809" y2="2.0004" gradientUnits="userSpaceOnUse">
<stop stop-color="#FCB124"/>
<stop offset="1" stop-color="#F63E58"/>
</linearGradient>
<linearGradient id="paint1_linear_264_140" x1="14.3948" y1="39.5472" x2="14.3948" y2="11.6008" gradientUnits="userSpaceOnUse">
<stop stop-color="#FCB124"/>
<stop offset="1" stop-color="#F63E58"/>
</linearGradient>
</defs>
</svg>
