<svg width="42" height="42" viewBox="0 0 42 42" fill="none" xmlns="http://www.w3.org/2000/svg">
<path fill-rule="evenodd" clip-rule="evenodd" d="M32.9687 3.41353C32.9687 4.74642 31.8854 5.82704 30.5489 5.82704C29.2126 5.82704 28.1292 4.74642 28.1292 3.41353C28.1292 2.08053 29.2126 1 30.5489 1C31.8854 1 32.9687 2.08053 32.9687 3.41353ZM35.691 37.5049C35.691 38.8381 34.6077 39.9186 33.2713 39.9186C31.9349 39.9186 30.8514 38.8381 30.8514 37.5049C30.8514 36.172 31.9349 35.0915 33.2713 35.0915C34.6077 35.0915 35.691 36.172 35.691 37.5049ZM31.2407 11.8612C32.3623 11.8612 33.2716 10.9541 33.2716 9.83546C33.2716 8.71664 32.3623 7.80977 31.2407 7.80977C30.1192 7.80977 29.2099 8.71664 29.2099 9.83546C29.2099 10.9541 30.1192 11.8612 31.2407 11.8612ZM38.6731 10.611C38.6731 11.7297 37.7638 12.6367 36.6423 12.6367C35.5207 12.6367 34.6114 11.7297 34.6114 10.611C34.6114 9.49219 35.5207 8.58531 36.6423 8.58531C37.7638 8.58531 38.6731 9.49219 38.6731 10.611ZM30.549 16.9897C31.5037 16.9897 32.2775 16.2178 32.2775 15.2657C32.2775 14.3136 31.5037 13.5418 30.549 13.5418C29.5947 13.5418 28.8207 14.3136 28.8207 15.2657C28.8207 16.2178 29.5947 16.9897 30.549 16.9897ZM37.6792 15.9986C37.6792 16.9507 36.9052 17.7226 35.9507 17.7226C34.996 17.7226 34.2224 16.9507 34.2224 15.9986C34.2224 15.0467 34.996 14.2749 35.9507 14.2749C36.9052 14.2749 37.6792 15.0467 37.6792 15.9986ZM40.2717 19.4032C41.2262 19.4032 42 18.6314 42 17.6793C42 16.727 41.2262 15.9553 40.2717 15.9553C39.3172 15.9553 38.5432 16.727 38.5432 17.6793C38.5432 18.6314 39.3172 19.4032 40.2717 19.4032ZM35.8638 20.3516C35.8638 21.1845 35.1868 21.8599 34.3513 21.8599C33.5162 21.8599 32.839 21.1845 32.839 20.3516C32.839 19.5182 33.5162 18.843 34.3513 18.843C35.1868 18.843 35.8638 19.5182 35.8638 20.3516ZM28.9508 21.127C29.7859 21.127 30.4629 20.4516 30.4629 19.6185C30.4629 18.7855 29.7859 18.1099 28.9508 18.1099C28.1154 18.1099 27.4384 18.7855 27.4384 19.6185C27.4384 20.4516 28.1154 21.127 28.9508 21.127ZM40.2281 22.0319C40.2281 22.8652 39.5509 23.5405 38.7159 23.5405C37.8804 23.5405 37.2034 22.8652 37.2034 22.0319C37.2034 21.199 37.8804 20.5237 38.7159 20.5237C39.5509 20.5237 40.2281 21.199 40.2281 22.0319ZM32.1912 25.0055C32.9073 25.0055 33.4876 24.4267 33.4876 23.7127C33.4876 22.9986 32.9073 22.4196 32.1912 22.4196C31.4753 22.4196 30.895 22.9986 30.895 23.7127C30.895 24.4267 31.4753 25.0055 32.1912 25.0055ZM37.852 25.3506C37.852 26.0647 37.2716 26.6435 36.5557 26.6435C35.8399 26.6435 35.2593 26.0647 35.2593 25.3506C35.2593 24.6366 35.8399 24.0576 36.5557 24.0576C37.2716 24.0576 37.852 24.6366 37.852 25.3506ZM26.8328 24.2297C27.5488 24.2297 28.1292 23.6509 28.1292 22.9369C28.1292 22.2227 27.5488 21.6439 26.8328 21.6439C26.1169 21.6439 25.5365 22.2227 25.5365 22.9369C25.5365 23.6509 26.1169 24.2297 26.8328 24.2297ZM30.8949 26.0405C30.8949 26.6356 30.4114 27.118 29.8147 27.118C29.2179 27.118 28.7345 26.6356 28.7345 26.0405C28.7345 25.4454 29.2179 24.9631 29.8147 24.9631C30.4114 24.9631 30.8949 25.4454 30.8949 26.0405ZM31.6722 30.0916C32.1974 30.0916 32.6229 29.6671 32.6229 29.1433C32.6229 28.6196 32.1974 28.1951 31.6722 28.1951C31.1474 28.1951 30.7217 28.6196 30.7217 29.1433C30.7217 29.6671 31.1474 30.0916 31.6722 30.0916ZM30.1602 29.9195C30.1602 30.3481 29.8119 30.6954 29.3824 30.6954C28.9529 30.6954 28.6046 30.3481 28.6046 29.9195C28.6046 29.4911 28.9529 29.1438 29.3824 29.1438C29.8119 29.1438 30.1602 29.4911 30.1602 29.9195ZM27.3514 28.4539C27.8764 28.4539 28.3019 28.0294 28.3019 27.5057C28.3019 26.9821 27.8764 26.5576 27.3514 26.5576C26.8264 26.5576 26.4007 26.9821 26.4007 27.5057C26.4007 28.0294 26.8264 28.4539 27.3514 28.4539ZM25.4938 25.3078C25.4938 25.9029 25.01 26.3852 24.4136 26.3852C23.8169 26.3852 23.3331 25.9029 23.3331 25.3078C23.3331 24.7125 23.8169 24.2303 24.4136 24.2303C25.01 24.2303 25.4938 24.7125 25.4938 25.3078ZM24.37 18.2821C24.9667 18.2821 25.4504 17.8 25.4504 17.2048C25.4504 16.6096 24.9667 16.1274 24.37 16.1274C23.7735 16.1274 23.2898 16.6096 23.2898 17.2048C23.2898 17.8 23.7735 18.2821 24.37 18.2821ZM25.7959 13.5416C25.7959 14.0652 25.3703 14.4897 24.8453 14.4897C24.3203 14.4897 23.8948 14.0652 23.8948 13.5416C23.8948 13.0179 24.3203 12.5934 24.8453 12.5934C25.3703 12.5934 25.7959 13.0179 25.7959 13.5416ZM25.8825 11.3867C26.312 11.3867 26.6603 11.0394 26.6603 10.611C26.6603 10.1824 26.312 9.83514 25.8825 9.83514C25.453 9.83514 25.1047 10.1824 25.1047 10.611C25.1047 11.0394 25.453 11.3867 25.8825 11.3867ZM25.0183 8.97333C25.0183 9.49704 24.5926 9.92156 24.0678 9.92156C23.5426 9.92156 23.117 9.49704 23.117 8.97333C23.117 8.44978 23.5426 8.0251 24.0678 8.0251C24.5926 8.0251 25.0183 8.44978 25.0183 8.97333ZM34.1357 28.7553C34.7322 28.7553 35.2159 28.273 35.2159 27.6777C35.2159 27.0828 34.7322 26.6004 34.1357 26.6004C33.5389 26.6004 33.0553 27.0828 33.0553 27.6777C33.0553 28.273 33.5389 28.7553 34.1357 28.7553ZM22.6848 7.59411C22.6848 8.18906 22.2012 8.67141 21.6046 8.67141C21.0081 8.67141 20.5243 8.18906 20.5243 7.59411C20.5243 6.999 21.0081 6.51665 21.6046 6.51665C22.2012 6.51665 22.6848 6.999 22.6848 7.59411ZM22.3395 13.24C22.936 13.24 23.4197 12.7575 23.4197 12.1626C23.4197 11.5675 22.936 11.0851 22.3395 11.0851C21.7428 11.0851 21.2593 11.5675 21.2593 12.1626C21.2593 12.7575 21.7428 13.24 22.3395 13.24ZM22.4264 16.2997C22.4264 17.0139 21.846 17.5929 21.13 17.5929C20.4141 17.5929 19.8337 17.0139 19.8337 16.2997C19.8337 15.5857 20.4141 15.007 21.13 15.007C21.846 15.007 22.4264 15.5857 22.4264 16.2997ZM17.1974 17.5925C18.0327 17.5925 18.7099 16.9171 18.7099 16.0841C18.7099 15.2509 18.0327 14.5755 17.1974 14.5755C16.3621 14.5755 15.6851 15.2509 15.6851 16.0841C15.6851 16.9171 16.3621 17.5925 17.1974 17.5925ZM14.3459 16.9036C14.3459 17.8558 13.572 18.6277 12.6174 18.6277C11.6629 18.6277 10.8891 17.8558 10.8891 16.9036C10.8891 15.9516 11.6629 15.1798 12.6174 15.1798C13.572 15.1798 14.3459 15.9516 14.3459 16.9036ZM7.60491 21.0845C8.72663 21.0845 9.63593 20.1775 9.63593 19.0588C9.63593 17.9398 8.72663 17.0331 7.60491 17.0331C6.48335 17.0331 5.57421 17.9398 5.57421 19.0588C5.57421 20.1775 6.48335 21.0845 7.60491 21.0845ZM4.83942 22.8078C4.83942 24.1408 3.75611 25.2214 2.41967 25.2214C1.08333 25.2214 0 24.1408 0 22.8078C0 21.475 1.08333 20.3944 2.41967 20.3944C3.75611 20.3944 4.83942 21.475 4.83942 22.8078ZM5.57437 16.0414C6.69593 16.0414 7.60523 15.1344 7.60523 14.0158C7.60523 12.8969 6.69593 11.9901 5.57437 11.9901C4.45268 11.9901 3.54351 12.8969 3.54351 14.0158C3.54351 15.1344 4.45268 16.0414 5.57437 16.0414ZM12.3142 11.8607C12.3142 12.8128 11.5403 13.5846 10.5858 13.5846C9.63125 13.5846 8.85748 12.8128 8.85748 11.8607C8.85748 10.9086 9.63125 10.1367 10.5858 10.1367C11.5403 10.1367 12.3142 10.9086 12.3142 11.8607ZM9.85159 9.01614C10.8063 9.01614 11.58 8.24431 11.58 7.2922C11.58 6.34009 10.8063 5.56826 9.85159 5.56826C8.89705 5.56826 8.12328 6.34009 8.12328 7.2922C8.12328 8.24431 8.89705 9.01614 9.85159 9.01614ZM15.9442 6.47336C15.9442 7.30641 15.2672 7.98181 14.4318 7.98181C13.5965 7.98181 12.9195 7.30641 12.9195 6.47336C12.9195 5.6403 13.5965 4.96486 14.4318 4.96486C15.2672 4.96486 15.9442 5.6403 15.9442 6.47336ZM18.3637 7.98197C19.0796 7.98197 19.66 7.40301 19.66 6.68901C19.66 5.97501 19.0796 5.39606 18.3637 5.39606C17.6479 5.39606 17.0675 5.97501 17.0675 6.68901C17.0675 7.40301 17.6479 7.98197 18.3637 7.98197ZM20.3947 11.2568C20.3947 11.971 19.8143 12.5498 19.0984 12.5498C18.3824 12.5498 17.802 11.971 17.802 11.2568C17.802 10.5428 18.3824 9.96388 19.0984 9.96388C19.8143 9.96388 20.3947 10.5428 20.3947 11.2568ZM15.1665 12.5934C16.0018 12.5934 16.6788 11.918 16.6788 11.085C16.6788 10.2519 16.0018 9.57651 15.1665 9.57651C14.3312 9.57651 13.6542 10.2519 13.6542 11.085C13.6542 11.918 14.3312 12.5934 15.1665 12.5934ZM11.6665 23.2819C11.6665 23.7103 11.3182 24.0576 10.8887 24.0576C10.4591 24.0576 10.1109 23.7103 10.1109 23.2819C10.1109 22.8534 10.4591 22.5062 10.8887 22.5062C11.3182 22.5062 11.6665 22.8534 11.6665 23.2819ZM14.0001 23.6698C14.5251 23.6698 14.9507 23.2454 14.9507 22.7217C14.9507 22.198 14.5251 21.7735 14.0001 21.7735C13.4751 21.7735 13.0494 22.198 13.0494 22.7217C13.0494 23.2454 13.4751 23.6698 14.0001 23.6698ZM18.4936 21.2998C18.4936 21.8949 18.0098 22.3773 17.4132 22.3773C16.8166 22.3773 16.333 21.8949 16.333 21.2998C16.333 20.7047 16.8166 20.2224 17.4132 20.2224C18.0098 20.2224 18.4936 20.7047 18.4936 21.2998ZM18.2341 25.8245C18.9501 25.8245 19.5305 25.2457 19.5305 24.5317C19.5305 23.8176 18.9501 23.2386 18.2341 23.2386C17.518 23.2386 16.9378 23.8176 16.9378 24.5317C16.9378 25.2457 17.518 25.8245 18.2341 25.8245ZM15.1667 25.5659C15.1667 26.1609 14.683 26.6434 14.0865 26.6434C13.4898 26.6434 13.0061 26.1609 13.0061 25.5659C13.0061 24.9708 13.4898 24.4884 14.0865 24.4884C14.683 24.4884 15.1667 24.9708 15.1667 25.5659ZM10.4133 26.6002C10.9383 26.6002 11.3639 26.1757 11.3639 25.652C11.3639 25.1283 10.9383 24.7038 10.4133 24.7038C9.88825 24.7038 9.4626 25.1283 9.4626 25.652C9.4626 26.1757 9.88825 26.6002 10.4133 26.6002ZM11.5363 28.4967C11.5363 29.092 11.0528 29.5742 10.4561 29.5742C9.8595 29.5742 9.37585 29.092 9.37585 28.4967C9.37585 27.9018 9.8595 27.4194 10.4561 27.4194C11.0528 27.4194 11.5363 27.9018 11.5363 28.4967ZM14.864 30.1347C15.5799 30.1347 16.1605 29.5558 16.1605 28.8416C16.1605 28.1276 15.5799 27.5486 14.864 27.5486C14.1482 27.5486 13.5678 28.1276 13.5678 28.8416C13.5678 29.5558 14.1482 30.1347 14.864 30.1347ZM21.5187 28.066C21.5187 28.8991 20.8414 29.5745 20.0062 29.5745C19.1711 29.5745 18.4939 28.8991 18.4939 28.066C18.4939 27.2328 19.1711 26.5576 20.0062 26.5576C20.8414 26.5576 21.5187 27.2328 21.5187 28.066ZM23.0307 33.3236C23.9852 33.3236 24.759 32.5518 24.759 31.5997C24.759 30.6474 23.9852 29.8756 23.0307 29.8756C22.076 29.8756 21.3022 30.6474 21.3022 31.5997C21.3022 32.5518 22.076 33.3236 23.0307 33.3236ZM18.1912 32.3328C18.1912 33.166 17.514 33.8414 16.6787 33.8414C15.8435 33.8414 15.1664 33.166 15.1664 32.3328C15.1664 31.4999 15.8435 30.8245 16.6787 30.8245C17.514 30.8245 18.1912 31.4999 18.1912 32.3328ZM13.092 36.7717C13.9274 36.7717 14.6044 36.0963 14.6044 35.2632C14.6044 34.43 13.9274 33.7548 13.092 33.7548C12.2569 33.7548 11.5797 34.43 11.5797 35.2632C11.5797 36.0963 12.2569 36.7717 13.092 36.7717ZM17.802 38.8407C17.802 39.7929 17.0281 40.5648 16.0736 40.5648C15.119 40.5648 14.3451 39.7929 14.3451 38.8407C14.3451 37.8887 15.119 37.1169 16.0736 37.1169C17.0281 37.1169 17.802 37.8887 17.802 38.8407ZM24.0246 41.2542C25.1464 41.2542 26.0557 40.3473 26.0557 39.2287C26.0557 38.1099 25.1464 37.203 24.0246 37.203C22.9031 37.203 21.9938 38.1099 21.9938 39.2287C21.9938 40.3473 22.9031 41.2542 24.0246 41.2542ZM21.3885 35.9097C21.3885 36.8618 20.6146 37.6336 19.66 37.6336C18.7055 37.6336 17.9317 36.8618 17.9317 35.9097C17.9317 34.9576 18.7055 34.1858 19.66 34.1858C20.6146 34.1858 21.3885 34.9576 21.3885 35.9097ZM27.3519 36.9445C28.4734 36.9445 29.3826 36.0378 29.3826 34.9188C29.3826 33.8003 28.4734 32.8933 27.3519 32.8933C26.2301 32.8933 25.3208 33.8003 25.3208 34.9188C25.3208 36.0378 26.2301 36.9445 27.3519 36.9445ZM12.5737 31.7725C12.5737 32.4867 11.9933 33.0655 11.2773 33.0655C10.5615 33.0655 9.98114 32.4867 9.98114 31.7725C9.98114 31.0585 10.5615 30.4796 11.2773 30.4796C11.9933 30.4796 12.5737 31.0585 12.5737 31.7725Z" fill="white"/>
</svg>
