<svg width="64" height="64" viewBox="0 0 64 64" fill="none" xmlns="http://www.w3.org/2000/svg">
<mask id="mask0_308_159" style="mask-type:luminance" maskUnits="userSpaceOnUse" x="4" y="0" width="56" height="64">
<path d="M59.8431 0H4V64H59.8431V0Z" fill="white"/>
</mask>
<g mask="url(#mask0_308_159)">
<path d="M32.1355 52.4593L44.0962 45.5538V24.911L26.2189 14.5896L14.0103 21.6383L32.1355 32.1029V52.4593Z" fill="url(#paint0_linear_308_159)"/>
<path fill-rule="evenodd" clip-rule="evenodd" d="M21.4615 13.8144L31.922 7.7751L38.5148 3.95394L32.5825 0.528926C32.1738 0.292929 31.6701 0.292929 31.2614 0.528926L5.05607 15.6586C4.64731 15.8946 4.39551 16.3307 4.39551 16.8027V47.0619C4.39551 47.534 4.64731 47.9701 5.05607 48.2061L31.2614 63.3356C31.6701 63.5715 32.1738 63.5715 32.5825 63.3356L58.7878 48.2061C59.1966 47.9701 59.4484 47.534 59.4484 47.0619V40.2005L52.8427 44.011L31.922 56.0896L11.0011 44.011V19.8537L21.4615 13.8144Z" fill="url(#paint1_linear_308_159)"/>
<path d="M47.5288 43.6091L59.4893 36.7037V16.7854C59.4893 16.3371 59.2501 15.9228 58.8618 15.6986L41.6121 5.7395L29.4033 12.7883L47.5288 23.253V43.6091Z" fill="url(#paint2_linear_308_159)"/>
</g>
<defs>
<linearGradient id="paint0_linear_308_159" x1="23.6712" y1="16.8606" x2="18.883" y2="50.2547" gradientUnits="userSpaceOnUse">
<stop stop-color="#624AFF"/>
<stop offset="0.98" stop-color="#DD09FF"/>
</linearGradient>
<linearGradient id="paint1_linear_308_159" x1="15.0021" y1="59.3778" x2="22.6355" y2="-3.37373" gradientUnits="userSpaceOnUse">
<stop stop-color="#EF41FF"/>
<stop offset="0.67" stop-color="#1F6BFF"/>
<stop offset="1" stop-color="#7DE0FF"/>
</linearGradient>
<linearGradient id="paint2_linear_308_159" x1="42.9272" y1="4.20592" x2="35.3682" y2="34.0832" gradientUnits="userSpaceOnUse">
<stop stop-color="#7DE0FF"/>
<stop offset="0.985" stop-color="#5707FF"/>
</linearGradient>
</defs>
</svg>
