<svg width="42" height="42" viewBox="0 0 42 42" fill="none" xmlns="http://www.w3.org/2000/svg">
<path d="M41.125 20.9792H21.1787C21.0062 20.9792 20.8403 21.0484 20.7175 21.1716L0.250056 41.7143C0.0703596 41.8947 -0.00950571 41.8575 0.0104606 41.6029C0.0463998 41.1341 0.0653679 40.604 0.0673645 40.0125C0.0993107 33.2102 0.0773478 26.8496 0.00147611 20.9311C-0.0404532 17.7743 0.813103 14.293 2.27763 11.455C4.59174 6.96943 8.07086 3.7145 12.715 1.6902C17.8184 -0.534526 23.7634 -0.567596 28.9236 1.61805C36.7704 4.9401 41.7571 12.3839 41.82 20.9491C41.8359 23.1739 41.8408 30.1166 41.8348 41.7772C41.8348 41.9257 41.7609 42 41.6131 42H21.1607C21.1375 41.9996 21.1148 41.9928 21.0956 41.9795C21.0764 41.9667 21.0615 41.9481 21.0529 41.9265C21.0442 41.9049 21.0421 41.881 21.0469 41.8583C21.0517 41.8355 21.0632 41.8147 21.0799 41.7984L41.3285 21.4722C41.6563 21.1435 41.5881 20.9792 41.125 20.9792Z" fill="#DCFF23"/>
</svg>
