<svg width="42" height="42" viewBox="0 0 42 42" fill="none" xmlns="http://www.w3.org/2000/svg">
<g clip-path="url(#clip0_264_80)">
<path d="M0 39.9843C0 39.6906 0.22377 39.1031 0.67131 38.2221C1.10484 37.355 1.58035 36.2433 2.09781 34.8865C2.62926 33.5301 3.13273 32.1176 3.60824 30.6491C4.08375 29.1807 4.56624 27.6073 5.05573 25.9289L6.69202 20.3908L4.5103 20.978C3.96487 20.978 3.51733 20.6913 3.16771 20.1181C3.0838 19.9642 3.04183 19.7825 3.04183 19.5726C3.04183 19.3627 3.20966 19.1182 3.5453 18.8383C3.88097 18.5447 4.29354 18.2719 4.78303 18.0203C5.76199 17.5167 6.76895 17.132 7.80387 16.8664L7.99267 16.2789C8.37029 15.1043 8.72692 13.8875 9.06256 12.6288C9.41219 11.3562 9.77582 10.1184 10.1534 8.91569C10.545 7.71296 10.9856 6.57314 11.475 5.49627C11.9645 4.40541 12.5379 3.45439 13.1952 2.64324C14.6497 0.881073 16.4749 0 18.6705 0C20.2928 0 21.5795 0.433555 22.5305 1.30064C23.4815 2.16773 23.9571 3.34252 23.9571 4.82496C23.9571 6.36336 23.5165 7.69898 22.6355 8.83179C21.8941 9.76882 21.0691 10.2373 20.16 10.2373C19.0272 10.2373 18.258 9.71986 17.8523 8.68494C17.7405 8.41922 17.6846 8.19545 17.6846 8.01363C17.6846 7.70596 17.8944 7.42625 18.314 7.17451C19.0832 6.58713 19.6215 5.80395 19.9293 4.82496C20.0272 4.51728 20.0762 4.21659 20.0762 3.9229C20.0762 2.7761 19.6285 2.20271 18.7335 2.20271C17.5028 2.20271 16.37 3.59426 15.335 6.37734C15.0273 7.23045 14.7197 8.16748 14.412 9.18842L12.44 15.8805C13.7127 15.6847 14.6357 15.5867 15.2092 15.5867C15.7965 15.5867 16.314 15.6568 16.7614 15.7966C17.2091 15.9224 17.6145 16.1042 17.9783 16.3419C18.8033 16.8875 19.216 17.5586 19.216 18.3559C19.216 19.1531 18.8244 19.5515 18.0411 19.5515L15.377 19.4468C13.9225 19.4468 12.5799 19.5096 11.3492 19.6356L9.62895 25.7191C8.49614 29.845 7.57312 32.8447 6.85986 34.7188C6.16058 36.5928 5.4753 38.1802 4.804 39.4809C4.17466 40.6695 3.21666 41.264 1.93 41.264C0.643341 41.264 0 40.8374 0 39.9843Z" fill="url(#paint0_linear_264_80)"/>
<path d="M22.3292 34.9076C21.7277 35.3412 21.2592 35.5578 20.9235 35.5578C20.6019 35.5578 20.3292 35.5089 20.1053 35.411C19.8957 35.3271 19.6998 35.2152 19.5181 35.0753C19.0985 34.7258 18.8887 34.411 18.8887 34.1313C18.8887 33.8376 19.0426 33.572 19.3501 33.3342C19.3501 33.3342 19.7767 32.9915 20.6298 32.3063C22.9235 30.4181 24.8185 28.3695 26.315 26.1596C25.0982 22.7472 24.5388 19.9082 24.6367 17.6426C24.6927 16.5237 25.1752 15.5588 26.0841 14.7476C26.9234 14.0203 27.8184 13.6567 28.7694 13.6567C29.0491 13.6567 29.2309 13.7546 29.3147 13.9504C29.3988 14.1462 29.4407 14.4329 29.4407 14.8105C29.4407 15.1741 29.4267 15.5656 29.3988 15.9854C29.3707 16.3909 29.3637 16.8244 29.3777 17.2859C29.4056 17.7335 29.4407 18.2229 29.4827 18.7544C29.6225 20.1809 29.7553 21.2928 29.8811 22.0899L30.5735 20.9361C32.1678 18.4049 34.0279 16.3979 36.1536 14.9154C37.3564 14.0763 38.3913 13.6567 39.2585 13.6567C40.0415 13.6567 40.6501 13.7686 41.0834 13.9924C41.8946 14.4119 42.1675 14.8385 41.9016 15.2721C41.8597 15.3419 41.7759 15.3979 41.6498 15.4399L41.1256 15.6917C38.9158 16.6565 36.0976 19.0202 32.6714 22.7821C31.9581 23.5654 31.3357 24.3136 30.8043 25.0269L31.5386 27.4812C32.4475 30.4181 33.5245 31.8868 34.769 31.8868C35.3146 31.8868 35.7622 31.8027 36.1117 31.635L36.8669 31.2993C37.0208 31.2293 37.1676 31.1944 37.3075 31.1944C37.6012 31.1944 37.7481 31.3413 37.7481 31.635C37.7481 32.8657 37.1187 33.9006 35.8599 34.7396C35.0208 35.2992 34.0698 35.5789 33.0071 35.5789C30.9511 35.5789 29.091 33.46 27.4267 29.2226C25.6646 31.8098 23.9654 33.7048 22.3292 34.9076Z" fill="url(#paint1_linear_264_80)"/>
</g>
<defs>
<linearGradient id="paint0_linear_264_80" x1="20.9999" y1="13.9266" x2="20.9999" y2="41.264" gradientUnits="userSpaceOnUse">
<stop stop-color="#E9FF90"/>
<stop offset="1" stop-color="#5B6D12"/>
</linearGradient>
<linearGradient id="paint1_linear_264_80" x1="20.9999" y1="13.9266" x2="20.9999" y2="41.2639" gradientUnits="userSpaceOnUse">
<stop stop-color="#E9FF90"/>
<stop offset="1" stop-color="#5B6D12"/>
</linearGradient>
<clipPath id="clip0_264_80">
<rect width="42" height="42" fill="white"/>
</clipPath>
</defs>
</svg>
