<svg width="293" height="390" viewBox="0 0 293 390" fill="none" xmlns="http://www.w3.org/2000/svg">
<line y1="4.5" x2="293" y2="4.5" stroke="black" stroke-width="3"/>
<line y1="10.5" x2="293" y2="10.5" stroke="black" stroke-width="3"/>
<line y1="16.5" x2="293" y2="16.5" stroke="black" stroke-width="3"/>
<line y1="22.5" x2="293" y2="22.5" stroke="black" stroke-width="3"/>
<line y1="28.5" x2="293" y2="28.5" stroke="black" stroke-width="3"/>
<line y1="34.5" x2="293" y2="34.5" stroke="black" stroke-width="3"/>
<line y1="40.5" x2="293" y2="40.5" stroke="black" stroke-width="3"/>
<line y1="46.5" x2="293" y2="46.5" stroke="black" stroke-width="3"/>
<line y1="52.5" x2="293" y2="52.5" stroke="black" stroke-width="3"/>
<line y1="58.5" x2="293" y2="58.5" stroke="black" stroke-width="3"/>
<line y1="64.5" x2="293" y2="64.5" stroke="black" stroke-width="3"/>
<line y1="70.5" x2="293" y2="70.5" stroke="black" stroke-width="3"/>
<line y1="76.5" x2="293" y2="76.5" stroke="black" stroke-width="3"/>
<line y1="82.5" x2="293" y2="82.5" stroke="black" stroke-width="3"/>
<line y1="88.5" x2="293" y2="88.5" stroke="black" stroke-width="3"/>
<line y1="94.5" x2="293" y2="94.5" stroke="black" stroke-width="3"/>
<line y1="100.5" x2="293" y2="100.5" stroke="black" stroke-width="3"/>
<line y1="106.5" x2="293" y2="106.5" stroke="black" stroke-width="3"/>
<line y1="112.5" x2="293" y2="112.5" stroke="black" stroke-width="3"/>
<line y1="118.5" x2="293" y2="118.5" stroke="black" stroke-width="3"/>
<line y1="124.5" x2="293" y2="124.5" stroke="black" stroke-width="3"/>
<line y1="130.5" x2="293" y2="130.5" stroke="black" stroke-width="3"/>
<line y1="136.5" x2="293" y2="136.5" stroke="black" stroke-width="3"/>
<line y1="142.5" x2="293" y2="142.5" stroke="black" stroke-width="3"/>
<line y1="148.5" x2="293" y2="148.5" stroke="black" stroke-width="3"/>
<line y1="154.5" x2="293" y2="154.5" stroke="black" stroke-width="3"/>
<line y1="160.5" x2="293" y2="160.5" stroke="black" stroke-width="3"/>
<line y1="166.5" x2="293" y2="166.5" stroke="black" stroke-width="3"/>
<line y1="172.5" x2="293" y2="172.5" stroke="black" stroke-width="3"/>
<line y1="178.5" x2="293" y2="178.5" stroke="black" stroke-width="3"/>
<line y1="184.5" x2="293" y2="184.5" stroke="black" stroke-width="3"/>
<line y1="190.5" x2="293" y2="190.5" stroke="black" stroke-width="3"/>
<line y1="196.5" x2="293" y2="196.5" stroke="black" stroke-width="3"/>
<line y1="202.5" x2="293" y2="202.5" stroke="black" stroke-width="3"/>
<line y1="208.5" x2="293" y2="208.5" stroke="black" stroke-width="3"/>
<line y1="214.5" x2="293" y2="214.5" stroke="black" stroke-width="3"/>
<line y1="220.5" x2="293" y2="220.5" stroke="black" stroke-width="3"/>
<line y1="226.5" x2="293" y2="226.5" stroke="black" stroke-width="3"/>
<line y1="232.5" x2="293" y2="232.5" stroke="black" stroke-width="3"/>
<line y1="238.5" x2="293" y2="238.5" stroke="black" stroke-width="3"/>
<line y1="244.5" x2="293" y2="244.5" stroke="black" stroke-width="3"/>
<line y1="250.5" x2="293" y2="250.5" stroke="black" stroke-width="3"/>
<line y1="256.5" x2="293" y2="256.5" stroke="black" stroke-width="3"/>
<line y1="262.5" x2="293" y2="262.5" stroke="black" stroke-width="3"/>
<line y1="268.5" x2="293" y2="268.5" stroke="black" stroke-width="3"/>
<line y1="274.5" x2="293" y2="274.5" stroke="black" stroke-width="3"/>
<line y1="280.5" x2="293" y2="280.5" stroke="black" stroke-width="3"/>
<line y1="286.5" x2="293" y2="286.5" stroke="black" stroke-width="3"/>
<line y1="292.5" x2="293" y2="292.5" stroke="black" stroke-width="3"/>
<line y1="298.5" x2="293" y2="298.5" stroke="black" stroke-width="3"/>
<line y1="304.5" x2="293" y2="304.5" stroke="black" stroke-width="3"/>
<line y1="310.5" x2="293" y2="310.5" stroke="black" stroke-width="3"/>
<line y1="316.5" x2="293" y2="316.5" stroke="black" stroke-width="3"/>
<line y1="322.5" x2="293" y2="322.5" stroke="black" stroke-width="3"/>
<line y1="328.5" x2="293" y2="328.5" stroke="black" stroke-width="3"/>
<line y1="334.5" x2="293" y2="334.5" stroke="black" stroke-width="3"/>
<line y1="340.5" x2="293" y2="340.5" stroke="black" stroke-width="3"/>
<line y1="346.5" x2="293" y2="346.5" stroke="black" stroke-width="3"/>
<line y1="352.5" x2="293" y2="352.5" stroke="black" stroke-width="3"/>
<line y1="358.5" x2="293" y2="358.5" stroke="black" stroke-width="3"/>
<line y1="364.5" x2="293" y2="364.5" stroke="black" stroke-width="3"/>
<line y1="370.5" x2="293" y2="370.5" stroke="black" stroke-width="3"/>
<line y1="376.5" x2="293" y2="376.5" stroke="black" stroke-width="3"/>
<line y1="382.5" x2="293" y2="382.5" stroke="black" stroke-width="3"/>
<line y1="388.5" x2="293" y2="388.5" stroke="black" stroke-width="3"/>
</svg>
