<svg width="42" height="43" viewBox="0 0 42 43" fill="none" xmlns="http://www.w3.org/2000/svg">
<path d="M10.4884 25.4462C13.2443 22.1476 12.0542 17.6693 11.1147 15.8425C14.1302 16.295 16.1787 18.5396 17.2742 21.744C18.3697 24.9484 17.879 29.2865 17.7733 30.7143C18.3152 29.9078 19.7034 28.7973 21.6997 27.4489C23.6959 26.1004 26.5251 25.479 27.0671 25.4129C27.6091 25.3468 29.0105 25.479 29.8169 26.3516C30.4431 27.0291 30.273 28.1599 30.0973 28.6852C30.1037 28.7064 30.0965 28.7215 30.0813 28.7312C30.0866 28.7164 30.092 28.7011 30.0973 28.6852C30.0696 28.5944 29.7905 28.3946 28.8085 28.056C27.5976 27.6385 26.9121 28.404 26.7208 28.8389C26.3902 29.587 25.6665 31.386 25.416 32.5968C25.1654 33.8078 24.1633 35.4328 23.6935 36.0939L21.3448 37.6075H19.7268C19.5876 37.6423 18.8499 37.597 17.0127 37.1378C17.7956 38.6514 19.4658 38.547 20.7706 38.8601C20.4784 40.8645 19.2222 41.6787 18.6307 41.8352C17.7086 42.044 15.426 42.1484 13.6722 40.8957C11.9185 39.6431 12.524 37.7641 13.0459 36.9812L11.2713 34.2671C9.86207 32.7013 7.73256 28.7449 10.4884 25.4462Z" fill="white"/>
<path d="M19.3284 27.2763L19.5748 25.5509L21.1633 26.0439L19.3284 27.2763Z" fill="white"/>
<path d="M29.4344 24.4554C28.3389 23.8639 27.2981 23.9716 26.9147 24.0994C27.1557 23.223 26.5404 22.6387 26.2026 22.4562C26.513 22.5474 27.2762 22.7793 27.8459 22.9765C28.558 23.223 29.3796 23.8529 29.4344 24.4554Z" fill="white"/>
<path d="M24.9153 24.3733L22.8338 25.1128C22.0761 24.8389 20.3196 24.2144 19.3556 23.9077C19.5308 22.6807 18.8809 20.8951 18.5339 20.1556L19.602 20.046C20.9258 20.3016 23.7978 21.021 24.6962 21.8536C25.5945 22.6862 25.2165 23.8803 24.9153 24.3733Z" fill="white"/>
<path d="M18.2871 18.1688L18.3818 18.1978C18.3491 18.1898 18.3175 18.1801 18.2871 18.1688L17.1109 17.8083C16.9127 17.3983 16.213 16.4471 14.9995 15.9224C15.0405 14.8974 15.4915 13.729 17.0904 13.811C18.2712 14.1061 19.236 14.4532 19.5708 14.5899C19.2154 14.4738 18.4023 14.4834 17.9923 15.4509C17.4998 16.6132 17.5374 17.8891 18.2871 18.1688Z" fill="white"/>
<path d="M19.0789 16.4143C18.8165 17.7591 19.5572 18.4916 19.9603 18.6898C21.1698 19.1954 23.7937 20.219 24.6136 20.2681C25.6386 20.3296 26.192 20.3092 26.766 18.9972C27.2252 17.9477 26.5474 17.0703 26.151 16.7628L21.4977 15.1639C20.8008 15.0205 19.3413 15.0696 19.0789 16.4143Z" fill="white"/>
<path d="M28.5904 21.539L26.4175 20.8215C26.7796 20.8489 27.6228 20.5879 28.0984 19.3251C28.574 18.0624 27.9549 17.3914 27.5859 17.2137L30.1278 18.0952C30.4968 18.4642 31.1281 19.4564 30.7018 20.4731C30.2754 21.4898 29.1165 21.6073 28.5904 21.539Z" fill="white"/>
<path d="M29.6973 16.4554L27.6064 15.7994C27.9412 15.8403 28.7461 15.619 29.2874 14.4054C29.8285 13.1919 29.1712 12.4512 28.7749 12.2325L31.1938 13.0525C31.631 13.3532 32.3827 14.2538 31.8907 15.4509C31.3987 16.648 30.2234 16.6193 29.6973 16.4554Z" fill="white"/>
<path d="M21.0878 11.6996C20.727 12.946 21.6344 13.7769 22.1332 14.0365C23.1582 14.426 25.3597 15.2214 25.9665 15.287C26.725 15.369 27.4425 15.0819 27.9754 13.8725C28.4018 12.905 27.6475 12.0481 27.217 11.7406L23.3222 10.4287C22.7277 10.333 21.4486 10.4533 21.0878 11.6996Z" fill="white"/>
<path d="M18.2588 12.704L20.6162 13.5035C20.2233 13.3702 19.5543 12.7614 20.0217 11.3921C20.4891 10.0227 21.4464 9.83755 21.8666 9.91613L19.3453 9.13719C18.7713 9.03471 17.5578 9.18229 17.2954 10.5926C17.033 12.0029 17.8283 12.5878 18.2588 12.704Z" fill="white"/>
<path d="M28.1356 10.5628C28.1257 10.5598 28.116 10.5567 28.1067 10.5534L28.1356 10.5628C28.5269 10.68 29.3531 10.5516 29.7513 9.13561C30.1596 7.68383 29.5858 7.07244 29.2479 6.94824L31.3469 7.61482C31.9756 7.87955 33.0771 8.73803 32.4531 10.0542C31.8291 11.3703 30.7181 11.3968 30.2406 11.2455L28.1356 10.5628Z" fill="white"/>
<path d="M20.8519 8.12535L23.1495 8.93375C22.8138 8.73997 22.2418 8.03178 22.6389 6.7497C23.036 5.46761 23.9579 5.26055 24.3692 5.31728L22.1141 4.56561C21.4854 4.48997 20.1655 4.6819 19.9159 6.05475C19.6663 7.42763 20.436 8.00717 20.8519 8.12535Z" fill="white"/>
<path d="M25.7451 5.79946C24.531 5.57254 23.8399 6.63149 23.646 7.18931C23.3284 8.16506 24.0432 9.00468 24.4403 9.30249C24.9745 9.53413 26.145 10.0031 26.5534 10.0258C27.064 10.0542 28.1561 10.0825 28.6666 8.72101C29.075 7.63179 28.3451 6.80168 27.9291 6.52276C27.7069 6.37621 26.9591 6.02637 25.7451 5.79946Z" fill="white"/>
<path d="M26.0426 4.65068C25.0215 4.12877 25.0593 2.99608 25.2058 2.49496C25.7618 1.09943 26.9029 1.00582 27.4041 1.13346L29.5314 1.8993C29.9711 2.25386 30.7086 3.22393 30.1413 4.26775C29.574 5.31157 28.6285 5.43071 28.2267 5.3598C27.9241 5.34088 27.0637 5.17259 26.0426 4.65068Z" fill="white"/>
</svg>
