<svg width="42" height="42" viewBox="0 0 42 42" fill="none" xmlns="http://www.w3.org/2000/svg">
<path d="M9.86233 7.12682L20.7778 1L31.6932 7.12682L27.6802 9.39026L20.7778 5.52683L13.8753 9.39026L9.86233 7.12682ZM31.6932 14.8537L27.6802 12.5902L20.7778 16.4537L13.8753 12.5902L9.86233 14.8537V19.3804L16.7647 23.2439V30.9708L20.7778 33.2341L24.7909 30.9708V23.2439L31.6932 19.3804V14.8537ZM31.6932 27.1073V22.5806L27.6802 24.8439V29.3708L31.6932 27.1073ZM34.5426 28.7073L27.6401 32.5708V37.0976L38.5556 30.9708V18.7171L34.5426 20.9806V28.7073ZM30.5294 10.9903L34.5426 13.2537V17.7806L38.5556 15.5171V10.9903L34.5426 8.72683L30.5294 10.9903ZM16.7647 34.2098V38.7366L20.7778 41L24.7909 38.7366V34.2098L20.7778 36.4731L16.7647 34.2098ZM9.86233 27.1073L13.8753 29.3708V24.8439L9.86233 22.5806V27.1073ZM16.7647 10.9903L20.7778 13.2537L24.7909 10.9903L20.7778 8.72683L16.7647 10.9903ZM7.01303 13.2537L11.0261 10.9903L7.01303 8.72683L3 10.9903V15.5171L7.01303 17.7806V13.2537ZM7.01303 20.9806L3 18.7171V30.9708L13.9154 37.0976V32.5708L7.01303 28.7073V20.9806Z" fill="#F0B90B"/>
</svg>
