<svg width="42" height="42" viewBox="0 0 42 42" fill="none" xmlns="http://www.w3.org/2000/svg">
<g clip-path="url(#clip0_459_188)">
<path d="M29.6011 26.8261V24.6446C30.9439 24.1841 31.9217 22.754 31.9217 21.0613C31.9217 19.3686 30.9439 17.9345 29.6011 17.478V15.2965C30.8656 14.8642 31.8087 13.5674 31.913 12H30.3746V12.6666C30.3746 13.1796 30.0618 13.6321 29.6011 13.8583V13.5472C29.6011 13.0908 29.2014 12.7191 28.7104 12.7191H28.6321C28.1412 12.7191 27.7413 13.0908 27.7413 13.5472V13.8583C27.2807 13.6321 26.9677 13.1837 26.9677 12.6666V12H25.4296C25.5339 13.5674 26.4767 14.8642 27.7413 15.2965V17.478C26.4029 17.9345 25.4209 19.3646 25.4209 21.0613C25.4209 22.758 26.3985 24.1881 27.7413 24.6446V26.8261C26.4767 27.2584 25.5339 28.5552 25.4296 30.1226H26.9677V29.456C26.9677 28.943 27.2807 28.4904 27.7413 28.2643V28.5754C27.7413 29.0319 28.1412 29.4036 28.6321 29.4036H28.7104C29.2014 29.4036 29.6011 29.0319 29.6011 28.5754V28.2643C30.0618 28.4904 30.3746 28.9389 30.3746 29.456V30.1226H31.913C31.8087 28.5552 30.8656 27.2584 29.6011 26.8261ZM26.9677 22.0147V20.1038C26.9677 19.5908 27.2807 19.1384 27.7413 18.9121V19.2232C27.7413 19.6797 28.1412 20.0513 28.6321 20.0513H28.7104C29.2014 20.0513 29.6011 19.6797 29.6011 19.2232V18.9121C30.0618 19.1384 30.3746 19.5868 30.3746 20.1038V22.0147C30.3746 22.5278 30.0618 22.9802 29.6011 23.2065V22.8954C29.6011 22.4389 29.2014 22.0672 28.7104 22.0672H28.6321C28.1412 22.0672 27.7413 22.4389 27.7413 22.8954V23.2065C27.2851 22.9802 26.9677 22.5318 26.9677 22.0147Z" fill="#E68441"/>
<path d="M39.0392 22.2208V19.8978C40.3819 19.4373 41.3597 18.0072 41.3597 16.3145C41.3597 14.6218 40.3819 13.1877 39.0392 12.7312V12H37.1837V12.7312C35.8409 13.1917 34.8633 14.6218 34.8633 16.3145C34.8633 18.0072 35.8409 19.4413 37.1837 19.8978V22.2208C35.8409 22.6813 34.8633 24.1114 34.8633 25.804C34.8633 27.4968 35.8409 28.9309 37.1837 29.3874V30.1185H39.0392V29.3874C40.3819 28.9268 41.3597 27.4968 41.3597 25.804C41.3597 24.1114 40.3819 22.6813 39.0392 22.2208ZM36.4058 17.2679V15.3571C36.4058 14.844 36.7188 14.3916 37.1794 14.1653V14.4764C37.1794 14.9329 37.5792 15.3046 38.0702 15.3046H38.1441C38.6351 15.3046 39.0348 14.9329 39.0348 14.4764V14.1653C39.4955 14.3916 39.8083 14.84 39.8083 15.3571V17.2679C39.8083 17.781 39.4955 18.2334 39.0348 18.4597V18.1486C39.0348 17.6921 38.6351 17.3204 38.1441 17.3204H38.0658C37.5749 17.3204 37.175 17.6921 37.175 18.1486V18.4597C36.7231 18.2334 36.4058 17.785 36.4058 17.2679ZM39.8127 26.7615C39.8127 27.2745 39.4999 27.727 39.0392 27.9532V27.4968C39.0392 27.0402 38.6394 26.6686 38.1485 26.6686H38.0746C37.5836 26.6686 37.1837 27.0402 37.1837 27.4968V27.9532C36.7231 27.727 36.4102 27.2786 36.4102 26.7615V24.8506C36.4102 24.3376 36.7231 23.8851 37.1837 23.6589V23.8245C37.1837 24.281 37.5836 24.6527 38.0746 24.6527H38.1528C38.6438 24.6527 39.0435 24.281 39.0435 23.8245V23.6589C39.5042 23.8851 39.8171 24.3335 39.8171 24.8506V26.7615H39.8127Z" fill="#E68441"/>
<path d="M18.968 19.211C18.9506 19.1181 18.9288 19.0293 18.8941 18.9445C18.9071 18.9243 21.7924 15.1874 19.1201 12.8766C16.452 10.5659 13.3362 13.5796 13.3188 13.5957C12.8235 13.4503 12.3237 13.3614 11.8283 13.321C11.8283 13.321 11.8283 13.321 11.824 13.321C10.8072 13.1635 9.38184 13.321 9.38184 13.321C8.89083 13.3614 8.39546 13.4503 7.9044 13.5917C7.88698 13.5755 4.77131 10.5618 2.10321 12.8726C-0.56491 15.1834 2.31612 18.9243 2.32917 18.9404C2.29876 19.0293 2.27268 19.1181 2.25529 19.207C1.9685 20.8068 0 21.2996 0 24.0871C0 26.9271 2.05539 29.1651 6.25312 29.1651H7.97393C7.98261 29.1732 8.64746 30.054 10.0206 30.1065C10.0206 30.1065 10.3378 30.1387 11.0679 30.1145C12.5236 30.1145 13.2319 29.1813 13.2363 29.1691H14.9571C19.1547 29.1691 21.2102 26.9312 21.2102 24.0912C21.2232 21.3078 19.2547 20.8109 18.968 19.211Z" fill="#E68441"/>
</g>
<defs>
<clipPath id="clip0_459_188">
<rect width="42" height="18.1622" fill="white" transform="translate(0 12)"/>
</clipPath>
</defs>
</svg>
