<svg width="42" height="42" viewBox="0 0 42 42" fill="none" xmlns="http://www.w3.org/2000/svg">
<g clip-path="url(#clip0_465_11)">
<path d="M0 2.9184V10.7211C1.73113 9.79008 3.44716 9.90331 5.15061 9.71208V2C3.28109 2 1.73113 2.0151 0 2.9184ZM15.0996 3.78145C13.4998 3.17315 11.8562 2.68698 10.183 2.3271V9.95111C11.8336 10.2556 13.4716 10.7487 15.0996 11.3174V3.78145Z" fill="white"/>
<path d="M10.183 17.57V9.94853C8.52647 9.621 6.83052 9.54129 5.15061 9.71201V17.4241C6.82601 17.2227 8.52205 17.2719 10.183 17.57ZM0 18.5262V26.3263C1.73113 25.3324 3.44716 25.3853 5.15061 25.1362V17.4241C3.38929 17.5725 1.73113 17.56 0 18.5262ZM10.183 17.57V25.194C11.8336 25.4406 13.4716 25.8784 15.0996 26.3892V18.8533C13.4741 18.3123 11.8336 17.8468 10.183 17.57ZM5.15061 25.1362V32.8482C6.81729 32.5887 8.51329 32.5785 10.183 32.8181V25.194C8.51766 24.9253 6.82165 24.9058 5.15061 25.1362ZM37.9364 21.8198C39.8487 20.1894 40.9281 17.5675 40.9281 14.8677C40.9281 10.6883 38.4119 8.97729 33.1783 8.44637V4.80043C32.0522 4.73796 30.9302 4.61702 29.8167 4.43811V8.07649C28.7533 7.9157 27.6958 7.71764 26.6463 7.48268V3.81913C25.4833 3.54725 24.3272 3.24689 23.179 2.91833V6.61711C22.0851 6.31331 20.9947 5.99709 19.908 5.66851V13.1189C18.3152 12.5201 16.7124 11.881 15.1021 11.3173V18.8533C16.7124 19.3892 18.3152 19.9981 19.908 20.5718V28.0197C18.3152 27.4787 16.7124 26.8975 15.1021 26.3892V33.9252C16.7124 34.4032 18.3152 34.9568 19.908 35.4726C21.0025 35.7242 22.092 35.9658 23.179 36.1872V39.886C24.3415 40.1124 25.4964 40.3137 26.6488 40.4773V36.8112C27.7106 36.9697 28.7649 37.0981 29.8192 37.1811V40.817C30.9439 40.895 32.0636 40.9227 33.1758 40.8824V37.2692C38.9831 36.9421 42 32.2595 42 27.5869C42 24.1398 40.4526 22.4665 37.9364 21.8198ZM26.6538 13.4812C27.7132 13.7001 28.7674 13.8838 29.8142 14.0272C30.3662 14.1032 30.9199 14.1661 31.4748 14.216L31.5403 14.226L31.7718 14.2587L31.7894 14.2613L32.0334 14.3065L32.0737 14.3166C32.1492 14.3317 32.2247 14.3468 32.2951 14.3669H32.3027C32.3832 14.3871 32.4612 14.4097 32.5342 14.4324C32.7545 14.4972 32.9685 14.5823 33.1733 14.6865C34.0539 15.1419 34.5018 15.9194 34.5018 17.0718C34.5018 18.2444 34.0539 19.0772 33.1733 19.4999C32.9739 19.5938 32.7646 19.6647 32.5492 19.7113C32.5442 19.7113 32.5392 19.7113 32.5342 19.7163C32.4587 19.7314 32.3832 19.7465 32.3027 19.7566H32.2951C32.2216 19.7673 32.1477 19.7757 32.0737 19.7817L32.0309 19.7868C31.9497 19.7935 31.8683 19.7977 31.7868 19.7994H31.7718C31.5854 19.8023 31.3991 19.7972 31.2132 19.7843C30.7452 19.7465 30.2797 19.6987 29.8116 19.6434C28.7649 19.5175 27.7106 19.3414 26.6538 19.1401V13.4762V13.4812ZM33.1707 31.3134C33.0298 31.3366 32.8879 31.3534 32.7455 31.3637L32.67 31.3687C32.6172 31.3714 32.5644 31.3731 32.5115 31.3738L32.441 31.3763H32.207C31.408 31.3587 30.6099 31.3126 29.8142 31.2379C28.7561 31.1371 27.702 30.9986 26.6538 30.8227V24.8745C27.7132 25.0657 28.7674 25.2217 29.8142 25.3349C30.687 25.431 31.5633 25.4923 32.441 25.5186L32.5115 25.5237L32.6725 25.5362L32.7455 25.5413L32.9015 25.5589L32.9644 25.5639L33.1733 25.5941C34.7735 25.8407 35.6089 26.661 35.6089 28.3292C35.6089 29.9823 34.771 31.0366 33.1707 31.3134Z" fill="white"/>
</g>
<defs>
<clipPath id="clip0_465_11">
<rect width="42" height="42" fill="white"/>
</clipPath>
</defs>
</svg>
