<svg width="42" height="42" viewBox="0 0 42 42" fill="none" xmlns="http://www.w3.org/2000/svg">
<g clip-path="url(#clip0_264_51)">
<path fill-rule="evenodd" clip-rule="evenodd" d="M2 0.0617648V6.45452C2 6.47391 2.00909 6.49216 2.02453 6.50382L18.9471 19.2726C18.9696 19.2896 19.0007 19.2892 19.0228 19.2717L24.1729 15.1819C24.2045 15.1568 24.204 15.1086 24.1718 15.0843L12.9555 6.5963C12.9083 6.56055 12.9336 6.48529 12.9928 6.48529H29.3188C29.3268 6.48529 29.3344 6.48672 29.3418 6.48976C31.2458 7.26645 34.2323 9.73269 31.0339 13.4286C31.031 13.4319 31.0276 13.4352 31.024 13.4378L2.02488 35.0329C2.00921 35.0446 2 35.063 2 35.0825V41.9382C2 41.9724 2.02768 42 2.06176 42H30.5614C30.5646 42 30.5676 41.9998 30.5707 41.9993C33.0002 41.6235 37.728 39.2832 38.9533 32.9528C39.2174 31.5888 39.1845 30.1742 38.8003 28.839C38.0175 26.1185 36.1014 22.4722 32.2488 20.9008C32.198 20.8801 32.1933 20.8082 32.243 20.7849C34.5974 19.6766 39.0256 15.9978 38.9044 9.57353C38.7809 3.0295 32.4764 0.46558 29.3352 0.000629176C29.3323 0.000228849 29.3294 0 29.3264 0H2.06176C2.02768 0 2 0.0276798 2 0.0617648ZM13.1176 35.2059H29.4853C30.5662 34.8971 32.45 33.7235 32.5735 31.5C32.6971 29.2765 28.8162 26.25 26.7059 25.0147L13.1176 35.2059Z" fill="#00FB8A"/>
</g>
<defs>
<clipPath id="clip0_264_51">
<rect width="42" height="42" fill="white"/>
</clipPath>
</defs>
</svg>
