<svg width="42" height="42" viewBox="0 0 42 42" fill="none" xmlns="http://www.w3.org/2000/svg">
<g clip-path="url(#clip0_264_238)">
<path fill-rule="evenodd" clip-rule="evenodd" d="M21 42C32.598 42 42 32.598 42 21C42 9.40202 32.598 0 21 0C9.40202 0 0 9.40202 0 21C0 31.8239 8.18883 40.7351 18.7092 41.8765C19.3584 41.958 20.0199 42 20.6912 42C20.739 42 20.7868 41.9998 20.8345 41.9994C20.8896 41.9998 20.9448 42 21 42ZM20.8345 41.9994C29.467 41.9224 36.4412 34.9007 36.4412 26.25C36.4412 17.5515 29.3897 10.5 20.6912 10.5C11.9927 10.5 4.94118 17.5515 4.94118 26.25C4.94118 34.2772 10.9463 40.9018 18.7092 41.8765C19.4079 41.9523 20.1169 41.9938 20.8345 41.9994Z" fill="white"/>
<path fill-rule="evenodd" clip-rule="evenodd" d="M21 42C26.799 42 31.5 37.299 31.5 31.5C31.5 25.701 26.799 21 21 21C15.201 21 10.5 25.701 10.5 31.5C10.5 37.1226 14.9194 41.713 20.474 41.9871C20.5968 41.9956 20.7207 42 20.8456 42C20.8669 42 20.8883 41.9999 20.9095 41.9996C20.9397 41.9999 20.9698 42 21 42ZM20.9095 41.9996C23.7796 41.9654 26.0956 39.6281 26.0956 36.75C26.0956 33.8505 23.7451 31.5 20.8456 31.5C17.9461 31.5 15.5956 33.8505 15.5956 36.75C15.5956 39.5246 17.7479 41.7965 20.474 41.9871C20.6185 41.9942 20.7636 41.9984 20.9095 41.9996Z" fill="white"/>
</g>
<defs>
<clipPath id="clip0_264_238">
<rect width="42" height="42" fill="white"/>
</clipPath>
</defs>
</svg>
