<svg width="293" height="390" viewBox="0 0 293 390" fill="none" xmlns="http://www.w3.org/2000/svg">
<g clip-path="url(#clip0_334_400)">
<rect width="293" height="390" fill="#0F0F0F"/>
<g filter="url(#filter0_f_334_400)">
<path d="M229.169 150.01C235.87 150.345 242.401 151.169 248.976 152.482L266.239 158.399C268.412 160.087 269.266 159.454 271.888 160.035C273.595 160.414 275.072 161.752 276.805 162.228C282.586 163.815 288.391 165.312 294.172 166.893C301.336 168.852 311.137 171.579 316.212 177.335C322.442 184.403 329.969 190.838 335.601 198.36C341.393 206.096 345.321 213.053 348.295 222.17C353.515 238.175 355.762 259.244 337.345 267.7C330.666 270.767 319.908 274.844 312.411 272.086C307.179 270.163 303.061 264.233 299.473 260.39C294.408 254.967 289.487 248.892 283.361 244.587C256.357 225.612 220.824 237.403 192.168 223.91C179.773 218.074 172.404 208.282 175.848 194.531C178.003 185.924 181.788 178.152 187.321 171.139C190.368 167.277 194.598 162.803 199.736 162.019C203.006 161.521 206.474 161.446 209.779 161.219C216.217 160.776 219.158 157.299 223.24 153.108L223.261 153.086C225.127 151.171 226.393 149.872 229.169 150.01Z" fill="#EB5E66"/>
</g>
<g filter="url(#filter1_f_334_400)">
<path d="M24.1769 335.005C27.168 335.154 30.0829 335.523 33.0177 336.11L40.7223 338.756C41.6924 339.51 42.0735 339.227 43.2438 339.487C44.0056 339.657 44.6647 340.255 45.4385 340.468C48.0184 341.177 50.6096 341.847 53.1897 342.554C56.3874 343.43 60.7617 344.649 63.0267 347.223C65.8075 350.383 69.1669 353.261 71.6807 356.625C74.2658 360.084 76.0191 363.195 77.3463 367.271C79.6764 374.428 80.6792 383.849 72.459 387.63C69.4781 389.002 64.6766 390.824 61.3301 389.591C58.9953 388.731 57.1572 386.08 55.5556 384.362C53.295 381.937 51.0989 379.22 48.3646 377.295C36.3118 368.81 20.4527 374.083 7.66267 368.049C2.13035 365.44 -1.1588 361.061 0.378338 354.912C1.34047 351.064 3.02985 347.588 5.49916 344.453C6.85913 342.726 8.74691 340.725 11.0402 340.374C12.4996 340.152 14.0479 340.118 15.5229 340.016C18.3964 339.818 19.7089 338.264 21.5309 336.39L21.5404 336.38C22.3731 335.524 22.9379 334.943 24.1769 335.005Z" fill="#EB5E66"/>
</g>
</g>
<defs>
<filter id="filter0_f_334_400" x="47" y="22" width="433" height="379" filterUnits="userSpaceOnUse" color-interpolation-filters="sRGB">
<feFlood flood-opacity="0" result="BackgroundImageFix"/>
<feBlend mode="normal" in="SourceGraphic" in2="BackgroundImageFix" result="shape"/>
<feGaussianBlur stdDeviation="64" result="effect1_foregroundBlur_334_400"/>
</filter>
<filter id="filter1_f_334_400" x="-128" y="207" width="335" height="311" filterUnits="userSpaceOnUse" color-interpolation-filters="sRGB">
<feFlood flood-opacity="0" result="BackgroundImageFix"/>
<feBlend mode="normal" in="SourceGraphic" in2="BackgroundImageFix" result="shape"/>
<feGaussianBlur stdDeviation="64" result="effect1_foregroundBlur_334_400"/>
</filter>
<clipPath id="clip0_334_400">
<rect width="293" height="390" fill="white"/>
</clipPath>
</defs>
</svg>
