<svg width="42" height="42" viewBox="0 0 42 42" fill="none" xmlns="http://www.w3.org/2000/svg">
<path d="M3 21.2843C3.04544 17.1244 3.62096 13.4138 5.38285 9.98344C7.59406 5.68219 11.0547 2.89041 15.7599 1.69898C19.3644 0.78522 22.9816 0.752405 26.5963 1.68889C29.951 2.55974 32.7428 4.34436 34.9843 6.95944C37.8265 10.2788 39.1366 14.2216 39.5531 18.5127C39.8282 21.3348 39.6919 24.1392 39.0003 26.8805C37.569 32.56 34.4769 36.9773 29.0019 39.4536C25.8693 40.8722 22.5525 41.1953 19.1448 40.9C17.3097 40.7409 15.5251 40.3699 13.8339 39.6656C9.90118 38.0274 6.94281 35.324 5.13548 31.4367C3.91124 28.8039 3.26251 26.0248 3.09087 23.1295C3.04796 22.3975 3.01767 21.663 3 21.2793V21.2843ZM21.351 24.1114C18.115 24.1114 14.8789 24.1215 11.6454 24.1013C11.1507 24.0988 10.9689 24.2099 11.027 24.7324C11.3299 27.5242 12.4885 29.854 14.6593 31.6689C17.6758 34.1906 21.1541 34.809 24.7536 33.5166C28.7671 32.0778 31.2005 29.1296 31.6472 24.7475C31.7003 24.225 31.569 24.0963 31.0591 24.1013C27.8231 24.1215 24.587 24.1114 21.3535 24.1114H21.351ZM11.2441 17.7959C11.499 17.811 11.6808 17.8312 11.865 17.8312C18.1856 17.8312 24.5063 17.8312 30.8269 17.8312C30.9329 17.8312 31.0616 17.8691 31.1348 17.8211C31.2484 17.7454 31.4049 17.6091 31.4024 17.5031C31.3873 17.0235 31.3746 16.5338 31.2686 16.0668C30.8572 14.2595 30.0721 12.6263 28.8201 11.2506C27.5126 9.81432 25.94 8.71881 24.0519 8.22911C20.3009 7.25729 16.9715 8.09785 14.2201 10.8568C12.3471 12.7348 11.3072 15.0142 11.2466 17.7933L11.2441 17.7959Z" fill="white"/>
</svg>
