<svg width="42" height="42" viewBox="0 0 42 42" fill="none" xmlns="http://www.w3.org/2000/svg">
<path d="M0.756475 22.2336V22.236C1.82624 26.4625 5.28786 29.7411 9.99435 30.6652C8.8816 29.5015 8.51865 27.6676 9.43559 26.0797C9.43559 26.0797 17.9834 11.3728 18.3193 10.9724C18.3248 10.9653 18.3304 10.9581 18.336 10.9509C20.5201 7.90321 24.6423 5.80268 29.3329 5.80268C30.2196 5.80268 31.0848 5.8759 31.919 6.0152L31.6277 5.67294C25.3189 -1.30602 13.5515 -0.467875 8.55367 8.18816L1.90186 19.7088C1.33514 20.6903 0.758067 22.2257 0.754883 22.2336H0.756475Z" fill="url(#paint0_linear_506_16)"/>
<path d="M34.0743 31.8887C34.0743 30.3716 33.779 28.9094 33.2338 27.538C32.8907 29.4029 31.4142 30.9478 29.445 30.9478H12.9464L12.453 30.9263H12.449C6.50875 30.8101 2.00283 27.1702 0.754774 22.2377V22.2361C-2.41632 31.2025 4.85793 40.7118 14.1101 40.7118H28.1874C29.0001 40.7118 30.4249 40.5128 30.4742 40.5073C32.7339 38.1122 34.0751 35.1274 34.0751 31.8894L34.0743 31.8887Z" fill="url(#paint1_linear_506_16)"/>
<path d="M40.1038 19.7224L33.4441 8.18736C32.9904 7.40175 31.9206 6.01838 31.919 6.01599C31.0841 5.8767 30.2189 5.80347 29.333 5.80347C24.6424 5.80347 20.5201 7.904 18.336 10.9517C18.3344 10.9533 18.3336 10.9557 18.332 10.9573C20.0608 9.33911 23.029 9.58904 24.3089 11.8058L32.5622 26.1012C32.5805 26.133 32.9784 26.9393 32.9784 26.9393L33.1098 27.2362C33.7354 28.6944 34.0753 30.2592 34.0753 31.8886C34.0753 35.1257 32.7341 38.1114 30.4736 40.5064C39.7528 38.8779 45.0627 28.3115 40.1038 19.7216V19.7224Z" fill="url(#paint2_linear_506_16)"/>
<defs>
<linearGradient id="paint0_linear_506_16" x1="7.33267" y1="29.2468" x2="23.606" y2="1.31985" gradientUnits="userSpaceOnUse">
<stop stop-color="#A02B23"/>
<stop offset="0.35" stop-color="#C0662F"/>
<stop offset="1" stop-color="#F4C844"/>
</linearGradient>
<linearGradient id="paint1_linear_506_16" x1="33.2314" y1="31.4883" x2="0.96411" y2="31.47" gradientUnits="userSpaceOnUse">
<stop stop-color="#A02B23"/>
<stop offset="0.35" stop-color="#C0662F"/>
<stop offset="1" stop-color="#F4C844"/>
</linearGradient>
<linearGradient id="paint2_linear_506_16" x1="22.6342" y1="8.18099" x2="38.5748" y2="35.811" gradientUnits="userSpaceOnUse">
<stop stop-color="#A02B23"/>
<stop offset="0.35" stop-color="#C0662F"/>
<stop offset="1" stop-color="#F4C844"/>
</linearGradient>
</defs>
</svg>
