<svg width="43" height="42" viewBox="0 0 43 42" fill="none" xmlns="http://www.w3.org/2000/svg">
<path d="M36.7529 35.6269L28.3293 27.4069H15.0274L6.60376 35.6269L10.5562 39.4838L18.9799 31.2638C19.702 30.5591 20.6542 30.1746 21.6784 30.1746C22.7026 30.1746 23.6546 30.5591 24.3768 31.2638L32.8005 39.4838L36.7529 35.6269Z" fill="white"/>
<path d="M29.7344 25.0362L41.2372 28.0411L42.6817 22.7682L31.1788 19.7633C30.194 19.5071 29.3733 18.8921 28.8611 18.0272C28.349 17.1685 28.2178 16.1627 28.4804 15.2017L31.5596 3.97689L26.1561 2.56738L23.0769 13.7922L29.7278 25.0299L29.7344 25.0362Z" fill="white"/>
<path d="M2.12607 28.0411L13.629 25.0362L13.6355 25.0299L20.2864 13.7922L17.2072 2.56738L11.8037 3.97689L14.883 15.2017C15.1456 16.1627 15.0143 17.1685 14.5022 18.0272C13.9901 18.8921 13.1694 19.5071 12.1845 19.7633L0.681641 22.7682L2.12607 28.0411Z" fill="white"/>
</svg>
