<svg width="42" height="42" viewBox="0 0 42 42" fill="none" xmlns="http://www.w3.org/2000/svg">
<path d="M25.0355 0.00598953C24.9844 -0.00303825 24.9321 -0.00185057 24.8815 0.00948441C24.8309 0.0208194 24.7831 0.0420769 24.7408 0.072025C24.6985 0.101973 24.6625 0.140017 24.635 0.183956C24.6075 0.227895 24.589 0.276855 24.5805 0.328002L21.973 15.3856H20.027L17.4195 0.328002C17.411 0.276855 17.3925 0.227895 17.365 0.183956C17.3375 0.140017 17.3015 0.101973 17.2592 0.072025C17.2169 0.0420769 17.169 0.0208194 17.1185 0.00948441C17.0679 -0.00185057 17.0155 -0.00303825 16.9645 0.00598953C7.707 1.82956 0.609 9.85888 0.0244999 19.6733C0.0244999 19.6873 0 20.1003 0 20.3068V20.9928C0 31.4022 7.2975 40.0651 16.975 41.9831C17.192 42.0181 17.395 41.8781 17.43 41.6576L20.041 26.6H21.987L24.577 41.6716C24.619 41.8921 24.822 42.0321 25.0355 41.9936C34.293 40.1561 41.377 32.1268 41.9755 22.3159C41.9755 22.3019 42 21.8854 42 21.6788V20.9928C42.014 10.5834 34.713 1.92056 25.0355 0.00598953Z" fill="#FF6C15"/>
</svg>
