<svg width="42" height="42" viewBox="0 0 42 42" fill="none" xmlns="http://www.w3.org/2000/svg">
<g clip-path="url(#clip0_342_718)">
<path d="M22.669 9.92868L24.7724 15.0099C25.3072 16.3033 27.0353 16.5513 27.9099 15.4565L35.5696 5.89982C31.7912 2.243 26.6422 -0.00707015 20.9656 1.66913e-05C9.6231 0.010647 0.256573 9.18102 0.0051456 20.527C-0.0763024 24.2477 0.812544 27.7557 2.43088 30.8135L19.528 9.4822C20.4062 8.38729 22.1307 8.63533 22.669 9.92868Z" fill="black"/>
<path d="M18.8624 32.4115L18.0125 28.0708C17.7858 26.9191 16.5571 26.2707 15.4806 26.7314L3.12524 32.0217C6.82228 38.0101 13.4408 42 20.9907 42C31.1752 42 39.6671 34.7394 41.5758 25.1085L21.398 33.7544C20.3179 34.2115 19.0891 33.563 18.8624 32.4115Z" fill="black"/>
</g>
<defs>
<clipPath id="clip0_342_718">
<rect width="42" height="42" fill="white"/>
</clipPath>
</defs>
</svg>
