<svg width="64" height="64" viewBox="0 0 64 64" fill="none" xmlns="http://www.w3.org/2000/svg">
<path d="M32.1635 64C45.4072 64 56.1548 56.026 56.1548 42.5742C56.1548 30.0238 46.794 21.2178 32.1635 21.2178V30.5092C25.4376 30.5092 20.4452 27.5276 20.4452 21.4258C20.4452 15.3239 24.7442 11.7183 32.5102 11.7183C38.8894 11.7183 42.703 14.3532 43.6738 17.8201H55.4614C54.56 8.11267 45.4072 0.208008 32.2328 0.208008C18.2956 0.208008 8.38015 8.94474 8.38015 21.7031C8.38015 34.4615 18.7117 42.1582 32.1635 42.1582V33.3521C39.3054 33.3521 44.2285 36.5417 44.2285 42.8516C44.2285 49.0921 39.236 52.6284 32.2328 52.6284C25.9229 52.6284 21.5546 49.8548 20.2371 46.0412H7.96411C9.69759 56.0953 18.9197 64 32.1635 64Z" fill="white"/>
</svg>
