<svg width="42" height="42" viewBox="0 0 42 42" fill="none" xmlns="http://www.w3.org/2000/svg">
<path fill-rule="evenodd" clip-rule="evenodd" d="M33.5596 8.44043H25.1865V16.8135H33.5596V8.44043ZM33.5595 16.8137H8.4401V25.1867H33.5595V16.8137ZM25.1864 25.1868H33.5595V33.5598H25.1864V25.1868ZM8.4401 8.44043H18.8228V16.8135H8.4401V8.44043ZM16.8131 25.1868H18.8228V33.5598H8.4401V25.1868H16.8131ZM25.1863 8.44043H23.0932V16.8135H25.1863V8.44043ZM23.0931 25.1868H25.1863V33.5598H23.0931V25.1868Z" fill="black"/>
<path d="M-9.01735e-05 37.7799V42H41.9995V37.7799H-9.01735e-05Z" fill="black"/>
<path d="M4.21997 25.1866H-6.85455e-05V41.9997H4.21997V25.1866ZM4.21997 0.00012207H-6.85455e-05V16.8133H4.21997V0.00012207Z" fill="black"/>
<path d="M-9.01735e-05 0.00012207V4.22018H41.9995V0.00012207H-9.01735e-05Z" fill="black"/>
<path d="M41.9998 0H37.7797V41.9996H41.9998V0Z" fill="black"/>
</svg>
