<svg width="64" height="64" viewBox="0 0 64 64" fill="none" xmlns="http://www.w3.org/2000/svg">
<rect width="64" height="64" fill="#0F0F0F"/>
<g clip-path="url(#clip0_333_326)">
<path d="M32.303 14.23L16.7162 23.228V41.228L32.303 50.2259L47.8897 41.228V23.228L32.303 14.23ZM44.638 39.3478L32.307 46.4697L19.976 39.3478V25.1081L32.307 17.9863L44.638 25.1081V39.3478Z" fill="#FF9300"/>
<path d="M23.069 26.8988V37.5612L32.2908 42.8273L32.3152 41.0367L24.6968 36.6211V27.8389L32.303 23.4477L39.6324 27.5865L41.13 26.6627L32.303 21.5676L23.069 26.8988Z" fill="#FF9300"/>
<path d="M33.5239 42.8558L41.6631 38.3792V28.0749L33.5239 32.5515V42.8558Z" fill="#FF9300"/>
</g>
<defs>
<clipPath id="clip0_333_326">
<rect width="31.1775" height="36" fill="white" transform="translate(16.7162 14.23)"/>
</clipPath>
</defs>
</svg>
