<svg width="64" height="64" viewBox="0 0 64 64" fill="none" xmlns="http://www.w3.org/2000/svg">
<rect width="64" height="64" fill="url(#paint0_linear_333_184)"/>
<g clip-path="url(#clip0_333_184)">
<path d="M32.0006 17.4766C32.7083 17.4743 33.4024 17.6702 34.0045 18.0421C34.6066 18.4139 35.0926 18.9468 35.4075 19.5806L46.1218 41.0091C46.4125 41.5899 46.5499 42.2354 46.5209 42.8843C46.492 43.5332 46.2975 44.1638 45.9561 44.7164C45.6148 45.2689 45.1378 45.725 44.5705 46.0413C44.0032 46.3576 43.3644 46.5235 42.7149 46.5234H21.2863C20.6369 46.5234 19.9983 46.3572 19.4312 46.0409C18.864 45.7245 18.3872 45.2684 18.046 44.7159C17.7047 44.1634 17.5104 43.5328 17.4814 42.884C17.4525 42.2352 17.5899 41.5899 17.8806 41.0091L28.5938 19.5806C28.9087 18.9468 29.3946 18.4139 29.9967 18.0421C30.5988 17.6702 31.293 17.4743 32.0006 17.4766ZM32.0006 14.8571C30.807 14.857 29.6368 15.1893 28.6213 15.8166C27.6058 16.444 26.785 17.3417 26.2509 18.4091L15.5366 39.8377C15.0462 40.8179 14.8145 41.9071 14.8636 43.002C14.9126 44.0969 15.2408 45.1611 15.8169 46.0935C16.393 47.0259 17.198 47.7954 18.1552 48.3292C19.1125 48.8629 20.1903 49.143 21.2863 49.1429H42.7149C43.8108 49.1428 44.8885 48.8625 45.8456 48.3287C46.8027 47.7949 47.6075 47.0253 48.1835 46.093C48.7595 45.1607 49.0875 44.0966 49.1366 43.0018C49.1856 41.9069 48.9539 40.8178 48.4635 39.8377L37.7503 18.4091C37.2162 17.3417 36.3954 16.444 35.3799 15.8166C34.3644 15.1893 33.1943 14.857 32.0006 14.8571Z" fill="white"/>
</g>
<defs>
<linearGradient id="paint0_linear_333_184" x1="32" y1="0" x2="32" y2="64" gradientUnits="userSpaceOnUse">
<stop stop-color="#A7F349"/>
<stop offset="0.54" stop-color="#5EEB5C"/>
</linearGradient>
<clipPath id="clip0_333_184">
<rect width="36" height="36" fill="white" transform="translate(14 14)"/>
</clipPath>
</defs>
</svg>
