<svg width="64" height="64" viewBox="0 0 64 64" fill="none" xmlns="http://www.w3.org/2000/svg">
<rect width="64" height="64" fill="#A0FDA0"/>
<g clip-path="url(#clip0_452_6)">
<path d="M22.0832 46.1736C18.2864 46.1736 15.9752 43.0952 16.9216 39.2976L20.5608 24.7024C21.5072 20.9056 25.3536 17.8264 29.1512 17.8264H48.992C46.2088 14.2256 41.7376 12 36.2304 12C25.1848 12 14.1576 20.9536 11.6 32C9.04319 43.0464 15.9232 52 26.9696 52C32.4768 52 37.9784 49.7744 42.4288 46.1736H22.0832Z" fill="black"/>
<path d="M31.9832 23.4456C31.0336 23.4456 30.072 24.2152 29.836 25.1648L28.832 29.1904H44.284L42.8832 34.8096H27.4312L26.4272 38.8352C26.1904 39.7848 26.768 40.5544 27.7176 40.5544H47.7024C49.532 37.9608 50.892 35.0608 51.6008 32C52.3096 28.9392 52.292 26.0392 51.6632 23.4456H31.9832Z" fill="black"/>
</g>
<defs>
<clipPath id="clip0_452_6">
<rect width="41.2" height="40" fill="white" transform="translate(11 12)"/>
</clipPath>
</defs>
</svg>
