<svg width="64" height="64" viewBox="0 0 64 64" fill="none" xmlns="http://www.w3.org/2000/svg">
<rect width="64" height="64" fill="#111112"/>
<path d="M35.3384 36.3669C28.326 38.4081 22.5251 41.3853 18.894 44.8737L18.7336 45.0285C19.6992 45.9141 20.758 46.7061 21.9025 47.3793L22.1485 47.0877C23.1402 45.9141 24.2027 44.7801 25.3099 43.7109C28.2812 40.8417 31.6812 38.3577 35.3422 36.3633L35.3384 36.3669Z" fill="url(#paint0_radial_333_295)"/>
<path d="M35.3384 36.3669C28.326 38.4081 22.5251 41.3853 18.894 44.8737L18.7336 45.0285C19.6992 45.9141 20.758 46.7061 21.9025 47.3793L22.1485 47.0877C23.1402 45.9141 24.2027 44.7801 25.3099 43.7109C28.2812 40.8417 31.6812 38.3577 35.3422 36.3633L35.3384 36.3669Z" fill="#F5F5F5"/>
<path d="M12.9999 33.3428C13.2795 36.9824 14.6738 40.3196 16.8621 43.034L16.9628 42.9368C19.2108 40.7876 22.1374 38.8328 25.6678 37.13C28.7621 35.636 32.3149 34.3544 36.1437 33.3428H12.9999Z" fill="url(#paint1_radial_333_295)"/>
<path d="M12.9999 33.3428C13.2795 36.9824 14.6738 40.3196 16.8621 43.034L16.9628 42.9368C19.2108 40.7876 22.1374 38.8328 25.6678 37.13C28.7621 35.636 32.3149 34.3544 36.1437 33.3428H12.9999Z" fill="#F5F5F5"/>
<path d="M27.2709 18.3848C33.5452 24.4436 41.4412 28.4504 50.1015 29.9696C49.0576 20.9876 41.1691 14 31.5843 14C29.0529 14 26.6408 14.4896 24.4376 15.3716C25.3323 16.4156 26.2867 17.4308 27.2709 18.3848Z" fill="url(#paint2_radial_333_295)"/>
<path d="M27.2709 18.3848C33.5452 24.4436 41.4412 28.4504 50.1015 29.9696C49.0576 20.9876 41.1691 14 31.5843 14C29.0529 14 26.6408 14.4896 24.4376 15.3716C25.3323 16.4156 26.2867 17.4308 27.2709 18.3848Z" fill="#F5F5F5"/>
<path d="M18.894 19.1264C22.5251 22.6184 28.326 25.592 35.3384 27.6368C31.6774 25.6388 28.2775 23.1584 25.3062 20.2892C24.2027 19.2236 23.1402 18.0896 22.1448 16.9124L21.8988 16.6208C20.7543 17.294 19.6955 18.086 18.7336 18.9716L18.894 19.1264Z" fill="url(#paint3_radial_333_295)"/>
<path d="M18.894 19.1264C22.5251 22.6184 28.326 25.592 35.3384 27.6368C31.6774 25.6388 28.2775 23.1584 25.3062 20.2892C24.2027 19.2236 23.1402 18.0896 22.1448 16.9124L21.8988 16.6208C20.7543 17.294 19.6955 18.086 18.7336 18.9716L18.894 19.1264Z" fill="#F5F5F5"/>
<path d="M27.2709 45.6152C26.2829 46.5692 25.3286 47.5844 24.4376 48.6284C26.6371 49.5104 29.0529 50 31.5843 50C41.1691 50 49.0577 43.0124 50.1053 34.0268C41.4449 35.546 33.5489 39.5528 27.2746 45.6116L27.2709 45.6152Z" fill="url(#paint4_radial_333_295)"/>
<path d="M27.2709 45.6152C26.2829 46.5692 25.3286 47.5844 24.4376 48.6284C26.6371 49.5104 29.0529 50 31.5843 50C41.1691 50 49.0577 43.0124 50.1053 34.0268C41.4449 35.546 33.5489 39.5528 27.2746 45.6116L27.2709 45.6152Z" fill="#F5F5F5"/>
<path d="M25.6678 26.87C22.1373 25.1672 19.2108 23.2124 16.9628 21.0632L16.8621 20.966C14.6738 23.6804 13.2795 27.0176 12.9999 30.6572H36.1399C32.3112 29.6456 28.7621 28.364 25.6641 26.8664L25.6678 26.87Z" fill="url(#paint5_radial_333_295)"/>
<path d="M25.6678 26.87C22.1373 25.1672 19.2108 23.2124 16.9628 21.0632L16.8621 20.966C14.6738 23.6804 13.2795 27.0176 12.9999 30.6572H36.1399C32.3112 29.6456 28.7621 28.364 25.6641 26.8664L25.6678 26.87Z" fill="#F5F5F5"/>
<defs>
<radialGradient id="paint0_radial_333_295" cx="0" cy="0" r="1" gradientUnits="userSpaceOnUse" gradientTransform="translate(31.5526 32) rotate(90) scale(18 18.5527)">
<stop stop-color="#1C294B"/>
<stop offset="0.317213" stop-color="#FF4433"/>
<stop offset="0.597213" stop-color="#FE9A4C"/>
<stop offset="1" stop-color="#E0E0E0"/>
</radialGradient>
<radialGradient id="paint1_radial_333_295" cx="0" cy="0" r="1" gradientUnits="userSpaceOnUse" gradientTransform="translate(31.5526 32) rotate(90) scale(18 18.5527)">
<stop stop-color="#1C294B"/>
<stop offset="0.317213" stop-color="#FF4433"/>
<stop offset="0.597213" stop-color="#FE9A4C"/>
<stop offset="1" stop-color="#E0E0E0"/>
</radialGradient>
<radialGradient id="paint2_radial_333_295" cx="0" cy="0" r="1" gradientUnits="userSpaceOnUse" gradientTransform="translate(31.5526 32) rotate(90) scale(18 18.5527)">
<stop stop-color="#1C294B"/>
<stop offset="0.317213" stop-color="#FF4433"/>
<stop offset="0.597213" stop-color="#FE9A4C"/>
<stop offset="1" stop-color="#E0E0E0"/>
</radialGradient>
<radialGradient id="paint3_radial_333_295" cx="0" cy="0" r="1" gradientUnits="userSpaceOnUse" gradientTransform="translate(31.5526 32) rotate(90) scale(18 18.5527)">
<stop stop-color="#1C294B"/>
<stop offset="0.317213" stop-color="#FF4433"/>
<stop offset="0.597213" stop-color="#FE9A4C"/>
<stop offset="1" stop-color="#E0E0E0"/>
</radialGradient>
<radialGradient id="paint4_radial_333_295" cx="0" cy="0" r="1" gradientUnits="userSpaceOnUse" gradientTransform="translate(31.5526 32) rotate(90) scale(18 18.5527)">
<stop stop-color="#1C294B"/>
<stop offset="0.317213" stop-color="#FF4433"/>
<stop offset="0.597213" stop-color="#FE9A4C"/>
<stop offset="1" stop-color="#E0E0E0"/>
</radialGradient>
<radialGradient id="paint5_radial_333_295" cx="0" cy="0" r="1" gradientUnits="userSpaceOnUse" gradientTransform="translate(31.5526 32) rotate(90) scale(18 18.5527)">
<stop stop-color="#1C294B"/>
<stop offset="0.317213" stop-color="#FF4433"/>
<stop offset="0.597213" stop-color="#FE9A4C"/>
<stop offset="1" stop-color="#E0E0E0"/>
</radialGradient>
</defs>
</svg>
