<svg width="64" height="64" viewBox="0 0 64 64" fill="none" xmlns="http://www.w3.org/2000/svg">
<rect width="64" height="64" fill="black"/>
<path d="M32.1246 52C40.4019 52 47.1192 47.0162 47.1192 38.6089C47.1192 30.7649 41.2687 25.2611 32.1246 25.2611V31.0682C27.9209 31.0682 24.8006 29.2048 24.8006 25.3911C24.8006 21.5775 27.4875 19.3239 32.3413 19.3239C36.3283 19.3239 38.7118 20.9707 39.3185 23.1376H46.6858C46.1224 17.0704 40.4019 12.13 32.1679 12.13C23.4572 12.13 17.26 17.5905 17.26 25.5645C17.26 33.5385 23.7172 38.3489 32.1246 38.3489V32.8451C36.5883 32.8451 39.6652 34.8386 39.6652 38.7822C39.6652 42.6825 36.545 44.8927 32.1679 44.8927C28.2243 44.8927 25.494 43.1593 24.6706 40.7757H17C18.0834 47.0596 23.8472 52 32.1246 52Z" fill="white"/>
</svg>
