<svg width="64" height="64" viewBox="0 0 64 64" fill="none" xmlns="http://www.w3.org/2000/svg">
<rect width="64" height="64" fill="white"/>
<path fill-rule="evenodd" clip-rule="evenodd" d="M13.9192 12.7293L23.5573 14.915C23.6759 14.9371 23.7577 15.0409 23.7577 15.1594V49.0328C23.7577 49.1515 23.6693 49.2623 23.5507 49.2847L13.9113 51.2709C13.749 51.3078 13.6 51.1812 13.6 51.019V12.9812C13.6 12.8182 13.7556 12.6922 13.9192 12.7293ZM49.6822 12.7293L40.0428 14.915C39.9241 14.9371 39.8423 15.0409 39.8423 15.1594V49.0328C39.8423 49.1515 39.932 49.2623 40.0507 49.2847L49.6887 51.2709C49.8523 51.3078 50 51.1812 50 51.019V12.9812C50 12.8182 49.8444 12.6922 49.6822 12.7293ZM36.8789 27.0213V36.7344V36.9566H36.6573H26.944H26.7212V36.7344V27.0213V26.7989H26.944H36.6573H36.8789V27.0213Z" fill="url(#paint0_linear_506_83)"/>
<path fill-rule="evenodd" clip-rule="evenodd" d="M22.7251 15.785L14.6327 13.9501V50.0681L22.7251 48.4011V15.785ZM40.8749 15.785V48.4011L48.9673 50.0681V13.9501L40.8749 15.785ZM23.5573 14.915C23.6759 14.9371 23.7577 15.0409 23.7577 15.1594V49.0328C23.7577 49.1515 23.6693 49.2623 23.5507 49.2847L13.9113 51.2709C13.749 51.3078 13.6 51.1812 13.6 51.019V12.9812C13.6 12.8182 13.7556 12.6922 13.9192 12.7293L23.5573 14.915ZM49.6887 51.2709L40.0507 49.2847C39.932 49.2623 39.8423 49.1515 39.8423 49.0328V15.1594C39.8423 15.0409 39.9241 14.9371 40.0428 14.915L49.6822 12.7293C49.8444 12.6922 50 12.8182 50 12.9812V51.019C50 51.1812 49.8523 51.3078 49.6887 51.2709ZM35.8462 35.924V27.8317H27.7538V35.924H35.8462ZM26.7212 36.9566V26.7989H36.8789V36.9566H26.7212Z" fill="black"/>
<defs>
<linearGradient id="paint0_linear_506_83" x1="43.8489" y1="12.7228" x2="43.5047" y2="51.2775" gradientUnits="userSpaceOnUse">
<stop offset="0.055"/>
<stop offset="0.4999" stop-color="#808080"/>
<stop offset="0.5"/>
<stop offset="0.97" stop-color="#666666"/>
</linearGradient>
</defs>
</svg>
