<svg width="64" height="64" viewBox="0 0 64 64" fill="none" xmlns="http://www.w3.org/2000/svg">
<rect width="64" height="64" fill="#191045"/>
<path fill-rule="evenodd" clip-rule="evenodd" d="M41.3548 21.351C38.4217 21.351 35.7559 22.545 33.8345 24.4665L23.4755 34.8265H27.2749L30.754 31.3463L35.7379 26.3624C36.4766 25.6236 37.3538 25.0376 38.3193 24.638C39.2847 24.2384 40.3194 24.0331 41.3643 24.0338C45.7511 24.0338 49.3257 27.6073 49.3257 31.9952C49.3257 36.3831 45.7522 39.9577 41.3643 39.9577C38.2224 39.9577 35.5141 38.1317 34.2162 35.4829L32.2333 37.4658C34.0943 40.5621 37.478 42.649 41.3548 42.649C47.2314 42.649 52 37.8804 52 32.0048C52 26.1281 47.2399 21.351 41.3548 21.351ZM30.1645 39.5251C29.1776 40.5136 28.0053 41.2976 26.7148 41.8322C25.4243 42.3668 24.041 42.6415 22.6442 42.6405C16.7686 42.6405 12 37.8719 12 31.9952C12 26.1196 16.7686 21.351 22.6442 21.351C26.521 21.351 29.9047 23.4283 31.7741 26.5257L29.7923 28.5087C28.4944 25.8598 25.7861 24.0338 22.6452 24.0338C18.2574 24.0338 14.6743 27.6073 14.6743 31.9952C14.6743 36.3831 18.2478 39.9577 22.6357 39.9577C24.8339 39.9577 26.8158 39.0659 28.2611 37.6291L33.2449 32.6452L36.724 29.1661H40.5245L30.1655 39.5251H30.1645Z" fill="url(#paint0_linear_264_531)"/>
<defs>
<linearGradient id="paint0_linear_264_531" x1="12" y1="32.1925" x2="55.3333" y2="37.5415" gradientUnits="userSpaceOnUse">
<stop stop-color="#00E8C2"/>
<stop offset="1" stop-color="#6A2AFF"/>
</linearGradient>
</defs>
</svg>
