<svg width="64" height="64" viewBox="0 0 64 64" fill="none" xmlns="http://www.w3.org/2000/svg">
<rect width="64" height="64" fill="#F7931A"/>
<path fill-rule="evenodd" clip-rule="evenodd" d="M13.8785 43.5005H19.8974V49.3024H13.8785V43.5005ZM13.8785 30.4232H19.8974V36.2252H13.8785V30.4232ZM13.8785 17.4121H19.8974V23.2141H13.8785V17.4121ZM27.3932 17.528H33.4121V23.33H27.3932V17.528ZM40.8563 17.528H46.8753V23.33H40.8563V17.528ZM26.1911 31.3088V33.3532H26.1482H25.4355H24.3193V26.558C24.3193 26.558 22.5849 26.3262 19.7686 26.3428C16.9524 26.3593 15.6129 26.202 13.5866 27.4435C11.5603 28.6851 11.5431 29.9762 11.5431 32.8897C11.5431 35.8031 11.5431 36.25 11.5431 36.6391C11.5431 37.028 11.7406 37.566 12.4704 37.566H15.6044C15.2867 37.9302 13.9644 39.4365 13.2603 40.3056C12.4532 41.2988 11.5173 43.2853 11.5173 45.3379C11.5173 47.3823 11.5259 48.9879 11.6461 49.435C11.7663 49.857 11.9896 50.7592 12.6335 51.2227C13.7927 52.0504 18.4979 51.7855 19.8889 51.4876C23.2375 50.7758 24.534 49.2446 24.491 45.8097C24.4567 43.2357 24.491 39.9415 24.3022 39.5691C24.1047 39.1966 23.6925 39.3539 21.8894 39.3539C20.0863 39.3539 17.0898 39.3539 17.0898 39.3539L17.0297 37.5744H20.653C21.5031 37.5744 23.3663 37.1771 24.5683 36.0266C25.4269 35.1988 25.8734 34.7437 26.0623 34.5616L26.2083 34.5201V36.7633C26.2083 36.7633 26.1739 37.6322 27.2386 37.6322C28.3033 37.6322 32.6136 37.6901 33.6782 37.6654C34.7429 37.6322 35.447 37.5744 36.194 36.9536C36.9323 36.3329 37.7911 35.621 37.834 34.9836C37.8855 34.3464 37.834 27.8573 37.834 27.2366C37.834 26.6158 37.7052 26.4008 36.5116 26.4008C35.3182 26.4008 33.6267 26.4586 32.5534 26.4586C31.4715 26.4586 31.257 26.5662 31.0251 26.1772C30.7933 25.7965 30.4499 24.6295 30.4499 24.6295H35.49L36.9667 23.3466C36.9667 23.3466 37.8855 22.6182 37.8855 21.9809C37.8855 21.3436 37.9971 15.0119 37.9971 14.2338C37.9971 13.4558 38.0315 13.0834 37.5764 12.653C37.13 12.2226 35.8334 12.3385 34.2622 12.3385C32.6822 12.3385 31.9095 12.3385 30.8448 12.3385C29.7801 12.3385 28.9903 12.8516 28.4922 13.3317C27.9943 13.8117 26.1568 15.5581 26.1568 19.6717H24.3193V12.6861C24.3193 12.6861 22.5849 12.4543 19.7686 12.4709C16.9524 12.4874 15.6902 12.5702 13.6982 13.9773C11.7148 15.3843 11.5431 17.619 11.5431 19.8869C11.5431 22.8086 11.5431 23.2473 11.5431 23.6363C11.5431 24.0253 11.7406 24.5632 12.4704 24.5632C13.1916 24.5632 19.7944 24.5632 20.653 24.5632C21.5031 24.5632 23.3663 24.166 24.5683 23.0155C25.7704 21.8568 26.1654 21.4429 26.1654 21.4429V23.6363V24.315C26.1654 24.315 26.1654 24.646 26.4058 24.6295H29.2993C29.2993 24.6295 27.4619 26.5827 27.0497 27.5097C26.6118 28.4201 26.2169 28.8423 26.1911 31.3088ZM39.3623 30.4066C39.3623 30.4066 39.3967 34.007 39.4567 35.5879C39.5168 37.1688 40.0063 37.5413 40.3583 37.5413H42.8568C42.8568 37.5413 39.2163 40.5043 39.3452 44.0799C39.3452 44.0799 39.3794 47.3077 39.5082 49.0459C39.6371 50.784 39.2507 51.3137 40.4098 51.4048C41.569 51.4958 45.3039 51.8683 48.1717 51.0323C51.0395 50.1964 52.0957 48.3341 52.3617 46.778C52.6194 45.2304 52.4476 40.5126 52.3961 39.8918C52.379 39.6517 52.2758 39.5111 52.1386 39.4365C51.9239 39.3124 51.5976 39.3372 51.2971 39.3372C50.8162 39.3372 47.8197 39.3703 46.2398 39.3703C44.66 39.3703 45.0464 39.3372 45.0464 38.8075C45.0464 38.2778 45.0464 37.5495 45.0464 37.5495H46.9868C47.7595 37.5495 50.0779 37.3592 50.945 36.3742C51.8123 35.381 52.4906 34.1725 52.4906 32.4923C52.4906 30.8122 52.3446 28.1967 52.3446 27.4187C52.3446 26.6407 52.1643 26.4834 51.632 26.4752C51.0995 26.4586 47.8283 26.4918 46.4287 26.4918C45.0291 26.4918 45.0291 26.5083 45.0291 26.2103C45.0291 25.9124 45.0291 24.704 45.0291 24.704C47.7853 24.704 49.4683 24.704 50.5416 23.8928C51.7006 23.0238 52.4391 20.8553 52.4734 19.5475C52.5077 18.2481 52.4047 14.2338 52.3102 13.7124C52.1987 13.0751 51.4345 12.6033 50.4127 12.4378C50.4127 12.4378 48.6439 12.2226 46.609 12.2226C44.5827 12.2226 42.2301 12.8102 40.9422 13.8697C39.6542 14.9291 39.3967 16.7914 39.3967 19.3323C39.3967 21.8733 39.4567 23.8597 39.783 24.2984C40.032 24.6377 40.7533 24.6957 42.5393 24.704C42.5564 24.704 39.3108 27.7001 39.3623 30.4066ZM27.3932 30.4232H33.4121V36.2252H27.3932V30.4232ZM40.7446 30.4232H46.7635V36.2252H40.7446V30.4232ZM40.7446 43.5749H46.7635V49.377H40.7446V43.5749Z" fill="white"/>
<path fill-rule="evenodd" clip-rule="evenodd" d="M46.875 19.3653V23.3381H41.2682L42.5475 24.0251L41.689 24.6873C41.9465 24.6955 42.2385 24.6955 42.5561 24.6955C42.5475 24.7038 39.3019 27.7001 39.3535 30.4064C39.3535 30.4064 39.3878 34.0069 39.4479 35.5878C39.5081 37.1687 39.9975 37.5411 40.3494 37.5411H40.5985L40.7359 37.2928C40.7359 37.2928 40.693 36.8624 40.8304 36.2168H40.7359V30.4231H46.7549V30.9361C49.8114 29.3139 51.4943 27.2944 52.0524 26.5496C51.9494 26.4999 51.812 26.475 51.6317 26.4668C51.0994 26.4502 47.828 26.4832 46.4286 26.4832C45.029 26.4832 45.029 26.4999 45.029 26.2018C45.029 25.904 45.029 24.6955 45.029 24.6955C47.785 24.6955 49.468 24.6955 50.5413 23.8844C51.7005 23.0154 52.4388 20.8468 52.4732 19.5391C52.4903 18.819 52.4646 17.263 52.4302 15.9387L46.875 19.3653Z" fill="white"/>
<path fill-rule="evenodd" clip-rule="evenodd" d="M37.8163 34.9587C37.8592 34.3795 37.8248 28.9995 37.8163 27.5346C37.3182 27.4684 35.8156 27.4022 34.6995 28.9913C34.2701 29.6037 33.7463 30.059 33.1625 30.4232H33.4201V36.2251H27.4012V34.2304C26.7057 35.3891 26.3108 36.6389 26.2163 36.9287C26.2249 36.97 26.2421 37.0198 26.2593 37.0611C26.3193 37.1273 26.4052 37.2432 26.4997 37.3838C26.6542 37.508 26.886 37.599 27.2295 37.599C28.2941 37.599 32.6044 37.657 33.6692 37.6321C34.7337 37.599 35.4378 37.5411 36.1848 36.9203C36.9147 36.3079 37.7648 35.5961 37.8163 34.9587Z" fill="white"/>
<path fill-rule="evenodd" clip-rule="evenodd" d="M24.482 45.8014C24.4563 43.6826 24.4734 41.0919 24.3704 40.0242C21.3738 40.4712 20.5753 42.0024 19.897 43.9889V49.3024H15.7585V51.769C17.3727 51.7937 19.1157 51.6449 19.8712 51.4792C23.2199 50.7674 24.5164 49.2362 24.482 45.8014Z" fill="white"/>
<path fill-rule="evenodd" clip-rule="evenodd" d="M22.0784 37.3345C22.9027 37.1111 23.8386 36.6889 24.5512 36.0102C25.4099 35.1826 25.8563 34.7273 26.0452 34.5452L26.1912 34.5038V36.7468C26.1912 36.7468 26.1912 36.8297 26.217 36.9372C26.3028 36.6475 26.6978 35.3976 27.4019 34.2389V30.4317H33.1717C33.7557 30.0592 34.2794 29.6039 34.7087 28.9998C35.825 27.4107 37.3361 27.4686 37.8255 27.543C37.8255 27.394 37.8255 27.2783 37.8255 27.2203C37.8255 26.5995 37.6966 26.3843 36.5032 26.3843C35.3098 26.3843 33.6183 26.4423 32.545 26.4423C31.8238 26.4423 31.4888 26.4919 31.2742 26.4008L31.4975 27.1292L27.7282 27.9321L28.561 25.4324C28.0028 26.0781 27.2902 26.9554 27.0498 27.4935C26.6291 28.4287 26.2427 28.8508 26.2084 31.309V33.3534H26.1654H25.4528H24.3366V32.7575L24.0704 33.2457V35.1411L22.0784 37.3345Z" fill="white"/>
<path fill-rule="evenodd" clip-rule="evenodd" d="M50.6616 12.4792L45.2865 16.3362L46.875 17.528L46.9008 17.5446L46.875 17.5611V19.3572L52.4475 15.9306C52.4131 14.8546 52.3702 13.9276 52.3273 13.6959C52.2243 13.1248 51.5717 12.6778 50.6616 12.4792Z" fill="white"/>
<path fill-rule="evenodd" clip-rule="evenodd" d="M46.8749 17.528L45.2864 16.3361L50.6613 12.4792C50.5841 12.4626 50.5068 12.4461 50.4296 12.4378C50.4296 12.4378 48.6608 12.2226 46.6259 12.2226C44.5996 12.2226 42.247 12.8102 40.9589 13.8697C39.6711 14.9291 39.4136 16.7914 39.4136 19.3323C39.4136 21.8733 39.4736 23.8597 39.7999 24.2984C40.0059 24.5715 40.5211 24.6626 41.6889 24.6874L42.5474 24.0253L41.2681 23.3383H40.8559V23.1148L40.813 23.09L40.8559 23.0652V17.528H46.8749Z" fill="white"/>
<path fill-rule="evenodd" clip-rule="evenodd" d="M30.999 26.1523C30.7672 25.7716 30.4236 24.6046 30.4236 24.6046H35.4637L36.9406 23.3217C36.9406 23.3217 37.8592 22.5934 37.8592 21.956C37.8592 21.5836 37.9022 19.2578 37.928 17.2383L36.7517 17.2879L33.4117 19.3985V23.33H27.3927V23.1976L27.2296 23.3051L26.1993 21.4429L26.1477 21.5587V23.6197V24.2984C26.1477 24.2984 26.1477 24.6294 26.3881 24.6129H29.2817C29.2817 24.6129 28.9554 24.9605 28.5432 25.4322L27.7105 27.9319L31.4798 27.1291L31.2565 26.4006C31.1535 26.3593 31.0762 26.2848 30.999 26.1523Z" fill="white"/>
<path fill-rule="evenodd" clip-rule="evenodd" d="M24.3106 32.7571V26.5494C24.3106 26.5494 24.1904 26.533 23.9586 26.5081L23.4864 30.0091L19.8888 33.5351V36.225H13.8699V35.9271L13.7582 35.9685L13.6981 37.1438L13.4921 37.5576H15.0204L15.9219 37.0858L13.9901 39.9081L16.0164 40.9344L16.8836 37.0858L19.2963 37.5576H20.6272C20.9792 37.5576 21.4944 37.4914 22.0696 37.3341L24.0359 35.1325V33.2371L24.3106 32.7571Z" fill="white"/>
<path fill-rule="evenodd" clip-rule="evenodd" d="M13.8785 17.4121H19.8974V23.2142H13.8785V17.4121ZM20.6359 24.555C21.4859 24.555 23.3491 24.1577 24.5512 23.0072C25.7532 21.8485 26.1482 21.4347 26.1482 21.4347V21.5671L26.1997 21.4512L27.23 23.3135L27.3932 23.2059V17.5363H33.4121V19.4068L36.7522 17.2963L37.9285 17.2466C37.9541 15.8147 37.9714 14.5401 37.9714 14.2173C37.9714 13.4393 38.0056 13.0668 37.5507 12.6365C37.1041 12.206 35.8077 12.3219 34.2363 12.3219C32.6566 12.3219 31.8837 12.3219 30.8191 12.3219C29.7544 12.3219 28.9644 12.8351 28.4665 13.3151C27.9684 13.7952 26.131 15.5416 26.131 19.6551H24.2936V12.6695C24.2936 12.6695 22.5591 12.4378 19.7429 12.4544C16.9266 12.4709 15.6645 12.5537 13.6725 13.9607C11.6891 15.3678 11.5173 17.6025 11.5173 19.8703C11.5173 22.792 11.5173 23.2307 11.5173 23.6197C11.5173 24.0087 11.7148 24.5467 12.4446 24.5467C13.183 24.555 19.7858 24.555 20.6359 24.555Z" fill="white"/>
<path fill-rule="evenodd" clip-rule="evenodd" d="M19.7508 26.3346C16.9345 26.3512 15.5951 26.194 13.5687 27.4355C11.5424 28.6769 11.5252 29.9681 11.5252 32.8816C11.5252 35.7949 11.5252 36.242 11.5252 36.6309C11.5252 37.02 11.7227 37.5579 12.4525 37.5579H13.5L13.7061 37.1441L13.7662 35.9688L13.8778 35.9273V30.4234H19.8967V33.5355L23.4943 30.0095L23.9666 26.5085C23.3226 26.4423 21.8286 26.3181 19.7508 26.3346Z" fill="white"/>
<path fill-rule="evenodd" clip-rule="evenodd" d="M21.8721 39.3458C20.069 39.3458 17.0724 39.3458 17.0724 39.3458L17.0123 37.5662H19.3048L16.8921 37.0944L16.0249 40.9432L13.9986 39.9168L15.9305 37.0944L15.0289 37.5662H15.587C15.2693 37.9304 13.9471 39.4367 13.243 40.3058C12.4359 41.299 11.5 43.2855 11.5 45.3381C11.5 47.3825 11.5086 48.9881 11.6288 49.4351C11.749 49.8572 11.9722 50.7593 12.6162 51.2229C13.14 51.6036 14.4107 51.7526 15.7587 51.7774V49.311H13.8698V43.5007H19.8887V43.989C20.567 42.0026 21.3655 40.4714 24.3621 40.0244C24.3363 39.7927 24.3106 39.6354 24.2762 39.5693C24.0959 39.1884 23.6752 39.3458 21.8721 39.3458Z" fill="white"/>
</svg>
