<svg width="64" height="64" viewBox="0 0 64 64" fill="none" xmlns="http://www.w3.org/2000/svg">
<rect width="64" height="64" fill="#F7931A"/>
<g clip-path="url(#clip0_765_148)">
<path d="M20.013 36.51C23.1556 32.7401 21.7986 27.6221 20.7272 25.5343C24.1659 26.0514 26.5019 28.6167 27.7511 32.2788C29.0004 35.941 28.4408 40.8988 28.3203 42.5306C28.9383 41.6089 30.5213 40.3398 32.7977 38.7987C35.0741 37.2575 38.3004 36.5474 38.9185 36.4719C39.5366 36.3963 41.1346 36.5474 42.0543 37.5446C42.7683 38.3189 42.5744 39.6113 42.374 40.2116C42.3813 40.2358 42.3731 40.2532 42.3558 40.2642C42.3618 40.2473 42.3679 40.2298 42.374 40.2116C42.3424 40.1079 42.0241 39.8795 40.9043 39.4926C39.5235 39.0154 38.7418 39.8902 38.5236 40.3873C38.1466 41.2423 37.3213 43.2982 37.0356 44.6821C36.7499 46.066 35.6071 47.9231 35.0714 48.6787L32.3931 50.4086H30.5479C30.3892 50.4483 29.548 50.3966 27.4529 49.8717C28.3457 51.6016 30.2503 51.4823 31.7383 51.8401C31.405 54.1308 29.9725 55.0613 29.298 55.2402C28.2465 55.4788 25.6435 55.5982 23.6437 54.1665C21.6438 52.7349 22.3342 50.5875 22.9294 49.6928L20.9058 46.5909C19.2987 44.8014 16.8703 40.2799 20.013 36.51Z" fill="white"/>
<path d="M30.0936 38.6016L30.3746 36.6296L32.1861 37.193L30.0936 38.6016Z" fill="white"/>
<path d="M41.6179 35.3776C40.3687 34.7015 39.1819 34.8246 38.7446 34.9707C39.0195 33.9691 38.3178 33.3013 37.9326 33.0927C38.2866 33.197 39.1569 33.462 39.8066 33.6874C40.6186 33.9691 41.5555 34.689 41.6179 35.3776Z" fill="white"/>
<path d="M36.4648 35.2838L34.0912 36.1289C33.2271 35.8158 31.2241 35.1022 30.1248 34.7516C30.3246 33.3494 29.5834 31.3086 29.1878 30.4635L30.4058 30.3383C31.9154 30.6304 35.1905 31.4526 36.2149 32.4041C37.2393 33.3556 36.8083 34.7203 36.4648 35.2838Z" fill="white"/>
<path d="M28.9062 28.1929L29.0142 28.226C28.9769 28.2169 28.9408 28.2058 28.9062 28.1929L27.5649 27.7809C27.3389 27.3123 26.541 26.2253 25.1572 25.6256C25.2039 24.4542 25.7182 23.1188 27.5415 23.2126C28.888 23.5499 29.9882 23.9466 30.37 24.1028C29.9648 23.9701 29.0376 23.981 28.57 25.0868C28.0084 26.4151 28.0513 27.8733 28.9062 28.1929Z" fill="white"/>
<path d="M29.809 26.1878C29.5099 27.7247 30.3545 28.5618 30.8142 28.7883C32.1934 29.3662 35.1856 30.536 36.1206 30.5922C37.2894 30.6625 37.9206 30.6391 38.575 29.1397C39.0987 27.9402 38.3258 26.9375 37.8738 26.5861L32.5674 24.7588C31.7727 24.5948 30.1083 24.651 29.809 26.1878Z" fill="white"/>
<path d="M40.6555 32.0447L38.1776 31.2247C38.5906 31.2559 39.5521 30.9576 40.0944 29.5145C40.6368 28.0714 39.9309 27.3045 39.51 27.1015L42.4087 28.1088C42.8294 28.5305 43.5494 29.6645 43.0632 30.8264C42.577 31.9884 41.2555 32.1227 40.6555 32.0447Z" fill="white"/>
<path d="M41.9179 26.2347L39.5335 25.485C39.9153 25.5318 40.8332 25.2788 41.4503 23.8919C42.0674 22.505 41.3178 21.6585 40.8659 21.4086L43.6243 22.3457C44.1229 22.6893 44.9801 23.7186 44.4191 25.0867C43.858 26.4549 42.5178 26.4221 41.9179 26.2347Z" fill="white"/>
<path d="M32.0999 20.7996C31.6885 22.224 32.7233 23.1736 33.2921 23.4703C34.4609 23.9154 36.9715 24.8244 37.6634 24.8994C38.5283 24.9931 39.3465 24.665 39.9543 23.2829C40.4405 22.1771 39.5803 21.1978 39.0894 20.8464L34.6479 19.3471C33.97 19.2377 32.5114 19.3751 32.0999 20.7996Z" fill="white"/>
<path d="M28.874 21.9474L31.5623 22.8611C31.1142 22.7088 30.3514 22.013 30.8844 20.4481C31.4174 18.8831 32.509 18.6715 32.9882 18.7613L30.113 17.871C29.4585 17.7539 28.0746 17.9226 27.7754 19.5344C27.4761 21.1462 28.3831 21.8147 28.874 21.9474Z" fill="white"/>
<path d="M40.1371 19.5003C40.1258 19.4969 40.1147 19.4933 40.1041 19.4896L40.1371 19.5003C40.5833 19.6343 41.5254 19.4875 41.9796 17.8692C42.4452 16.2101 41.7908 15.5113 41.4055 15.3694L43.7991 16.1312C44.516 16.4337 45.7721 17.4149 45.0606 18.919C44.3489 20.4231 43.0821 20.4534 42.5375 20.2805L40.1371 19.5003Z" fill="white"/>
<path d="M31.8311 16.7146L34.4511 17.6385C34.0683 17.4171 33.4161 16.6077 33.8688 15.1425C34.3217 13.6772 35.373 13.4406 35.842 13.5054L33.2705 12.6464C32.5535 12.5599 31.0484 12.7793 30.7637 14.3482C30.4791 15.9172 31.3567 16.5796 31.8311 16.7146Z" fill="white"/>
<path d="M37.4108 14.0565C36.0264 13.7972 35.2383 15.0074 35.0172 15.6449C34.655 16.7601 35.4701 17.7196 35.9229 18.06C36.5321 18.3247 37.8669 18.8607 38.3326 18.8866C38.9149 18.919 40.1602 18.9514 40.7424 17.3954C41.2081 16.1506 40.3758 15.2019 39.9014 14.8831C39.648 14.7156 38.7952 14.3158 37.4108 14.0565Z" fill="white"/>
<path d="M37.7504 12.7437C36.5859 12.1472 36.629 10.8527 36.7961 10.28C37.4301 8.68508 38.7315 8.5781 39.303 8.72397L41.7289 9.59922C42.2302 10.0044 43.0712 11.1131 42.4243 12.306C41.7774 13.499 40.6992 13.6351 40.241 13.5541C39.896 13.5325 38.9148 13.3401 37.7504 12.7437Z" fill="white"/>
</g>
<defs>
<clipPath id="clip0_765_148">
<rect width="28" height="48" fill="white" transform="translate(18 8)"/>
</clipPath>
</defs>
</svg>
