<svg width="64" height="64" viewBox="0 0 64 64" fill="none" xmlns="http://www.w3.org/2000/svg">
<rect width="64" height="64" fill="#FFE3BD"/>
<path d="M51.2 32C51.2 42.6039 42.6039 51.2 32 51.2C21.3961 51.2 12.8 42.6039 12.8 32C12.8 21.3961 21.3961 12.8 32 12.8C42.6039 12.8 51.2 21.3961 51.2 32Z" fill="#FFB852"/>
<path fill-rule="evenodd" clip-rule="evenodd" d="M52 32C52 43.0457 43.0457 52 32 52C20.9543 52 12 43.0457 12 32C12 20.9543 20.9543 12 32 12C43.0457 12 52 20.9543 52 32ZM32 51.2C42.6039 51.2 51.2 42.6039 51.2 32C51.2 21.3962 42.6039 12.8 32 12.8C21.3961 12.8 12.8 21.3962 12.8 32C12.8 42.6039 21.3961 51.2 32 51.2Z" fill="black"/>
<path d="M25.171 37.5576C25.1734 37.6854 25.1753 37.7601 24.9988 37.7621L22.7122 37.785L22.7379 39.8588L26.7234 39.8157L26.7608 42.8295L28.7423 42.8059L28.7049 39.7922L29.9366 39.7792L29.9729 42.7888L31.8578 42.7685L31.8246 39.7536L33.2422 39.7406C34.1862 39.7278 37.5565 38.8888 37.5116 35.7619C37.5381 34.9157 37.2776 34.0855 36.7724 33.4061C36.2673 32.7268 35.5472 32.2383 34.7291 32.0201C34.7291 32.0201 36.6342 30.8434 36.4269 28.8703C36.2197 26.8971 34.667 26.3611 33.7736 26.0774C33.0796 25.8872 32.366 25.7771 31.6469 25.7494L31.609 22.5985L29.798 22.6305L29.8398 25.7626L28.3838 25.7812L28.3553 22.6324L26.5236 22.6698L26.5603 25.8165L22.721 25.8622L22.7379 27.717L24.8429 27.6921C25.0548 27.6896 25.056 27.7956 25.0568 27.8662L25.171 37.5576ZM28.3998 27.6496L30.6379 27.6252C31.0221 27.6219 32.893 27.9195 32.9017 29.5065C32.9162 29.9415 32.7745 30.3673 32.502 30.7068C32.2295 31.0462 31.8445 31.2767 31.4166 31.3566C31.2453 31.4011 31.0699 31.4278 30.893 31.4362L28.4254 31.4632L28.3998 27.6496ZM28.4957 33.4369L31.9935 33.4055C32.2467 33.4072 32.4969 33.4606 32.7287 33.5623C32.9606 33.664 33.1693 33.8119 33.3421 33.997C33.5149 34.182 33.6481 34.4004 33.7337 34.6387C33.8193 34.877 33.8554 35.1302 33.8398 35.3829C33.8562 36.6447 32.7606 37.2108 32.1849 37.3616C32.1006 37.3865 32.0135 37.4004 31.9257 37.403L28.5505 37.4465L28.4957 33.4369Z" fill="#FFE3BD"/>
<path fill-rule="evenodd" clip-rule="evenodd" d="M24.3639 36.9684L21.9023 36.993L21.9477 40.6674L25.9334 40.6243L25.9707 43.6389L29.5521 43.5963L29.552 43.5934L32.6665 43.5598L32.6333 40.5463L33.2495 40.5406H33.253C33.8644 40.5322 35.0883 40.2806 36.1744 39.5957C37.2939 38.8898 38.3323 37.672 38.3118 35.7686C38.3395 34.7483 38.0236 33.7481 37.4144 32.9287C37.0767 32.4748 36.6601 32.091 36.1879 31.7936C36.2155 31.7622 36.243 31.73 36.2704 31.697C36.8003 31.0608 37.3567 30.0648 37.2225 28.7867C37.0948 27.5706 36.536 26.7528 35.854 26.213C35.2026 25.6974 34.4638 25.4572 34.0158 25.3149L34.0005 25.31L33.985 25.3058C33.4775 25.1667 32.9602 25.0671 32.438 25.0077L32.3993 21.7845L29.1481 21.8419L29.1479 21.816L25.7143 21.8861L25.751 25.026L21.9137 25.0717L21.9451 28.5264L24.2641 28.499L24.3639 36.9684ZM26.5603 25.8165L22.7209 25.8622L22.7378 27.717L24.8428 27.6921C25.0548 27.6896 25.0559 27.7956 25.0567 27.8662L25.1709 37.5576V37.5585C25.1734 37.6857 25.1748 37.7601 24.9988 37.7621L22.7122 37.785L22.7379 39.8589L26.7234 39.8157L26.7607 42.8295L28.7421 42.8059L28.7049 39.7922L29.9366 39.7792L29.9728 42.7888L31.8578 42.7685L31.8246 39.7536L33.2422 39.7406C34.1862 39.7278 37.5564 38.8887 37.5116 35.7619C37.538 34.9157 37.2775 34.0855 36.7724 33.4061C36.455 32.9793 36.0529 32.6279 35.5948 32.3714C35.3238 32.2197 35.0332 32.1012 34.7291 32.0201C34.7291 32.0201 35.0701 31.8095 35.4479 31.417C35.963 30.8819 36.5464 30.0086 36.4268 28.8703C36.2196 26.8971 34.6669 26.3611 33.7736 26.0774C33.0795 25.8872 32.3659 25.7771 31.6468 25.7494L31.609 22.5985L29.7979 22.6305L29.8397 25.7626L28.3837 25.7812L28.3552 22.6324L26.5235 22.6698L26.5603 25.8165ZM32.9016 29.5065C32.893 27.9195 31.0221 27.6219 30.6378 27.6252L28.3998 27.6496L28.4255 31.4633L30.893 31.4362C31.0698 31.4278 31.2453 31.4011 31.4166 31.3566C31.8445 31.2767 32.2295 31.0462 32.5019 30.7068C32.7744 30.3673 32.9162 29.9415 32.9016 29.5065ZM30.8681 30.6365C30.9854 30.63 31.1017 30.6118 31.2153 30.5823L31.2424 30.5753L31.2698 30.5701C31.5096 30.5254 31.7254 30.3962 31.8781 30.2059C32.0308 30.0157 32.1103 29.7771 32.1021 29.5333L32.1017 29.5221L32.1016 29.5108C32.0994 29.109 31.8912 28.8635 31.5376 28.6772C31.3556 28.5813 31.1548 28.5156 30.9749 28.4747C30.8865 28.4545 30.8082 28.4416 30.7465 28.4339C30.7157 28.4301 30.6906 28.4278 30.6718 28.4265C30.6548 28.4254 30.6461 28.4252 30.6448 28.4252C30.6446 28.4252 30.6446 28.4252 30.6448 28.4252L29.2051 28.4409L29.22 30.6545L30.8681 30.6365ZM33.8397 35.3829C33.8553 35.1302 33.8193 34.877 33.7337 34.6387C33.6482 34.4004 33.5148 34.182 33.3421 33.997C33.1693 33.8119 32.9606 33.664 32.7287 33.5623C32.4968 33.4606 32.2466 33.4073 31.9935 33.4055L28.4956 33.4369L28.5505 37.4461L31.9256 37.403C32.0135 37.4004 32.1006 37.3865 32.1848 37.3616C32.7606 37.2108 33.8562 36.6447 33.8397 35.3829ZM31.9061 36.6032C31.9238 36.6024 31.9415 36.5993 31.9584 36.5944L31.9702 36.5909L31.982 36.5878C32.174 36.5375 32.4649 36.4108 32.6911 36.2016C32.8984 36.0098 33.0446 35.7599 33.0398 35.3933L33.0395 35.3635L33.0413 35.3337C33.0502 35.1895 33.0296 35.045 32.9808 34.9091C32.932 34.7731 32.8559 34.6485 32.7574 34.5429C32.6588 34.4374 32.5397 34.353 32.4074 34.2949C32.2768 34.2377 32.136 34.2073 31.9934 34.2055L29.3065 34.2297L29.3395 36.6363L31.9061 36.6032Z" fill="black"/>
<path d="M30.7971 16.2286C33.9188 15.9905 37.0377 16.6843 39.7605 18.2174L39.2927 19.0011C36.7318 17.5644 33.8004 16.9146 30.8665 17.1383C27.7996 17.3722 24.8801 18.5493 22.5085 20.508C20.1369 22.4667 18.4293 25.1111 17.6201 28.0786C16.8108 31.0461 16.9394 34.1914 17.9882 37.0829C19.0371 39.9744 20.9548 42.4705 23.4784 44.2292C26.002 45.9877 29.0078 46.9224 32.0837 46.9052C35.1595 46.8879 38.1547 45.9194 40.6584 44.1327C43.0534 42.4234 44.8865 40.0454 45.9307 37.3009L46.7922 37.6025C45.6855 40.5247 43.7367 43.0567 41.1883 44.8753C38.5314 46.7714 35.3529 47.7992 32.0888 47.8175C28.8247 47.8359 25.6348 46.8439 22.9568 44.9777C20.2788 43.1115 18.2436 40.4625 17.1305 37.394C16.0175 34.3255 15.881 30.9877 16.7398 27.8385C17.5986 24.6894 19.4107 21.8831 21.9275 19.8045C24.4442 17.7259 27.5424 16.4768 30.7971 16.2286Z" fill="black"/>
<path d="M47.1345 32.5827H40.9272V30.8859L42.9722 28.8119C43.6973 28.0675 44.2001 27.497 44.4804 27.1006C44.7705 26.7042 44.9155 26.2836 44.9155 25.8389C44.9155 25.3844 44.7947 25.0653 44.553 24.8817C44.3209 24.698 43.9873 24.6062 43.5522 24.6062C42.9044 24.6062 42.1986 24.6641 41.4349 24.7801L41.0868 24.8236L40.9852 23.2719C41.9327 22.9818 42.9141 22.8368 43.9293 22.8368C45.9598 22.8368 46.9749 23.7505 46.9749 25.5778C46.9749 26.2933 46.8203 26.9121 46.5109 27.4342C46.2015 27.9563 45.6407 28.5896 44.8285 29.3341L43.1607 30.8424H47.1345V32.5827Z" fill="#FFDFB6"/>
<path fill-rule="evenodd" clip-rule="evenodd" d="M47.9344 33.3828H40.1272V30.5579L42.399 28.2538L42.4007 28.2521C43.1208 27.5126 43.5856 26.9804 43.8273 26.6387L43.831 26.6334L43.8348 26.6282C44.0355 26.3538 44.1154 26.096 44.1154 25.8389C44.1154 25.6783 44.0936 25.5867 44.0767 25.5422C44.0711 25.5274 44.0667 25.5192 44.0642 25.5152L44.0625 25.5138L44.0563 25.5089C44.0185 25.4791 43.8888 25.4062 43.5522 25.4062C42.9514 25.4062 42.2863 25.4601 41.5549 25.5712L41.5445 25.5727L40.3438 25.7227L40.1456 22.6923L40.751 22.5069C41.7763 22.193 42.8367 22.0368 43.9292 22.0368C45.0482 22.0368 46.0368 22.2867 46.7487 22.9274C47.4766 23.5825 47.7749 24.5178 47.7749 25.5778C47.7749 26.4109 47.5937 27.176 47.199 27.8421C46.8295 28.4657 46.2001 29.162 45.369 29.9238L45.3651 29.9275L45.238 30.0424H47.9344V33.3828ZM43.1606 30.8424L44.8284 29.3341C45.6406 28.5896 46.2014 27.9563 46.5108 27.4343C46.8202 26.9121 46.9749 26.2934 46.9749 25.5778C46.9749 23.7505 45.9597 22.8368 43.9292 22.8368C42.9141 22.8368 41.9327 22.9818 40.9852 23.2719L41.0867 24.8237L41.4348 24.7802C41.586 24.7572 41.7349 24.7365 41.8815 24.7181C42.4757 24.6435 43.0326 24.6062 43.5522 24.6062C43.9873 24.6062 44.3208 24.698 44.5529 24.8817C44.7946 25.0654 44.9154 25.3845 44.9154 25.8389C44.9154 26.2836 44.7705 26.7042 44.4804 27.1006C44.2 27.497 43.6972 28.0675 42.9721 28.812L40.9272 30.8859V32.5827H47.1344V30.8424H43.1606Z" fill="black"/>
</svg>
