<svg width="64" height="64" viewBox="0 0 64 64" fill="none" xmlns="http://www.w3.org/2000/svg">
<rect width="64" height="64" fill="#1969FF"/>
<path fill-rule="evenodd" clip-rule="evenodd" d="M30.6386 14.3449L21.714 19.0367C21.1761 19.3195 20.9 19.7216 20.8603 20.1523H20.8563V20.2123C20.855 20.2451 20.855 20.278 20.8563 20.3111V43.6162C20.8548 43.6486 20.8549 43.688 20.8563 43.7359C20.8699 44.1986 21.1436 44.6635 21.714 44.9633L30.6386 49.6552C31.5133 50.1149 32.8441 50.1149 33.7187 49.6552L42.6433 44.9633C43.216 44.6621 43.5081 44.2006 43.5193 43.7359L43.5196 43.7079V20.1523H43.5112C43.4594 19.7263 43.1701 19.3136 42.6433 19.0367L33.7187 14.3449C32.8441 13.885 31.5133 13.885 30.6386 14.3449ZM22.2611 43.6896L30.6386 48.0705C31.1432 48.3387 31.6682 48.6001 32.1787 48.6017C32.6487 48.6033 33.1058 48.3802 33.5678 48.1547L33.6571 48.1113L42.115 43.6518V33.3095L33.7187 37.7235C32.8441 38.1834 31.5133 38.1834 30.6386 37.7235L22.2611 33.3193V43.6896ZM22.2611 30.2333L30.2484 26.0342L22.2611 21.8351V30.2333ZM42.115 21.8252V30.2431L34.1088 26.0342L42.115 21.8252ZM33.0626 15.5812L41.9872 20.2731L42.0075 20.2841L42.0216 20.2921L42.014 20.2964C42.0055 20.3013 41.9966 20.3061 41.9872 20.3111L33.0626 25.0029C32.5985 25.247 31.7587 25.247 31.2947 25.0029L22.37 20.3111L22.3497 20.3001L22.3357 20.2921L22.3432 20.2877C22.3517 20.2829 22.3607 20.278 22.37 20.2731L31.2947 15.5812C31.7587 15.3372 32.5985 15.3372 33.0626 15.5812ZM33.0626 27.0654L41.9872 31.7574L42.0075 31.7683L42.0216 31.7762L42.014 31.7806L41.9955 31.7909L41.9872 31.7952L33.0626 36.4871C33.007 36.5164 32.9461 36.5421 32.8811 36.5643V26.9883C32.9461 27.0105 33.007 27.0362 33.0626 27.0654ZM31.4763 26.9883C31.4112 27.0105 31.3502 27.0362 31.2947 27.0654L22.37 31.7574C22.3607 31.7623 22.3517 31.7671 22.3432 31.7719L22.3357 31.7762L22.3497 31.7843L22.37 31.7952L31.2947 36.4871C31.3502 36.5164 31.4112 36.5421 31.4763 36.5643V26.9883ZM43.4337 16.0957L42.7066 17.2921L43.2136 17.5966L43.3787 17.6973C43.5186 17.7835 43.6336 17.8569 43.738 17.927L43.7652 17.9453C44.2409 18.2677 44.5013 18.5328 44.675 18.8796C44.8845 19.298 44.99 19.8918 44.99 20.7954H46.3948L46.3946 20.7326C46.3846 18.6692 45.879 17.6774 44.5232 16.7676C44.3965 16.6825 44.2605 16.5959 44.0964 16.4951L44.001 16.4368L43.4337 16.0957ZM21.6881 46.7265L20.9611 47.9229L20.3937 47.5818L20.2983 47.5236C20.1343 47.4227 19.9983 47.3362 19.8715 47.2511C18.5157 46.3413 18.0101 45.3494 18.0002 43.2861L18 43.2232H19.4048C19.4048 44.1269 19.5103 44.7207 19.7197 45.1391C19.8934 45.4859 20.1539 45.7509 20.6296 46.0734L20.6567 46.0917C20.7611 46.1617 20.8761 46.2351 21.0161 46.3214L21.1812 46.422L21.6881 46.7265Z" fill="white"/>
</svg>
