<svg width="64" height="64" viewBox="0 0 64 64" fill="none" xmlns="http://www.w3.org/2000/svg">
<rect width="64" height="64" transform="matrix(-1 0 0 1 64 0)" fill="url(#paint0_linear_773_20)"/>
<path d="M35.5126 18.4378C22.2208 27.7599 18.168 29.0395 14.7777 29.1751C14.4948 29.1864 14.3534 29.192 14.2536 29.2465C14.1634 29.2957 14.0959 29.3659 14.0504 29.4579C14 29.5599 14 29.6958 14 29.9676V43.0825C14 43.3293 14 43.4527 14.0501 43.5544C14.0924 43.6403 14.1681 43.7195 14.2521 43.7657C14.3514 43.8203 14.4674 43.8255 14.6993 43.8359C20.8189 44.1116 27.0958 39.7018 35.4128 34.3924C35.6776 34.2234 35.81 34.1389 35.9052 34.0263C35.9896 33.9264 36.0527 33.8113 36.0914 33.6864C36.1351 33.5456 36.1351 33.3894 36.1351 33.077V18.7505C36.1351 18.5077 36.1351 18.3862 36.0848 18.3207C36.041 18.2636 35.9743 18.2289 35.9024 18.2258C35.8198 18.2222 35.7174 18.2941 35.5126 18.4378Z" fill="url(#paint1_radial_773_20)"/>
<path d="M28.4874 46.0861C41.7792 36.764 45.832 35.4844 49.2223 35.3488C49.5052 35.3375 49.6466 35.3319 49.7464 35.2774C49.8366 35.2282 49.9041 35.158 49.9496 35.066C50 34.964 50 34.8281 50 34.5563V21.4414C50 21.1946 50 21.0712 49.9499 20.9695C49.9076 20.8836 49.8319 20.8044 49.7479 20.7582C49.6486 20.7036 49.5326 20.6984 49.3007 20.6879C43.1811 20.4123 36.9042 24.8221 28.5872 30.1315C28.3224 30.3005 28.19 30.385 28.0948 30.4976C28.0104 30.5975 27.9473 30.7126 27.9086 30.8375C27.8649 30.9783 27.8649 31.1345 27.8649 31.4469V45.7734C27.8649 46.0162 27.8649 46.1377 27.9152 46.2032C27.959 46.2603 28.0257 46.295 28.0976 46.2981C28.1802 46.3016 28.2826 46.2298 28.4874 46.0861Z" fill="url(#paint2_radial_773_20)"/>
<defs>
<linearGradient id="paint0_linear_773_20" x1="32" y1="0" x2="32" y2="64" gradientUnits="userSpaceOnUse">
<stop stop-color="#011C4F"/>
<stop offset="1" stop-color="#0397BD"/>
</linearGradient>
<radialGradient id="paint1_radial_773_20" cx="0" cy="0" r="1" gradientUnits="userSpaceOnUse" gradientTransform="translate(15.5811 42.8108) rotate(-34.177) scale(23.8155 20.3944)">
<stop stop-color="white"/>
<stop offset="1" stop-color="white" stop-opacity="0.5"/>
</radialGradient>
<radialGradient id="paint2_radial_773_20" cx="0" cy="0" r="1" gradientUnits="userSpaceOnUse" gradientTransform="translate(48.4189 21.7131) rotate(145.823) scale(23.8155 20.3944)">
<stop stop-color="white"/>
<stop offset="1" stop-color="white" stop-opacity="0.5"/>
</radialGradient>
</defs>
</svg>
