<svg width="64" height="64" viewBox="0 0 64 64" fill="none" xmlns="http://www.w3.org/2000/svg">
<rect width="64" height="64" fill="url(#paint0_linear_329_90)"/>
<path fill-rule="evenodd" clip-rule="evenodd" d="M46.981 41.108C48.9253 38.8695 49.9972 36.005 50 33.04C49.9987 31.8825 49.8352 30.731 49.5143 29.6189C47.5162 22.6001 39.823 18.8631 33.0328 21.6075C31.874 22.0755 30.8366 22.7439 29.8334 23.4807C28.6215 24.3813 27.2399 24.6501 25.7546 24.3813C24.6088 24.175 23.5855 23.6893 22.6023 23.1164C22.1005 22.8261 21.7198 22.365 21.5296 21.8173C21.4886 21.6968 21.4547 21.574 21.4282 21.4495C21.282 20.7876 20.9596 20.1774 20.4951 19.6837C20.0306 19.19 19.4413 18.831 18.7895 18.6447C18.1377 18.4585 17.4476 18.4518 16.7924 18.6256C16.1371 18.7994 15.541 19.147 15.0672 19.6317C14.4548 20.2605 14.082 21.0838 14.0133 21.9588C13.7881 24.6583 16.47 26.7154 19.0198 25.7853C19.3705 25.6507 19.7465 25.5949 20.1211 25.6218C20.4957 25.6487 20.8599 25.7576 21.1877 25.9409C21.9092 26.3134 22.5917 26.7567 23.226 27.2648C24.788 28.5462 25.5554 30.1541 25.375 32.2006C25.2601 33.6467 25.4201 35.1015 25.8465 36.4881C26.6795 39.3331 28.5099 41.7826 31.0021 43.3878C33.4943 44.993 36.4815 45.6463 39.4163 45.2281C42.3513 44.8093 45.037 43.3465 46.981 41.108ZM32.4564 29.6402C31.8884 30.4895 31.5386 31.4659 31.4381 32.4827C31.3375 33.4995 31.4893 34.5254 31.8799 35.4696C32.2705 36.4138 32.8879 37.247 33.6775 37.8956C34.467 38.5442 35.4043 38.9881 36.4063 39.1879C37.4084 39.3877 38.4443 39.3374 39.4222 39.0413C40.4001 38.7452 41.2899 38.2126 42.0129 37.4905C42.7358 36.7684 43.2695 35.8792 43.5667 34.9015C43.8639 33.9239 43.9154 32.8881 43.7167 31.8858C43.4777 30.6802 42.8865 29.5725 42.0179 28.7029C41.1493 27.8333 40.0423 27.2408 38.8369 27.0005C37.6316 26.76 36.382 26.8826 35.2462 27.3524C34.1105 27.8223 33.1396 28.6184 32.4564 29.6402Z" fill="white"/>
<defs>
<linearGradient id="paint0_linear_329_90" x1="32" y1="0" x2="32" y2="64" gradientUnits="userSpaceOnUse">
<stop stop-color="#4C29AD"/>
<stop offset="1" stop-color="#120D24"/>
</linearGradient>
</defs>
</svg>
