<svg width="64" height="64" viewBox="0 0 64 64" fill="none" xmlns="http://www.w3.org/2000/svg">
<rect width="64" height="64" fill="#E5E6E1"/>
<path d="M32.1074 38.6667H13.8519V12H32.1074C38.3741 12 43.4519 17.0778 43.4519 23.3407V27.3222C43.4519 33.5889 38.3741 38.6667 32.1074 38.6667Z" fill="#AEDB01"/>
<path d="M36.8111 52H13.8519V38.6667C13.8519 31.3037 19.8222 25.3333 27.1889 25.3333H36.8111C44.1778 25.3333 50.1482 31.3037 50.1482 38.6667C50.1482 46.0296 44.1778 52 36.8111 52Z" fill="#B0B1AC"/>
<path d="M43.4519 27.1037V27.3259C43.4519 33.5926 38.3741 38.6667 32.1037 38.6667H13.8519C13.8519 34.9852 15.3482 31.6519 17.7556 29.237C20.1704 26.8222 23.5037 25.3333 27.1926 25.3333H36.8111C39.2296 25.337 41.4963 25.9815 43.4519 27.1037Z" fill="#5D6D3C"/>
</svg>
