<svg width="64" height="64" viewBox="0 0 64 64" fill="none" xmlns="http://www.w3.org/2000/svg">
<rect width="64" height="64" fill="black"/>
<path d="M49.5937 41.2306L43.6871 47.5635C43.5591 47.7008 43.4043 47.8103 43.2323 47.8854C43.0603 47.9605 42.8747 47.9995 42.687 48H14.6861C14.5528 47.9993 14.4226 47.9599 14.3114 47.8866C14.2001 47.8133 14.1125 47.7092 14.0592 47.5871C14.0059 47.4649 13.9893 47.3299 14.0113 47.1985C14.0333 47.0671 14.093 46.9449 14.1831 46.8467L20.0825 40.5138C20.2105 40.3766 20.3653 40.267 20.5373 40.192C20.7093 40.1169 20.8949 40.0779 21.0826 40.0774H49.0835C49.2183 40.0747 49.3508 40.1119 49.4644 40.1843C49.5781 40.2567 49.6678 40.361 49.7223 40.4843C49.7768 40.6075 49.7937 40.7441 49.7708 40.8769C49.7479 41.0097 49.6863 41.1328 49.5937 41.2306ZM43.6871 28.4738C43.5586 28.3372 43.4037 28.2281 43.2318 28.1531C43.0599 28.0781 42.8746 28.0387 42.687 28.0373H14.6861C14.5525 28.0374 14.4219 28.0764 14.3102 28.1496C14.1985 28.2228 14.1106 28.327 14.0572 28.4494C14.0039 28.5718 13.9873 28.7071 14.0097 28.8387C14.0321 28.9704 14.0923 29.0927 14.1831 29.1906L20.0825 35.5278C20.211 35.6644 20.3659 35.7735 20.5378 35.8485C20.7097 35.9235 20.895 35.9629 21.0826 35.9643H49.0835C49.2165 35.963 49.3463 35.9232 49.4572 35.8497C49.568 35.7762 49.6552 35.6721 49.7081 35.5501C49.761 35.428 49.7774 35.2932 49.7553 35.1621C49.7332 35.0309 49.6736 34.909 49.5836 34.811L43.6871 28.4738ZM14.6861 23.9242H42.687C42.8747 23.9237 43.0603 23.8847 43.2323 23.8096C43.4043 23.7346 43.5591 23.625 43.6871 23.4878L49.5937 17.1534C49.6624 17.08 49.7141 16.9923 49.7452 16.8966C49.7763 16.801 49.786 16.6996 49.7736 16.5998C49.7612 16.5 49.727 16.4041 49.6734 16.319C49.6199 16.2338 49.5482 16.1615 49.4636 16.1071C49.3503 16.0346 49.218 15.9974 49.0835 16.0001H21.0826C20.8949 16.0007 20.7093 16.0397 20.5373 16.1148C20.3653 16.1898 20.2105 16.2994 20.0825 16.4366L14.1831 22.771C14.0923 22.8689 14.0321 22.9911 14.0097 23.1228C13.9873 23.2544 14.0039 23.3898 14.0572 23.5122C14.1106 23.6346 14.1985 23.7388 14.3102 23.8119C14.4219 23.8851 14.5525 23.9242 14.6861 23.9242Z" fill="url(#paint0_linear_452_2)"/>
<defs>
<linearGradient id="paint0_linear_452_2" x1="17.0201" y1="48.7645" x2="46.3795" y2="15.6634" gradientUnits="userSpaceOnUse">
<stop offset="0.08" stop-color="#9945FF"/>
<stop offset="0.3" stop-color="#8752F3"/>
<stop offset="0.5" stop-color="#5497D5"/>
<stop offset="0.6" stop-color="#43B4CA"/>
<stop offset="0.72" stop-color="#28E0B9"/>
<stop offset="0.97" stop-color="#19FB9B"/>
</linearGradient>
</defs>
</svg>
