<svg width="64" height="64" viewBox="0 0 64 64" fill="none" xmlns="http://www.w3.org/2000/svg">
<rect width="64" height="64" fill="white"/>
<path d="M41.6152 23H41.3076C36.9898 23 34.4152 25.757 32.6608 28.1494C31.9886 29.0721 31.3621 30.0405 30.7696 30.9747C29.6418 32.7519 28.5709 34.4152 27.3063 35.6228C25.9734 36.8987 24.2987 37.5822 22.4646 37.5822C20.9721 37.5367 19.5823 36.9101 18.5456 35.8278C17.5089 34.7455 16.9393 33.3101 16.9393 31.7949C16.9393 30.2797 17.5659 28.7532 18.6368 27.6709C19.719 26.5772 21.1658 25.9734 22.7038 25.9734H22.7152C23.3418 25.9734 24.0709 26.0987 24.7886 26.3266C24.9253 26.3721 25.0393 26.4747 25.0848 26.6228C25.1304 26.7709 25.1076 26.9304 25.0164 27.0557L21.2797 32.4557C21.1658 32.6152 21.1545 32.8203 21.2456 32.9911C21.3367 33.162 21.5076 33.2646 21.7013 33.2646H23.8203C24.1051 33.2646 24.3785 33.1278 24.538 32.8886L28.3886 27.2835C28.5481 27.0671 28.6392 26.8164 28.6962 26.543C28.7417 26.281 28.7417 26.0076 28.6962 25.7456C28.6392 25.4835 28.5253 25.2329 28.3772 25.0165C28.2177 24.8 28.0241 24.6177 27.7962 24.4696C27.6367 24.3785 27.4772 24.2873 27.3063 24.1962C25.8937 23.4215 24.2874 23.0114 22.681 23.0114C20.3684 23.0114 18.1924 23.9228 16.5519 25.5747C14.9342 27.2038 14 29.4595 14 31.7835C14 34.1076 14.8544 36.2265 16.4266 37.8671C17.9987 39.519 20.1063 40.4645 22.3735 40.5329C24.8114 40.5329 26.9646 39.6899 28.9468 37.9468C30.7126 36.3975 32.0684 34.3696 33.2076 32.6038C34.0848 31.2253 34.9164 29.9266 35.8278 28.8557C36.1468 28.4797 36.4544 28.1494 36.762 27.8645C38.1405 26.5772 39.5873 25.9734 41.3189 25.9734H41.5354C43.0279 26.019 44.4177 26.6342 45.4544 27.7278C46.343 28.662 46.9127 29.9038 47.0379 31.2025C47.0607 31.3962 47.0721 31.5899 47.0721 31.7835C47.0721 33.3329 46.4684 34.7912 45.3746 35.8848C44.2924 36.9784 42.8455 37.5822 41.3076 37.5822H41.2962C40.4987 37.5822 39.7354 37.3886 39.2228 37.2291C39.0861 37.1835 38.9721 37.081 38.9266 36.9329C38.881 36.7848 38.9038 36.6253 38.9949 36.4886L42.7203 31.1456C42.8341 30.9861 42.8455 30.781 42.7544 30.6101C42.6633 30.4278 42.4924 30.3367 42.2987 30.3367H40.1797C39.895 30.3367 39.6329 30.4734 39.462 30.7126L35.6113 36.2607C35.4519 36.4886 35.3607 36.7278 35.3038 37.0013C35.2582 37.2633 35.2582 37.5367 35.3038 37.7987C35.3607 38.0607 35.4747 38.3114 35.6228 38.5279C35.7708 38.7442 35.9873 38.9379 36.2151 39.0747C36.3746 39.1658 36.5227 39.2569 36.6822 39.348C38.0949 40.1228 39.7012 40.5329 41.3076 40.5329C43.6317 40.5329 45.8075 39.6215 47.4481 37.9696C49.0886 36.3177 50 34.1304 50 31.7949C50 29.4595 49.1228 27.2835 47.562 25.6658C45.9898 24.0139 43.8823 23.0684 41.6152 23Z" fill="#6666FE"/>
</svg>
