<svg width="64" height="64" viewBox="0 0 64 64" fill="none" xmlns="http://www.w3.org/2000/svg">
<rect width="64" height="64" fill="#101054"/>
<path d="M15.9235 63.9977H52.2118C53.0489 63.9977 53.4086 62.9254 52.7344 62.4323C52.6779 62.3916 52.619 62.3486 52.5557 62.3056C50.9631 61.2107 50.4156 60.066 49.5944 59.3195C48.7733 58.5729 45.5994 56.6319 45.2646 56.0347C44.9297 55.4375 43.5475 53.682 43.2851 53.0101C43.0227 52.3382 43.1358 50.9945 43.0611 50.5827C42.9865 50.171 42.6879 50.1348 42.6879 50.1348C42.6879 50.1348 42.5748 49.6123 42.7625 49.3136C42.9503 49.015 43.3982 47.9699 43.9954 47.5582C44.5927 47.1464 46.0111 46.2506 46.0495 43.8617C46.088 41.4728 45.6016 40.2399 45.6378 39.568C45.674 38.8961 45.1152 37.8872 45.0021 37.5139C44.889 37.1406 45.0768 37.0275 45.0768 37.0275C45.0768 37.0275 48.0629 36.3918 48.4362 35.9077C48.8095 35.4236 49.8184 34.3015 48.8841 32.175C47.9498 30.0486 45.9342 29.6368 43.3598 30.3449C43.3598 30.3449 40.6722 27.0963 40.2605 26.7231C39.8488 26.3498 39.0276 25.9381 37.9825 26.4991C36.9373 27.0602 34.7724 27.5081 34.2498 27.8067C33.7272 28.1053 31.9717 28.6663 31.5985 29.4491C31.2252 30.2318 30.9266 31.1299 30.2162 31.8764C29.5059 32.623 28.6485 34.0798 28.5354 34.9372C28.4223 35.7946 28.4969 37.774 28.5739 38.783C28.6508 39.7919 28.9471 40.5 28.9471 41.3597C28.9471 42.2193 28.3114 43.4138 28.6847 44.4205C29.058 45.4271 30.1416 46.884 29.8792 47.2957C29.6168 47.7075 28.7956 48.0807 28.7956 48.0807C28.7956 48.0807 27.6011 46.9225 26.7053 46.3252C25.8094 45.728 23.4205 45.0561 23.2712 44.5698C23.1219 44.0834 25.4362 39.1947 25.8094 38.1111C26.1827 37.0275 28.6847 31.7271 29.2073 30.8313C29.7299 29.9354 29.7683 29.4129 29.7683 29.4129L29.619 28.9265L30.7026 27.395L29.8068 26.4245C29.8068 26.4245 30.4787 24.8567 31.3383 24.1849C32.1979 23.513 34.7724 21.7213 35.071 21.4589C35.3696 21.1965 36.8265 18.9207 37.0504 18.061C37.2744 17.2014 36.9011 15.4097 36.9373 14.8871C36.9735 14.3646 36.003 14.5885 35.8175 14.9256C35.8175 14.9256 35.071 13.842 34.7724 13.4687C34.4737 13.0955 33.6141 12.833 33.6141 12.833C33.6141 12.833 33.0531 12.0865 32.7929 12.0118C32.5328 11.9372 32.0826 11.9372 31.2614 12.125C30.4402 12.3127 29.8792 12.5729 29.058 13.1339C28.2368 13.6949 27.3771 13.5072 27.2278 13.9189C27.0785 14.3306 27.1532 19.2577 27.1147 19.4817C27.0763 19.7057 25.9565 21.3118 25.5086 21.8344C25.0606 22.357 24.986 23.4021 24.2394 23.7754C23.4929 24.1487 23.0812 23.6261 22.5224 24.7459C21.9636 25.8657 21.5519 25.1576 20.7669 27.2479C19.9819 29.3382 18.7513 29.8608 18.2287 30.5327C17.7061 31.2045 16.7718 34.3038 15.652 35.3105C14.5322 36.3172 13.8604 36.7289 13.4486 37.5139C13.0369 38.2989 13.15 38.9323 12.6636 39.6042C12.1773 40.2761 11.9533 41.6198 11.6547 42.4795C11.3561 43.3391 10.5869 43.4545 10.6231 44.6489C10.6593 45.8434 10.8109 45.918 10.6616 46.8885C10.5123 47.859 11.148 50.7705 11.9691 52.9739C12.7903 55.1773 13.1636 57.0799 14.1726 58.5367C15.1815 59.9936 14.9937 61.0387 14.9937 61.0387L14.8919 62.9096C14.8603 63.5023 15.3308 64 15.9258 64L15.9235 63.9977Z" fill="#E0AE4D"/>
</svg>
