<svg width="64" height="64" viewBox="0 0 64 64" fill="none" xmlns="http://www.w3.org/2000/svg">
<rect width="64" height="64" fill="#EB4747"/>
<path d="M51.6174 33.8734C51.1256 32.6906 50.4512 31.6746 51.0282 30.5839C52.9389 27.8149 50.7113 23.9976 47.318 24.3858C45.5056 22.3076 42.9641 20.8821 40.0952 20.5121C39.4642 20.3008 32.3112 18.9682 26.4482 20.521C23.4596 21.3111 20.6461 22.8909 18.7224 25.3421C16.0722 23.1126 12.0006 25.0116 12.0006 28.4749C12.0006 31.0207 14.1303 31.449 12.9856 32.805C10.7761 35.2565 12.4844 39.5606 16.0926 39.5606C17.0479 39.5606 17.9278 39.2322 18.6252 38.6816C23.168 44.4568 32.6527 45.0725 40.0853 43.4324C42.8401 43.0792 45.2943 41.7519 47.0899 39.8086C50.4396 40.352 52.9998 36.9274 51.6174 33.8734ZM16.0926 38.3702C13.4081 38.3702 12.3813 35.0918 13.8646 33.6085C14.766 32.5783 14.6198 31.2289 13.8864 30.3577C11.5493 27.6225 15.3812 23.9222 18.035 26.3202C15.7444 29.9826 16.031 34.5772 17.9427 37.7016C17.4398 38.1192 16.7959 38.3702 16.0926 38.3702ZM33.1349 21.7801C28.2373 24.3444 26.3158 29.7117 27.3387 34.4889C28.2679 38.8284 22.8117 41.5811 19.9029 38.2295C14.2536 31.7204 18.5253 20.9516 32.9364 20.9669C33.3871 20.9673 33.5342 21.571 33.1349 21.7801ZM28.2417 31.9707C28.2417 22.7107 39.5641 18.0809 46.0383 24.7549C45.6842 24.9255 45.3568 25.1467 45.0672 25.4135C39.3091 19.7775 29.4787 23.8234 29.4787 31.9707C29.4787 39.8264 38.7636 44.0025 44.6339 38.9263C44.7672 38.8111 44.9628 38.8118 45.1002 38.9221C45.2039 39.0053 45.3116 39.0837 45.4228 39.1569C45.6226 39.2884 45.6492 39.5727 45.4707 39.732C38.8648 45.6286 28.2417 40.9084 28.2417 31.9707ZM38.6509 27.7378C36.3373 27.7378 34.4511 29.6007 34.4117 31.905C34.3711 34.2771 36.3536 36.2185 38.726 36.2185H43.2875C43.6018 36.2185 43.5695 36.5424 43.7891 37.126C43.9604 37.5812 43.7997 38.0936 43.411 38.386C38.275 42.2499 30.6692 38.6054 30.6692 31.9707C30.6692 25.0313 38.9169 21.4556 43.9733 26.0171C44.1724 26.1967 44.2292 26.4818 44.1203 26.7268C44.0423 26.9025 43.9765 27.0856 43.9244 27.2755C43.7471 27.9145 43.537 27.7378 38.6509 27.7378ZM50.801 35.7731C50.7083 37.7222 48.6879 39.2513 46.6732 38.4714C44.1485 37.504 45.3241 35.0281 43.2875 35.0281H38.6509C36.9694 35.0281 35.6014 33.6601 35.6014 31.9787C35.6014 30.2972 36.9694 28.9283 38.6509 28.9283H43.3212C44.1347 28.9283 44.8549 28.3787 45.0721 27.591C46.1161 23.8058 52.3467 25.7223 49.9984 29.9867C48.6939 31.9435 50.8906 33.9164 50.801 35.7731Z" fill="white"/>
</svg>
