<svg width="64" height="64" viewBox="0 0 64 64" fill="none" xmlns="http://www.w3.org/2000/svg">
<rect width="64" height="64" fill="#F0F0F8"/>
<mask id="mask0_167_38" style="mask-type:luminance" maskUnits="userSpaceOnUse" x="12" y="14" width="40" height="35">
<path d="M52 49V14L12 14V49H52Z" fill="white"/>
</mask>
<g mask="url(#mask0_167_38)">
<path d="M51.9999 41.4497C52.0018 39.4506 51.0943 37.5325 49.4771 36.1166C47.8599 34.7009 45.6652 33.9025 43.3743 33.8975H33.8104C33.7502 33.1197 33.7124 32.3244 33.7124 31.5C33.7124 30.6756 33.6745 29.8842 33.621 29.1025H43.3743C45.6452 29.0707 47.8109 28.2611 49.404 26.8485C50.9971 25.4358 51.8899 23.5333 51.8899 21.5513C51.8899 19.5693 50.9971 17.6667 49.404 16.254C47.8109 14.8414 45.6452 14.0318 43.3743 14H20.5164C18.2454 14.0318 16.0797 14.8414 14.4866 16.254C12.8935 17.6667 12.0006 19.5693 12.0006 21.5513C12.0006 23.5333 12.8935 25.4358 14.4866 26.8485C16.0797 28.2611 18.2454 29.0707 20.5164 29.1025L29.4999 29.3125C30.1249 29.3125 30.1783 30.6756 30.1783 31.5C30.1783 32.3244 30.2162 33.1159 30.2696 33.8975H20.5164C18.2454 33.9294 16.0797 34.7388 14.4866 36.1516C12.8935 37.5641 12.0006 39.4669 12.0006 41.4487C12.0006 43.4306 12.8935 45.3334 14.4866 46.7459C16.0797 48.1588 18.2454 48.9681 20.5164 49H43.3743C45.6646 48.995 47.8593 48.1969 49.4765 46.7816C51.0937 45.3659 52.0012 43.4484 51.9999 41.4497ZM48.4659 21.5503C48.4665 22.7301 47.9305 23.8619 46.9762 24.6974C46.0215 25.5329 44.7262 26.0038 43.3743 26.0069H33.2466C32.8798 23.7976 32.1808 21.6402 31.1676 19.5903C30.7209 18.7021 30.1491 17.866 29.4652 17.1014H43.3743C44.7246 17.1045 46.0187 17.5744 46.973 18.4082C47.9274 19.242 48.464 20.3718 48.4659 21.5503ZM20.5164 26.0069C19.1619 26.0069 17.8629 25.5374 16.9051 24.7016C15.9473 23.8658 15.4092 22.7322 15.4092 21.5503C15.4092 20.3683 15.9473 19.2347 16.9051 18.3989C17.8629 17.5632 19.1619 17.0936 20.5164 17.0936H22.8094C24.8349 17.0936 26.7534 18.4936 27.9478 20.8406C28.7654 22.4943 29.3469 24.2294 29.6792 26.0069H20.5164ZM15.4248 41.4497C15.4242 40.27 15.9599 39.1381 16.9145 38.3025C17.869 37.4672 19.1644 36.9963 20.5164 36.9931H30.644C31.0109 39.2025 31.7099 41.3597 32.723 43.4097C33.1697 44.2978 33.7416 45.1341 34.4254 45.8988H20.5164C19.166 45.8956 17.8719 45.4256 16.9176 44.5919C15.9634 43.7581 15.4266 42.6281 15.4248 41.4497ZM35.9562 42.1594C35.1386 40.5056 34.5572 38.7706 34.2249 36.9931H43.3743C44.7287 36.9931 46.0277 37.4625 46.9855 38.2984C47.9434 39.1341 48.4815 40.2678 48.4815 41.4497C48.4815 42.6316 47.9434 43.7653 46.9855 44.6009C46.0277 45.4369 44.7287 45.9063 43.3743 45.9063H41.0813C39.0647 45.9063 37.1461 44.5063 35.9562 42.1594Z" fill="url(#paint0_linear_167_38)"/>
<path opacity="0.8" d="M52 21.5503C52.0019 23.5493 51.0944 25.4674 49.4772 26.8833C47.86 28.2992 45.665 29.0973 43.3741 29.1025H33.8102C33.75 29.8803 33.7121 30.6756 33.7121 31.5C33.7121 32.3244 33.6742 33.1159 33.6208 33.8975H43.3741C45.6453 33.9294 47.8109 34.7388 49.4041 36.1516C50.9972 37.5641 51.89 39.4669 51.89 41.4487C51.89 43.4306 50.9972 45.3334 49.4041 46.7459C47.8109 48.1588 45.6453 48.9681 43.3741 49H20.516C18.2449 48.9681 16.0792 48.1588 14.486 46.7459C12.8929 45.3334 12 43.4306 12 41.4487C12 39.4669 12.8929 37.5641 14.486 36.1516C16.0792 34.7388 18.2449 33.9294 20.516 33.8975L29.4996 33.6875C30.1246 33.6875 30.178 32.3244 30.178 31.5C30.178 30.6756 30.2159 29.8842 30.2693 29.1025H20.516C18.2449 29.0707 16.0792 28.2611 14.486 26.8485C12.8929 25.4358 12 23.5333 12 21.5513C12 19.5693 12.8929 17.6667 14.486 16.254C16.0792 14.8414 18.2449 14.0318 20.516 14H43.3741C45.6647 14.0052 47.8594 14.803 49.4766 16.2185C51.0938 17.634 52.0013 19.5515 52 21.5503ZM48.4659 41.4497C48.4666 40.27 47.9306 39.1381 46.9763 38.3025C46.0216 37.4672 44.7263 36.9963 43.3741 36.9931H33.2464C32.8795 39.2025 32.1805 41.3597 31.1674 43.4097C30.7207 44.2978 30.1487 45.1341 29.4649 45.8988H43.3741C44.7247 45.8956 46.0188 45.4256 46.9731 44.5919C47.9272 43.7581 48.4641 42.6281 48.4659 41.4497ZM20.516 36.9931C19.1614 36.9931 17.8623 37.4625 16.9045 38.2984C15.9467 39.1341 15.4086 40.2678 15.4086 41.4497C15.4086 42.6316 15.9467 43.7653 16.9045 44.6009C17.8623 45.4369 19.1614 45.9063 20.516 45.9063H22.8089C24.8345 45.9063 26.753 44.5063 27.9474 42.1594C28.765 40.5056 29.3465 38.7706 29.6788 36.9931H20.516ZM15.4242 21.5503C15.4236 22.7301 15.9594 23.8619 16.914 24.6974C17.8685 25.5329 19.1639 26.0038 20.516 26.0069H30.6437C31.0106 23.7976 31.7096 21.6402 32.7227 19.5903C33.1694 18.7021 33.7413 17.866 34.4252 17.1014H20.516C19.1655 17.1045 17.8714 17.5744 16.9171 18.4082C15.9628 19.242 15.426 20.3718 15.4242 21.5503ZM35.956 20.8406C35.1384 22.4943 34.5569 24.2294 34.2246 26.0069H43.3741C44.7288 26.0069 46.0278 25.5374 46.9856 24.7016C47.9434 23.8658 48.4816 22.7322 48.4816 21.5503C48.4816 20.3683 47.9434 19.2347 46.9856 18.3989C46.0278 17.5632 44.7288 17.0936 43.3741 17.0936H41.0812C39.0646 17.0936 37.146 18.4936 35.956 20.8406Z" fill="url(#paint1_linear_167_38)"/>
</g>
<defs>
<linearGradient id="paint0_linear_167_38" x1="14.9807" y1="16.2167" x2="45.1612" y2="50.7088" gradientUnits="userSpaceOnUse">
<stop stop-color="#8E59FF"/>
<stop offset="1" stop-color="#6888F9"/>
</linearGradient>
<linearGradient id="paint1_linear_167_38" x1="14.9801" y1="46.7834" x2="45.1606" y2="12.2908" gradientUnits="userSpaceOnUse">
<stop stop-color="#8E59FF"/>
<stop offset="1" stop-color="#6888F9"/>
</linearGradient>
</defs>
</svg>
