<svg width="64" height="64" viewBox="0 0 64 64" fill="none" xmlns="http://www.w3.org/2000/svg">
<rect width="64" height="64" fill="white"/>
<path d="M51.9531 30.6428C51.2035 19.6231 41.6626 11.2973 30.6428 12.0469C25.1532 12.4203 20.3331 14.9762 16.9695 18.809L16.9601 18.8022C16.9375 18.8336 16.9163 18.8645 16.8938 18.8958C13.5527 22.7473 11.6735 27.8684 12.0469 33.3572C12.0824 33.8802 12.144 34.3949 12.2184 34.9051C12.2184 34.905 12.2184 34.9052 12.2184 34.9051C12.2218 34.9281 12.2252 34.9515 12.2285 34.9746C12.2788 35.3112 12.3371 35.6447 12.4038 35.9753C12.4037 35.9752 12.4038 35.9755 12.4038 35.9753C12.405 35.9813 12.4063 35.9879 12.4074 35.9939C12.4681 36.2932 12.5355 36.5898 12.6092 36.8838C12.6093 36.884 12.6095 36.8849 12.6095 36.8851C14.9193 46.0964 23.5496 52.6202 33.3572 51.9531C44.377 51.2035 52.7027 41.6625 51.9531 30.6428ZM47.5997 30.9389C47.692 32.2956 47.6066 33.624 47.365 34.9019C47.3621 34.8946 47.3597 34.887 47.3567 34.8797C45.9068 31.3356 43.0387 28.7768 40.5165 27.3633C41.0269 21.358 38.9896 18.828 36.6838 18.4163C36.6211 18.4043 36.558 18.394 36.4939 18.386C34.6638 18.1513 32.9903 19.4449 32.7559 21.2748C32.5211 23.1049 33.8147 24.7785 35.6446 25.0133C35.8043 25.0335 35.9622 25.0391 36.1186 25.0366C36.1287 25.2393 36.1351 25.4547 36.1369 25.6799C34.0047 25.1515 32.0118 25.0481 30.1947 25.2115C29.5151 25.2568 28.8352 25.3424 28.1589 25.4688C28.3857 23.4409 29.1465 21.1643 30.6228 19.4982C32.0499 17.8877 34.1716 16.9646 36.4861 17.2015C36.9249 17.2464 37.3931 17.3541 37.8146 17.4956C37.8339 17.5021 37.8545 17.5076 37.8737 17.5143C37.8739 17.5139 37.8743 17.5134 37.8746 17.513C43.2356 19.697 47.1811 24.7849 47.5997 30.9389ZM33.6599 33.9937C33.6585 33.9959 33.6569 33.998 33.6555 34.0002C33.1783 34.6885 32.6107 35.3671 31.9445 36.0235C30.9457 34.9609 30.1434 33.8165 29.5347 32.6327C29.5035 32.5692 29.4702 32.5089 29.4397 32.4444C29.4386 32.4421 29.4375 32.4397 29.4363 32.4373C29.0787 31.6796 28.7747 30.8484 28.5393 29.9429C29.9605 29.6085 31.3542 29.4855 32.6852 29.5503C32.7557 29.555 32.8247 29.5564 32.8957 29.5622C32.8983 29.5624 32.901 29.5627 32.9036 29.5628C33.7372 29.6319 34.6077 29.7839 35.5081 30.0321C35.0871 31.4295 34.4969 32.6975 33.7755 33.8174C33.7362 33.8761 33.7005 33.9351 33.6599 33.9937ZM26.8259 17.2479C26.8222 17.2527 26.818 17.2573 26.8142 17.2621C24.4711 20.2883 23.6888 24.0492 23.725 26.9397C18.2693 29.5003 17.097 32.5295 17.8934 34.7322C17.9143 34.7925 17.9369 34.8523 17.9621 34.9118C18.6738 36.6141 20.6309 37.4166 22.3329 36.7047C24.0351 35.9929 24.8377 34.0358 24.1261 32.3337C24.0638 32.1853 23.9897 32.0457 23.9094 31.9115C24.0818 31.8001 24.2669 31.6857 24.4636 31.5702C25.072 33.6812 25.9722 35.4668 27.0224 36.9589C27.4006 37.5237 27.8139 38.0686 28.2604 38.5902C26.3907 39.408 24.0382 39.8877 21.8567 39.4422C19.7483 39.0116 17.888 37.6357 16.9359 35.5128C16.7555 35.1104 16.6147 34.6512 16.5265 34.2154C16.4723 33.8346 16.4268 33.4509 16.4003 33.0611C15.913 25.8969 20.3577 19.519 26.8259 17.2479ZM33.0611 47.5997C28.8068 47.8891 24.83 46.438 21.8244 43.8586C25.6168 44.3747 29.265 43.1717 31.7502 41.6951C36.6976 45.1424 39.9085 44.6433 41.4182 42.8518C41.46 42.8036 41.5005 42.7541 41.5394 42.7026C42.6577 41.235 42.3742 39.1389 40.9066 38.0209C39.4391 36.9026 37.3429 37.1861 36.2246 38.6534C36.1273 38.7816 36.0435 38.9155 35.9674 39.0522C35.786 38.9592 35.5955 38.8566 35.3986 38.745C36.9238 37.1618 38.0107 35.4863 38.7783 33.8299C39.0789 33.2187 39.3447 32.587 39.5734 31.9382C41.2175 33.1485 42.8106 34.9468 43.5159 37.0599C44.1971 39.1011 43.9357 41.4001 42.5733 43.2861C42.3151 43.6436 41.9877 43.9952 41.6543 44.2895C41.6495 44.2937 41.6447 44.2982 41.6399 44.3026C39.2564 46.176 36.3072 47.3789 33.0611 47.5997Z" fill="url(#paint0_linear_335_492)"/>
<path style="mix-blend-mode:overlay" opacity="0.9" d="M36.684 18.4163C36.6214 18.4042 36.5582 18.3939 36.4941 18.3859C36.1703 18.3444 35.852 18.353 35.5451 18.4017C37.4584 19.4425 38.8533 22.3425 38.1199 28.0631C37.877 29.9577 37.3136 31.7608 36.5 33.4152C35.8408 34.8378 34.9439 36.2739 33.7383 37.6541C34.3173 38.0883 34.8819 38.4518 35.3988 38.7449C36.9241 37.1617 38.011 35.4863 38.7785 33.8298C39.5921 32.1754 40.1555 30.3724 40.3984 28.4777C41.2716 21.6664 39.1279 18.8525 36.684 18.4163Z" fill="url(#paint1_radial_335_492)"/>
<g style="mix-blend-mode:overlay" opacity="0.8">
<path d="M38.1204 28.063C38.8537 22.3425 37.4588 19.4425 35.5456 18.4016C35.4708 18.4135 35.3975 18.4294 35.3244 18.4462C37.1975 19.5229 38.5452 22.4202 37.8218 28.063C37.5789 29.9577 37.0155 31.7607 36.202 33.4151C35.5646 34.7906 34.7025 36.1784 33.5566 37.5164C33.6176 37.5635 33.6781 37.6085 33.7388 37.654C34.9444 36.2739 35.8413 34.8377 36.5005 33.4151C37.3141 31.7607 37.8775 29.9577 38.1204 28.063Z" fill="#E6E9EE"/>
</g>
<path style="mix-blend-mode:overlay" opacity="0.5" d="M30.8481 41.0378C30.6683 40.9008 30.4953 40.7574 30.3223 40.614C27.4988 41.792 23.5847 42.5306 19.6982 41.6287C20.3347 42.4399 21.0449 43.189 21.8251 43.8585C25.6174 44.3747 29.2656 43.1716 31.7508 41.6951C31.4558 41.4895 31.1555 41.272 30.8481 41.0378Z" fill="url(#paint2_radial_335_492)"/>
<path style="mix-blend-mode:overlay" opacity="0.6" d="M30.322 40.614C30.2355 40.5424 30.1484 40.4714 30.0637 40.3982C27.2188 41.5351 23.2869 42.2147 19.4092 41.2482C19.5037 41.3765 19.5997 41.5035 19.698 41.6287C23.5844 42.5307 27.4985 41.7921 30.322 40.614Z" fill="url(#paint3_linear_335_492)"/>
<path style="mix-blend-mode:overlay" opacity="0.9" d="M17.8944 34.7355C17.9153 34.7958 17.9379 34.8556 17.9631 34.9151C18.089 35.2163 18.2556 35.4877 18.4512 35.7292C18.396 33.5518 20.21 30.8938 25.5309 28.6686C27.2931 27.9316 29.1363 27.518 30.9758 27.3954C32.5374 27.255 34.2296 27.3136 36.0277 27.6677C36.1142 26.9492 36.1468 26.2785 36.1421 25.6842C34.0084 25.1549 32.014 25.0513 30.1957 25.2148C28.3561 25.3375 26.513 25.7511 24.7507 26.488C18.4154 29.1375 17.0503 32.4009 17.8944 34.7355Z" fill="url(#paint4_radial_335_492)"/>
<g style="mix-blend-mode:overlay" opacity="0.8">
<path d="M25.5311 28.6686C20.2103 30.8938 18.3962 33.5519 18.4514 35.7292C18.499 35.788 18.5495 35.8435 18.6006 35.8985C18.5966 33.738 20.4318 31.1222 25.6803 28.9272C27.4426 28.1903 29.2858 27.7767 31.1253 27.654C32.6352 27.5182 34.2681 27.5709 35.9998 27.8943C36.0101 27.8179 36.0188 27.743 36.0279 27.6678C34.2299 27.3137 32.5376 27.255 30.9761 27.3954C29.1365 27.5181 27.2933 27.9317 25.5311 28.6686Z" fill="#E6E9EE"/>
</g>
<path style="mix-blend-mode:overlay" opacity="0.4" d="M40.4029 28.4792C40.3742 28.7035 40.3365 28.925 40.2988 29.1466C42.7308 31.0027 45.3275 34.0231 46.4896 37.8399C46.8739 36.8831 47.1675 35.8935 47.3573 34.8831C45.9081 31.3407 43.0421 28.7828 40.5208 27.3689C40.4903 27.7272 40.452 28.0959 40.4029 28.4792Z" fill="url(#paint5_radial_335_492)"/>
<path style="mix-blend-mode:overlay" opacity="0.5" d="M40.299 29.1465C40.2802 29.2572 40.2622 29.3681 40.2412 29.4781C42.6482 31.3734 45.2027 34.4387 46.3046 38.2801C46.3685 38.1341 46.4304 37.9875 46.4898 37.8398C45.3276 34.023 42.7309 31.0026 40.299 29.1465Z" fill="url(#paint6_linear_335_492)"/>
<path style="mix-blend-mode:overlay" opacity="0.9" d="M41.4205 42.8472C41.4623 42.799 41.5028 42.7495 41.5417 42.6979C41.7396 42.4383 41.8913 42.1583 42.0027 41.8682C40.1446 43.0047 36.9356 42.7627 32.3482 39.2673C30.8288 38.1096 29.549 36.7202 28.523 35.1884C27.6207 33.9062 26.8254 32.4114 26.233 30.6772C25.5674 30.9615 24.9703 31.2687 24.458 31.5699C25.0665 33.6824 25.974 35.4614 27.0247 36.9543C28.0507 38.4861 29.3305 39.8755 30.8499 41.0332C36.312 45.1951 39.8208 44.7455 41.4205 42.8472Z" fill="url(#paint7_radial_335_492)"/>
<g style="mix-blend-mode:overlay" opacity="0.8">
<path d="M32.3486 39.2673C36.9361 42.7627 40.1451 43.0047 42.0031 41.8682C42.0302 41.7976 42.0531 41.7261 42.0751 41.6544C40.2061 42.7381 37.023 42.4566 32.4979 39.0088C30.9786 37.8511 29.6988 36.4617 28.6728 34.9299C27.8003 33.6902 27.0294 32.2497 26.4437 30.5884C26.3723 30.6176 26.3031 30.6475 26.2334 30.6773C26.8258 32.4114 27.6211 33.9063 28.5235 35.1885C29.5495 36.7202 30.8293 38.1096 32.3486 39.2673Z" fill="#E6E9EE"/>
</g>
<path style="mix-blend-mode:overlay" opacity="0.3" d="M24.7483 26.482C24.9569 26.3948 25.1676 26.3167 25.3783 26.2385C25.7698 23.2043 27.0872 19.4453 29.8115 16.5305C28.7907 16.6761 27.7869 16.9166 26.817 17.2575C24.4738 20.2837 23.6916 24.0446 23.7278 26.9351C24.0533 26.7824 24.3918 26.6311 24.7483 26.482Z" fill="url(#paint8_radial_335_492)"/>
<path style="mix-blend-mode:overlay" opacity="0.4" d="M25.3779 26.2385C25.4832 26.1995 25.5882 26.1596 25.694 26.1228C26.1319 23.0906 27.5093 19.3457 30.2851 16.4707C30.1267 16.4884 29.9687 16.5081 29.8112 16.5306C27.0869 19.4454 25.7695 23.2043 25.3779 26.2385Z" fill="url(#paint9_linear_335_492)"/>
<path style="mix-blend-mode:multiply" opacity="0.4" d="M30.6427 12.0469C25.1531 12.4203 20.3331 14.9763 16.9695 18.809C16.9441 18.838 16.9188 18.867 16.8936 18.8961C17.5484 19.5457 19.6888 20.8262 20.5562 21.3603C22.2593 19.5287 24.4003 18.0996 26.8259 17.2479C26.9953 17.0296 27.1709 16.8143 27.3569 16.6044C29.616 14.0551 32.7011 12.7077 36.2795 12.7077C36.6778 12.7077 37.4889 12.7711 37.5063 12.7724C35.337 12.1491 33.025 11.8849 30.6427 12.0469Z" fill="url(#paint10_linear_335_492)"/>
<path style="mix-blend-mode:multiply" opacity="0.4" d="M33.0609 47.5997C28.8066 47.8891 24.8298 46.438 21.8242 43.8586C21.5445 43.8205 21.2641 43.7748 20.9832 43.7175C17.6459 43.0356 14.9365 41.0376 13.1473 37.9386C12.9482 37.5937 12.77 37.2423 12.6094 36.8853C14.9192 46.0965 23.5495 52.6202 33.357 51.9531C33.4005 50.9431 33.1028 48.5997 33.0609 47.5997Z" fill="url(#paint11_linear_335_492)"/>
<path style="mix-blend-mode:multiply" opacity="0.4" d="M51.9528 30.6428C51.3384 30.5798 48.3372 30.8167 47.5994 30.9389C47.6917 32.2956 47.6063 33.624 47.3647 34.9019C47.4683 35.1561 47.5665 35.4142 47.6547 35.6785C48.7329 38.9096 48.3572 42.2551 46.568 45.3541C46.3726 45.6926 46.1616 46.0168 45.9375 46.3289C45.9333 46.3348 45.9284 46.3416 45.9248 46.3466C45.9248 46.3466 45.934 46.3387 45.9392 46.3339C50.0014 42.3819 52.3675 36.7403 51.9528 30.6428Z" fill="url(#paint12_linear_335_492)"/>
<path style="mix-blend-mode:multiply" opacity="0.5" d="M36.4861 17.2015C36.9248 17.2464 37.393 17.3541 37.8145 17.4956C37.8339 17.5021 37.8545 17.5076 37.8736 17.5143L37.8746 17.513C39.5998 18.2159 41.1772 19.2208 42.5389 20.4639C42.5418 20.4664 42.5447 20.4684 42.5477 20.4708C43.204 19.7205 44.4676 18.8961 44.4676 18.8961C44.4676 18.8961 42.5327 16.9169 39.5734 16.3026C37.5017 15.8726 32.8289 15.4558 29.8818 20.4708C29.8818 20.4708 29.8936 20.4598 29.9108 20.4438C30.1288 20.1143 30.3606 19.7941 30.6227 19.4982C32.0499 17.8877 34.1716 16.9646 36.4861 17.2015Z" fill="url(#paint13_linear_335_492)"/>
<path style="mix-blend-mode:multiply" opacity="0.5" d="M42.5731 43.2843C42.3148 43.6418 41.9874 43.9934 41.6541 44.2877C41.6388 44.3012 41.6237 44.3162 41.6084 44.3295L41.609 44.3309C40.1377 45.4737 38.4787 46.3372 36.7213 46.8949C36.7177 46.8963 36.7145 46.8978 36.7109 46.8991C37.0326 47.8426 37.1147 49.3491 37.1147 49.3491C37.1147 49.3491 39.7963 48.6631 41.8078 46.4074C43.2161 44.8282 45.9135 40.9899 43.0439 35.9302C43.0439 35.9302 43.0476 35.9459 43.0527 35.9687C43.2291 36.3223 43.3906 36.6832 43.5157 37.0581C44.1969 39.0993 43.9355 41.3983 42.5731 43.2843Z" fill="url(#paint14_linear_335_492)"/>
<path style="mix-blend-mode:multiply" opacity="0.5" d="M16.9432 35.5188C16.7627 35.1163 16.6219 34.657 16.5337 34.2212C16.5297 34.2012 16.5241 34.1806 16.5203 34.1607L16.5188 34.1605C16.2648 32.315 16.3465 30.4465 16.7422 28.6456C16.7428 28.6419 16.7431 28.6384 16.7437 28.6346C15.7658 28.4414 14.42 27.7593 14.42 27.7593C14.42 27.7593 13.6734 30.4246 14.6211 33.2945C15.2846 35.3036 17.26 39.5588 23.0766 39.6035C23.0766 39.6035 23.0612 39.5989 23.0388 39.5919C22.6444 39.5679 22.2512 39.5273 21.8639 39.4482C19.7556 39.0175 17.8953 37.6417 16.9432 35.5188Z" fill="url(#paint15_linear_335_492)"/>
<path style="mix-blend-mode:multiply" opacity="0.6" d="M35.6448 25.0132C35.8044 25.0334 35.9624 25.039 36.1187 25.0365C36.1187 25.0365 36.0143 22.9585 35.7591 21.8923C35.5039 20.8261 35.1276 20.1201 34.7142 19.7204C34.418 19.4342 33.4831 19.0776 32.756 21.2747C32.5213 23.1048 33.8149 24.7784 35.6448 25.0132Z" fill="url(#paint16_linear_335_492)"/>
<path style="mix-blend-mode:multiply" opacity="0.5" d="M24.1274 32.3369C24.0651 32.1885 23.991 32.049 23.9107 31.9148C23.9107 31.9148 22.1633 33.0443 21.3675 33.7984C20.5717 34.5524 20.1485 35.2314 20.0091 35.7892C19.9092 36.1888 20.0679 37.1768 22.3342 36.7079C24.0364 35.9961 24.839 34.039 24.1274 32.3369Z" fill="url(#paint17_linear_335_492)"/>
<path style="mix-blend-mode:multiply" opacity="0.6" d="M36.2279 38.6479C36.1306 38.7761 36.0468 38.91 35.9707 39.0467C35.9707 39.0467 37.8226 39.9952 38.8735 40.3074C39.9244 40.6195 40.7241 40.6466 41.2769 40.4884C41.6729 40.375 42.4491 39.7436 40.9099 38.0154C39.4424 36.8971 37.3462 37.1806 36.2279 38.6479Z" fill="url(#paint18_linear_335_492)"/>
<path style="mix-blend-mode:multiply" opacity="0.3" d="M35.5079 30.0322C35.087 31.4296 34.4967 32.6976 33.7754 33.8175C33.7361 33.8762 33.7004 33.9352 33.6598 33.9938C33.6584 33.996 33.6568 33.9981 33.6554 34.0003C33.1782 34.6886 32.6106 35.3672 31.9443 36.0236C32.4022 36.5108 32.8973 36.9824 33.441 37.4298C34.1239 37.9687 34.7932 38.4019 35.3985 38.7451C36.9237 37.1619 38.0106 35.4865 38.7782 33.83C39.0788 33.2188 39.3446 32.5871 39.5733 31.9383C38.8697 31.4203 38.1569 31.0081 37.5001 30.728C36.8208 30.4385 36.1568 30.2111 35.5079 30.0322Z" fill="url(#paint19_linear_335_492)"/>
<path style="mix-blend-mode:multiply" opacity="0.3" d="M21.8243 43.8588C25.6167 44.3749 29.2648 43.1719 31.75 41.6953C31.455 41.4897 31.1547 41.2722 30.8473 41.038C29.8881 40.3071 29.025 39.4835 28.2603 38.5903C26.3905 39.4082 24.038 39.8879 21.8565 39.4424C19.7482 39.0117 17.8879 37.6359 16.9358 35.513C16.7553 35.1106 16.6146 34.6513 16.5264 34.2156C17.0773 38.0818 19.0283 41.4592 21.8243 43.8588Z" fill="url(#paint20_linear_335_492)"/>
<path style="mix-blend-mode:multiply" opacity="0.3" d="M31.9448 36.0237C30.946 34.9611 30.1437 33.8167 29.535 32.6329C29.5038 32.5695 29.4705 32.5091 29.44 32.4446C29.4389 32.4423 29.4378 32.4399 29.4366 32.4375C29.079 31.6798 28.775 30.8486 28.5396 29.9431C27.8902 30.0959 27.2357 30.2885 26.5779 30.5351C25.7715 30.8564 25.0629 31.2186 24.4639 31.5704C25.0723 33.6815 25.9725 35.467 27.0227 36.9592C27.4009 37.5239 27.8142 38.0688 28.2608 38.5904C29.0624 38.2397 29.7769 37.828 30.3485 37.3986C30.9379 36.9559 31.466 36.4954 31.9448 36.0237Z" fill="url(#paint21_linear_335_492)"/>
<path style="mix-blend-mode:multiply" opacity="0.3" d="M26.8141 17.2622C24.4709 20.2884 23.6886 24.0493 23.7248 26.9398C24.0516 26.7865 24.3915 26.6345 24.7496 26.4848C25.8609 26.0201 27.0043 25.6846 28.1588 25.4689C28.3856 23.441 29.1464 21.1644 30.6226 19.4983C32.0498 17.8878 34.1715 16.9647 36.486 17.2016C36.9248 17.2465 37.393 17.3542 37.8144 17.4957C37.8338 17.5022 37.8544 17.5077 37.8735 17.5144C37.8738 17.514 37.8742 17.5135 37.8745 17.5131C35.7421 16.6445 33.3865 16.2339 30.9388 16.4004C29.5012 16.4982 28.1237 16.7923 26.8258 17.248C26.8221 17.2528 26.8178 17.2574 26.8141 17.2622Z" fill="url(#paint22_linear_335_492)"/>
<path style="mix-blend-mode:multiply" opacity="0.3" d="M47.3566 34.8799C45.9066 31.3357 43.0386 28.777 40.5163 27.3635C40.4857 27.723 40.4473 28.0933 40.398 28.478C40.2448 29.6727 39.9637 30.8308 39.5732 31.9384C41.2173 33.1487 42.8104 34.947 43.5157 37.0601C44.197 39.1013 43.9356 41.4003 42.5732 43.2863C42.3149 43.6438 41.9875 43.9955 41.6542 44.2897C41.6493 44.294 41.6446 44.2984 41.6398 44.3029C44.576 41.9951 46.6528 38.669 47.3649 34.9021C47.3619 34.8949 47.3595 34.8872 47.3566 34.8799Z" fill="url(#paint23_linear_335_492)"/>
<path style="mix-blend-mode:multiply" opacity="0.3" d="M28.1469 27.8741C28.2356 28.6055 28.3702 29.2929 28.5392 29.943C29.9604 29.6086 31.3541 29.4857 32.6851 29.5505C32.7556 29.5552 32.8245 29.5565 32.8956 29.5624C32.8982 29.5626 32.9008 29.5628 32.9034 29.563C33.7371 29.632 34.6075 29.784 35.5079 30.0322C35.7005 29.393 35.861 28.7294 35.9765 28.0358C36.102 27.1737 36.1423 26.3765 36.1367 25.68C34.0046 25.1517 32.0117 25.0483 30.1945 25.2116C29.515 25.2569 28.835 25.3425 28.1588 25.4689C28.0615 26.339 28.0608 27.164 28.1469 27.8741Z" fill="url(#paint24_linear_335_492)"/>
<defs>
<linearGradient id="paint0_linear_335_492" x1="18.3512" y1="45.6497" x2="43.8545" y2="20.1464" gradientUnits="userSpaceOnUse">
<stop offset="0.001139" stop-color="#E6007A"/>
<stop offset="0.207149" stop-color="#703AC2"/>
<stop offset="0.456011" stop-color="#0070EB"/>
<stop offset="0.768132" stop-color="#0297FB"/>
<stop offset="1" stop-color="#0AE2FF"/>
</linearGradient>
<radialGradient id="paint1_radial_335_492" cx="0" cy="0" r="1" gradientUnits="userSpaceOnUse" gradientTransform="translate(37.7011 27.9515) scale(7.60439)">
<stop stop-color="white"/>
<stop offset="1" stop-color="white" stop-opacity="0"/>
</radialGradient>
<radialGradient id="paint2_radial_335_492" cx="0" cy="0" r="1" gradientUnits="userSpaceOnUse" gradientTransform="translate(26.4612 42.0586) scale(4.4243)">
<stop stop-color="white"/>
<stop offset="1" stop-color="white" stop-opacity="0"/>
</radialGradient>
<linearGradient id="paint3_linear_335_492" x1="19.8214" y1="41.3103" x2="24.0861" y2="41.2511" gradientUnits="userSpaceOnUse">
<stop stop-color="white" stop-opacity="0"/>
<stop offset="1" stop-color="white"/>
</linearGradient>
<radialGradient id="paint4_radial_335_492" cx="0" cy="0" r="1" gradientUnits="userSpaceOnUse" gradientTransform="translate(25.6436 29.0871) rotate(-120) scale(7.60439)">
<stop stop-color="white"/>
<stop offset="1" stop-color="white" stop-opacity="0"/>
</radialGradient>
<radialGradient id="paint5_radial_335_492" cx="0" cy="0" r="1" gradientUnits="userSpaceOnUse" gradientTransform="translate(43.4804 31.768) rotate(-120) scale(4.4243)">
<stop stop-color="white"/>
<stop offset="1" stop-color="white" stop-opacity="0"/>
</radialGradient>
<linearGradient id="paint6_linear_335_492" x1="46.1523" y1="37.8921" x2="43.9686" y2="34.2284" gradientUnits="userSpaceOnUse">
<stop stop-color="white" stop-opacity="0"/>
<stop offset="1" stop-color="white"/>
</linearGradient>
<radialGradient id="paint7_radial_335_492" cx="0" cy="0" r="1" gradientUnits="userSpaceOnUse" gradientTransform="translate(32.2952 38.6087) rotate(120) scale(7.60439)">
<stop stop-color="white"/>
<stop offset="1" stop-color="white" stop-opacity="0"/>
</radialGradient>
<radialGradient id="paint8_radial_335_492" cx="0" cy="0" r="1" gradientUnits="userSpaceOnUse" gradientTransform="translate(26.0577 22.1725) rotate(120) scale(4.4243)">
<stop stop-color="white"/>
<stop offset="1" stop-color="white" stop-opacity="0"/>
</radialGradient>
<linearGradient id="paint9_linear_335_492" x1="30.0253" y1="16.7966" x2="27.9442" y2="20.5196" gradientUnits="userSpaceOnUse">
<stop stop-color="white" stop-opacity="0"/>
<stop offset="1" stop-color="white"/>
</linearGradient>
<linearGradient id="paint10_linear_335_492" x1="30.9522" y1="14.9042" x2="24.4366" y2="16.7996" gradientUnits="userSpaceOnUse">
<stop stop-color="#231F20"/>
<stop offset="1" stop-color="white"/>
</linearGradient>
<linearGradient id="paint11_linear_335_492" x1="18.6389" y1="39.7541" x2="24.0882" y2="45.4404" gradientUnits="userSpaceOnUse">
<stop stop-color="#231F20"/>
<stop offset="1" stop-color="white"/>
</linearGradient>
<linearGradient id="paint12_linear_335_492" x1="47.8858" y1="38.897" x2="49.7812" y2="33.1318" gradientUnits="userSpaceOnUse">
<stop stop-color="#231F20"/>
<stop offset="1" stop-color="white"/>
</linearGradient>
<linearGradient id="paint13_linear_335_492" x1="33.921" y1="18.2011" x2="42.6566" y2="20.2013" gradientUnits="userSpaceOnUse">
<stop stop-color="#231F20"/>
<stop offset="1" stop-color="white"/>
</linearGradient>
<linearGradient id="paint14_linear_335_492" x1="42.9899" y1="40.5631" x2="36.8899" y2="47.1282" gradientUnits="userSpaceOnUse">
<stop stop-color="#231F20"/>
<stop offset="1" stop-color="white"/>
</linearGradient>
<linearGradient id="paint15_linear_335_492" x1="19.0914" y1="37.2403" x2="16.4559" y2="28.6751" gradientUnits="userSpaceOnUse">
<stop stop-color="#231F20"/>
<stop offset="1" stop-color="white"/>
</linearGradient>
<linearGradient id="paint16_linear_335_492" x1="35.831" y1="21.4229" x2="33.0668" y2="24.1871" gradientUnits="userSpaceOnUse">
<stop stop-color="#231F20"/>
<stop offset="1" stop-color="white"/>
</linearGradient>
<linearGradient id="paint17_linear_335_492" x1="20.925" y1="33.9708" x2="24.701" y2="34.9825" gradientUnits="userSpaceOnUse">
<stop stop-color="#231F20"/>
<stop offset="1" stop-color="white"/>
</linearGradient>
<linearGradient id="paint18_linear_335_492" x1="39.2441" y1="40.6043" x2="38.2323" y2="36.8284" gradientUnits="userSpaceOnUse">
<stop stop-color="#231F20"/>
<stop offset="1" stop-color="white"/>
</linearGradient>
<linearGradient id="paint19_linear_335_492" x1="33.4959" y1="37.247" x2="35.1544" y2="34.9566" gradientUnits="userSpaceOnUse">
<stop stop-color="#231F20"/>
<stop offset="1" stop-color="white"/>
</linearGradient>
<linearGradient id="paint20_linear_335_492" x1="27.7851" y1="36.2554" x2="24.4681" y2="37.835" gradientUnits="userSpaceOnUse">
<stop stop-color="#231F20"/>
<stop offset="1" stop-color="white"/>
</linearGradient>
<linearGradient id="paint21_linear_335_492" x1="26.5819" y1="30.734" x2="27.6086" y2="32.8664" gradientUnits="userSpaceOnUse">
<stop stop-color="#231F20"/>
<stop offset="1" stop-color="white"/>
</linearGradient>
<linearGradient id="paint22_linear_335_492" x1="31.3576" y1="24.1483" x2="30.6468" y2="21.7001" gradientUnits="userSpaceOnUse">
<stop stop-color="#231F20"/>
<stop offset="1" stop-color="white"/>
</linearGradient>
<linearGradient id="paint23_linear_335_492" x1="39.0181" y1="35.3578" x2="41.0715" y2="35.8317" gradientUnits="userSpaceOnUse">
<stop stop-color="#231F20"/>
<stop offset="1" stop-color="white"/>
</linearGradient>
<linearGradient id="paint24_linear_335_492" x1="35.7956" y1="28.4211" x2="33.1894" y2="27.9473" gradientUnits="userSpaceOnUse">
<stop stop-color="#231F20"/>
<stop offset="1" stop-color="white"/>
</linearGradient>
</defs>
</svg>
