<svg width="64" height="64" viewBox="0 0 64 64" fill="none" xmlns="http://www.w3.org/2000/svg">
<rect width="64" height="64" fill="#080808"/>
<path d="M12 50.4308C12 50.1511 12.2131 49.5916 12.6393 48.7525C13.0522 47.9267 13.5051 46.8679 13.9979 45.5758C14.5041 44.2839 14.9836 42.9387 15.4364 41.5401C15.8893 40.1416 16.3488 38.6431 16.815 37.0447L18.3734 31.7703L16.2955 32.3296C15.7761 32.3296 15.3498 32.0565 15.0169 31.5106C14.937 31.3641 14.897 31.1909 14.897 30.9911C14.897 30.7912 15.0568 30.5583 15.3765 30.2917C15.6962 30.0121 16.0891 29.7523 16.5553 29.5127C17.4876 29.033 18.4466 28.6667 19.4323 28.4137L19.6121 27.8542C19.9717 26.7355 20.3113 25.5767 20.631 24.378C20.964 23.1659 21.3103 21.9871 21.6699 20.8416C22.0429 19.6962 22.4624 18.6106 22.9286 17.585C23.3948 16.5461 23.9409 15.6404 24.5669 14.8679C25.9521 13.1896 27.6904 12.3505 29.7814 12.3505C31.3265 12.3505 32.5519 12.7634 33.4577 13.5892C34.3634 14.415 34.8162 15.5338 34.8162 16.9457C34.8162 18.4108 34.3966 19.6829 33.5576 20.7617C32.8515 21.6541 32.0658 22.1003 31.2 22.1003C30.1212 22.1003 29.3886 21.6075 29.0022 20.6219C28.8958 20.3688 28.8424 20.1557 28.8424 19.9825C28.8424 19.6895 29.0423 19.4231 29.4419 19.1834C30.1745 18.624 30.6871 17.8781 30.9803 16.9457C31.0735 16.6527 31.1201 16.3663 31.1201 16.0866C31.1201 14.9944 30.6938 14.4483 29.8414 14.4483C28.6693 14.4483 27.5905 15.7736 26.6048 18.4242C26.3117 19.2366 26.0187 20.129 25.7257 21.1014L23.8476 27.4748C25.0597 27.2883 25.9388 27.195 26.4849 27.195C27.0443 27.195 27.5372 27.2617 27.9633 27.3949C28.3896 27.5147 28.7757 27.6878 29.1222 27.9143C29.9079 28.4338 30.301 29.073 30.301 29.8323C30.301 30.5915 29.928 30.971 29.182 30.971L26.6447 30.8713C25.2595 30.8713 23.9809 30.931 22.8087 31.0511L21.1704 36.8448C20.0916 40.7743 19.2125 43.6311 18.5332 45.416C17.8672 47.2007 17.2146 48.7126 16.5752 49.9514C15.9759 51.0833 15.0635 51.6495 13.8381 51.6495C12.6127 51.6495 12 51.2433 12 50.4308Z" fill="url(#paint0_linear_264_576)"/>
<path d="M33.2658 45.5958C32.693 46.0088 32.2468 46.2151 31.9271 46.2151C31.6208 46.2151 31.3611 46.1685 31.1479 46.0753C30.9482 45.9954 30.7617 45.8888 30.5886 45.7556C30.189 45.4227 29.9892 45.1229 29.9892 44.8565C29.9892 44.5768 30.1357 44.3238 30.4286 44.0974C30.4286 44.0974 30.8349 43.771 31.6474 43.1185C33.8318 41.3202 35.6366 39.3691 37.0619 37.2645C35.903 34.0145 35.3702 31.3107 35.4635 29.153C35.5168 28.0874 35.9763 27.1685 36.8419 26.3958C37.6412 25.7032 38.4937 25.3569 39.3994 25.3569C39.6658 25.3569 39.8389 25.4502 39.9187 25.6366C39.9988 25.8231 40.0388 26.0962 40.0388 26.4558C40.0388 26.8021 40.0254 27.1749 39.9988 27.5747C39.9721 27.9609 39.9654 28.3738 39.9787 28.8133C40.0053 29.2396 40.0388 29.7056 40.0787 30.2118C40.2119 31.5704 40.3384 32.6294 40.4582 33.3886L41.1176 32.2896C42.6359 29.879 44.4075 27.9676 46.432 26.5557C47.5775 25.7565 48.5631 25.3569 49.389 25.3569C50.1348 25.3569 50.7143 25.4635 51.127 25.6766C51.8996 26.0762 52.1595 26.4824 51.9063 26.8954C51.8663 26.9619 51.7865 27.0152 51.6665 27.0551L51.1672 27.2949C49.0626 28.2139 46.3787 30.465 43.1156 34.0478C42.4363 34.7938 41.8435 35.5063 41.3373 36.1856L42.0367 38.5231C42.9023 41.3202 43.928 42.7189 45.1133 42.7189C45.6329 42.7189 46.0592 42.6388 46.392 42.4791L47.1113 42.1594C47.2578 42.0927 47.3977 42.0595 47.5309 42.0595C47.8106 42.0595 47.9505 42.1994 47.9505 42.4791C47.9505 43.6512 47.3511 44.6368 46.1522 45.4359C45.3531 45.9688 44.4474 46.2352 43.4352 46.2352C41.4772 46.2352 39.7057 44.2172 38.1207 40.1815C36.4424 42.6455 34.8241 44.4503 33.2658 45.5958Z" fill="url(#paint1_linear_264_576)"/>
<defs>
<linearGradient id="paint0_linear_264_576" x1="32" y1="25.6139" x2="32" y2="51.6495" gradientUnits="userSpaceOnUse">
<stop stop-color="#E9FF90"/>
<stop offset="1" stop-color="#5B6D12"/>
</linearGradient>
<linearGradient id="paint1_linear_264_576" x1="31.9999" y1="25.6139" x2="31.9999" y2="51.6495" gradientUnits="userSpaceOnUse">
<stop stop-color="#E9FF90"/>
<stop offset="1" stop-color="#5B6D12"/>
</linearGradient>
</defs>
</svg>
