<svg width="64" height="64" viewBox="0 0 64 64" fill="none" xmlns="http://www.w3.org/2000/svg">
<rect width="64" height="64" transform="matrix(-1 0 0 1 64 0)" fill="#211F20"/>
<path d="M17.2002 21.7435C24.5682 11.227 39.9075 11.6282 46.761 21.6955C43.3419 25.1186 39.9198 28.5428 36.4854 31.9802C39.9341 35.4432 43.349 38.8725 46.812 42.3507C43.1786 47.1991 38.4037 49.9035 32.3149 49.9974C25.9985 50.0954 21.0246 47.4033 17.238 42.4069C20.7061 38.9429 24.1302 35.5228 27.5626 32.0935C24.0649 28.6 20.6407 25.1799 17.1992 21.7435H17.2002ZM37.9065 21.5383C34.1822 19.2861 29.05 19.6118 26.1517 21.5597C28.1108 23.5188 30.0771 25.4851 32.0179 27.4259C33.9535 25.4902 35.9198 23.524 37.9065 21.5383ZM26.1241 42.4212C28.219 44.5141 35.0418 44.5396 37.8494 42.4916C35.8831 40.5253 33.9086 38.5519 31.9515 36.5948C30.0383 38.508 28.0812 40.4651 26.1241 42.4212Z" fill="white"/>
<path d="M47.2847 41.5228C45.8636 40.0986 44.467 38.706 43.0856 37.2982C43.003 37.2145 42.9815 36.9868 43.0315 36.8684C44.3883 33.6311 44.3873 30.3998 43.0336 27.1615C42.9795 27.0328 43.0101 26.7858 43.101 26.6929C44.4608 25.3095 45.837 23.9435 47.2102 22.5745C47.2306 22.5541 47.2694 22.5531 47.298 22.5428C50.813 27.7904 51.0386 35.7638 47.2837 41.5228H47.2847Z" fill="white"/>
<path d="M16.7306 41.5125C13.0318 35.8658 13.1502 27.8874 16.7245 22.5194C16.8245 22.6082 16.9276 22.6888 17.0195 22.7807C18.2834 24.0426 19.5402 25.3116 20.8133 26.5622C21.0399 26.7848 21.0879 26.9522 20.9593 27.2574C19.6331 30.4039 19.6413 33.5637 20.945 36.7132C21.0777 37.0338 21.045 37.2135 20.799 37.4544C19.4401 38.7877 18.1007 40.1414 16.7306 41.5125Z" fill="white"/>
</svg>
