<svg width="64" height="64" viewBox="0 0 64 64" fill="none" xmlns="http://www.w3.org/2000/svg">
<rect width="64" height="64" fill="#3368EF"/>
<g clip-path="url(#clip0_766_307)">
<path d="M12.7139 20H31.0998C31.4325 20 31.7018 20.2631 31.7018 20.588V29.0017C31.7018 29.527 31.3884 30.0038 30.9001 30.2223L28.5843 31.2604C28.4712 31.3112 28.3983 31.4216 28.3983 31.5438C28.3983 31.6644 28.4689 31.7731 28.5803 31.8248L30.917 32.9099C31.3964 33.1323 31.7018 33.6043 31.7018 34.1234V43.2112C31.7018 43.5362 31.4325 43.7992 31.0998 43.7992H12.7139C11.7671 43.7992 11 43.05 11 42.1254V21.6738C11 20.7492 11.7671 20 12.7139 20ZM22.686 35.8661C23.1549 35.8661 23.4892 35.8043 23.688 35.6814C23.9044 35.5577 24.0127 35.329 24.0127 34.994V34.9408C24.0127 34.5884 23.8956 34.3411 23.6607 34.2001C23.4443 34.0592 23.074 33.9888 22.5505 33.9888H19.1228V35.8661H22.686ZM22.524 29.4401C23.3546 29.4401 23.7698 29.1489 23.7698 28.5672V28.4349C23.7698 28.0998 23.6616 27.8704 23.4451 27.7475C23.2463 27.6066 22.9128 27.5361 22.4431 27.5361H19.1236V29.4401H22.5249H22.524ZM33.2601 33.9096H40.837C40.837 34.5094 40.9452 34.9236 41.1617 35.153C41.3966 35.3823 41.73 35.4966 42.1637 35.4966C42.9036 35.4966 43.274 35.0824 43.274 34.2534C43.274 33.8478 43.1473 33.5574 42.8948 33.3804C42.6599 33.2043 42.2992 33.1158 41.8118 33.1158H37.6418V30.0485L44.0587 28.4881H33.2601C32.9588 28.4881 32.7142 28.2494 32.7142 27.955V20.4455C32.7142 20.1996 32.9186 20 33.1704 20H50.9342C51.881 20 52.6481 20.7492 52.6481 21.6738V27.6755C52.6481 28.3535 52.1711 28.943 51.4962 29.1004L44.4652 30.7366L44.7899 30.7899H51.5002C52.3282 30.7899 53 31.446 53 32.2546V42.1261C53 43.0508 52.2328 43.8 51.2862 43.8H33.1704C32.9186 43.8 32.7142 43.6003 32.7142 43.3546V34.4428C32.7142 34.1485 32.9588 33.9096 33.2601 33.9096Z" fill="white"/>
</g>
<defs>
<clipPath id="clip0_766_307">
<rect width="42" height="23.8" fill="white" transform="translate(11 20)"/>
</clipPath>
</defs>
</svg>
