<svg width="64" height="64" viewBox="0 0 64 64" fill="none" xmlns="http://www.w3.org/2000/svg">
<rect width="64" height="64" fill="black"/>
<path fill-rule="evenodd" clip-rule="evenodd" d="M43.3988 15.2986C43.3988 16.568 42.3671 17.5972 41.0942 17.5972C39.8215 17.5972 38.7897 16.568 38.7897 15.2986C38.7897 14.0291 39.8215 13 41.0942 13C42.3671 13 43.3988 14.0291 43.3988 15.2986ZM45.9914 47.7666C45.9914 49.0363 44.9597 50.0653 43.6869 50.0653C42.4142 50.0653 41.3823 49.0363 41.3823 47.7666C41.3823 46.4972 42.4142 45.4681 43.6869 45.4681C44.9597 45.4681 45.9914 46.4972 45.9914 47.7666ZM41.7531 23.344C42.8212 23.344 43.6872 22.4801 43.6872 21.4147C43.6872 20.3492 42.8212 19.4855 41.7531 19.4855C40.6849 19.4855 39.8189 20.3492 39.8189 21.4147C39.8189 22.4801 40.6849 23.344 41.7531 23.344ZM48.8315 22.1533C48.8315 23.2187 47.9655 24.0826 46.8974 24.0826C45.8292 24.0826 44.9632 23.2187 44.9632 22.1533C44.9632 21.0878 45.8292 20.2241 46.8974 20.2241C47.9655 20.2241 48.8315 21.0878 48.8315 22.1533ZM41.0943 28.2283C42.0035 28.2283 42.7405 27.4932 42.7405 26.5864C42.7405 25.6796 42.0035 24.9446 41.0943 24.9446C40.1854 24.9446 39.4483 25.6796 39.4483 26.5864C39.4483 27.4932 40.1854 28.2283 41.0943 28.2283ZM47.8849 27.2844C47.8849 28.1912 47.1478 28.9263 46.2388 28.9263C45.3295 28.9263 44.5928 28.1912 44.5928 27.2844C44.5928 26.3778 45.3295 25.6427 46.2388 25.6427C47.1478 25.6427 47.8849 26.3778 47.8849 27.2844ZM50.354 30.5269C51.2631 30.5269 52 29.7918 52 28.885C52 27.9781 51.2631 27.2432 50.354 27.2432C49.4449 27.2432 48.7078 27.9781 48.7078 28.885C48.7078 29.7918 49.4449 30.5269 50.354 30.5269ZM46.156 31.4301C46.156 32.2233 45.5112 32.8666 44.7155 32.8666C43.9202 32.8666 43.2752 32.2233 43.2752 31.4301C43.2752 30.6364 43.9202 29.9933 44.7155 29.9933C45.5112 29.9933 46.156 30.6364 46.156 31.4301ZM39.5722 32.1686C40.3675 32.1686 41.0123 31.5253 41.0123 30.732C41.0123 29.9386 40.3675 29.2952 39.5722 29.2952C38.7766 29.2952 38.1318 29.9386 38.1318 30.732C38.1318 31.5253 38.7766 32.1686 39.5722 32.1686ZM50.3125 33.0304C50.3125 33.824 49.6675 34.4672 48.8723 34.4672C48.0766 34.4672 47.4318 33.824 47.4318 33.0304C47.4318 32.2372 48.0766 31.594 48.8723 31.594C49.6675 31.594 50.3125 32.2372 50.3125 33.0304ZM42.6583 35.8624C43.3403 35.8624 43.8929 35.3112 43.8929 34.6312C43.8929 33.951 43.3403 33.3996 42.6583 33.3996C41.9765 33.3996 41.4238 33.951 41.4238 34.6312C41.4238 35.3112 41.9765 35.8624 42.6583 35.8624ZM48.0495 36.191C48.0495 36.8712 47.4968 37.4224 46.8149 37.4224C46.1332 37.4224 45.5803 36.8712 45.5803 36.191C45.5803 35.511 46.1332 34.9596 46.8149 34.9596C47.4968 34.9596 48.0495 35.511 48.0495 36.191ZM37.5551 35.1235C38.2369 35.1235 38.7897 34.5723 38.7897 33.8923C38.7897 33.2121 38.2369 32.6609 37.5551 32.6609C36.8732 32.6609 36.3205 33.2121 36.3205 33.8923C36.3205 34.5723 36.8732 35.1235 37.5551 35.1235ZM41.4237 36.8481C41.4237 37.4149 40.9632 37.8743 40.3949 37.8743C39.8266 37.8743 39.3662 37.4149 39.3662 36.8481C39.3662 36.2813 39.8266 35.822 40.3949 35.822C40.9632 35.822 41.4237 36.2813 41.4237 36.8481ZM42.164 40.7063C42.6642 40.7063 43.0694 40.302 43.0694 39.8032C43.0694 39.3044 42.6642 38.9001 42.164 38.9001C41.6642 38.9001 41.2588 39.3044 41.2588 39.8032C41.2588 40.302 41.6642 40.7063 42.164 40.7063ZM40.724 40.5424C40.724 40.9506 40.3923 41.2813 39.9832 41.2813C39.5742 41.2813 39.2425 40.9506 39.2425 40.5424C39.2425 40.1344 39.5742 39.8036 39.9832 39.8036C40.3923 39.8036 40.724 40.1344 40.724 40.5424ZM38.0489 39.1466C38.5489 39.1466 38.9542 38.7423 38.9542 38.2435C38.9542 37.7449 38.5489 37.3406 38.0489 37.3406C37.5489 37.3406 37.1435 37.7449 37.1435 38.2435C37.1435 38.7423 37.5489 39.1466 38.0489 39.1466ZM36.2798 36.1503C36.2798 36.717 35.8191 37.1764 35.2511 37.1764C34.6828 37.1764 34.222 36.717 34.222 36.1503C34.222 35.5833 34.6828 35.1241 35.2511 35.1241C35.8191 35.1241 36.2798 35.5833 36.2798 36.1503ZM35.2095 29.4592C35.7778 29.4592 36.2385 29 36.2385 28.4332C36.2385 27.8663 35.7778 27.407 35.2095 27.407C34.6414 27.407 34.1808 27.8663 34.1808 28.4332C34.1808 29 34.6414 29.4592 35.2095 29.4592ZM36.5675 24.9444C36.5675 25.443 36.1622 25.8473 35.6622 25.8473C35.1622 25.8473 34.7569 25.443 34.7569 24.9444C34.7569 24.4456 35.1622 24.0413 35.6622 24.0413C36.1622 24.0413 36.5675 24.4456 36.5675 24.9444ZM36.65 22.8921C37.0591 22.8921 37.3908 22.5613 37.3908 22.1533C37.3908 21.7452 37.0591 21.4144 36.65 21.4144C36.2409 21.4144 35.9092 21.7452 35.9092 22.1533C35.9092 22.5613 36.2409 22.8921 36.65 22.8921ZM35.8269 20.5936C35.8269 21.0924 35.4215 21.4967 34.9217 21.4967C34.4215 21.4967 34.0162 21.0924 34.0162 20.5936C34.0162 20.095 34.4215 19.6906 34.9217 19.6906C35.4215 19.6906 35.8269 20.095 35.8269 20.5936ZM44.5102 39.4336C45.0783 39.4336 45.5389 38.9743 45.5389 38.4073C45.5389 37.8407 45.0783 37.3813 44.5102 37.3813C43.9418 37.3813 43.4812 37.8407 43.4812 38.4073C43.4812 38.9743 43.9418 39.4336 44.5102 39.4336ZM33.6046 19.2801C33.6046 19.8467 33.144 20.3061 32.5758 20.3061C32.0077 20.3061 31.5469 19.8467 31.5469 19.2801C31.5469 18.7133 32.0077 18.254 32.5758 18.254C33.144 18.254 33.6046 18.7133 33.6046 19.2801ZM33.2757 24.6572C33.8438 24.6572 34.3045 24.1976 34.3045 23.631C34.3045 23.0643 33.8438 22.6049 33.2757 22.6049C32.7074 22.6049 32.2469 23.0643 32.2469 23.631C32.2469 24.1976 32.7074 24.6572 33.2757 24.6572ZM33.3585 27.5712C33.3585 28.2513 32.8057 28.8027 32.1238 28.8027C31.442 28.8027 30.8892 28.2513 30.8892 27.5712C30.8892 26.8912 31.442 26.34 32.1238 26.34C32.8057 26.34 33.3585 26.8912 33.3585 27.5712ZM28.3785 28.8024C29.174 28.8024 29.8189 28.1592 29.8189 27.3658C29.8189 26.5723 29.174 25.929 28.3785 25.929C27.5829 25.929 26.9382 26.5723 26.9382 27.3658C26.9382 28.1592 27.5829 28.8024 28.3785 28.8024ZM25.6628 28.1463C25.6628 29.0532 24.9257 29.7883 24.0166 29.7883C23.1075 29.7883 22.3706 29.0532 22.3706 28.1463C22.3706 27.2396 23.1075 26.5046 24.0166 26.5046C24.9257 26.5046 25.6628 27.2396 25.6628 28.1463ZM19.2428 32.1281C20.3111 32.1281 21.1771 31.2643 21.1771 30.1989C21.1771 29.1332 20.3111 28.2696 19.2428 28.2696C18.1746 28.2696 17.3088 29.1332 17.3088 30.1989C17.3088 31.2643 18.1746 32.1281 19.2428 32.1281ZM16.609 33.7693C16.609 35.0389 15.5772 36.068 14.3044 36.068C13.0317 36.068 12 35.0389 12 33.7693C12 32.5 13.0317 31.4709 14.3044 31.4709C15.5772 31.4709 16.609 32.5 16.609 33.7693ZM17.3089 27.3252C18.3771 27.3252 19.2431 26.4613 19.2431 25.396C19.2431 24.3304 18.3771 23.4667 17.3089 23.4667C16.2406 23.4667 15.3748 24.3304 15.3748 25.396C15.3748 26.4613 16.2406 27.3252 17.3089 27.3252ZM23.7278 23.3435C23.7278 24.2503 22.9908 24.9853 22.0817 24.9853C21.1726 24.9853 20.4357 24.2503 20.4357 23.3435C20.4357 22.4367 21.1726 21.7016 22.0817 21.7016C22.9908 21.7016 23.7278 22.4367 23.7278 23.3435ZM21.3825 20.6344C22.2917 20.6344 23.0286 19.8993 23.0286 18.9926C23.0286 18.0858 22.2917 17.3507 21.3825 17.3507C20.4734 17.3507 19.7365 18.0858 19.7365 18.9926C19.7365 19.8993 20.4734 20.6344 21.3825 20.6344ZM27.1849 18.2127C27.1849 19.0061 26.5402 19.6493 25.7446 19.6493C24.9491 19.6493 24.3043 19.0061 24.3043 18.2127C24.3043 17.4193 24.9491 16.7761 25.7446 16.7761C26.5402 16.7761 27.1849 17.4193 27.1849 18.2127ZM29.4892 19.6495C30.1711 19.6495 30.7238 19.0981 30.7238 18.4181C30.7238 17.7381 30.1711 17.1867 29.4892 17.1867C28.8075 17.1867 28.2548 17.7381 28.2548 18.4181C28.2548 19.0981 28.8075 19.6495 29.4892 19.6495ZM31.4235 22.7684C31.4235 23.4486 30.8708 23.9998 30.1889 23.9998C29.5071 23.9998 28.9543 23.4486 28.9543 22.7684C28.9543 22.0884 29.5071 21.537 30.1889 21.537C30.8708 21.537 31.4235 22.0884 31.4235 22.7684ZM26.4443 24.0413C27.2398 24.0413 27.8846 23.3981 27.8846 22.6047C27.8846 21.8113 27.2398 21.1681 26.4443 21.1681C25.6488 21.1681 25.004 21.8113 25.004 22.6047C25.004 23.3981 25.6488 24.0413 26.4443 24.0413ZM23.1109 34.2209C23.1109 34.6289 22.7792 34.9596 22.3702 34.9596C21.9611 34.9596 21.6294 34.6289 21.6294 34.2209C21.6294 33.8127 21.9611 33.4821 22.3702 33.4821C22.7792 33.4821 23.1109 33.8127 23.1109 34.2209ZM25.3334 34.5903C25.8334 34.5903 26.2388 34.1861 26.2388 33.6873C26.2388 33.1886 25.8334 32.7843 25.3334 32.7843C24.8334 32.7843 24.428 33.1886 24.428 33.6873C24.428 34.1861 24.8334 34.5903 25.3334 34.5903ZM29.6129 32.3332C29.6129 32.9 29.1522 33.3593 28.584 33.3593C28.0158 33.3593 27.5552 32.9 27.5552 32.3332C27.5552 31.7664 28.0158 31.307 28.584 31.307C29.1522 31.307 29.6129 31.7664 29.6129 32.3332ZM29.3658 36.6424C30.0477 36.6424 30.6005 36.0912 30.6005 35.4112C30.6005 34.731 30.0477 34.1796 29.3658 34.1796C28.6838 34.1796 28.1312 34.731 28.1312 35.4112C28.1312 36.0912 28.6838 36.6424 29.3658 36.6424ZM26.4445 36.3961C26.4445 36.9627 25.9838 37.4223 25.4157 37.4223C24.8474 37.4223 24.3868 36.9627 24.3868 36.3961C24.3868 35.8293 24.8474 35.37 25.4157 35.37C25.9838 35.37 26.4445 35.8293 26.4445 36.3961ZM21.9174 37.3812C22.4174 37.3812 22.8228 36.9769 22.8228 36.4781C22.8228 35.9793 22.4174 35.575 21.9174 35.575C21.4174 35.575 21.012 35.9793 21.012 36.4781C21.012 36.9769 21.4174 37.3812 21.9174 37.3812ZM22.9869 39.1873C22.9869 39.7543 22.5265 40.2135 21.9582 40.2135C21.39 40.2135 20.9294 39.7543 20.9294 39.1873C20.9294 38.6207 21.39 38.1613 21.9582 38.1613C22.5265 38.1613 22.9869 38.6207 22.9869 39.1873ZM26.1562 40.7473C26.838 40.7473 27.3909 40.196 27.3909 39.5158C27.3909 38.8358 26.838 38.2844 26.1562 38.2844C25.4745 38.2844 24.9217 38.8358 24.9217 39.5158C24.9217 40.196 25.4745 40.7473 26.1562 40.7473ZM32.494 38.7772C32.494 39.5706 31.8489 40.2138 31.0535 40.2138C30.2582 40.2138 29.6132 39.5706 29.6132 38.7772C29.6132 37.9836 30.2582 37.3406 31.0535 37.3406C31.8489 37.3406 32.494 37.9836 32.494 38.7772ZM33.934 43.7844C34.8431 43.7844 35.58 43.0493 35.58 42.1426C35.58 41.2356 34.8431 40.5006 33.934 40.5006C33.0248 40.5006 32.2878 41.2356 32.2878 42.1426C32.2878 43.0493 33.0248 43.7844 33.934 43.7844ZM29.3249 42.8407C29.3249 43.6343 28.68 44.2775 27.8845 44.2775C27.0891 44.2775 26.4442 43.6343 26.4442 42.8407C26.4442 42.0475 27.0891 41.4043 27.8845 41.4043C28.68 41.4043 29.3249 42.0475 29.3249 42.8407ZM24.4686 47.0683C25.2642 47.0683 25.9089 46.425 25.9089 45.6316C25.9089 44.8381 25.2642 44.195 24.4686 44.195C23.6732 44.195 23.0283 44.8381 23.0283 45.6316C23.0283 46.425 23.6732 47.0683 24.4686 47.0683ZM28.9543 49.0387C28.9543 49.9456 28.2172 50.6807 27.3082 50.6807C26.3991 50.6807 25.662 49.9456 25.662 49.0387C25.662 48.1321 26.3991 47.397 27.3082 47.397C28.2172 47.397 28.9543 48.1321 28.9543 49.0387ZM34.8806 51.3373C35.9489 51.3373 36.8149 50.4736 36.8149 49.4083C36.8149 48.3427 35.9489 47.479 34.8806 47.479C33.8125 47.479 32.9465 48.3427 32.9465 49.4083C32.9465 50.4736 33.8125 51.3373 34.8806 51.3373ZM32.37 46.2473C32.37 47.1541 31.6329 47.8892 30.7238 47.8892C29.8148 47.8892 29.0778 47.1541 29.0778 46.2473C29.0778 45.3406 29.8148 44.6055 30.7238 44.6055C31.6329 44.6055 32.37 45.3406 32.37 46.2473ZM38.0494 47.2329C39.1175 47.2329 39.9834 46.3693 39.9834 45.3036C39.9834 44.2384 39.1175 43.3746 38.0494 43.3746C36.9811 43.3746 36.1151 44.2384 36.1151 45.3036C36.1151 46.3693 36.9811 47.2329 38.0494 47.2329ZM23.9749 42.3072C23.9749 42.9873 23.4222 43.5386 22.7403 43.5386C22.0586 43.5386 21.5058 42.9873 21.5058 42.3072C21.5058 41.6272 22.0586 41.0758 22.7403 41.0758C23.4222 41.0758 23.9749 41.6272 23.9749 42.3072Z" fill="white"/>
</svg>
