<svg width="64" height="64" viewBox="0 0 64 64" fill="none" xmlns="http://www.w3.org/2000/svg">
<rect width="64" height="64" fill="url(#paint0_linear_618_25)"/>
<path d="M27.1339 19.6701C19.5323 22.5708 18.8362 30.0297 16.6364 33.5106C14.4367 36.9914 9.36898 38.9528 10.0651 40.7485C10.7612 42.5442 15.8289 40.6103 19.8386 41.7706C23.8482 42.9309 29.3058 47.9588 36.9074 45.0581C38.7503 44.3526 40.4168 43.2585 41.7917 41.8514C43.1667 40.4444 44.2173 38.7579 44.8709 36.9085C44.9374 36.7583 44.941 36.5881 44.881 36.4352C44.8209 36.2824 44.7021 36.1595 44.5507 36.0935C44.3994 36.0276 44.2277 36.024 44.0737 36.0836C43.9197 36.1432 43.7958 36.261 43.7293 36.4112C42.944 37.9825 41.7811 39.3378 40.3432 40.358C38.9053 41.3781 37.2366 42.0316 35.4841 42.2609C33.7315 42.4902 31.9491 42.2882 30.2938 41.6727C28.6385 41.0573 27.1613 40.0473 25.9923 38.7318C25.3159 37.9783 24.7531 37.1315 24.3216 36.2179C24.1824 35.9692 24.071 35.693 23.9596 35.4444C23.8482 35.1957 23.7647 34.8918 23.6812 34.6156C25.9922 33.5658 28.6096 32.4331 31.6169 31.3005C34.6241 30.1679 37.2137 29.2562 39.5805 28.5379C41.1955 28.0407 42.6712 27.6263 43.9799 27.2948L44.2862 27.2395C44.3822 27.2131 44.4847 27.2242 44.5727 27.2704C44.6608 27.3166 44.7276 27.3946 44.7596 27.4882C44.8092 27.5941 44.8466 27.7053 44.8709 27.8197C45.1432 28.555 45.3482 29.3132 45.4835 30.085C45.4963 30.1589 45.5267 30.2287 45.5722 30.2886C45.6178 30.3485 45.6771 30.3967 45.7453 30.4292C45.8134 30.4616 45.8884 30.4774 45.964 30.4752C46.0396 30.473 46.1135 30.4528 46.1797 30.4165C47.2656 29.8363 48.268 29.2562 49.159 28.7313C52.5004 26.687 54.3381 24.9466 53.9484 23.9797C53.5587 23.0128 51.0525 22.9299 47.2099 23.6205C45.9848 23.8416 44.6204 24.1454 43.1724 24.5322L42.4206 24.7256C41.1676 25.0571 39.8868 25.4162 38.5502 25.8306C36.0442 26.6041 33.3432 27.5434 30.5588 28.5932C27.7743 29.643 25.5189 30.6099 23.2356 31.632C23.2245 29.8788 23.6458 28.1496 24.4629 26.595C25.28 25.0405 26.4681 23.708 27.9235 22.7135C29.3788 21.7192 31.0573 21.0931 32.8125 20.8901C34.5677 20.687 36.3464 20.9131 37.9933 21.5486C38.1133 21.5894 38.2424 21.5954 38.3656 21.566C38.4889 21.5367 38.6012 21.4732 38.6894 21.3829C38.7564 21.3142 38.8062 21.2309 38.8347 21.1396C38.8631 21.0483 38.8694 20.9516 38.8532 20.8574C38.8369 20.7632 38.7984 20.6741 38.741 20.5974C38.6835 20.5207 38.6086 20.4586 38.5224 20.416C36.7934 19.4761 34.8784 18.9224 32.9113 18.7936C30.9441 18.6648 28.9724 18.9639 27.1339 19.6701Z" fill="#FFF4E1"/>
<defs>
<linearGradient id="paint0_linear_618_25" x1="32" y1="0" x2="32" y2="64" gradientUnits="userSpaceOnUse">
<stop stop-color="#561190"/>
<stop offset="1" stop-color="#020103"/>
</linearGradient>
</defs>
</svg>
