<svg width="64" height="64" viewBox="0 0 64 64" fill="none" xmlns="http://www.w3.org/2000/svg">
<rect width="64" height="64" transform="matrix(-1 0 0 1 64 0)" fill="#243144"/>
<path d="M33.149 8.4809C33.5273 8.70001 33.8965 8.91524 34.2674 9.12746C34.8123 9.43923 35.359 9.74797 35.904 10.0596C36.3987 10.3425 36.8913 10.6288 37.3862 10.9112C37.8851 11.196 38.3864 11.4765 38.8852 11.7613C39.3801 12.0438 39.8728 12.3299 40.367 12.6135C41.1702 13.0745 41.9732 13.5358 42.7774 13.9951C43.6202 14.4765 44.4652 14.9544 45.3077 15.4364C46.0805 15.8786 46.8503 16.3258 47.6232 16.7679C48.3576 17.1879 49.095 17.6027 49.8296 18.0223C50.4946 18.402 51.1573 18.7855 51.8215 19.1664C52.1846 19.3746 52.5474 19.5833 52.9138 19.7858C52.9793 19.822 53.0071 19.8599 52.9982 19.9304C52.9949 19.9567 52.9977 19.9837 52.9977 20.0104C52.9977 27.9061 52.9974 35.8018 53 43.6975C53 43.8193 52.975 43.888 52.8555 43.9548C52.047 44.4064 51.2456 44.8705 50.4426 45.3317C49.6705 45.7752 48.9003 46.2217 48.1274 46.6638C47.3931 47.0839 46.6554 47.4983 45.921 47.9182C45.148 48.3601 44.378 48.807 43.6052 49.2492C42.9328 49.634 42.2575 50.014 41.5848 50.3984C40.92 50.7783 40.2577 51.1624 39.5929 51.5423C39.0323 51.8625 38.4687 52.1778 37.9081 52.498C37.3669 52.8071 36.8285 53.1209 36.2875 53.4304C35.7889 53.7157 35.288 53.9967 34.7893 54.2817C34.2481 54.591 33.7086 54.903 33.1679 55.2132C32.7972 55.4258 32.4266 55.6387 32.0532 55.8469C32.023 55.8637 31.9644 55.8586 31.9325 55.8404C31.0396 55.3302 30.1494 54.8154 29.2566 54.3049C28.4604 53.8495 27.6607 53.4001 26.8643 52.9449C26.1532 52.5384 25.4455 52.126 24.7346 51.7191C24.0622 51.3343 23.3869 50.9544 22.7142 50.57C22.0494 50.1901 21.387 49.8061 20.7223 49.4259C20.1116 49.0766 19.4986 48.7313 18.8879 48.382C18.2232 48.0019 17.5608 47.6179 16.896 47.2381C16.3315 46.9156 15.764 46.5983 15.1995 46.2757C14.5965 45.9312 13.9963 45.582 13.3935 45.2371C12.7829 44.8877 12.1705 44.5413 11.559 44.1933C11.3927 44.0987 11.2256 44.005 11.0621 43.9058C11.0341 43.8889 11.0149 43.8481 11.005 43.8144C10.9953 43.7816 11.0027 43.7439 11.0027 43.7083C11.0027 35.8037 11.0029 27.899 11.0007 19.9944C11.0006 19.8819 11.0266 19.8198 11.1356 19.7582C12.0813 19.2237 13.0199 18.677 13.9627 18.1374C14.7588 17.6818 15.5586 17.2325 16.3549 16.7773C17.066 16.3708 17.7736 15.9582 18.4846 15.5516C19.219 15.1315 19.9564 14.7167 20.6911 14.2971C21.356 13.9174 22.0183 13.5333 22.683 13.1532C23.2937 12.8039 23.9067 12.4586 24.5173 12.1092C25.1201 11.7643 25.7204 11.4153 26.3232 11.0704C26.93 10.7233 27.5391 10.3801 28.146 10.0332C28.9422 9.57806 29.7371 9.1207 30.5329 8.66478C31.0004 8.39698 31.4673 8.12826 31.9382 7.86644C31.9749 7.846 32.0487 7.86234 32.0917 7.88595C32.4432 8.07925 32.7914 8.27834 33.149 8.4809ZM20.2128 46.1035C20.221 46.1072 20.2295 46.1104 20.2373 46.1149C24.1232 48.3365 28.0092 50.558 31.8936 52.7821C31.9757 52.8291 32.0326 52.8249 32.1108 52.7797C32.7768 52.395 33.445 52.0143 34.1127 51.6326C39.4894 48.5588 44.866 45.4849 50.2439 42.4133C50.3289 42.3647 50.3585 42.3123 50.3584 42.2153C50.3559 35.3073 50.3559 28.3993 50.3585 21.4914C50.3585 21.3934 50.3269 21.3417 50.2425 21.294C49.5961 20.9291 48.9526 20.5592 48.3082 20.1908C42.9042 17.1019 37.5002 14.0131 32.0974 10.9222C32.0256 10.8811 31.9769 10.8796 31.9045 10.9211C29.6736 12.1993 27.4412 13.4748 25.2089 14.7507C21.3966 16.9298 17.5844 19.1092 13.7706 21.2857C13.6712 21.3424 13.6415 21.405 13.6416 21.5163C13.6446 28.4064 13.6446 35.2966 13.6417 42.1868C13.6416 42.3025 13.6726 42.3663 13.7778 42.4262C15.919 43.6455 18.0574 44.8695 20.2128 46.1035Z" fill="#A3CEF1"/>
<path d="M20.2046 46.098C18.0574 44.8695 15.919 43.6455 13.7778 42.4262C13.6726 42.3663 13.6416 42.3025 13.6417 42.1868C13.6446 35.2966 13.6446 28.4064 13.6416 21.5163C13.6415 21.405 13.6712 21.3424 13.7706 21.2857C17.5844 19.1092 21.3966 16.9298 25.2089 14.7507C27.4412 13.4748 29.6736 12.1993 31.9045 10.9211C31.9769 10.8796 32.0256 10.8811 32.0974 10.9222C37.5002 14.0131 42.9042 17.1019 48.3082 20.1908C48.9526 20.5592 49.5961 20.9291 50.2425 21.294C50.3269 21.3417 50.3585 21.3934 50.3585 21.4914C50.3559 28.3993 50.3559 35.3073 50.3584 42.2153C50.3585 42.3123 50.3289 42.3647 50.2439 42.4133C44.866 45.4849 39.4894 48.5588 34.1127 51.6326C33.445 52.0143 32.7768 52.395 32.1108 52.7797C32.0326 52.8249 31.9757 52.8291 31.8936 52.7821C28.0092 50.558 24.1232 48.3365 20.2373 46.1149C20.2295 46.1104 20.221 46.1072 20.2046 46.098ZM41.8792 38.6309C41.8821 38.6229 41.8849 38.6149 41.8919 38.5842C41.802 38.0596 41.7294 37.5313 41.6179 37.0112C41.4789 36.3632 41.2554 35.7396 40.9747 35.1376C40.4826 34.082 39.8143 33.1626 38.8728 32.4492C38.7376 32.3466 38.626 32.2026 38.5322 32.0593C38.3038 31.7103 38.2165 31.3091 38.1774 30.9042C38.1283 30.3957 38.1424 29.8839 38.2287 29.3791C38.3008 28.958 38.3639 28.531 38.489 28.1242C38.7645 27.2286 39.0768 26.3441 39.3737 25.455C39.4165 25.3268 39.4574 25.1981 39.503 25.0578C39.4649 25.0688 39.4468 25.0715 39.4309 25.079C38.3239 25.5959 37.2011 26.0823 36.1138 26.637C33.9986 27.7159 32.1959 29.1939 30.6496 30.9806C30.411 31.2563 30.1876 31.5447 29.9521 31.8335C29.9376 31.8174 29.9221 31.8026 29.9093 31.7858C29.3061 30.9862 28.6348 30.2473 27.9026 29.5616C26.799 28.5281 25.6078 27.6051 24.2681 26.8951C23.2702 26.3663 22.2335 25.9091 21.2132 25.4218C20.9525 25.2973 20.6885 25.1793 20.3985 25.0456C20.4192 25.1284 20.4292 25.1836 20.4467 25.2363C20.7584 26.1733 21.0667 27.1114 21.3846 28.0463C21.6217 28.7436 21.7166 29.4654 21.75 30.1933C21.7664 30.5511 21.7283 30.9163 21.6713 31.2714C21.5921 31.7647 21.3877 32.2009 20.9665 32.5157C20.3759 32.9572 19.8988 33.5048 19.503 34.1204C18.6825 35.3963 18.2562 36.8071 18.0653 38.2963C18.0504 38.4121 18.0437 38.5288 18.0326 38.6512C18.9202 38.6512 19.7812 38.6512 20.6545 38.6512C20.6814 38.4569 20.6928 38.2624 20.7371 38.0755C20.8594 37.5595 20.9814 37.0432 21.1822 36.5484C21.5142 35.7304 21.9699 35.0053 22.7015 34.4742C22.8309 34.3803 22.9462 34.2649 23.057 34.1491C23.8478 33.3233 24.2012 32.3103 24.3143 31.2028C24.3494 30.8591 24.3361 30.5105 24.3453 30.1642C24.3464 30.1232 24.3497 30.0824 24.3532 30.0209C24.4133 30.062 24.4536 30.0882 24.4925 30.1163C25.4541 30.8102 26.3311 31.5973 27.1152 32.4829C27.6821 33.123 28.2158 33.7888 28.5692 34.5639C28.7255 34.5639 28.8777 34.564 29.0299 34.5639C29.7576 34.5636 30.4853 34.5607 31.2129 34.5657C31.3242 34.5665 31.3705 34.5289 31.4199 34.4317C31.5404 34.1946 31.6689 33.959 31.8187 33.7392C32.7111 32.4299 33.8257 31.3289 35.0775 30.3586C35.2303 30.2402 35.3877 30.1277 35.5582 30.0012C35.5582 30.2123 35.5621 30.3952 35.5574 30.5779C35.5446 31.0847 35.6271 31.5802 35.7511 32.068C35.9981 33.0402 36.4707 33.8808 37.2827 34.5034C37.7229 34.841 38.0761 35.2473 38.3515 35.722C38.853 36.5864 39.1084 37.5298 39.2496 38.5084C39.2597 38.5783 39.2574 38.6345 39.3591 38.6339C40.1944 38.6291 41.0298 38.6292 41.8792 38.6309ZM45.7549 32.5687C45.8243 32.3611 45.8937 32.1535 45.9717 31.9201C45.4816 32.144 45.0203 32.3513 44.5634 32.5676C44.5044 32.5956 44.4451 32.6622 44.4241 32.7237C44.0613 33.7831 43.6998 34.843 43.3485 35.9062C43.1705 36.445 42.9299 36.9671 42.8773 37.5414C42.8448 37.896 42.8445 38.2495 42.9197 38.5994C43.2447 38.5994 43.5605 38.5994 43.8493 38.5994C43.9605 38.1519 44.0416 37.7131 44.1791 37.2924C44.6924 35.7214 45.2241 34.1563 45.7549 32.5687ZM27.2981 36.0701C26.6953 35.5591 26.0352 35.1532 25.2548 34.9613C24.9494 34.8862 24.6431 34.889 24.3235 34.9039C24.3751 34.9354 24.4164 34.9539 24.4495 34.9819C24.7125 35.2055 24.8294 35.5127 24.9354 35.8254C24.9406 35.8406 24.935 35.8607 24.9307 35.8776C24.8844 36.0574 24.8301 36.2356 24.7939 36.4173C24.7776 36.4987 24.7865 36.5893 24.8026 36.6721C24.8556 36.9445 25.0676 37.0584 25.304 37.1397C25.6556 37.2605 26.0243 37.3075 26.3909 37.3204C26.9827 37.3412 27.5758 37.3267 28.1683 37.3248C28.2264 37.3246 28.2844 37.3079 28.37 37.2945C28.0829 36.8096 27.7101 36.4357 27.2981 36.0701ZM32.8223 37.326C33.2706 37.299 33.7212 37.2909 34.1663 37.2374C34.3994 37.2094 34.6282 37.1149 34.8484 37.0251C34.9876 36.9683 35.0877 36.8456 35.1009 36.6862C35.1229 36.4221 35.0788 36.165 34.9949 35.9133C34.9803 35.8696 34.9796 35.8118 34.9957 35.769C35.1191 35.4392 35.2453 35.1097 35.5723 34.9052C35.1513 34.87 34.7533 34.9104 34.3663 35.0445C33.2714 35.424 32.4218 36.1253 31.7208 37.0211C31.6588 37.1004 31.6106 37.1903 31.5524 37.2808C31.5915 37.3001 31.6142 37.3209 31.637 37.3211C32.0231 37.3242 32.4093 37.3248 32.8223 37.326ZM41.7949 35.5142C41.9681 36.0606 42.1412 36.6071 42.2989 37.1046C42.74 35.7746 43.1969 34.3969 43.665 32.9856C42.8073 33.3812 41.982 33.7618 41.1707 34.136C41.3806 34.599 41.5837 35.047 41.7949 35.5142Z" fill="#243144"/>
<path d="M41.9766 38.7453C41.1412 38.7467 40.3058 38.7466 39.4704 38.7514C39.3688 38.752 39.3711 38.6958 39.361 38.6259C39.2197 37.6472 38.9644 36.7039 38.4629 35.8395C38.1874 35.3647 37.8343 34.9585 37.3941 34.6209C36.5821 33.9983 36.1095 33.1577 35.8624 32.1855C35.7385 31.6977 35.656 31.2022 35.6688 30.6954C35.6734 30.5127 35.6695 30.3298 35.6695 30.1187C35.4991 30.2452 35.3416 30.3577 35.1889 30.4761C33.937 31.4464 32.8224 32.5474 31.9301 33.8567C31.7803 34.0765 31.6517 34.312 31.5312 34.5492C31.4819 34.6464 31.4356 34.684 31.3243 34.6832C30.5967 34.6782 29.869 34.6811 29.1413 34.6814C28.9891 34.6815 28.8369 34.6814 28.6806 34.6814C28.3272 33.9063 27.7935 33.2405 27.2266 32.6003C26.4425 31.7148 25.5654 30.9277 24.6039 30.2337C24.565 30.2056 24.5246 30.1794 24.4645 30.1384C24.4611 30.1999 24.4578 30.2407 24.4567 30.2817C24.4475 30.628 24.4607 30.9765 24.4257 31.3202C24.3126 32.4278 23.9591 33.4407 23.1684 34.2666C23.0576 34.3824 22.9422 34.4978 22.8129 34.5917C22.0813 35.1228 21.6255 35.8479 21.2936 36.6659C21.0928 37.1607 20.9708 37.6769 20.8485 38.193C20.8042 38.3799 20.7928 38.5744 20.7659 38.7687C19.8926 38.7687 19.0315 38.7687 18.144 38.7687C18.155 38.6463 18.1618 38.5295 18.1766 38.4138C18.3676 36.9246 18.7939 35.5137 19.6143 34.2379C20.0102 33.6223 20.4872 33.0747 21.0779 32.6332C21.4991 32.3184 21.7034 31.8822 21.7826 31.3888C21.8396 31.0338 21.8778 30.6686 21.8614 30.3108C21.828 29.5829 21.7331 28.8611 21.496 28.1638C21.178 27.2289 20.8697 26.2908 20.5581 25.3538C20.5406 25.3011 20.5305 25.2459 20.5098 25.1631C20.7999 25.2968 21.0638 25.4148 21.3246 25.5393C22.3448 26.0266 23.3816 26.4838 24.3795 27.0126C25.7191 27.7226 26.9104 28.6456 28.014 29.6791C28.7461 30.3647 29.4175 31.1037 30.0207 31.9033C30.0334 31.9201 30.0489 31.9349 30.0635 31.951C30.299 31.6622 30.5224 31.3737 30.7609 31.0981C32.3073 29.3114 34.11 27.8334 36.2252 26.7544C37.3125 26.1998 38.4353 25.7134 39.5422 25.1965C39.5582 25.189 39.5763 25.1863 39.6144 25.1753C39.5688 25.3156 39.5279 25.4443 39.4851 25.5724C39.1882 26.4616 38.8759 27.346 38.6004 28.2416C38.4752 28.6485 38.4121 29.0755 38.3401 29.4966C38.2538 30.0013 38.2397 30.5132 38.2888 31.0216C38.3279 31.4265 38.4151 31.8277 38.6436 32.1768C38.7374 32.3201 38.8489 32.4641 38.9842 32.5667C39.9256 33.2801 40.5939 34.1995 41.0861 35.2551C41.3668 35.8571 41.5903 36.4807 41.7292 37.1287C41.8407 37.6488 41.9134 38.1771 41.9963 38.7152C41.9829 38.7326 41.9787 38.7382 41.9766 38.7453Z" fill="white"/>
<path d="M45.7519 32.5788C45.2241 34.1563 44.6924 35.7214 44.1791 37.2924C44.0416 37.7131 43.9605 38.1519 43.8493 38.5994C43.5604 38.5994 43.2447 38.5994 42.9197 38.5994C42.8445 38.2495 42.8448 37.896 42.8773 37.5414C42.9299 36.9671 43.1705 36.4449 43.3485 35.9062C43.6998 34.843 44.0613 33.7831 44.4241 32.7237C44.4451 32.6622 44.5044 32.5956 44.5634 32.5676C45.0203 32.3513 45.4816 32.144 45.9717 31.92C45.8936 32.1535 45.8243 32.3611 45.7519 32.5788Z" fill="#58A5F0"/>
<path d="M27.3049 36.0767C27.7101 36.4357 28.0829 36.8095 28.37 37.2945C28.2844 37.3079 28.2264 37.3246 28.1683 37.3248C27.5758 37.3267 26.9827 37.3412 26.3909 37.3204C26.0243 37.3075 25.6556 37.2605 25.304 37.1397C25.0676 37.0584 24.8556 36.9445 24.8026 36.6721C24.7865 36.5893 24.7776 36.4987 24.7939 36.4172C24.8301 36.2355 24.8844 36.0574 24.9307 35.8776C24.935 35.8607 24.9406 35.8406 24.9354 35.8254C24.8294 35.5127 24.7125 35.2055 24.4495 34.9819C24.4165 34.9539 24.3751 34.9354 24.3235 34.9039C24.6431 34.889 24.9494 34.8862 25.2548 34.9613C26.0352 35.1531 26.6953 35.5591 27.3049 36.0767Z" fill="#FEFEFE"/>
<path d="M32.8089 37.326C32.4093 37.3248 32.0231 37.3242 31.637 37.3211C31.6142 37.3209 31.5915 37.3001 31.5524 37.2808C31.6106 37.1903 31.6588 37.1004 31.7208 37.0211C32.4218 36.1253 33.2714 35.424 34.3663 35.0445C34.7533 34.9104 35.1513 34.87 35.5723 34.9052C35.2453 35.1097 35.1191 35.4392 34.9957 35.769C34.9796 35.8118 34.9803 35.8696 34.9949 35.9133C35.0788 36.165 35.1229 36.4221 35.1009 36.6862C35.0877 36.8455 34.9876 36.9683 34.8484 37.0251C34.6282 37.1149 34.3994 37.2094 34.1663 37.2374C33.7212 37.2909 33.2706 37.299 32.8089 37.326Z" fill="#FEFEFE"/>
<path d="M41.7909 35.5046C41.5838 35.047 41.3806 34.599 41.1707 34.136C41.9821 33.7618 42.8073 33.3812 43.665 32.9856C43.1969 34.3969 42.74 35.7745 42.2989 37.1046C42.1413 36.6071 41.9681 36.0606 41.7909 35.5046Z" fill="#58A5EF"/>
<path d="M41.8723 38.6298C41.8673 38.621 41.8716 38.6153 41.8831 38.6091C41.8852 38.615 41.8823 38.6232 41.8723 38.6298Z" fill="#E4E6E8"/>
</svg>
