<svg width="64" height="64" viewBox="0 0 64 64" fill="none" xmlns="http://www.w3.org/2000/svg">
<rect width="64" height="64" transform="matrix(-1 0 0 1 64 0)" fill="#FF3D00"/>
<path fill-rule="evenodd" clip-rule="evenodd" d="M14 14.0026V28.2119L19.0724 33.29V19.0807L33.2115 19.1281L28.1416 14.0474L14.0026 14L14 14.0026ZM39.7236 25.3676V38.1969L34.6512 33.1188V20.2896L39.7236 25.3676ZM25.5817 39.5322H38.3901L33.3204 34.4515H20.5118L25.5817 39.5322ZM46.9321 45.353V32.5883L41.8598 27.5102V41.7195L27.7207 41.6722L32.7906 46.7528L45.5769 46.7957L48.2734 49.4964L50 49.7437L49.6711 48.0965L46.9321 45.353Z" fill="white"/>
</svg>
