<svg width="64" height="64" viewBox="0 0 64 64" fill="none" xmlns="http://www.w3.org/2000/svg">
<rect width="64" height="64" fill="#0C0A09"/>
<path d="M48.3829 35.4555C48.1235 35.3089 47.8667 35.1542 47.6155 34.9995C45.3822 33.607 45.3822 30.3903 47.6155 29.0005C47.8667 28.8432 48.1235 28.6911 48.3829 28.5445C50.8123 27.1657 51.646 24.1092 50.2435 21.7204C48.8412 19.3317 45.7328 18.5119 43.3034 19.8909C43.1792 19.9615 43.0522 20.032 42.9252 20.0999C40.5262 21.4001 37.5476 19.7362 37.542 17.0462V16.9946C37.542 14.2367 35.2674 12 32.4626 12C29.6578 12 27.383 14.2367 27.383 16.9946C27.383 17.0109 27.383 17.0299 27.383 17.0462C27.3775 19.7389 24.3988 21.4001 21.9998 20.0999C21.8728 20.032 21.7486 19.9615 21.6216 19.8909C19.1923 18.5119 16.0838 19.329 14.6815 21.7204C13.2791 24.1092 14.11 27.1657 16.5421 28.5445C16.8016 28.6911 17.0583 28.8458 17.3096 29.0005C19.5429 30.3931 19.5429 33.6097 17.3096 34.9995C17.0583 35.157 16.8016 35.3089 16.5421 35.4555C14.1128 36.8345 13.2791 39.8882 14.6815 42.2796C16.0838 44.6711 19.1923 45.4881 21.6216 44.1092C21.7459 44.0386 21.8728 43.968 21.9998 43.9001C24.3988 42.5999 27.3775 44.2639 27.383 46.9539C27.383 46.9702 27.383 46.9892 27.383 47.0054C27.383 49.7633 29.6578 52 32.4626 52C35.2674 52 37.542 49.7633 37.542 47.0054V46.9539C37.5476 44.2611 40.5262 42.5999 42.9252 43.8975C43.0522 43.9653 43.1764 44.0358 43.3034 44.1064C45.7328 45.4854 48.8412 44.6683 50.2435 42.2769C51.646 39.8882 50.8151 36.8317 48.3829 35.4528V35.4555ZM48.0904 41.0581C47.6294 41.8453 46.7653 42.3339 45.8377 42.3339C45.3877 42.3339 44.9404 42.2145 44.5458 41.9919C40.8769 39.9099 36.7001 38.8078 32.4626 38.8078C28.225 38.8078 24.0482 39.9099 20.3794 41.9919C19.9791 42.22 19.5429 42.3339 19.0874 42.3339C18.1598 42.3339 17.2985 41.8453 16.8347 41.0581C16.1197 39.8393 16.5449 38.2758 17.7844 37.5728C25.238 33.341 29.8675 25.4555 29.8675 16.9946C29.8675 15.5885 31.0325 14.443 32.4626 14.443C33.8925 14.443 35.0575 15.5885 35.0575 16.9946C35.0575 25.4555 39.687 33.341 47.1407 37.5728C47.7397 37.9147 48.1704 38.4631 48.3498 39.1227C48.5293 39.7823 48.4382 40.4691 48.0904 41.0581Z" fill="url(#paint0_linear_167_61)"/>
<defs>
<linearGradient id="paint0_linear_167_61" x1="39.7129" y1="43.6164" x2="29.3505" y2="18.6992" gradientUnits="userSpaceOnUse">
<stop stop-color="#FFD569"/>
<stop offset="0.515056" stop-color="#FC8E4F"/>
<stop offset="1" stop-color="#FF697B"/>
</linearGradient>
</defs>
</svg>
