<svg width="64" height="64" viewBox="0 0 64 64" fill="none" xmlns="http://www.w3.org/2000/svg">
<rect width="64" height="64" fill="#04063D"/>
<g clip-path="url(#clip0_264_533)">
<path d="M51.1372 24.2077C50.1182 21.8253 48.6605 19.6867 46.8041 17.8505C44.9492 16.0158 42.7888 14.5754 40.3837 13.5692C37.8937 12.528 35.2497 12 32.5258 12H13.2719V29.0397H32.5258C34.1873 29.0397 35.5394 30.3676 35.5394 32C35.5394 33.6324 34.1873 34.9603 32.5258 34.9603H21.3588C20.3506 34.9603 19.533 35.7779 19.533 36.7861C19.533 37.7942 20.3506 38.6119 21.3588 38.6119H32.5258C36.2011 38.6119 39.191 35.6457 39.191 32C39.191 28.3543 36.2011 25.3881 32.5258 25.3881H16.9235V15.6516H32.5258C36.9507 15.6516 41.1091 17.3546 44.2361 20.4471C47.3578 23.5342 49.0765 27.6368 49.0765 32C49.0765 36.3632 47.3573 40.4658 44.2361 43.5529C41.1091 46.6454 36.9507 48.3484 32.5258 48.3484H16.9235V45.3866H32.5258C36.132 45.3866 39.5236 43.9965 42.0753 41.473C44.6324 38.944 46.0412 35.5796 46.0412 32C46.0412 28.4204 44.6329 25.0565 42.0753 22.527C39.5236 20.0035 36.132 18.6134 32.5258 18.6134H27.4274C26.4192 18.6134 25.6015 19.431 25.6015 20.4392C25.6015 21.4473 26.4192 22.265 27.4274 22.265H32.5258C37.9647 22.265 42.3896 26.6321 42.3896 32C42.3896 37.3679 37.9647 41.735 32.5258 41.735H13.2719V52H32.5258C35.2497 52 37.8937 51.472 40.3832 50.4303C42.7883 49.4241 44.9487 47.9837 46.8036 46.149C48.66 44.3129 50.1177 42.1742 51.1367 39.7918C52.1927 37.323 52.7281 34.7012 52.7281 31.9995C52.7281 29.2978 52.1927 26.676 51.1367 24.2073L51.1372 24.2077Z" fill="#F8FAFC"/>
<path d="M15.6346 38.9608C16.9349 38.9608 17.9889 37.9067 17.9889 36.6065C17.9889 35.3062 16.9349 34.2522 15.6346 34.2522C14.3344 34.2522 13.2803 35.3062 13.2803 36.6065C13.2803 37.9067 14.3344 38.9608 15.6346 38.9608Z" fill="#F8FAFC"/>
<path d="M21.3178 22.8266C22.6058 22.8266 23.6499 21.7825 23.6499 20.4945C23.6499 19.2065 22.6058 18.1624 21.3178 18.1624C20.0298 18.1624 18.9857 19.2065 18.9857 20.4945C18.9857 21.7825 20.0298 22.8266 21.3178 22.8266Z" fill="#F8FAFC"/>
</g>
<defs>
<clipPath id="clip0_264_533">
<rect width="39.4562" height="40" fill="white" transform="translate(13.2719 12)"/>
</clipPath>
</defs>
</svg>
