<svg width="42" height="42" viewBox="0 0 42 42" fill="none" xmlns="http://www.w3.org/2000/svg">
<g clip-path="url(#clip0_264_199)">
<path d="M4.68085 5.65533C2.30798 7.05934 -0.227227 12.109 5.32169 15.9996C10.8679 19.8901 10.096 20.6335 10.6913 21.8353C11.2866 23.0372 10.9277 24.1908 10.9277 24.1908C10.9277 24.1908 5.07682 25.7629 6.96253 31.6756C8.84824 37.5881 10.4519 39.5476 13.8731 41.0257C17.1291 42.4328 18.5135 41.7037 19.0005 41.4388C19.4876 41.174 22.5071 39.1318 24.2788 40.0204C28.0161 41.8973 30.9445 42.1908 33.3173 40.778C35.6931 39.3683 37.8608 38.3031 39.3734 33.43C40.8887 28.5568 41.2136 24.1109 39.3734 21.616C37.5333 19.1182 34.998 17.6971 34.998 17.6971C34.998 17.6971 35.0692 17.512 34.6847 13.6642C34.1462 8.25278 29.0019 0.531578 25.4467 0.713862C22.0997 0.884752 18.2 3.03787 19.2997 7.06506C20.1913 10.3319 26.6146 19.4174 23.2506 21.3483C18.764 23.9202 16.9012 -1.57032 4.678 5.65818L4.68085 5.65533Z" fill="#C0FF0E"/>
<path d="M34.8403 18.1213C34.7578 13.2054 33.194 7.91368 30.0975 4.07439C28.4881 2.06081 25.9158 0.613985 23.3607 1.5624C19.7573 2.787 18.3672 5.05707 19.9881 8.67132C20.817 10.5254 22.076 12.2286 22.7938 14.1481C23.1926 15.1022 23.5345 16.082 23.8108 17.0845C24.0672 18.124 24.315 19.1637 24.1128 20.2572C23.8649 21.7156 22.1785 22.1001 21.1758 21.0833C20.3755 20.2858 19.9538 19.2974 19.518 18.3035C18.7205 16.4067 18.1251 14.4415 17.3276 12.5674C15.8861 9.09569 12.935 5.75202 9.08658 5.22228C7.22087 5.01153 5.44625 5.81453 4.07028 7.07066C3.08189 7.93922 2.24442 9.13837 2.32986 10.5026C2.62611 13.3677 5.42053 15.481 7.56843 17.1529C9.37145 18.4003 11.5306 21.6757 11.035 23.9285L10.8955 23.9001C11.0321 21.932 9.54524 20.0608 8.2491 18.725C7.517 18.0272 6.59986 17.5859 5.79078 16.9706C4.94205 16.364 4.11314 15.7089 3.36389 14.9455C0.56376 12.2229 -0.0144914 8.7767 3.08188 5.99689C5.66558 3.4707 9.27751 2.93524 12.4279 4.75791C15.2879 6.38143 17.3646 9.07854 18.4926 12.0918C19.2474 14.02 19.7602 16.0165 20.4239 17.9532C20.7486 18.8475 21.1019 19.8272 21.72 20.5278C22.2726 21.2028 23.3437 21.049 23.5118 20.1149C23.7424 19.1892 23.5459 18.1411 23.3351 17.2042C22.8479 15.2447 22.076 13.3193 21.022 11.5962C19.9283 9.82475 18.692 8.03334 18.5239 5.8574C18.3074 3.4791 20.1903 1.63075 22.1928 0.739295C23.1556 0.275047 24.3035 -0.0638736 25.4516 0.010176C30.9237 0.451634 33.8405 7.23016 34.735 11.9323C35.1195 13.9773 35.2592 16.0791 34.9772 18.1297L34.8346 18.1185L34.8403 18.1213Z" fill="#231F20"/>
<path d="M14.5965 30.8293C16.2514 32.9912 19.4247 34.0221 22.0084 33.2702C23.4526 32.8401 24.5578 31.7009 25.1047 30.3196C25.6459 28.7959 26.304 26.6341 25.3667 25.1874C24.9366 24.5664 24.0849 24.2333 23.3585 24.4639C22.2334 24.9139 21.057 25.0279 19.8834 25.0677C18.217 25.1104 16.542 24.8854 14.941 24.4154C14.4854 24.2788 14.0182 24.2047 13.534 24.1933C10.0444 24.1534 7.11614 26.6796 7.22152 30.2996C7.34119 35.7195 11.6168 41.6065 17.3965 41.5183C18.0745 41.4813 18.7667 41.3417 19.2965 40.9829C20.4844 40.1198 21.9543 39.5303 23.4555 39.5731C24.2131 39.5958 24.9652 39.7667 25.663 40.0459C26.1615 40.2338 26.603 40.5356 27.0987 40.7066C27.8906 40.9743 28.7309 41.0198 29.5741 41.0029C32.5793 40.8718 35.6358 39.4733 37.2907 36.9158C38.5671 34.8937 39.4272 32.5668 39.9114 30.2314C40.3245 28.081 40.4356 25.8452 39.7092 23.7746C38.9344 21.4079 35.2541 18.369 32.7331 19.0668C30.3346 19.7958 29.5513 23.299 29.1155 25.5176C28.7822 27.5369 28.6825 29.6446 29.218 31.6239C29.5513 32.8601 30.2607 34.0762 31.5054 34.512C33.357 35.0617 35.7326 34.4322 36.8208 32.7433C37.5871 31.5956 37.8691 30.1372 37.8407 28.7616L37.983 28.7473C38.1397 30.1942 37.946 31.7038 37.2111 32.9883C36.0687 35.016 33.4623 35.8506 31.2491 35.298C28.8933 34.5833 27.996 31.9344 27.7623 29.7329C27.4319 26.4405 28.0472 21.6385 30.2264 19.0241C31.9953 16.9535 34.8724 17.2012 36.9975 18.537C38.9602 19.7531 40.7062 21.5417 41.3101 23.8144C42.2644 27.4573 41.3613 31.3278 39.9257 34.7056C38.7323 37.5794 36.9291 39.9632 33.9608 41.1309C31.8644 41.957 29.5484 42.2417 27.3494 41.6892C26.6287 41.5126 26.0134 41.0768 25.3555 40.7635C24.1249 40.1997 22.7262 40.1 21.4329 40.5215C20.7807 40.7237 20.1766 41.0398 19.5842 41.4244C18.9119 41.8516 18.1457 41.9711 17.4079 41.9996C14.4454 42.0252 11.6966 40.4331 9.79665 38.2486C6.61194 34.5518 4.43278 27.6907 9.19546 24.3442C10.9274 23.1197 13.2291 22.604 15.2914 23.1993C16.7671 23.6237 18.3138 23.8144 19.8519 23.806C20.8918 23.7832 21.9798 23.6921 22.9313 23.3161C24.1618 22.8918 25.6175 23.4528 26.3181 24.5323C26.8109 25.267 26.9363 26.1158 26.9277 26.8904C26.8965 28.3828 26.4151 29.9038 25.7371 31.2224C24.196 34.1503 20.6894 34.8253 17.8239 33.6034C16.4793 33.0537 15.2202 32.1708 14.4711 30.9063L14.5908 30.8293H14.5965Z" fill="#231F20"/>
<path d="M3.81531 7.2959C1.19464 9.57436 2.22296 13.1488 5.29093 15.6609C8.35883 18.1728 10.0393 18.3751 11.1447 23.231C12.5176 17.0365 2.74995 15.8146 3.81531 7.2959Z" fill="#658900"/>
<path d="M25.8486 26.7623C25.9427 28.6848 24.9598 33.0396 21.0688 33.5977C17.5195 33.7999 15.6195 32.1537 14.6025 30.8722C20.8809 35.6313 24.863 31.3535 25.8486 26.7623Z" fill="#658900"/>
<path d="M7.53466 32.6777C8.46912 36.6367 11.5142 41.1224 16.2854 41.4755C19.8063 41.9882 19.5841 39.6726 23.3755 39.593C26.6913 39.6926 26.1928 41.2876 29.9358 40.9857C33.6787 40.6837 37.2536 38.841 38.8604 33.7942C33.5704 44.6 27.56 38.6644 23.3898 39.0661C18.4419 39.8948 14.9411 44.0786 7.53198 32.6806L7.53466 32.6777Z" fill="#658900"/>
<path d="M16.0405 35.7026C17.0773 34.196 18.1172 35.2498 21.6323 34.8995C25.1474 34.5491 26.9306 30.5903 26.882 27.6768C25.7513 33.0254 23.4467 34.1362 20.3788 34.1562C16.462 34.1817 16.0434 35.7054 16.0434 35.7054L16.0405 35.7026Z" fill="#658900"/>
<path d="M20.7001 2.90662C20.2984 4.06291 20.1587 5.64374 22.5202 9.65949C24.8818 13.6781 26.8643 21.8864 24.7791 22.6894C22.694 23.4926 19.9566 23.0654 16.8687 12.0176C18.726 16.1103 20.153 22.0459 22.5431 21.7353C24.933 21.4249 24.5256 18.6708 22.6683 13.7522C20.6658 9.39176 17.4213 6.3044 20.6972 2.90662H20.7001Z" fill="#658900"/>
<path d="M27.6404 28.6875C27.6404 35.577 30.5004 37.1264 34.232 36.2321C37.9636 35.3379 38.0064 30.3993 38.0064 30.3993C38.0064 30.3993 37.8953 35.258 32.5315 35.4004C30.8594 35.2609 28.2016 34.8479 27.6377 28.6875H27.6404Z" fill="#658900"/>
</g>
<defs>
<clipPath id="clip0_264_199">
<rect width="42" height="42" fill="white"/>
</clipPath>
</defs>
</svg>
