<svg width="64" height="64" viewBox="0 0 64 64" fill="none" xmlns="http://www.w3.org/2000/svg">
<rect width="64" height="64" fill="#0C0A09"/>
<path d="M24.5487 31.502H12L25.2022 25.3056L31.3132 12L31.3275 24.6403C31.3324 28.4281 28.2961 31.5069 24.5439 31.5069L24.5487 31.502Z" fill="white"/>
<path d="M39.4512 31.502H52L38.7978 25.3056L32.6868 12L32.6725 24.6403C32.6676 28.4281 35.7039 31.5069 39.4561 31.5069L39.4512 31.502Z" fill="white"/>
<path d="M39.4512 32.9102H52L38.7978 39.1066L32.6868 52.4122L32.6725 39.7719C32.6676 35.9841 35.7039 32.9053 39.4561 32.9053L39.4512 32.9102Z" fill="white"/>
<path d="M24.5487 32.9102H12L25.2022 39.1066L31.3132 52.4122L31.3275 39.7719C31.3324 35.9841 28.2961 32.9053 24.5439 32.9053L24.5487 32.9102Z" fill="white"/>
</svg>
