<svg width="64" height="64" viewBox="0 0 64 64" fill="none" xmlns="http://www.w3.org/2000/svg">
<rect width="64" height="64" fill="#3068EF"/>
<g clip-path="url(#clip0_264_554)">
<path d="M50.3188 36.2367L50.2683 36.2897C50.2446 36.3141 50.2207 36.3383 50.1966 36.3624L36.3437 50.193C33.9305 52.6023 30.018 52.6023 27.6048 50.193L23.7793 46.3739C23.5081 46.1041 23.5075 45.6655 23.7775 45.3946C23.8569 45.315 23.9546 45.2559 24.062 45.2223C28.1623 43.9565 31.4939 42.4955 34.0569 40.8391C40.1605 36.8944 45.5812 35.3602 50.3188 36.2367ZM47.4145 24.8595C52.5291 26.4711 51.9321 30.2337 52 31.7169C46.3988 28.7799 39.6603 29.8564 31.7847 34.9464C25.9145 38.7401 20.9973 40.3043 17.0332 39.6388C13.069 38.9734 12.1773 34.132 12 32.8455C16.3559 35.0479 22.1935 33.7838 29.5124 29.0536C36.3326 24.6458 42.2999 23.2478 47.4145 24.8595ZM36.3437 13.807L39.9382 17.3952C40.2089 17.6653 40.2093 18.104 39.9392 18.3747C39.8428 18.4713 39.7201 18.5373 39.5863 18.5642C34.3828 19.6126 30.2212 21.1448 27.1017 23.1609C21.756 26.6158 17.2006 28.2216 13.4355 27.9783L13.4359 27.9774L27.6048 13.807C30.018 11.3977 33.9305 11.3977 36.3437 13.807Z" fill="white"/>
</g>
<defs>
<clipPath id="clip0_264_554">
<rect width="40" height="40" fill="white" transform="translate(12 12)"/>
</clipPath>
</defs>
</svg>
