<svg width="42" height="42" viewBox="0 0 42 42" fill="none" xmlns="http://www.w3.org/2000/svg">
<g clip-path="url(#clip0_411_4)">
<path fill-rule="evenodd" clip-rule="evenodd" d="M42 21C42 9.40201 32.598 -5.06964e-07 21 0C9.40201 5.06964e-07 -5.06964e-07 9.40201 0 21C5.06964e-07 32.598 9.40201 42 21 42C32.598 42 42 32.598 42 21ZM23.9973 36.7167C23.9973 38.1413 22.828 39.2993 21.1683 39.3326C21.1223 39.3331 21.0764 39.3332 21.0302 39.3334H20.9698C10.8584 39.317 2.66666 31.1151 2.66666 21C2.66666 10.8748 10.8748 2.66669 21 2.66669C21.0545 2.66669 21.1092 2.66694 21.1636 2.66741C23.0365 2.70077 23.9973 3.85872 23.9973 5.28328C23.9973 6.73312 22.7156 7.80001 21.3578 7.80001C19.9999 7.80001 19.9334 7.80001 18.6336 7.90416C17.3338 8.00832 15.9898 9.07519 15.9898 10.5208C15.9898 11.9749 17.1711 13.1459 18.6336 13.1459H30.1606C31.6188 13.1459 32.8 14.317 32.8 15.7625C32.8 17.2081 31.6188 18.379 30.1606 18.379H12.406C10.9435 18.379 9.76225 19.5544 9.76225 21.0043C9.76225 22.4498 10.9435 23.621 12.406 23.621H21.3578C22.8161 23.621 23.9973 24.7919 23.9973 26.2418C23.9973 27.6873 22.8161 28.8584 21.3578 28.8584H18.6336C17.1711 28.8584 15.9898 30.0294 15.9898 31.475C15.9898 32.9248 17.2005 33.9832 18.6336 34.0916C18.7465 34.1002 18.8499 34.108 18.9451 34.1153C19.4494 34.1536 19.7249 34.1747 20.0009 34.1862C20.3332 34.2001 20.6661 34.2001 21.4 34.2001C22.8582 34.2001 23.9973 35.2711 23.9973 36.7167Z" fill="white"/>
</g>
<defs>
<clipPath id="clip0_411_4">
<rect width="42" height="42" fill="white"/>
</clipPath>
</defs>
</svg>
