<svg width="42" height="42" viewBox="0 0 42 42" fill="none" xmlns="http://www.w3.org/2000/svg">
<g clip-path="url(#clip0_755_2)">
<path fill-rule="evenodd" clip-rule="evenodd" d="M42 21C42 32.598 32.598 42 21 42C9.40205 42 0 32.598 0 21C0 9.40205 9.40205 0 21 0C32.598 0 42 9.40205 42 21ZM31.9201 17.0269L34.0536 19.1604L34.0579 19.1647C35.0407 20.1475 35.0407 21.7435 34.0579 22.7263L30.3156 26.4684C29.652 27.1278 28.5223 26.6617 28.5223 25.7251V24.9103V20.0341C28.518 19.7316 28.4005 19.4419 28.1862 19.2276C27.4681 18.5094 26.2374 19.0176 26.2374 20.0341V28.3626C26.2374 29.7066 25.7292 30.933 24.8934 31.8612L24.9018 31.8696L22.7724 33.999C21.7854 34.986 20.1895 34.9819 19.2066 33.999L17.0772 31.8655L9.10981 23.8896L7.92962 22.7053C6.94681 21.7225 6.94681 20.1264 7.92962 19.1437L11.6928 15.3804C12.3564 14.7168 13.4863 15.1872 13.4863 16.1239V16.9807V21.8653C13.4863 22.1635 13.6038 22.4448 13.8138 22.6591C14.5237 23.373 15.7416 22.8691 15.7416 21.861V18.9084V13.5072C15.7416 12.1632 16.2498 10.9368 17.0856 10.0086L17.0772 10.0002L19.2066 7.87081C20.1936 6.88381 21.7897 6.88801 22.7724 7.87081L24.9018 10.0044L31.9201 17.0269Z" fill="#002D2B"/>
</g>
<defs>
<clipPath id="clip0_755_2">
<rect width="42" height="42" fill="white"/>
</clipPath>
</defs>
</svg>
