<svg width="42" height="42" viewBox="0 0 42 42" fill="none" xmlns="http://www.w3.org/2000/svg">
<path d="M25.098 4.51071C9.59092 15.3866 4.86269 16.8794 0.90731 17.0376C0.577322 17.0508 0.412329 17.0574 0.295852 17.1209C0.190621 17.1783 0.111938 17.2602 0.0588082 17.3676C0 17.4865 0 17.6451 0 17.9622V33.2629C0 33.5509 0 33.6948 0.0584279 33.8134C0.107833 33.9137 0.196131 34.0061 0.294094 34.06C0.409948 34.1237 0.545256 34.1298 0.815871 34.1419C7.95539 34.4635 15.2784 29.3187 24.9816 23.1245L24.9817 23.1245C25.2905 22.9273 25.445 22.8287 25.556 22.6973C25.6546 22.5808 25.7281 22.4465 25.7734 22.3008C25.8243 22.1365 25.8243 21.9543 25.8243 21.5898V4.8756C25.8243 4.59226 25.8243 4.45059 25.7656 4.37415C25.7145 4.30752 25.6367 4.26706 25.5528 4.26344C25.4565 4.25929 25.337 4.3431 25.098 4.51071Z" fill="url(#paint0_radial_773_8)"/>
<path d="M16.902 36.7671C32.4091 25.8913 37.1373 24.3984 41.0927 24.2402C41.4227 24.2271 41.5877 24.2205 41.7041 24.1569C41.8094 24.0996 41.8881 24.0177 41.9412 23.9102C42 23.7913 42 23.6328 42 23.3157V8.01492C42 7.72698 42 7.583 41.9416 7.4644C41.8922 7.36411 41.8039 7.27175 41.7059 7.21788C41.5901 7.15417 41.4547 7.14808 41.1841 7.13589C34.0446 6.81431 26.7216 11.9591 17.0184 18.1533L17.0183 18.1534C16.7095 18.3505 16.555 18.4491 16.444 18.5805C16.3454 18.697 16.2719 18.8313 16.2266 18.9771C16.1757 19.1414 16.1757 19.3236 16.1757 19.688V36.4022C16.1757 36.6856 16.1757 36.8272 16.2344 36.9037C16.2855 36.9703 16.3633 37.0108 16.4472 37.0144C16.5435 37.0185 16.663 36.9347 16.902 36.7671Z" fill="url(#paint1_radial_773_8)"/>
<defs>
<radialGradient id="paint0_radial_773_8" cx="0" cy="0" r="1" gradientUnits="userSpaceOnUse" gradientTransform="translate(1.84459 32.9459) rotate(-34.177) scale(27.7847 23.7935)">
<stop stop-color="white"/>
<stop offset="1" stop-color="white" stop-opacity="0.5"/>
</radialGradient>
<radialGradient id="paint1_radial_773_8" cx="0" cy="0" r="1" gradientUnits="userSpaceOnUse" gradientTransform="translate(40.1554 8.33188) rotate(145.823) scale(27.7847 23.7935)">
<stop stop-color="white"/>
<stop offset="1" stop-color="white" stop-opacity="0.5"/>
</radialGradient>
</defs>
</svg>
