<svg width="42" height="42" viewBox="0 0 42 42" fill="none" xmlns="http://www.w3.org/2000/svg">
<g clip-path="url(#clip0_365_1032)">
<path d="M35.7178 27.3065L35.6708 27.356C35.6488 27.3787 35.6264 27.4013 35.6039 27.4238L22.6914 40.3156C20.442 42.5614 16.795 42.5614 14.5457 40.3156L10.9798 36.7557C10.727 36.5043 10.7264 36.0954 10.9781 35.8429C11.0522 35.7687 11.1432 35.7136 11.2433 35.6822C15.0653 34.5024 18.1707 33.1405 20.5597 31.5966C26.2491 27.9196 31.3018 26.4896 35.7178 27.3065ZM33.0108 16.7016C37.7782 18.2039 37.2217 21.7111 37.285 23.0936C32.0639 20.3559 25.7829 21.3594 18.4417 26.1038C12.97 29.6401 8.3866 31.0981 4.69153 30.4778C0.99646 29.8575 0.16519 25.3447 0 24.1455C4.06022 26.1985 9.50152 25.0202 16.3237 20.6111C22.681 16.5025 28.2433 15.1993 33.0108 16.7016ZM22.6914 6.39931L26.0419 9.74395C26.2942 9.99578 26.2946 10.4046 26.0428 10.657C25.953 10.7471 25.8385 10.8085 25.7139 10.8337C20.8635 11.8108 16.9845 13.2391 14.0766 15.1183C9.09372 18.3387 4.8476 19.8355 1.33805 19.6088L1.33843 19.6079L14.5457 6.39931C16.795 4.15352 20.442 4.15352 22.6914 6.39931Z" fill="url(#paint0_linear_365_1032)"/>
<path fill-rule="evenodd" clip-rule="evenodd" d="M31.1917 0C29.303 0 27.772 1.53105 27.772 3.4197V10.3405C27.772 12.2292 29.303 13.7602 31.1917 13.7602H38.4401C40.3288 13.7602 41.8598 12.2292 41.8598 10.3405V3.41969C41.8598 1.53105 40.3288 0 38.4401 0H31.1917ZM30.6375 4.02845V9.27038H33.8958V8.47445H31.5871V4.02845H30.6375ZM35.0292 8.58445V9.27038H38.6228V8.47692H36.3396V8.44111L37.2432 7.52226C37.5828 7.19463 37.8464 6.91564 38.0341 6.68529C38.2235 6.45493 38.3557 6.245 38.4309 6.05559C38.5059 5.86618 38.5434 5.67344 38.5434 5.47719C38.5434 5.18366 38.4692 4.92263 38.3208 4.69398C38.174 4.46524 37.9676 4.28526 37.7013 4.15387C37.4352 4.02248 37.1263 3.95678 36.7748 3.95678C36.4284 3.95678 36.1212 4.02419 35.8534 4.15899C35.5872 4.29379 35.3781 4.48405 35.2262 4.72979C35.0744 4.97544 34.9984 5.26469 34.9984 5.59744H35.902C35.902 5.41829 35.937 5.26384 36.007 5.13417C36.0786 5.00451 36.1793 4.90467 36.3089 4.83466C36.4386 4.76304 36.5896 4.72723 36.762 4.72723C36.9292 4.72723 37.0786 4.75962 37.2099 4.8245C37.3413 4.88928 37.4446 4.98143 37.5196 5.10093C37.5947 5.21862 37.6323 5.36025 37.6323 5.52582C37.6323 5.67087 37.6032 5.80738 37.5453 5.93533C37.4872 6.06328 37.4002 6.19551 37.2841 6.33201C37.1681 6.46852 37.0231 6.62468 36.8491 6.80042L35.0292 8.58445Z" fill="url(#paint1_linear_365_1032)"/>
</g>
<defs>
<linearGradient id="paint0_linear_365_1032" x1="18.6424" y1="4.71492" x2="18.6424" y2="42" gradientUnits="userSpaceOnUse">
<stop stop-color="#7DADFF"/>
<stop offset="1" stop-color="#CEDFFF"/>
</linearGradient>
<linearGradient id="paint1_linear_365_1032" x1="34.8159" y1="0" x2="34.8159" y2="13.7602" gradientUnits="userSpaceOnUse">
<stop stop-color="#FFB901"/>
<stop offset="1" stop-color="#F9CB53"/>
</linearGradient>
<clipPath id="clip0_365_1032">
<rect width="42" height="42" fill="white"/>
</clipPath>
</defs>
</svg>
