<svg width="42" height="42" viewBox="0 0 42 42" fill="none" xmlns="http://www.w3.org/2000/svg">
<path d="M16.3551 8.86449C9.09902 11.6333 8.43452 18.7532 6.33477 22.0759C4.23506 25.3984 -0.602338 27.2707 0.0621376 28.9847C0.726612 30.6988 5.56398 28.8529 9.39138 29.9604C13.2188 31.068 18.4283 35.8673 25.6843 33.0985C27.4434 32.4251 29.0342 31.3807 30.3466 30.0376C31.6591 28.6945 32.6619 27.0846 33.2859 25.3193C33.3494 25.176 33.3528 25.0135 33.2955 24.8676C33.2382 24.7217 33.1248 24.6044 32.9803 24.5414C32.8357 24.4785 32.6719 24.4751 32.5249 24.5319C32.3779 24.5888 32.2596 24.7013 32.1962 24.8447C31.4465 26.3445 30.3365 27.6383 28.964 28.612C27.5915 29.5857 25.9986 30.2095 24.3257 30.4284C22.6528 30.6473 20.9514 30.4545 19.3713 29.867C17.7913 29.2795 16.3812 28.3155 15.2654 27.0597C14.6197 26.3405 14.0825 25.5322 13.6706 24.6601C13.5377 24.4227 13.4314 24.1591 13.3251 23.9217C13.2188 23.6844 13.139 23.3943 13.0593 23.1306C15.2653 22.1286 17.7638 21.0474 20.6343 19.9662C23.5048 18.8851 25.9767 18.0149 28.2359 17.3292C29.7775 16.8546 31.1862 16.459 32.4354 16.1426L32.7278 16.0898C32.8194 16.0646 32.9173 16.0752 33.0013 16.1193C33.0853 16.1635 33.1491 16.2379 33.1796 16.3272C33.227 16.4283 33.2626 16.5345 33.2859 16.6436C33.5458 17.3456 33.7414 18.0692 33.8707 18.806C33.8828 18.8766 33.9119 18.9432 33.9553 19.0003C33.9988 19.0575 34.0554 19.1035 34.1205 19.1345C34.1855 19.1655 34.2572 19.1805 34.3293 19.1784C34.4014 19.1763 34.472 19.1571 34.5351 19.1224C35.5717 18.5686 36.5285 18.0149 37.3791 17.5139C40.5686 15.5625 42.3227 13.9012 41.9507 12.9782C41.5787 12.0553 39.1865 11.9762 35.5186 12.6354C34.3491 12.8463 33.0467 13.1364 31.6646 13.5056L30.947 13.6902C29.7509 14.0066 28.5283 14.3494 27.2525 14.745C24.8604 15.4833 22.2822 16.3799 19.6243 17.382C16.9664 18.384 14.8135 19.307 12.634 20.2827C12.6234 18.6092 13.0255 16.9585 13.8055 15.4747C14.5855 13.9908 15.7195 12.7188 17.1088 11.7696C18.498 10.8204 20.1002 10.2228 21.7756 10.029C23.451 9.8352 25.1488 10.051 26.7209 10.6576C26.8354 10.6965 26.9586 10.7023 27.0763 10.6743C27.194 10.6462 27.3012 10.5856 27.3854 10.4994C27.4493 10.4339 27.4968 10.3543 27.524 10.2672C27.5511 10.18 27.5572 10.0877 27.5416 9.99781C27.5261 9.9079 27.4894 9.82289 27.4346 9.74968C27.3797 9.67647 27.3082 9.61713 27.2259 9.57648C25.5756 8.67936 23.7476 8.15082 21.8699 8.02784C19.9921 7.90485 18.11 8.1904 16.3551 8.86449Z" fill="#FFF4E1"/>
</svg>
