<svg width="42" height="42" viewBox="0 0 42 42" fill="none" xmlns="http://www.w3.org/2000/svg">
<path d="M3.73166 9.02964C12.3234 -3.2336 30.2105 -2.76574 38.2023 8.97368C34.2153 12.9654 30.2248 16.9583 26.22 20.9667C30.2415 25.0048 34.2237 29.0037 38.2618 33.0597C34.0249 38.7133 28.4569 41.8669 21.3569 41.9764C13.9913 42.0907 8.19123 38.9514 3.77571 33.1252C7.8198 29.0858 11.8127 25.0977 15.8151 21.0988C11.7365 17.025 7.74361 13.0368 3.73047 9.02964H3.73166ZM27.8772 8.79035C23.5343 6.16413 17.5497 6.54389 14.1699 8.81535C16.4544 11.0999 18.7473 13.3928 21.0104 15.6559C23.2676 13.3987 25.5605 11.1058 27.8772 8.79035ZM14.1377 33.1418C16.5806 35.5823 24.5367 35.6121 27.8105 33.224C25.5176 30.9311 23.2152 28.6299 20.933 26.3477C18.7021 28.5787 16.4199 30.8608 14.1377 33.1418Z" fill="white"/>
<path d="M38.813 32.0942C37.1558 30.4335 35.5273 28.8096 33.9165 27.1679C33.8201 27.0703 33.7951 26.8048 33.8534 26.6667C35.4356 22.8917 35.4344 19.1238 33.8558 15.3476C33.7927 15.1976 33.8284 14.9095 33.9344 14.8011C35.5201 13.188 37.1249 11.5951 38.7261 9.9987C38.7499 9.97489 38.7951 9.9737 38.8285 9.96179C42.9273 16.0809 43.1904 25.3786 38.8118 32.0942H38.813Z" fill="white"/>
<path d="M3.18415 32.0823C-1.12899 25.4977 -0.990893 16.194 3.17701 9.93445C3.29368 10.038 3.41392 10.1321 3.52106 10.2392C4.99489 11.7107 6.46038 13.1904 7.94492 14.6488C8.20921 14.9083 8.26516 15.1036 8.11516 15.4595C6.56872 19.1286 6.57824 22.8132 8.0985 26.4858C8.25326 26.8596 8.21516 27.0692 7.92826 27.3501C6.34371 28.9049 4.78179 30.4835 3.18415 32.0823Z" fill="white"/>
</svg>
