<svg width="64" height="64" viewBox="0 0 64 64" fill="none" xmlns="http://www.w3.org/2000/svg">
<g clip-path="url(#clip0_167_216)">
<path d="M57.9351 37.5288C57.52 37.2943 57.109 37.0467 56.7071 36.7992C53.1339 34.5713 53.1339 29.4245 56.7071 27.2008C57.109 26.9491 57.52 26.7057 57.9351 26.4712C61.822 24.265 63.156 19.3747 60.912 15.5527C58.6683 11.7307 53.6948 10.4191 49.8078 12.6254C49.609 12.7383 49.4059 12.8512 49.2027 12.9598C45.3643 15.0402 40.5986 12.3778 40.5896 8.07384V7.99132C40.5896 3.57872 36.9501 0 32.4625 0C27.9748 0 24.3352 3.57872 24.3352 7.99132C24.3352 8.01738 24.3352 8.04777 24.3352 8.07384C24.3264 12.3822 19.5604 15.0402 15.7221 12.9598C15.5189 12.8512 15.3201 12.7383 15.117 12.6254C11.23 10.4191 6.25651 11.7264 4.01269 15.5527C1.76887 19.3747 3.09838 24.265 6.98974 26.4712C7.40493 26.7057 7.8157 26.9533 8.21766 27.2008C11.791 29.4289 11.791 34.5755 8.21766 36.7992C7.8157 37.0511 7.40493 37.2943 6.98974 37.5288C3.1028 39.7352 1.76887 44.6211 4.01269 48.4473C6.25651 52.2737 11.23 53.581 15.117 51.3747C15.3157 51.2617 15.5189 51.1487 15.7221 51.0402C19.5604 48.9598 24.3264 51.6222 24.3352 55.9263C24.3352 55.9523 24.3352 55.9827 24.3352 56.0087C24.3352 60.4214 27.9748 64 32.4625 64C36.9501 64 40.5896 60.4214 40.5896 56.0087V55.9263C40.5986 51.6178 45.3643 48.9598 49.2027 51.036C49.4059 51.1445 49.6046 51.2573 49.8078 51.3703C53.6948 53.5766 58.6683 52.2693 60.912 48.4431C63.156 44.6211 61.8264 39.7308 57.9351 37.5244V37.5288ZM57.467 46.4929C56.7293 47.7525 55.3468 48.5343 53.8627 48.5343C53.1427 48.5343 52.427 48.3431 51.7956 47.987C45.9254 44.6559 39.2424 42.8925 32.4625 42.8925C25.6823 42.8925 18.9995 44.6559 13.1293 47.987C12.4889 48.3519 11.791 48.5343 11.0622 48.5343C9.57809 48.5343 8.19998 47.7525 7.45794 46.4929C6.31394 44.5429 6.99416 42.0413 8.97738 40.9165C20.9032 34.1455 28.3104 21.5288 28.3104 7.99132C28.3104 5.74158 30.1744 3.90879 32.4625 3.90879C34.7504 3.90879 36.6144 5.74158 36.6144 7.99132C36.6144 21.5288 44.0216 34.1455 55.9475 40.9165C56.9059 41.4636 57.5949 42.341 57.8821 43.3964C58.1692 44.4518 58.0235 45.5505 57.467 46.4929Z" fill="url(#paint0_linear_167_216)"/>
</g>
<defs>
<linearGradient id="paint0_linear_167_216" x1="44.063" y1="50.5862" x2="27.4831" y2="10.7187" gradientUnits="userSpaceOnUse">
<stop stop-color="#FFD569"/>
<stop offset="0.515056" stop-color="#FC8E4F"/>
<stop offset="1" stop-color="#FF697B"/>
</linearGradient>
<clipPath id="clip0_167_216">
<rect width="64" height="64" fill="white"/>
</clipPath>
</defs>
</svg>
