<svg width="42" height="42" viewBox="0 0 42 42" fill="none" xmlns="http://www.w3.org/2000/svg">
<path d="M24.6 21.0155H24.3439L25.2735 20.8083C25.1668 20.8602 24.6516 21.0155 24.6 21.0155ZM25.6331 20.8083H25.3741L25.6331 20.6559C25.3741 20.6559 25.1668 20.6559 24.9595 20.5524C23.8259 20.7564 22.6401 20.8083 21.5583 21.0155C21.5065 21.0155 21.4028 21.1191 21.4028 21.1191C21.4028 21.171 21.4028 21.171 21.4546 21.2197C21.9697 21.2197 22.4878 21.3234 23.0547 21.3234C23.518 21.3234 24.0331 21.171 24.4994 21.1191C24.0849 21.4269 22.6401 21.3752 22.0734 21.3752C21.866 21.3752 21.7137 21.4269 21.5583 21.4787C21.6589 21.7896 22.0216 21.8932 22.1251 22.201C23.2589 23.3347 24.2921 24.9346 25.1151 26.2755C25.1151 26.4309 25.1668 26.69 25.2735 26.7905V26.9977C25.2735 27.1014 25.426 27.2567 25.5295 27.3056H25.5813C25.5813 27.3573 25.5295 27.4091 25.5295 27.461C25.5295 27.6681 25.9927 27.8237 25.9927 27.979C25.9927 28.0279 25.9927 28.0827 25.9409 28.0827C25.4776 28.0279 25.3741 27.7718 25.1668 27.4091C24.7035 27.1014 24.6 26.4309 24.0331 26.172C23.9294 25.7605 23.6703 25.8124 23.518 25.3978L23.0547 24.3678C23.259 24.4197 23.4143 24.575 23.4143 24.7792C23.7222 25.5015 24.2402 25.9677 24.6 26.6352C24.7553 26.69 24.7553 26.8942 24.9595 26.9458C24.6516 26.0714 24.1367 24.9346 23.3108 24.3678C23.3108 24.2123 23.259 24.0051 23.0547 24.0051C22.9481 24.0051 22.9481 24.2123 23.0028 24.2641C22.7957 23.9564 22.692 23.6455 22.3811 23.4384L22.433 23.3347C22.433 23.0786 22.2806 22.8714 22.0734 22.8196C21.9697 22.46 21.5583 22.8196 21.3509 22.4082C21.1956 22.0457 20.7323 21.9451 20.4215 21.9451C19.495 23.3347 16.0906 26.5863 15.6242 27.979C15.3165 28.0279 15.1091 28.2351 14.8013 28.2351C14.7495 28.2351 14.5424 28.2351 14.5424 28.1314C14.5424 28.0279 14.7495 27.9242 14.8013 27.7718C15.3165 26.9458 19.9064 22.1492 19.9064 21.5305C19.9064 21.3752 19.5466 21.2745 19.3913 21.2745C19.2358 21.2197 19.0317 21.171 18.8731 21.171C18.4098 21.171 17.9984 21.2745 17.5351 21.2745C16.4533 21.2745 15.3165 21.4787 14.1826 21.4787C13.9754 21.4787 14.0791 21.2745 13.9236 21.1191C14.2832 21.0673 14.594 20.8083 14.9567 20.8083C15.0573 20.8083 15.2646 20.8602 15.42 20.9638C15.7308 20.9638 16.0387 21.0155 16.3465 21.0155C17.4833 21.0155 19.0804 20.9638 20.1623 20.7046C20.2172 20.6559 20.2691 20.6559 20.2691 20.6011C20.2691 20.5524 20.0099 20.5006 20.0617 20.345C20.0617 20.1379 18.8731 19.1079 18.8731 18.797C18.928 18.797 18.928 18.7452 18.928 18.7452C18.928 18.1784 17.1206 16.0634 16.6574 15.5484V15.4965C16.6574 15.1857 16.3983 15.0332 16.3983 14.7742C16.3983 14.6707 16.5539 14.567 16.6574 14.567C16.8128 14.567 16.9166 14.7742 17.0171 14.8779C16.9684 14.9297 16.9166 14.9816 16.9166 15.0332C16.9166 15.2893 18.0502 16.7339 18.1508 16.7339C18.2057 16.7339 18.2058 16.5783 18.2576 16.5783C19.4431 17.3006 19.754 18.6446 20.525 19.6746C21.2991 19.6746 23.0028 15.4965 23.9812 15.1369H24.0849C23.2071 16.426 22.2287 17.6633 21.5065 19.056L21.607 19.1597C22.0734 18.9523 21.9697 18.4374 22.1739 18.2819C22.2806 18.1266 22.7957 17.8186 22.7957 17.6633C22.7957 17.5596 24.0849 15.9598 24.3439 15.393C24.6 15.1369 24.7553 14.8261 25.0143 14.5183L24.6516 14.6189C24.7553 14.2075 25.6331 13.6924 26.0445 13.7442C25.5813 14.567 24.7035 15.0332 24.3439 15.9079C23.8775 16.8892 23.3626 17.4561 22.692 18.2819V18.3337C22.692 18.4891 22.3811 18.6446 22.3811 18.797C22.0734 19.3119 21.0919 19.8818 21.0919 20.6011C21.2475 20.6559 21.4546 20.6559 21.607 20.6559C22.9481 20.6559 24.3439 20.345 25.6818 20.345C26.1482 20.345 26.8187 20.2932 27.2301 20.5006C26.7152 20.7046 26.1482 20.7564 25.6331 20.8083Z" fill="#FBFDFD" stroke="#FBFDFD" stroke-width="1.59982" stroke-miterlimit="10"/>
<path d="M28.6471 29.0408C28.769 28.6507 28.8758 28.2332 28.9824 27.8065C29.0859 27.6694 29.1927 27.5354 29.2933 27.3951C29.2933 28.0352 28.955 28.5288 28.6471 29.0408ZM25.4775 34.0478C25.4257 34.3068 25.2214 34.3586 25.0142 34.4105C25.2122 33.8527 25.4683 33.3286 25.7183 32.8106C26.2181 32.6216 26.6661 32.192 27.1447 31.936C26.6325 32.6735 26.0808 33.3834 25.4775 34.0478ZM28.2449 28.7575C27.9309 29.4217 27.5469 30.1531 27.0744 31.0583C26.6783 31.2228 26.4832 31.6342 26.2089 31.9267C26.2608 31.7743 26.3124 31.6159 26.404 31.5214C26.8489 30.4974 27.5437 29.629 28.2449 28.7575ZM22.4845 36.2664C22.1218 36.9369 20.6802 37.7626 20.0098 37.7626C19.2875 37.7626 18.6687 37.0922 17.9464 37.0405C17.7909 36.5255 17.2242 36.7813 16.8644 36.5255C15.9866 35.9037 14.7981 34.6666 14.283 33.74C13.4084 32.0883 12.6341 29.9246 12.1708 28.1692C11.9636 27.447 11.9636 23.2688 11.9636 22.3942C11.9636 19.2979 11.86 16.8752 13.1491 14.038C13.1491 13.4194 13.768 13.0598 13.768 12.5936V12.3894C14.1307 11.9748 14.1306 11.3044 14.5939 10.9448C15.0571 9.44861 16.4499 8.51896 17.1723 7.12629C17.7391 6.87037 17.8977 6.09626 18.4126 5.73669C19.5434 5.01129 20.7321 3.98126 22.1768 3.98126C22.3292 4.08498 22.4845 4.18863 22.6919 4.18863C22.7954 4.18863 22.8441 4.13681 22.9509 4.13681L23.1551 3.98126C23.3623 4.03315 23.6184 4.24031 23.725 3.87782C24.6515 4.08498 25.9407 3.62174 26.5106 4.65171C28.5221 5.94094 27.9004 8.6745 28.7263 10.5305C28.8819 12.1822 29.0372 13.8308 29.0859 15.5344C29.1378 17.8535 29.4457 20.1757 29.4457 22.5466C29.4457 24.4604 29.3146 25.6855 28.9946 26.8131C28.7903 27.2093 28.574 27.5933 28.3636 28.0168C27.7998 28.3246 27.6932 29.1505 27.0744 29.3548C26.6814 30.1044 26.2029 31.1649 25.6542 32.2346C25.6452 32.2346 25.6391 32.2436 25.6299 32.2436C25.5659 32.1889 25.5507 32.1126 25.5109 32.0486C25.3709 32.2163 25.2367 32.3839 25.0751 32.5363C25.1543 32.6461 25.2306 32.7619 25.3251 32.8501C24.5052 34.3647 23.5513 35.791 22.4845 36.2664ZM18.7206 38.5855C17.1234 38.5855 15.3162 38.0187 14.3896 36.6778C13.6674 35.7513 12.6859 34.8737 12.2197 33.74C11.7565 33.225 10.208 27.0356 10.208 26.1061C10.208 26.0542 10.208 25.8471 10.3667 25.8471C10.9824 25.8471 12.1192 29.1505 12.2197 29.6138C12.6859 31.1618 13.5605 32.8106 14.283 34.2551C14.6974 34.9772 15.2643 35.4923 15.6789 36.2146C16.194 36.3699 16.4499 36.9369 17.0168 37.0405C17.2758 37.5036 17.7909 37.5554 18.0988 37.9181C18.306 37.9181 18.8759 38.0706 18.8759 38.3296C18.8759 38.4333 18.8759 38.5855 18.7206 38.5855ZM30.997 22.9093C30.7378 23.1164 30.2746 23.4244 30.3264 23.8387V23.9911C29.9118 24.6128 29.8602 25.332 29.4457 25.9506C29.406 26.0177 29.3786 26.0877 29.342 26.1548C29.979 22.6747 30.1711 18.6824 30.1711 16.412C30.1711 14.2972 29.4457 12.234 29.2446 10.1191C29.1378 8.47025 29.0859 6.66321 28.0041 5.32216C26.9191 4.08498 25.4257 3.15845 23.725 3.15845C23.466 3.15845 23.2099 3.15845 22.9509 3.20737C22.7436 3.05495 22.4845 3 22.2284 3C21.4543 3 20.8326 3.56986 20.1103 3.56986C19.9092 3.56986 19.7019 3.51803 19.5434 3.46641L19.2875 3.7254L20.2169 3.77723C20.2688 3.87782 20.3694 3.98126 20.3694 4.08498C20.3694 4.39272 19.4947 4.29214 19.391 4.80725C17.7391 5.68486 15.9866 7.79668 15.0053 9.34495C14.4384 10.2744 13.9233 11.4081 13.4084 12.3894C13.3565 12.4381 12.9938 13.2122 12.8933 13.2122C12.8933 13.5749 12.7864 13.8858 12.7377 14.1935C12.3263 14.6049 12.5824 15.379 12.1708 15.7933C11.5491 17.7499 11.034 20.1757 11.034 22.187C11.034 22.3425 10.9305 22.3942 10.775 22.446C10.7262 21.9798 10.5707 21.4647 10.6226 20.9498V20.6389C10.8299 15.9976 10.9305 12.0785 13.6674 8.05594C15.7276 5.01129 18.3579 4.54821 19.132 3.62174C18.9795 3.62174 18.8759 3.56986 18.7206 3.56986C18.306 3.56986 17.8977 3.77723 17.6904 4.13681C14.7492 5.115 13.3047 7.79668 12.0673 10.378C11.86 10.6858 11.604 10.8929 11.5491 11.3044C11.3448 12.234 11.1895 13.1116 10.8299 14.038C10.7262 14.4007 10.5191 14.9676 10.5191 15.3271C10.5191 15.638 10.6744 15.9458 10.6744 16.2566C10.6744 16.668 10.6226 17.0307 10.5191 17.4421C9.95212 20.2792 9.79663 23.3725 9.79663 26.2614C9.79663 28.5806 10.8299 30.6438 11.5491 32.7588C12.3263 35.029 13.9751 36.885 15.7276 38.4333L17.0168 38.6404C17.3277 38.8963 17.6904 39 18.0988 39C18.6687 39 19.2357 38.7928 19.8024 38.8447H20.0098C20.7321 38.3814 21.9694 38.0706 22.5363 37.4519C22.6917 37.3512 22.7954 36.9887 23.0028 36.9887C23.0515 36.9887 23.1033 36.9887 23.1551 37.0405C24.2401 35.855 25.5811 34.8737 26.5593 33.6364C27.0744 33.0178 27.3853 32.2437 27.8486 31.5732C28.0041 31.366 28.0041 31.0583 28.2631 30.9028C28.8819 29.3548 31.3566 24.4057 31.3566 23.0646V22.9093H30.997Z" stroke="#FBFDFD" stroke-width="1.59982" stroke-miterlimit="10"/>
</svg>
