<svg width="42" height="42" viewBox="0 0 42 42" fill="none" xmlns="http://www.w3.org/2000/svg">
<path d="M32.2177 11H31.8589C26.8215 11 23.8177 14.2164 21.7709 17.0076C20.9867 18.0842 20.2557 19.2139 19.5645 20.3038C18.2488 22.3772 16.9994 24.3177 15.5241 25.7265C13.969 27.2152 12.0152 28.0126 9.87536 28.0126C8.13417 27.9594 6.5127 27.2285 5.30315 25.9658C4.09371 24.7031 3.42913 23.0285 3.42913 21.2607C3.42913 19.493 4.16018 17.712 5.40957 16.4494C6.67216 15.1734 8.3601 14.469 10.1544 14.469H10.1678C10.8987 14.469 11.7494 14.6152 12.5867 14.881C12.7462 14.9342 12.8791 15.0538 12.9323 15.2266C12.9855 15.3994 12.9588 15.5854 12.8525 15.7316L8.49304 22.0316C8.3601 22.2177 8.34689 22.457 8.4532 22.6563C8.5595 22.8557 8.75891 22.9753 8.98484 22.9753H11.457C11.7892 22.9753 12.1083 22.8157 12.2943 22.5367L16.7867 15.9975C16.9728 15.7449 17.0791 15.4525 17.1455 15.1335C17.1987 14.8278 17.1987 14.5089 17.1455 14.2032C17.0791 13.8975 16.9462 13.6051 16.7735 13.3525C16.5874 13.1 16.3614 12.8873 16.0956 12.7146C15.9095 12.6082 15.7234 12.5019 15.5241 12.3956C13.876 11.4918 12.0019 11.0133 10.1278 11.0133C7.42974 11.0133 4.89113 12.0766 2.97726 14.0038C1.08992 15.9044 0 18.5361 0 21.2474C0 23.9588 0.996826 26.431 2.83101 28.3449C4.6652 30.2721 7.12403 31.3753 9.76905 31.455C12.6133 31.455 15.1254 30.4715 17.4379 28.4379C19.4981 26.6304 21.0798 24.2645 22.4088 22.2044C23.4323 20.5962 24.4025 19.081 25.4658 17.8316C25.838 17.393 26.1968 17.0076 26.5557 16.6753C28.1639 15.1734 29.8519 14.469 31.8721 14.469H32.1246C33.8658 14.5221 35.4873 15.2399 36.6968 16.5158C37.7335 17.6057 38.3981 19.0544 38.5442 20.5696C38.5709 20.7956 38.5841 21.0215 38.5841 21.2474C38.5841 23.055 37.8798 24.7563 36.6037 26.0323C35.3412 27.3082 33.6531 28.0126 31.8589 28.0126H31.8456C30.9152 28.0126 30.0247 27.7867 29.4266 27.6006C29.2671 27.5474 29.1342 27.4278 29.081 27.255C29.0279 27.0822 29.0544 26.8961 29.1607 26.7367L33.507 20.5031C33.6398 20.3171 33.6531 20.0778 33.5468 19.8785C33.4405 19.6658 33.2411 19.5595 33.0152 19.5595H30.543C30.2108 19.5595 29.9051 19.719 29.7056 19.9981L25.2132 26.4708C25.0272 26.7367 24.9208 27.0158 24.8545 27.3348C24.8012 27.6405 24.8012 27.9594 24.8545 28.2652C24.9208 28.5709 25.0538 28.8633 25.2265 29.1158C25.3993 29.3683 25.6519 29.5942 25.9177 29.7538C26.1037 29.8601 26.2765 29.9664 26.4626 30.0727C28.1107 30.9765 29.9847 31.455 31.8589 31.455C34.5703 31.455 37.1088 30.3917 39.0227 28.4646C40.9367 26.5373 42 23.9855 42 21.2607C42 18.5361 40.9765 15.9975 39.1557 14.1101C37.3215 12.1829 34.8627 11.0797 32.2177 11Z" fill="#6666FE"/>
</svg>
