<svg width="42" height="42" viewBox="0 0 42 42" fill="none" xmlns="http://www.w3.org/2000/svg">
<path d="M37.0571 14.8279H27.1719V24.7129H37.0571V14.8279Z" fill="white"/>
<path d="M17.299 28.4164C17.299 29.1503 17.0814 29.8676 16.6736 30.4778C16.266 31.0879 15.6865 31.5636 15.0085 31.8443C14.3304 32.1253 13.5844 32.1987 12.8646 32.0555C12.145 31.9124 11.4838 31.559 10.9648 31.04C10.446 30.5212 10.0926 29.86 9.94947 29.1402C9.80632 28.4205 9.87974 27.6744 10.1605 26.9965C10.4414 26.3185 10.9169 25.739 11.5272 25.3313C12.1372 24.9236 12.8547 24.7061 13.5886 24.7061H17.299V14.8279H13.5886C10.901 14.8279 8.27382 15.6248 6.03916 17.118C3.80451 18.6112 2.06286 20.7332 1.03438 23.2162C0.00588685 25.6992 -0.263212 28.4315 0.261108 31.0674C0.785428 33.7033 2.07961 36.1246 3.97992 38.0249C5.88039 39.9254 8.30171 41.2195 10.9376 41.7439C13.5735 42.2681 16.3056 41.9991 18.7886 40.9706C21.2716 39.942 23.3938 38.2003 24.887 35.9659C26.3801 33.7312 27.1771 31.1039 27.1771 28.4164V24.7061H17.299V28.4164Z" fill="white"/>
<path d="M30.8827 9.88508H42V0H30.8827C27.2801 0.00369642 23.8259 1.43655 21.2783 3.98408C18.7308 6.53159 17.2979 9.98572 17.2942 13.5884V14.8275H27.1724V13.5884C27.1742 12.6056 27.566 11.6637 28.2616 10.9693C28.9572 10.2751 29.9 9.88508 30.8827 9.88508Z" fill="white"/>
</svg>
