<svg width="64" height="64" viewBox="0 0 64 64" fill="none" xmlns="http://www.w3.org/2000/svg">
<path d="M63.7802 13.8999C63.3206 13.1033 62.2963 12.8409 61.5121 13.3192L19.3925 38.9785C18.3192 36.9672 17.7109 34.669 17.7109 32.2286C17.7109 24.305 24.1223 17.8815 32.0313 17.8815C35.4272 17.8815 38.5449 19.0689 40.9999 21.0475L32.0394 27.2098L55.3257 13.74C55.8276 13.4503 55.9994 12.8068 55.7088 12.3053C55.4035 11.7751 54.712 11.618 54.2074 11.9651L48.5052 15.8866C44.3031 11.6344 38.4754 9 32.0313 9C19.2262 9 8.84589 19.3995 8.84589 32.2286C8.84589 36.3593 9.92334 40.2371 11.8095 43.5984L0 50.7923L12.1245 44.1422C16.1738 50.9194 23.5727 55.4572 32.0313 55.4572C44.8363 55.4572 55.2166 45.0576 55.2166 32.2286C55.2166 31.5045 55.2166 31.6279 55.2166 29.4548C55.2166 27.2817 56.0969 24.5015 59.2154 22.8279C59.4827 22.6843 59.5795 22.3483 59.4282 22.0846C59.2795 21.8277 58.9522 21.7388 58.6957 21.8878L31.0466 37.8814C34.1329 36.5669 36.4923 35.7676 39.6198 35.1381C46.1346 33.8269 46.3003 36.9386 43.7844 40.4484C42.0998 42.7985 38.2941 46.5729 32.0339 46.5729C26.9291 46.5729 22.4501 43.8976 19.9134 39.8694L63.1487 16.1585C63.9547 15.7172 64.2398 14.6965 63.7802 13.8999Z" fill="white"/>
</svg>
