<svg width="42" height="42" viewBox="0 0 42 42" fill="none" xmlns="http://www.w3.org/2000/svg">
<path fill-rule="evenodd" clip-rule="evenodd" d="M30.8225 10C27.7428 10 24.9437 11.2537 22.9262 13.2712L12.0493 24.1492H16.0387L19.6917 20.495L24.9248 15.262C25.7005 14.4861 26.6215 13.8708 27.6352 13.4513C28.6489 13.0318 29.7354 12.8162 30.8325 12.8169C35.4387 12.8169 39.192 16.5691 39.192 21.1764C39.192 25.7837 35.4398 29.537 30.8325 29.537C27.5335 29.537 24.6898 27.6197 23.327 24.8384L21.2449 26.9205C23.199 30.1716 26.7519 32.3628 30.8225 32.3628C36.993 32.3628 42 27.3558 42 21.1864C42 15.0159 37.0019 10 30.8225 10ZM19.0727 29.0827C18.0364 30.1207 16.8055 30.9439 15.4505 31.5052C14.0955 32.0666 12.6431 32.355 11.1764 32.3539C5.007 32.3539 0 27.3469 0 21.1764C0 15.007 5.007 10 11.1764 10C15.247 10 18.7999 12.1812 20.7628 15.4334L18.6819 17.5155C17.3191 14.7342 14.4754 12.8169 11.1775 12.8169C6.57022 12.8169 2.80802 16.5691 2.80802 21.1764C2.80802 25.7837 6.5602 29.537 11.1675 29.537C13.4756 29.537 15.5565 28.6006 17.0741 27.0919L22.3071 21.8589L25.9602 18.2058H29.9507L19.0738 29.0827H19.0727Z" fill="url(#paint0_linear_264_269)"/>
<defs>
<linearGradient id="paint0_linear_264_269" x1="-6.14469e-08" y1="21.3835" x2="45.5" y2="27" gradientUnits="userSpaceOnUse">
<stop stop-color="#00E8C2"/>
<stop offset="1" stop-color="#6A2AFF"/>
</linearGradient>
</defs>
</svg>
