<svg width="42" height="42" viewBox="0 0 42 42" fill="none" xmlns="http://www.w3.org/2000/svg">
<path d="M8.27922 41.9982H37.5695C38.2451 41.9982 38.5354 41.1327 37.9913 40.7346C37.9456 40.7017 37.8981 40.667 37.847 40.6324C36.5615 39.7486 36.1196 38.8247 35.4568 38.2221C34.794 37.6195 32.2322 36.0528 31.9619 35.5708C31.6917 35.0887 30.576 33.6718 30.3642 33.1295C30.1524 32.5872 30.2437 31.5025 30.1834 31.1702C30.1232 30.8379 29.8822 30.8087 29.8822 30.8087C29.8822 30.8087 29.7909 30.3869 29.9424 30.1459C30.094 29.9048 30.4555 29.0612 30.9376 28.7289C31.4196 28.3966 32.5645 27.6735 32.5955 25.7453C32.6266 23.8171 32.234 22.8219 32.2632 22.2796C32.2924 21.7373 31.8414 20.9229 31.7501 20.6216C31.6588 20.3204 31.8104 20.2291 31.8104 20.2291C31.8104 20.2291 34.2206 19.716 34.5219 19.3252C34.8232 18.9345 35.6376 18.0288 34.8835 16.3124C34.1294 14.596 32.5024 14.2637 30.4245 14.8352C30.4245 14.8352 28.2552 12.2131 27.9229 11.9118C27.5906 11.6105 26.9278 11.2782 26.0842 11.731C25.2406 12.1839 23.4931 12.5454 23.0713 12.7865C22.6495 13.0275 21.2326 13.4803 20.9313 14.1121C20.63 14.7439 20.389 15.4688 19.8156 16.0714C19.2423 16.6739 18.5503 17.8498 18.459 18.5419C18.3677 19.2339 18.4279 20.8316 18.49 21.646C18.5521 22.4604 18.7913 23.0319 18.7913 23.7258C18.7913 24.4196 18.2782 25.3838 18.5795 26.1963C18.8808 27.0089 19.7554 28.1848 19.5436 28.5171C19.3318 28.8494 18.6689 29.1507 18.6689 29.1507C18.6689 29.1507 17.7048 28.2158 16.9818 27.7338C16.2587 27.2517 14.3305 26.7094 14.2099 26.3168C14.0894 25.9242 15.9574 21.9783 16.2587 21.1037C16.56 20.2291 18.5795 15.9508 19.0013 15.2278C19.4231 14.5047 19.4541 14.0829 19.4541 14.0829L19.3336 13.6903L20.2082 12.4541L19.4851 11.6708C19.4851 11.6708 20.0275 10.4054 20.7213 9.86309C21.4152 9.32078 23.4931 7.87462 23.7342 7.6628C23.9752 7.45099 25.1511 5.61408 25.3319 4.92021C25.5126 4.22635 25.2114 2.78019 25.2406 2.35839C25.2698 1.93659 24.4865 2.11736 24.3367 2.38943C24.3367 2.38943 23.7342 1.51479 23.4931 1.21351C23.2521 0.912228 22.5582 0.700416 22.5582 0.700416C22.5582 0.700416 22.1054 0.0978493 21.8954 0.0375926C21.6854 -0.0226641 21.3221 -0.0226641 20.6592 0.128891C19.9964 0.280445 19.5436 0.490431 18.8808 0.943269C18.2179 1.39611 17.5241 1.24455 17.4036 1.57688C17.283 1.9092 17.3433 5.88614 17.3123 6.06691C17.2812 6.24768 16.3774 7.54412 16.0158 7.96591C15.6543 8.38771 15.594 9.2313 14.9915 9.53259C14.3889 9.83387 14.0566 9.41207 13.6056 10.3159C13.1545 11.2198 12.8222 10.6483 12.1886 12.3354C11.555 14.0226 10.5617 14.4444 10.1399 14.9867C9.71808 15.529 8.96396 18.0306 8.06011 18.8432C7.15626 19.6557 6.61395 19.988 6.28162 20.6216C5.9493 21.2553 6.0406 21.7665 5.64801 22.3088C5.25543 22.8511 5.07466 23.9358 4.83363 24.6296C4.59261 25.3235 3.97178 25.4166 4.001 26.3807C4.03021 27.3448 4.15255 27.4051 4.03204 28.1884C3.91152 28.9718 4.42462 31.3218 5.08744 33.1003C5.75027 34.8788 6.05155 36.4144 6.86593 37.5903C7.68031 38.7662 7.52875 39.6098 7.52875 39.6098L7.44659 41.1199C7.42102 41.5983 7.80082 42 8.28105 42L8.27922 41.9982Z" fill="#E0AE4D"/>
</svg>
