<svg width="42" height="42" viewBox="0 0 42 42" fill="none" xmlns="http://www.w3.org/2000/svg">
<g clip-path="url(#clip0_442_66)">
<path d="M21 0C9.45 0 0 9.45 0 21C0 32.55 9.45 42 21 42C32.55 42 42 32.55 42 21C42 9.45 32.55 0 21 0ZM21 31.71V39.585C12.915 39.585 6.405 33.075 6.405 24.99C6.405 16.905 12.915 10.395 21 10.395V2.52C29.085 2.52 35.595 9.03 35.595 17.115C35.595 25.2 29.085 31.71 21 31.71Z" fill="white"/>
<path d="M21.1049 13.755H20.9999C19.4249 16.905 17.0099 19.32 13.8599 20.895C17.0099 22.575 19.4249 24.99 20.9999 28.245H21.1049C22.6799 25.095 25.0949 22.68 28.2449 21.105C25.0949 19.425 22.6799 17.01 21.1049 13.755Z" fill="white"/>
</g>
<defs>
<clipPath id="clip0_442_66">
<rect width="42" height="42" fill="white"/>
</clipPath>
</defs>
</svg>
