<svg width="42" height="42" viewBox="0 0 42 42" fill="none" xmlns="http://www.w3.org/2000/svg">
<path fill-rule="evenodd" clip-rule="evenodd" d="M2.91926 1.7293L12.5573 3.91501C12.676 3.93717 12.7578 4.04096 12.7578 4.15939V38.0329C12.7578 38.1516 12.6694 38.2624 12.5507 38.2848L2.91135 40.2709C2.74914 40.3079 2.6001 40.1813 2.6001 40.019V1.9812C2.6001 1.81819 2.75573 1.69224 2.91926 1.7293ZM38.6823 1.7293L29.0428 3.91501C28.9241 3.93717 28.8424 4.04096 28.8424 4.15939V38.0329C28.8424 38.1516 28.9321 38.2624 29.0508 38.2848L38.6888 40.2709C38.8524 40.3079 39.0001 40.1813 39.0001 40.019V1.9812C39.0001 1.81819 38.8445 1.69224 38.6823 1.7293ZM25.8789 16.0213V25.7344V25.9567H25.6574H15.9441H15.7212V25.7344V16.0213V15.7989H15.9441H25.6574H25.8789V16.0213Z" fill="url(#paint0_linear_506_11)"/>
<path fill-rule="evenodd" clip-rule="evenodd" d="M11.7252 4.78505L3.63276 2.95014V39.0682L11.7252 37.4011V4.78505ZM29.875 4.78505V37.4011L37.9674 39.0682V2.95014L29.875 4.78505ZM12.5573 3.91501C12.676 3.93717 12.7578 4.04096 12.7578 4.15939V38.0329C12.7578 38.1516 12.6694 38.2624 12.5507 38.2848L2.91135 40.2709C2.74914 40.3079 2.6001 40.1813 2.6001 40.019V1.9812C2.6001 1.81819 2.75573 1.69224 2.91926 1.7293L12.5573 3.91501ZM38.6888 40.2709L29.0508 38.2848C28.9321 38.2624 28.8424 38.1516 28.8424 38.0329V4.15939C28.8424 4.04096 28.9241 3.93717 29.0428 3.91501L38.6823 1.7293C38.8445 1.69224 39.0001 1.81819 39.0001 1.9812V40.019C39.0001 40.1813 38.8524 40.3079 38.6888 40.2709ZM24.8463 24.924V16.8317H16.7539V24.924H24.8463ZM15.7212 25.9567V15.7989H25.8789V25.9567H15.7212Z" fill="black"/>
<defs>
<linearGradient id="paint0_linear_506_11" x1="32.849" y1="1.72283" x2="32.5048" y2="40.2775" gradientUnits="userSpaceOnUse">
<stop offset="0.055"/>
<stop offset="0.4999" stop-color="#808080"/>
<stop offset="0.5"/>
<stop offset="0.97" stop-color="#666666"/>
</linearGradient>
</defs>
</svg>
