<svg width="42" height="42" viewBox="0 0 42 42" fill="none" xmlns="http://www.w3.org/2000/svg">
<path d="M41.5983 22.7993C41.0818 21.5574 40.3738 20.4905 40.9796 19.3453C42.9859 16.4378 40.6469 12.4297 37.0839 12.8373C35.1809 10.6551 32.5123 9.15835 29.5 8.76984C28.8374 8.54807 21.3267 7.14879 15.1706 8.77923C12.0326 9.60884 9.07836 11.2676 7.05855 13.8414C4.27577 11.5005 0.000599476 13.4944 0.000599476 17.1308C0.000599476 19.804 2.2368 20.2537 1.03493 21.6774C-1.28514 24.2515 0.508633 28.7708 4.29722 28.7708C5.3003 28.7708 6.2242 28.426 6.95645 27.8479C11.7264 33.9118 21.6853 34.5583 29.4896 32.8362C32.3821 32.4654 34.959 31.0717 36.8444 29.0312C40.3616 29.6018 43.0498 26.0059 41.5983 22.7993ZM4.29723 27.5209C1.47845 27.5209 0.400379 24.0785 1.95778 22.5211C2.90428 21.4394 2.75075 20.0225 1.9807 19.1078C-0.47328 16.2358 3.55025 12.3505 6.33671 14.8684C3.93162 18.7139 4.23257 23.5383 6.23985 26.8188C5.71175 27.2573 5.03573 27.5209 4.29723 27.5209ZM22.1916 10.1012C17.0492 12.7938 15.0316 18.4295 16.1056 23.4455C17.0813 28.002 11.3523 30.8924 8.298 27.3732C2.36626 20.5386 6.85153 9.2314 21.9832 9.24739C22.4565 9.24789 22.6109 9.88171 22.1916 10.1012ZM17.0538 20.8014C17.0538 11.0784 28.9423 6.21717 35.7403 13.2248C35.3684 13.4039 35.0247 13.6362 34.7205 13.9164C28.6745 7.99855 18.3527 12.2467 18.3527 20.8014C18.3527 29.0499 28.1017 33.4348 34.2656 28.1048C34.4056 27.9838 34.6109 27.9846 34.7552 28.1004C34.8641 28.1878 34.9772 28.2701 35.0939 28.3469C35.3037 28.4851 35.3317 28.7835 35.1442 28.9508C28.208 35.1422 17.0538 30.186 17.0538 20.8014ZM27.9834 16.3569C25.5542 16.3569 23.5736 18.3129 23.5322 20.7325C23.4896 23.2231 25.5712 25.2616 28.0623 25.2616H32.8519C33.1819 25.2616 33.148 25.6017 33.3785 26.2145C33.5584 26.6925 33.3897 27.2305 32.9816 27.5375C27.5888 31.5946 19.6026 27.7679 19.6026 20.8014C19.6026 13.5151 28.2628 9.76052 33.572 14.5502C33.781 14.7387 33.8406 15.0381 33.7264 15.2953C33.6444 15.4799 33.5753 15.6721 33.5206 15.8715C33.3345 16.5424 33.1138 16.3569 27.9834 16.3569ZM40.741 24.7939C40.6437 26.8405 38.5223 28.4461 36.4069 27.6271C33.7559 26.6114 34.9903 24.0117 32.8519 24.0117H27.9834C26.2179 24.0117 24.7815 22.5753 24.7815 20.8098C24.7815 19.0443 26.2179 17.6069 27.9834 17.6069H32.8873C33.7414 17.6069 34.4976 17.0298 34.7257 16.2028C35.8219 12.2283 42.3641 14.2406 39.8983 18.7182C38.5286 20.7729 40.8352 22.8444 40.741 24.7939Z" fill="#EB4747"/>
</svg>
