<svg width="42" height="42" viewBox="0 0 42 42" fill="none" xmlns="http://www.w3.org/2000/svg">
<path d="M10.6784 14.985C14.2824 14.985 17.1664 17.726 17.1664 21.154C17.1664 24.581 14.2824 27.323 10.6784 27.323C7.07442 27.323 4.19039 24.581 4.19039 21.154C4.19039 17.726 7.07442 14.985 10.6784 14.985ZM10.6784 31.308C16.58 31.308 21.3557 26.766 21.3557 21.154C21.3557 15.541 16.58 11 10.6784 11C4.77574 11 0 15.541 0 21.154C0 26.766 4.77574 31.308 10.6784 31.308ZM25.6273 11C25.2342 11 24.9159 11.303 24.9159 11.677V14.385C24.9159 14.759 25.2342 15.062 25.6273 15.062H37.017C37.4101 15.062 37.7284 14.759 37.7284 14.385V11.677C37.7284 11.303 37.4101 11 37.017 11H25.6273ZM38.4409 15.062C38.0478 15.062 37.7284 15.365 37.7284 15.739V18.45C37.7284 18.824 38.0478 19.127 38.4409 19.127H41.2886C41.6817 19.127 42 18.824 42 18.45V15.739C42 15.365 41.6817 15.062 41.2886 15.062H38.4409ZM25.6273 23.185C25.2342 23.185 24.9159 23.488 24.9159 23.862V26.569C24.9159 26.943 25.2342 27.246 25.6273 27.246H28.475C28.8681 27.246 29.1864 26.943 29.1864 26.569V23.862C29.1864 23.488 28.8681 23.185 28.475 23.185H25.6273ZM31.3216 19.8C31.3216 19.426 31.641 19.123 32.0341 19.123H34.8818C35.2749 19.123 35.5932 19.426 35.5932 19.8V22.508C35.5932 22.882 35.2749 23.185 34.8818 23.185H32.0341C31.641 23.185 31.3216 22.882 31.3216 22.508V19.8ZM29.8988 27.246C29.5058 27.246 29.1864 27.549 29.1864 27.923V30.631C29.1864 31.005 29.5058 31.308 29.8988 31.308H41.2886C41.6817 31.308 42 31.005 42 30.631V27.923C42 27.549 41.6817 27.246 41.2886 27.246H29.8988Z" fill="white"/>
</svg>
