<svg width="64" height="64" viewBox="0 0 64 64" fill="none" xmlns="http://www.w3.org/2000/svg">
<mask id="mask0_167_209" style="mask-type:luminance" maskUnits="userSpaceOnUse" x="0" y="3" width="64" height="57">
<path d="M64 59.5V3.5L0 3.5V59.5L64 59.5Z" fill="white"/>
</mask>
<g mask="url(#mask0_167_209)">
<path d="M63.9998 47.4195C64.0028 44.221 62.5508 41.152 59.9633 38.8865C57.3758 36.6215 53.8643 35.344 50.1988 35.336H34.8966C34.8003 34.0915 34.7397 32.819 34.7397 31.5C34.7397 30.1809 34.6791 28.9147 34.5935 27.664H50.1988C53.8323 27.6131 57.2973 26.3178 59.8463 24.0575C62.3953 21.7972 63.8238 18.7532 63.8238 15.582C63.8238 12.4108 62.3953 9.36675 59.8463 7.10645C57.2973 4.8462 53.8323 3.5509 50.1988 3.5H13.6263C9.99264 3.5509 6.52754 4.8462 3.97856 7.10645C1.42957 9.36675 0.000978092 12.4108 0.000977952 15.582C0.000977817 18.7532 1.42957 21.7972 3.97856 24.0575C6.52754 26.3178 9.99264 27.6131 13.6263 27.664L27.9998 28C28.9998 28 29.0852 30.1809 29.0852 31.5C29.0852 32.819 29.1458 34.0855 29.2314 35.336H13.6263C9.99264 35.387 6.52754 36.682 3.97856 38.9425C1.42957 41.2025 0.000976703 44.247 0.000976563 47.418C0.000976423 50.589 1.42957 53.6335 3.97856 55.8935C6.52754 58.154 9.99264 59.449 13.6262 59.5H50.1988C53.8633 59.492 57.3748 58.215 59.9623 55.9505C62.5498 53.6855 64.0018 50.6175 63.9998 47.4195ZM58.3453 15.5804C58.3463 17.4681 57.4888 19.279 55.9618 20.6158C54.4343 21.9526 52.3618 22.7062 50.1988 22.7111H33.9946C33.4076 19.1762 32.2892 15.7243 30.6682 12.4445C29.9535 11.0234 29.0385 9.68565 27.9443 8.4622H50.1988C52.3593 8.46715 54.4298 9.219 55.9568 10.5531C57.4838 11.8873 58.3423 13.6949 58.3453 15.5804ZM13.6263 22.7111C11.459 22.7111 9.38054 21.9599 7.84809 20.6226C6.31564 19.2854 5.45469 17.4716 5.45469 15.5804C5.45469 13.6892 6.31564 11.8755 7.84809 10.5383C9.38054 9.20105 11.459 8.4498 13.6263 8.4498H17.2949C20.5357 8.4498 23.6054 10.6898 25.5164 14.4449C26.8245 17.0908 27.7549 19.8671 28.2866 22.7111H13.6263ZM5.47964 47.4195C5.47869 45.532 6.33589 43.721 7.86319 42.384C9.39044 41.0475 11.463 40.294 13.6263 40.289H29.8304C30.4174 43.824 31.5358 47.2755 33.1567 50.5555C33.8715 51.9765 34.7865 53.3145 35.8806 54.538H13.6262C11.4655 54.533 9.39509 53.781 7.86819 52.447C6.34134 51.113 5.48249 49.305 5.47964 47.4195ZM38.3299 48.555C37.0218 45.909 36.0914 43.133 35.5597 40.289H50.1988C52.3658 40.289 54.4443 41.04 55.9768 42.3775C57.5093 43.7145 58.3703 45.5285 58.3703 47.4195C58.3703 49.3105 57.5093 51.1245 55.9768 52.4615C54.4443 53.799 52.3658 54.55 50.1988 54.55H46.53C43.3035 54.55 40.2338 52.31 38.3299 48.555Z" fill="url(#paint0_linear_167_209)"/>
<path opacity="0.8" d="M64 15.5804C64.003 18.7789 62.551 21.8478 59.9635 24.1133C57.376 26.3788 53.864 27.6558 50.1985 27.664H34.8963C34.8 28.9085 34.7394 30.1809 34.7394 31.5C34.7394 32.819 34.6788 34.0855 34.5932 35.336H50.1985C53.8325 35.387 57.2975 36.682 59.8465 38.9425C62.3955 41.2025 63.824 44.247 63.824 47.418C63.824 50.589 62.3955 53.6335 59.8465 55.8935C57.2975 58.154 53.8325 59.449 50.1985 59.5H13.6256C9.99185 59.449 6.5267 58.154 3.97765 55.8935C1.42861 53.6335 -3.7816e-08 50.589 0 47.418C3.7816e-08 44.247 1.42861 41.2025 3.97765 38.9425C6.5267 36.682 9.99185 35.387 13.6256 35.336L27.9993 35C28.9994 35 29.0848 32.819 29.0848 31.5C29.0848 30.1809 29.1454 28.9147 29.2309 27.664H13.6256C9.99185 27.6131 6.5267 26.3178 3.97765 24.0575C1.42861 21.7972 3.41827e-07 18.7532 3.79642e-07 15.582C4.17457e-07 12.4108 1.42861 9.36675 3.97765 7.10645C6.5267 4.8462 9.99185 3.5509 13.6256 3.5H50.1985C53.8635 3.50825 57.375 4.78485 59.9625 7.04965C62.55 9.31445 64.002 12.3824 64 15.5804ZM58.3455 47.4195C58.3465 45.532 57.489 43.721 55.962 42.384C54.4345 41.0475 52.362 40.294 50.1985 40.289H33.9943C33.4072 43.824 32.2888 47.2755 30.6678 50.5555C29.9531 51.9765 29.038 53.3145 27.9438 54.538H50.1985C52.3595 54.533 54.43 53.781 55.957 52.447C57.4835 51.113 58.3425 49.305 58.3455 47.4195ZM13.6256 40.289C11.4583 40.289 9.37975 41.04 7.84725 42.3775C6.31475 43.7145 5.4538 45.5285 5.4538 47.4195C5.4538 49.3105 6.31475 51.1245 7.84725 52.4615C9.37975 53.799 11.4583 54.55 13.6256 54.55H17.2943C20.5352 54.55 23.6048 52.31 25.5159 48.555C26.824 45.909 27.7544 43.133 28.2861 40.289H13.6256ZM5.47875 15.5804C5.4778 17.4681 6.33505 19.279 7.86235 20.6158C9.38965 21.9526 11.4623 22.7062 13.6256 22.7111H29.83C30.417 19.1762 31.5354 15.7243 33.1564 12.4445C33.8711 11.0234 34.7861 9.68565 35.8803 8.46225H13.6256C11.4648 8.46715 9.39425 9.219 7.86735 10.5531C6.34045 11.8873 5.4816 13.6949 5.47875 15.5804ZM38.3297 14.4449C37.0215 17.0908 36.0911 19.8671 35.5594 22.7111H50.1985C52.366 22.7111 54.4445 21.9599 55.977 20.6226C57.5095 19.2854 58.3705 17.4716 58.3705 15.5804C58.3705 13.6893 57.5095 11.8755 55.977 10.5383C54.4445 9.20105 52.366 8.4498 50.1985 8.4498H46.5299C43.3033 8.4498 40.2336 10.6898 38.3297 14.4449Z" fill="url(#paint1_linear_167_209)"/>
</g>
<defs>
<linearGradient id="paint0_linear_167_209" x1="4.76909" y1="7.04665" x2="53.0578" y2="62.234" gradientUnits="userSpaceOnUse">
<stop stop-color="#8E59FF"/>
<stop offset="1" stop-color="#6888F9"/>
</linearGradient>
<linearGradient id="paint1_linear_167_209" x1="4.7682" y1="55.9535" x2="53.057" y2="0.765248" gradientUnits="userSpaceOnUse">
<stop stop-color="#8E59FF"/>
<stop offset="1" stop-color="#6888F9"/>
</linearGradient>
</defs>
</svg>
