<svg width="42" height="42" viewBox="0 0 42 42" fill="none" xmlns="http://www.w3.org/2000/svg">
<path d="M21.1683 28H2V0H21.1683C27.7483 0 33.08 5.33167 33.08 11.9078V16.0883C33.08 22.6683 27.7483 28 21.1683 28Z" fill="#AEDB01"/>
<path d="M26.1072 42H2V28C2 20.2689 8.26889 14 16.0039 14H26.1072C33.8422 14 40.1111 20.2689 40.1111 28C40.1111 35.7311 33.8422 42 26.1072 42Z" fill="#B0B1AC"/>
<path d="M33.08 15.8589V16.0922C33.08 22.6722 27.7483 28 21.1644 28H2C2 24.1344 3.57111 20.6344 6.09889 18.0989C8.63444 15.5633 12.1344 14 16.0078 14H26.1072C28.6467 14.0039 31.0267 14.6806 33.08 15.8589Z" fill="#5D6D3C"/>
</svg>
