<svg width="42" height="42" viewBox="0 0 42 42" fill="none" xmlns="http://www.w3.org/2000/svg">
<path d="M7.02073 16.7986C9.39024 16.7986 11.2864 18.7236 11.2864 21.131C11.2864 23.5377 9.39024 25.4634 7.02073 25.4634C4.65123 25.4634 2.75506 23.5377 2.75506 21.131C2.75506 18.7236 4.65123 16.7986 7.02073 16.7986ZM7.02073 28.262C10.9009 28.262 14.0408 25.0722 14.0408 21.131C14.0408 17.1891 10.9009 14 7.02073 14C3.13991 14 0 17.1891 0 21.131C0 25.0722 3.13991 28.262 7.02073 28.262ZM16.8492 14C16.5908 14 16.3815 14.2128 16.3815 14.4754V16.3772C16.3815 16.6399 16.5908 16.8527 16.8492 16.8527H24.3377C24.5961 16.8527 24.8054 16.6399 24.8054 16.3772V14.4754C24.8054 14.2128 24.5961 14 24.3377 14H16.8492ZM25.2738 16.8527C25.0154 16.8527 24.8054 17.0655 24.8054 17.3281V19.232C24.8054 19.4947 25.0154 19.7075 25.2738 19.7075H27.1461C27.4045 19.7075 27.6138 19.4947 27.6138 19.232V17.3281C27.6138 17.0655 27.4045 16.8527 27.1461 16.8527H25.2738ZM16.8492 22.5573C16.5908 22.5573 16.3815 22.7701 16.3815 23.0328V24.9339C16.3815 25.1965 16.5908 25.4093 16.8492 25.4093H18.7215C18.9799 25.4093 19.1892 25.1965 19.1892 24.9339V23.0328C19.1892 22.7701 18.9799 22.5573 18.7215 22.5573H16.8492ZM20.5931 20.1801C20.5931 19.9174 20.8031 19.7047 21.0615 19.7047H22.9338C23.1922 19.7047 23.4015 19.9174 23.4015 20.1801V22.0819C23.4015 22.3445 23.1922 22.5573 22.9338 22.5573H21.0615C20.8031 22.5573 20.5931 22.3445 20.5931 22.0819V20.1801ZM19.6576 25.4093C19.3992 25.4093 19.1892 25.6221 19.1892 25.8848V27.7865C19.1892 28.0492 19.3992 28.262 19.6576 28.262H27.1461C27.4045 28.262 27.6138 28.0492 27.6138 27.7865V25.8848C27.6138 25.6221 27.4045 25.4093 27.1461 25.4093H19.6576Z" fill="white"/>
<path d="M34.8543 25.417L30.2848 25.417C30.0035 25.417 29.7754 25.6451 29.7754 25.9264L29.7754 27.6627C29.7754 27.944 30.0035 28.1721 30.2848 28.1721L34.8543 28.1721C38.787 28.1721 42 25.0322 42 21.1514C42 17.2712 38.787 14.1306 34.8543 14.1306L30.2848 14.1306C30.0035 14.1306 29.7754 14.3587 29.7754 14.64L29.7754 16.3763C29.7754 16.6576 30.0035 16.8857 30.2848 16.8857L34.8543 16.8857C37.2561 16.8857 39.2077 18.7811 39.2077 21.1514C39.2077 23.5209 37.2561 25.417 34.8543 25.417Z" fill="white"/>
</svg>
