<svg width="42" height="42" viewBox="0 0 42 42" fill="none" xmlns="http://www.w3.org/2000/svg">
<path d="M41.9986 20.4864C42.0368 23.9345 41.3153 27.2293 39.8978 30.3772C37.8737 34.8597 33.0208 38.5249 28.5894 34.6234C24.9753 31.4436 24.3048 24.988 18.8902 24.043C11.7258 23.1746 11.5534 31.4818 6.873 32.4205C1.65621 33.4805 -0.0742026 24.7071 0.00242103 20.7227C0.0790445 16.7382 1.139 11.1383 5.67257 11.1383C10.8894 11.1383 11.2405 19.0369 17.8621 18.6091C24.4198 18.1622 24.5347 9.94427 28.8192 6.42598C32.5163 3.38658 36.8648 5.61504 39.0421 9.27382C41.0599 12.658 41.9475 16.6297 41.9921 20.4864H41.9986Z" fill="#97FCE4"/>
</svg>
