<svg width="42" height="42" viewBox="0 0 42 42" fill="none" xmlns="http://www.w3.org/2000/svg">
<g clip-path="url(#clip0_335_661)">
<path d="M20.7479 41C18.7163 40.8995 16.6824 40.8286 14.654 40.6862C13.5888 40.6113 12.5298 40.4269 11.4736 40.2566C11.1178 40.1991 10.774 40.0466 10.4359 39.9092C10.3372 39.869 10.2312 39.7414 10.2106 39.6376C10.1803 39.4839 10.3216 39.3795 10.4551 39.3429C10.8593 39.2327 11.2661 39.1227 11.6783 39.0515C12.2824 38.9474 12.8939 38.8852 13.4995 38.7883C13.6926 38.7572 13.8831 38.6863 14.0632 38.6071C14.1366 38.5746 14.2237 38.4697 14.2219 38.4003C14.2201 38.3291 14.1294 38.221 14.0556 38.1978C13.7587 38.1046 13.4572 38.0004 13.1506 37.9675C12.08 37.8525 11.0068 37.7636 9.93403 37.6678C8.70614 37.5582 7.47137 37.5014 6.26986 37.1948C6.05654 37.1406 5.84646 37.0556 5.65157 36.9533C5.30447 36.7718 5.26505 36.4384 5.57709 36.203C5.7897 36.0429 6.0428 35.9319 6.28686 35.8183C6.59709 35.6741 6.9225 35.5616 7.22984 35.4119C7.43702 35.311 7.6442 35.1693 7.61057 34.896C7.57912 34.6382 7.34518 34.551 7.14017 34.5065C6.53598 34.3757 5.92818 34.2567 5.31676 34.1674C4.23421 34.0087 3.1466 33.8865 2.06478 33.7234C1.79758 33.6829 1.53291 33.5683 1.28993 33.4432C0.976086 33.2815 0.93089 32.9652 1.21472 32.7594C1.5217 32.5367 1.87568 32.3744 2.2217 32.2124C2.61328 32.0291 3.02186 31.8826 3.41634 31.7044C3.55626 31.6411 3.68824 31.5464 3.80213 31.4419C4.03643 31.2264 4.04113 30.9339 3.79129 30.739C3.61014 30.5976 3.39717 30.4801 3.17951 30.406C2.66788 30.2317 2.14324 30.0965 1.62836 29.9305C1.47108 29.8799 1.31777 29.7967 1.18291 29.6998C0.964516 29.5429 0.944268 29.3292 1.11855 29.1235C1.21111 29.0143 1.32392 28.9221 1.43131 28.8262C1.56147 28.7102 1.69851 28.6017 1.82759 28.4842C2.1512 28.1888 2.22785 27.8486 2.07924 27.4241C1.53363 25.8668 1.20496 24.2625 1.0701 22.617C0.854237 19.9811 1.13699 17.402 1.94185 14.8833C2.84975 12.0413 4.32894 9.53276 6.36134 7.34922C7.88031 5.71745 9.62525 4.37963 11.5911 3.33144C13.4796 2.32482 15.4816 1.64434 17.5918 1.28638C19.0811 1.03364 20.5809 0.946867 22.0886 1.03509C24.2859 1.16381 26.4073 1.63385 28.4483 2.46475C31.0788 3.53536 33.3816 5.09193 35.341 7.14421C38.0484 9.97966 39.7872 13.3242 40.5379 17.1775C40.8738 18.9011 40.9714 20.6395 40.8492 22.3888C40.728 24.1197 40.3773 25.8057 39.818 27.449C39.6133 28.0507 39.7377 28.4065 40.2529 28.7796C40.4037 28.8888 40.5639 28.9882 40.702 29.1115C40.9461 29.3288 40.937 29.6253 40.6445 29.762C40.2613 29.941 39.8501 30.0639 39.4445 30.1894C39.0142 30.3228 38.5727 30.419 38.1435 30.5556C37.9645 30.6128 37.7899 30.7126 37.6406 30.8279C37.4236 30.9957 37.4121 31.2441 37.6225 31.4144C37.8062 31.563 38.0177 31.6935 38.2375 31.7767C38.7434 31.9676 39.2633 32.1209 39.7749 32.2966C39.985 32.3689 40.1907 32.455 40.3943 32.5443C40.4927 32.5873 40.5878 32.6437 40.6734 32.7084C40.984 32.9424 40.9779 33.2215 40.6246 33.3719C40.2627 33.526 39.8802 33.6576 39.494 33.7219C38.4147 33.9024 37.3285 34.0408 36.246 34.1996C35.5858 34.2965 34.9226 34.3825 34.2968 34.6327C34.1116 34.7069 33.9081 34.7897 33.8893 35.0207C33.8705 35.2499 34.044 35.3841 34.2255 35.4705C34.5777 35.6379 34.9422 35.7793 35.298 35.9387C35.5004 36.0295 35.7091 36.1155 35.8927 36.2374C36.2106 36.4485 36.1928 36.723 35.8595 36.9114C35.4697 37.1316 35.0355 37.2201 34.5998 37.2675C33.4637 37.3904 32.3251 37.491 31.1872 37.598C30.1817 37.6924 29.1671 37.7224 28.1858 37.9943C28.0213 38.0398 27.8579 38.1179 27.718 38.2156C27.5343 38.3439 27.5444 38.5276 27.7516 38.6057C28.0524 38.7189 28.3684 38.8038 28.6848 38.8624C29.2875 38.9741 29.8968 39.0515 30.5003 39.1596C30.6991 39.1951 30.8969 39.263 31.0806 39.3476C31.3579 39.4753 31.3814 39.7027 31.1113 39.8434C30.7949 40.0082 30.454 40.1417 30.1087 40.2313C28.9636 40.5282 27.7895 40.646 26.6141 40.7473C24.663 40.9151 22.7073 40.9563 20.7501 40.9516C20.7494 40.9682 20.7483 40.9848 20.7476 41.0015L20.7479 41ZM20.4804 34.0813V34.0278C22.7991 34.0278 25.1175 34.0405 27.4356 34.0228C28.6993 34.013 29.963 33.9476 31.2118 33.7313C31.4823 33.6843 31.7509 33.6044 32.0066 33.505C32.1125 33.4638 32.2297 33.3423 32.2571 33.236C32.2965 33.0823 32.1458 32.9948 32.0185 32.9373C31.8822 32.8759 31.7401 32.8144 31.5944 32.7891C31.0676 32.6972 30.5408 32.5949 30.0092 32.5436C28.8233 32.429 27.633 32.3577 26.4478 32.237C25.9423 32.1853 25.4429 32.0627 24.9451 31.9535C24.7845 31.9184 24.5936 31.8407 24.59 31.6425C24.586 31.4328 24.7885 31.3775 24.948 31.346C25.4249 31.252 25.9032 31.1399 26.3859 31.1078C27.8091 31.0127 29.2355 30.9671 30.659 30.8742C31.5224 30.8178 32.3844 30.7227 33.2435 30.6178C33.4937 30.5875 33.745 30.488 33.9728 30.3749C34.2028 30.2602 34.1872 30.0505 33.9529 29.9446C33.7956 29.8737 33.6246 29.8144 33.4543 29.7953C32.5218 29.6897 31.5868 29.6101 30.6554 29.4973C30.1437 29.4355 29.6354 29.3364 29.1303 29.2316C28.9737 29.199 28.7752 29.1282 28.7813 28.9206C28.7871 28.7207 28.986 28.6766 29.1379 28.6437C29.5898 28.546 30.0447 28.4593 30.5013 28.3869C31.3749 28.2488 32.2492 28.1179 33.0859 27.8135C33.7522 27.5712 34.3239 27.2144 34.6066 26.5238C35.2582 24.9328 35.6143 23.2758 35.6859 21.559C35.7333 20.4244 35.6418 19.2985 35.4401 18.1805C35.3717 17.803 35.1689 17.5626 34.8145 17.436C34.3821 17.2816 33.9312 17.2646 33.4796 17.253C32.4506 17.227 31.4212 17.2154 30.3929 17.1721C30.0049 17.1558 29.6187 17.0733 29.2348 17.0057C29.1614 16.9927 29.1002 16.9074 29.0337 16.8557C29.0955 16.796 29.1498 16.7248 29.221 16.6796C29.285 16.6391 29.3653 16.616 29.4416 16.6044C29.8512 16.5418 30.2605 16.4471 30.6724 16.4337C31.7253 16.3987 32.7792 16.4015 33.8325 16.3871C33.9525 16.3853 34.0733 16.3777 34.1919 16.3618C34.7636 16.2844 34.8818 16.0787 34.6688 15.5414C33.7938 13.3361 32.4687 11.444 30.6854 9.88168C28.1793 7.68621 25.2546 6.46916 21.9328 6.23956C19.8035 6.0924 17.731 6.3972 15.7329 7.16229C12.6881 8.32836 10.2746 10.2841 8.5192 13.0259C6.8021 15.708 6.05292 18.6563 6.2319 21.8381C6.33278 23.6297 6.76449 25.3392 7.48366 26.9815C7.69373 27.461 8.03614 27.7907 8.49823 28.0091C9.1816 28.3323 9.91704 28.4339 10.6583 28.4506C11.8196 28.4766 12.9825 28.4831 14.1435 28.4538C15.0445 28.431 15.9448 28.3529 16.8433 28.2738C17.1073 28.2506 17.3727 28.1606 17.6207 28.0608C17.8127 27.9834 17.8029 27.8178 17.6102 27.739C17.4392 27.6692 17.2562 27.611 17.0736 27.5922C16.1581 27.4978 15.2397 27.4288 14.3246 27.329C13.818 27.2737 13.3147 27.1825 12.8132 27.0903C12.7333 27.0755 12.6708 26.9685 12.5999 26.9041C12.6697 26.8452 12.7312 26.7519 12.8103 26.7331C13.1311 26.6575 13.455 26.5697 13.7819 26.5498C14.9715 26.4782 16.1621 26.3929 17.3528 26.3849C20.3213 26.365 23.2901 26.3694 26.2583 26.3972C27.2555 26.4066 28.252 26.5086 29.2478 26.5859C29.4774 26.6037 29.7073 26.6781 29.9261 26.7573C30.0873 26.8155 30.0819 26.928 29.929 27.0101C29.8556 27.0495 29.7749 27.0827 29.6936 27.0976C29.4275 27.1453 29.161 27.2053 28.892 27.2212C27.9848 27.2751 27.0769 27.3178 26.169 27.3546C24.479 27.4233 22.7886 27.4787 21.0994 27.5557C20.8029 27.5691 20.5078 27.654 20.2168 27.7253C20.1434 27.7433 20.0346 27.8377 20.0374 27.8919C20.0414 27.9675 20.1213 28.0612 20.1944 28.1056C20.2999 28.17 20.4247 28.217 20.5469 28.2365C20.9858 28.3067 21.4255 28.3844 21.8681 28.4195C22.96 28.5059 24.0541 28.5623 25.1457 28.6487C25.4672 28.6744 25.7857 28.7532 26.1021 28.823C26.2207 28.849 26.3852 28.8978 26.361 29.0479C26.3469 29.1343 26.2171 29.2345 26.1187 29.2685C25.9047 29.3426 25.6794 29.4073 25.4545 29.4254C24.4414 29.5071 23.4275 29.6119 22.4126 29.6333C20.4681 29.6741 18.5228 29.6633 16.5779 29.6752C14.9946 29.685 13.4098 29.677 11.8348 29.8697C11.4924 29.9117 11.1565 30.0187 10.8239 30.1167C10.7508 30.138 10.6557 30.2494 10.6579 30.3163C10.6601 30.385 10.757 30.4801 10.834 30.5108C11.0054 30.5795 11.1876 30.6431 11.3698 30.6598C12.2503 30.74 13.1307 30.8319 14.0133 30.868C15.7217 30.9386 17.4316 30.9635 19.14 31.0311C19.8064 31.0575 20.4721 31.1305 21.1341 31.2152C21.4215 31.252 21.7075 31.3489 21.9769 31.4603C22.1899 31.5485 22.1859 31.7452 21.9791 31.8522C21.8211 31.934 21.6464 32.0077 21.4725 32.0298C20.7212 32.1249 19.9695 32.2384 19.2141 32.2738C17.6688 32.3462 16.1213 32.3769 14.5748 32.4174C12.9922 32.4586 11.4078 32.477 9.83605 32.6886C9.43434 32.7428 9.04023 32.8639 8.64792 32.9731C8.57597 32.993 8.47762 33.1073 8.48305 33.1705C8.48955 33.2486 8.57706 33.3553 8.65479 33.3853C8.87788 33.4717 9.11074 33.5397 9.34503 33.5907C10.5972 33.8629 11.8695 33.958 13.1466 33.9801C15.5908 34.0224 18.0354 34.0492 20.48 34.0824L20.4804 34.0813ZM19.989 35.3132C19.989 35.3226 19.989 35.332 19.989 35.3414C19.6216 35.3414 19.2546 35.3371 18.8873 35.3421C17.112 35.3667 15.3352 35.3678 13.5722 35.613C13.2243 35.6614 12.8787 35.759 12.5475 35.8769C12.3005 35.9648 12.3023 36.1539 12.5247 36.3032C12.5938 36.3495 12.6708 36.3911 12.7503 36.4142C13.0099 36.4894 13.2688 36.5726 13.5338 36.6207C14.8637 36.8625 16.2106 36.9519 17.5574 36.9736C19.6516 37.0072 21.747 36.9996 23.8415 36.9855C24.9848 36.9779 26.1278 36.9135 27.2588 36.7295C27.5947 36.6749 27.9244 36.5737 28.2506 36.4728C28.3908 36.4294 28.5434 36.3469 28.5373 36.1647C28.5311 35.9832 28.3702 35.9239 28.2321 35.8718C28.0586 35.806 27.8785 35.7514 27.697 35.7142C26.6079 35.4911 25.5008 35.4369 24.3951 35.3996C22.9275 35.3505 21.4584 35.34 19.9897 35.3129L19.989 35.3132Z" fill="#ADF754"/>
<path d="M21.3535 25.1935C19.174 25.1935 16.9941 25.2185 14.8149 25.1845C13.4684 25.1635 12.1226 25.0604 10.7776 24.9762C10.4807 24.9578 10.1875 24.8681 9.8946 24.8026C9.80819 24.7835 9.72358 24.7433 9.6462 24.6985C9.46036 24.5915 9.45132 24.4353 9.6444 24.3481C9.86098 24.2502 10.0927 24.1692 10.326 24.1265C11.4902 23.9125 12.6708 23.8745 13.8498 23.8618C16.0894 23.838 18.329 23.8289 20.5686 23.8322C23.0251 23.8362 25.482 23.8365 27.9374 23.8864C29.2474 23.9132 30.5556 24.0332 31.8634 24.1283C32.1664 24.1504 32.4647 24.2418 32.7648 24.3026C32.8056 24.3109 32.8476 24.3228 32.8844 24.342C32.9976 24.4002 33.1817 24.4262 33.1498 24.5853C33.1318 24.675 32.9875 24.7806 32.883 24.8041C32.4914 24.893 32.0955 24.9795 31.6967 25.016C29.7583 25.1942 27.813 25.1874 25.8692 25.1982C24.364 25.2065 22.8588 25.2 21.3535 25.2V25.1931V25.1935Z" fill="#ADF754"/>
<path d="M22.8237 22.7699C21.0535 22.7699 19.2828 22.7916 17.513 22.7605C16.6611 22.7457 15.8099 22.6386 14.9603 22.5576C14.7853 22.541 14.6117 22.4669 14.4479 22.3957C14.3835 22.3675 14.308 22.272 14.3109 22.2105C14.3134 22.1516 14.4027 22.0612 14.4682 22.046C14.8069 21.9679 15.1479 21.8685 15.4918 21.8519C17.0787 21.7752 18.6678 21.7347 20.2548 21.6584C21.2878 21.6089 22.3193 21.5246 23.3505 21.4447C23.5147 21.4321 23.6799 21.3731 23.834 21.3102C23.9055 21.2809 23.9522 21.1909 24.0104 21.1284C23.95 21.0759 23.8961 20.991 23.8278 20.9765C23.4872 20.9053 23.1448 20.8225 22.7995 20.7993C21.6464 20.723 20.4916 20.6778 19.3382 20.6052C18.9553 20.5809 18.5731 20.5205 18.1949 20.4526C18.0853 20.433 17.9906 20.3304 17.8893 20.266C17.987 20.1883 18.0748 20.0646 18.1844 20.0404C18.5941 19.9503 19.0084 19.8578 19.4257 19.8289C21.7589 19.6665 24.0954 19.7016 26.4308 19.7641C27.1199 19.7826 27.8069 19.8889 28.4939 19.9623C28.5926 19.9728 28.6924 20.0147 28.7821 20.0603C28.9538 20.1478 28.9665 20.3 28.7936 20.3864C28.6194 20.4735 28.4252 20.543 28.2332 20.5683C27.6547 20.6438 27.0729 20.6909 26.493 20.7559C26.2482 20.7834 26.0048 20.8239 25.7626 20.868C25.6693 20.885 25.5706 20.9132 25.4929 20.9642C25.4245 21.009 25.3385 21.0944 25.3395 21.1602C25.3406 21.2274 25.4267 21.3276 25.4968 21.3525C25.6993 21.4245 25.9101 21.4946 26.1223 21.5134C27.0632 21.5973 28.0061 21.6566 28.9469 21.7383C29.4676 21.7835 29.9865 21.8533 30.5053 21.9169C30.5935 21.9278 30.689 21.9488 30.7624 21.9943C30.8517 22.0496 30.9808 22.1346 30.9833 22.2105C30.9859 22.2872 30.8687 22.4058 30.779 22.4394C30.5784 22.5143 30.364 22.5801 30.1521 22.592C29.0648 22.6538 27.9772 22.7214 26.8889 22.7413C25.5344 22.7666 24.1793 22.7475 22.8244 22.7475C22.8244 22.7547 22.8244 22.7623 22.8244 22.7695L22.8237 22.7699Z" fill="#ADF754"/>
<path d="M28.0835 17.9769C29.0901 18.0232 30.1727 18.063 31.2538 18.1284C31.5564 18.1469 31.8561 18.2333 32.1526 18.3067C32.2271 18.3251 32.2839 18.4137 32.349 18.4701C32.2832 18.5233 32.2242 18.609 32.1505 18.6245C31.8218 18.6936 31.491 18.7677 31.1572 18.7944C29.3776 18.9369 27.5954 18.8986 25.8143 18.8281C25.4249 18.8125 25.0372 18.7449 24.6504 18.691C24.5394 18.6755 24.4276 18.6354 24.3271 18.5847C24.2722 18.5569 24.2129 18.4864 24.2067 18.4296C24.2024 18.3902 24.279 18.3136 24.3307 18.3013C24.6102 18.234 24.8908 18.149 25.1754 18.1299C26.118 18.0662 27.0621 18.0286 28.0842 17.9769H28.0835Z" fill="#ADF754"/>
<path d="M32.7181 19.8267C33.1842 19.8744 33.7999 19.9326 34.4142 20.0042C34.5426 20.019 34.6702 20.0714 34.7884 20.1268C34.8459 20.1535 34.9237 20.2338 34.9168 20.2779C34.907 20.339 34.8362 20.4131 34.774 20.4384C34.6301 20.4967 34.4782 20.544 34.3253 20.5693C33.1668 20.7617 32.0112 20.7248 30.8607 20.5024C30.7218 20.4757 30.5834 20.4193 30.4601 20.3495C30.327 20.2743 30.3342 20.1448 30.4778 20.0953C30.6864 20.0234 30.9041 19.9601 31.1225 19.938C31.6012 19.8896 32.0824 19.869 32.7181 19.827V19.8267Z" fill="#ADF754"/>
</g>
<defs>
<clipPath id="clip0_335_661">
<rect width="39.8998" height="40" fill="white" transform="translate(1 1)"/>
</clipPath>
</defs>
</svg>
