<svg width="64" height="64" viewBox="0 0 64 64" fill="none" xmlns="http://www.w3.org/2000/svg">
<rect width="64" height="64" fill="#00DD73"/>
<path d="M44.9181 43.5028L37.6979 37.1617H26.2963L19.076 43.5028L22.4639 46.4782L29.6841 40.137C30.3031 39.5934 31.1192 39.2968 31.9972 39.2968C32.8751 39.2968 33.691 39.5934 34.31 40.137L41.5304 46.4782L44.9181 43.5028Z" fill="white"/>
<path d="M38.9022 35.333L48.7617 37.6511L49.9999 33.5834L40.1403 31.2654C39.2961 31.0678 38.5927 30.5933 38.1536 29.9261C37.7147 29.2637 37.6023 28.4878 37.8274 27.7464L40.4667 19.0873L35.8351 18L33.1958 26.6591L38.8966 35.3282L38.9022 35.333Z" fill="white"/>
<path d="M15.2381 37.6511L25.0977 35.3331L25.1033 35.3282L30.8041 26.6591L28.1648 18L23.5332 19.0873L26.1726 27.7465C26.3977 28.4878 26.2851 29.2637 25.8462 29.9261C25.4072 30.5933 24.7038 31.0678 23.8596 31.2654L14 33.5835L15.2381 37.6511Z" fill="white"/>
</svg>
