<svg width="64" height="64" viewBox="0 0 64 64" fill="none" xmlns="http://www.w3.org/2000/svg">
<rect width="64" height="64" fill="#15333D"/>
<g clip-path="url(#clip0_335_658)">
<path d="M31.748 52C29.7163 51.8995 27.6825 51.8286 25.6541 51.6862C24.5889 51.6113 23.5298 51.4269 22.4737 51.2566C22.1179 51.1991 21.774 51.0465 21.436 50.9091C21.3372 50.869 21.2313 50.7414 21.2107 50.6376C21.1803 50.4839 21.3217 50.3794 21.4551 50.3429C21.8594 50.2326 22.2661 50.1227 22.6783 50.0515C23.2825 49.9474 23.8939 49.8852 24.4996 49.7883C24.6926 49.7572 24.8832 49.6863 25.0633 49.6071C25.1366 49.5746 25.2238 49.4697 25.222 49.4003C25.2202 49.3291 25.1294 49.221 25.0557 49.1978C24.7588 49.1045 24.4573 49.0004 24.1506 48.9675C23.08 48.8525 22.0069 48.7636 20.9341 48.6678C19.7062 48.5582 18.4714 48.5014 17.2699 48.1948C17.0566 48.1406 16.8465 48.0556 16.6516 47.9533C16.3045 47.7718 16.2651 47.4384 16.5772 47.203C16.7898 47.0428 17.0429 46.9318 17.2869 46.8183C17.5971 46.674 17.9226 46.5616 18.2299 46.4119C18.4371 46.311 18.6443 46.1693 18.6106 45.8959C18.5792 45.6381 18.3452 45.551 18.1402 45.5065C17.536 45.3756 16.9282 45.2567 16.3168 45.1674C15.2343 45.0086 14.1467 44.8864 13.0648 44.7234C12.7976 44.6829 12.533 44.5683 12.29 44.4431C11.9761 44.2815 11.931 43.9651 12.2148 43.7594C12.5218 43.5367 12.8757 43.3743 13.2218 43.2124C13.6133 43.029 14.0219 42.8826 14.4164 42.7043C14.5563 42.6411 14.6883 42.5463 14.8022 42.4418C15.0365 42.2263 15.0412 41.9338 14.7913 41.7389C14.6102 41.5976 14.3972 41.4801 14.1796 41.4059C13.6679 41.2317 13.1433 41.0964 12.6284 40.9305C12.4711 40.8799 12.3178 40.7967 12.183 40.6998C11.9646 40.5429 11.9443 40.3292 12.1186 40.1234C12.2112 40.0142 12.324 39.922 12.4314 39.8262C12.5615 39.7102 12.6986 39.6017 12.8276 39.4842C13.1513 39.1888 13.2279 38.8485 13.0793 38.4241C12.5337 36.8668 12.205 35.2625 12.0702 33.617C11.8543 30.9811 12.137 28.402 12.9419 25.8833C13.8498 23.0413 15.329 20.5327 17.3614 18.3492C18.8804 16.7174 20.6253 15.3796 22.5912 14.3314C24.4797 13.3248 26.4817 12.6443 28.5918 12.2864C30.0811 12.0336 31.5809 11.9469 33.0887 12.0351C35.286 12.1638 37.4073 12.6338 39.4484 13.4647C42.0788 14.5353 44.3817 16.0919 46.341 18.1442C49.0485 20.9796 50.7873 24.3242 51.5379 28.1775C51.8738 29.9011 51.9714 31.6395 51.8492 33.3888C51.7281 35.1196 51.3774 36.8057 50.818 38.449C50.6134 39.0507 50.7378 39.4064 51.253 39.7796C51.4038 39.8888 51.564 39.9882 51.7021 40.1115C51.9461 40.3288 51.9371 40.6253 51.6446 40.762C51.2613 40.941 50.8502 41.0639 50.4445 41.1894C50.0143 41.3228 49.5728 41.419 49.1436 41.5556C48.9646 41.6128 48.79 41.7126 48.6406 41.8279C48.4237 41.9957 48.4121 42.2441 48.6226 42.4144C48.8062 42.563 49.0178 42.6935 49.2376 42.7767C49.7434 42.9676 50.2634 43.1209 50.775 43.2966C50.9851 43.3689 51.1908 43.455 51.3944 43.5443C51.4927 43.5873 51.5878 43.6437 51.6735 43.7084C51.9841 43.9424 51.978 44.2215 51.6247 44.3719C51.2628 44.5259 50.8802 44.6576 50.4941 44.7219C49.4148 44.9023 48.3286 45.0408 47.2461 45.1996C46.5858 45.2965 45.9227 45.3825 45.2968 45.6327C45.1117 45.7068 44.9081 45.7896 44.8893 46.0207C44.8705 46.2499 45.0441 46.3841 45.2256 46.4705C45.5778 46.6379 45.9422 46.7793 46.298 46.9387C46.5005 47.0295 46.7091 47.1155 46.8928 47.2374C47.2106 47.4485 47.1929 47.723 46.8595 47.9113C46.4698 48.1315 46.0355 48.2201 45.5998 48.2675C44.4638 48.3904 43.3252 48.4909 42.1873 48.598C41.1818 48.6923 40.1672 48.7224 39.1859 48.9943C39.0214 49.0398 38.8579 49.1179 38.718 49.2155C38.5343 49.3439 38.5445 49.5276 38.7516 49.6057C39.0525 49.7189 39.3685 49.8038 39.6849 49.8624C40.2876 49.9741 40.8969 50.0515 41.5003 50.1596C41.6992 50.195 41.897 50.263 42.0806 50.3476C42.358 50.4753 42.3815 50.7027 42.1114 50.8433C41.795 51.0082 41.454 51.1416 41.1087 51.2313C39.9636 51.5282 38.7896 51.646 37.6141 51.7473C35.6631 51.915 33.7074 51.9563 31.7502 51.9516C31.7494 51.9682 31.7484 51.9848 31.7476 52.0015L31.748 52ZM31.4804 45.0813V45.0278C33.7992 45.0278 36.1176 45.0405 38.4356 45.0227C39.6993 45.013 40.963 44.9475 42.2119 44.7313C42.4823 44.6843 42.751 44.6044 43.0066 44.505C43.1126 44.4638 43.2297 44.3423 43.2572 44.236C43.2966 44.0823 43.1458 43.9948 43.0186 43.9373C42.8822 43.8758 42.7401 43.8144 42.5944 43.7891C42.0676 43.6972 41.5408 43.5949 41.0093 43.5436C39.8233 43.4289 38.6331 43.3577 37.4478 43.2369C36.9423 43.1852 36.443 43.0627 35.9451 42.9535C35.7846 42.9184 35.5937 42.8407 35.5901 42.6425C35.5861 42.4328 35.7886 42.3775 35.948 42.346C36.4249 42.252 36.9033 42.1399 37.386 42.1078C38.8091 42.0127 40.2355 41.9671 41.659 41.8742C42.5225 41.8178 43.3845 41.7227 44.2436 41.6178C44.4938 41.5875 44.7451 41.488 44.9729 41.3748C45.2028 41.2602 45.1873 41.0505 44.953 40.9446C44.7957 40.8737 44.6247 40.8144 44.4544 40.7952C43.5219 40.6897 42.5868 40.6101 41.6554 40.4973C41.1438 40.4355 40.6354 40.3364 40.1303 40.2316C39.9738 40.199 39.7753 40.1281 39.7814 39.9206C39.7872 39.7207 39.9861 39.6765 40.1379 39.6436C40.5899 39.546 41.0447 39.4592 41.5014 39.3869C42.375 39.2488 43.2492 39.1179 44.0859 38.8135C44.7523 38.5712 45.3239 38.2143 45.6067 37.5237C46.2582 35.9328 46.6144 34.2757 46.686 32.559C46.7334 31.4244 46.6419 30.2984 46.4401 29.1805C46.3718 28.803 46.1689 28.5625 45.8146 28.436C45.3822 28.2816 44.9313 28.2646 44.4797 28.253C43.4506 28.227 42.4212 28.2154 41.3929 28.172C41.005 28.1558 40.6188 28.0733 40.2348 28.0057C40.1614 27.9927 40.1003 27.9074 40.0338 27.8557C40.0956 27.796 40.1498 27.7248 40.2211 27.6796C40.2851 27.6391 40.3653 27.6159 40.4416 27.6044C40.8513 27.5418 41.2606 27.4471 41.6724 27.4337C42.7253 27.3986 43.7793 27.4015 44.8326 27.3871C44.9526 27.3853 45.0734 27.3777 45.192 27.3618C45.7636 27.2844 45.8818 27.0786 45.6689 26.5413C44.7939 24.3361 43.4687 22.444 41.6854 20.8817C39.1794 18.6862 36.2546 17.4691 32.9329 17.2395C30.8036 17.0924 28.731 17.3972 26.733 18.1623C23.6882 19.3283 21.2747 21.2841 19.5193 24.0259C17.8022 26.708 17.053 29.6563 17.232 32.8381C17.3328 34.6297 17.7646 36.3392 18.4837 37.9815C18.6938 38.4609 19.0362 38.7907 19.4983 39.0091C20.1817 39.3323 20.9171 39.4339 21.6583 39.4506C22.8197 39.4766 23.9825 39.4831 25.1435 39.4538C26.0446 39.431 26.9449 39.3529 27.8434 39.2737C28.1073 39.2506 28.3727 39.1606 28.6208 39.0608C28.8128 38.9834 28.803 38.8178 28.6103 38.739C28.4392 38.6692 28.2563 38.611 28.0737 38.5922C27.1582 38.4978 26.2398 38.4288 25.3247 38.329C24.8181 38.2736 24.3148 38.1825 23.8133 38.0903C23.7334 38.0755 23.6708 37.9685 23.6 37.9041C23.6698 37.8452 23.7312 37.7519 23.8104 37.7331C24.1311 37.6575 24.4551 37.5697 24.7819 37.5498C25.9715 37.4782 27.1622 37.3929 28.3528 37.3849C31.3213 37.365 34.2902 37.3693 37.2584 37.3972C38.2556 37.4066 39.2521 37.5086 40.2478 37.5859C40.4774 37.6036 40.7074 37.6781 40.9261 37.7573C41.0874 37.8155 41.082 37.928 40.929 38.0101C40.8556 38.0495 40.775 38.0827 40.6937 38.0976C40.4275 38.1453 40.1611 38.2053 39.892 38.2212C38.9849 38.2751 38.077 38.3178 37.169 38.3546C35.4791 38.4233 33.7887 38.4787 32.0994 38.5557C31.803 38.569 31.5079 38.654 31.2168 38.7252C31.1434 38.7433 31.0346 38.8377 31.0375 38.8919C31.0415 38.9675 31.1214 39.0611 31.1944 39.1056C31.3 39.17 31.4247 39.217 31.547 39.2365C31.9859 39.3067 32.4256 39.3844 32.8681 39.4195C33.9601 39.5059 35.0542 39.5623 36.1458 39.6487C36.4672 39.6744 36.7858 39.7532 37.1022 39.823C37.2207 39.849 37.3853 39.8978 37.361 40.0479C37.3469 40.1343 37.2171 40.2344 37.1188 40.2684C36.9047 40.3426 36.6795 40.4073 36.4546 40.4254C35.4415 40.5071 34.4276 40.6119 33.4127 40.6333C31.4681 40.6741 29.5229 40.6633 27.578 40.6752C25.9947 40.685 24.4099 40.677 22.8349 40.8697C22.4925 40.9117 22.1566 41.0187 21.8239 41.1167C21.7509 41.138 21.6558 41.2494 21.658 41.3163C21.6601 41.385 21.757 41.4801 21.834 41.5108C22.0054 41.5795 22.1877 41.6431 22.3699 41.6598C23.2503 41.74 24.1308 41.8319 25.0134 41.868C26.7218 41.9385 28.4317 41.9635 30.1401 42.0311C30.8065 42.0575 31.4721 42.1305 32.1342 42.2151C32.4216 42.252 32.7076 42.3489 32.977 42.4603C33.1899 42.5485 33.186 42.7452 32.9791 42.8522C32.8211 42.9339 32.6465 43.0077 32.4726 43.0298C31.7212 43.1249 30.9695 43.2384 30.2142 43.2738C28.6688 43.3461 27.1213 43.3769 25.5749 43.4174C23.9923 43.4586 22.4079 43.477 20.8361 43.6885C20.4344 43.7428 20.0403 43.8639 19.648 43.9731C19.576 43.993 19.4777 44.1072 19.4831 44.1705C19.4896 44.2486 19.5771 44.3553 19.6549 44.3853C19.8779 44.4717 20.1108 44.5397 20.3451 44.5907C21.5972 44.8629 22.8696 44.958 24.1467 44.9801C26.5909 45.0224 29.0355 45.0491 31.4801 45.0824L31.4804 45.0813ZM30.9891 46.3132C30.9891 46.3226 30.9891 46.332 30.9891 46.3414C30.6217 46.3414 30.2547 46.3371 29.8873 46.3421C28.112 46.3667 26.3353 46.3678 24.5722 46.6129C24.2244 46.6614 23.8787 46.759 23.5475 46.8769C23.3006 46.9648 23.3024 47.1539 23.5248 47.3032C23.5938 47.3495 23.6708 47.391 23.7504 47.4142C24.01 47.4894 24.2689 47.5726 24.5339 47.6206C25.8638 47.8625 27.2106 47.9518 28.5575 47.9735C30.6517 48.0072 32.747 47.9996 34.8416 47.9855C35.9849 47.9779 37.1278 47.9135 38.2588 47.7295C38.5947 47.6749 38.9245 47.5736 39.2506 47.4728C39.3909 47.4294 39.5435 47.3469 39.5373 47.1647C39.5312 46.9832 39.3703 46.9239 39.2322 46.8718C39.0586 46.806 38.8786 46.7514 38.697 46.7142C37.608 46.4911 36.5009 46.4369 35.3952 46.3996C33.9276 46.3504 32.4585 46.34 30.9898 46.3128L30.9891 46.3132Z" fill="#ADF754"/>
<path d="M32.3536 36.1935C30.1741 36.1935 27.9942 36.2185 25.815 36.1845C24.4685 36.1635 23.1227 36.0605 21.7777 35.9762C21.4808 35.9578 21.1876 35.8681 20.8947 35.8027C20.8083 35.7835 20.7237 35.7434 20.6463 35.6985C20.4604 35.5915 20.4514 35.4353 20.6445 35.3482C20.8611 35.2502 21.0928 35.1692 21.3261 35.1265C22.4903 34.9125 23.6708 34.8745 24.8499 34.8618C27.0895 34.838 29.3291 34.8289 31.5687 34.8322C34.0252 34.8362 36.4821 34.8365 38.9375 34.8864C40.2475 34.9132 41.5556 35.0332 42.8635 35.1283C43.1665 35.1504 43.4648 35.2419 43.7649 35.3026C43.8057 35.3109 43.8477 35.3229 43.8845 35.342C43.9977 35.4002 44.1817 35.4263 44.1499 35.5854C44.1318 35.675 43.9876 35.7806 43.8831 35.8041C43.4915 35.8931 43.0956 35.9795 42.6968 36.016C40.7584 36.1942 38.8131 36.1874 36.8693 36.1982C35.3641 36.2065 33.8589 36.2 32.3536 36.2V36.1932V36.1935Z" fill="#ADF754"/>
<path d="M33.8238 33.7699C32.0535 33.7699 30.2829 33.7916 28.513 33.7605C27.6612 33.7457 26.81 33.6386 25.9603 33.5576C25.7853 33.541 25.6118 33.4669 25.448 33.3957C25.3836 33.3675 25.308 33.272 25.3109 33.2105C25.3135 33.1516 25.4028 33.0612 25.4682 33.046C25.807 32.9679 26.148 32.8685 26.4918 32.8519C28.0788 32.7752 29.6679 32.7347 31.2548 32.6584C32.2878 32.6089 33.3194 32.5246 34.3506 32.4447C34.5148 32.4321 34.68 32.3731 34.834 32.3102C34.9056 32.2809 34.9523 32.1909 35.0105 32.1284C34.9501 32.0759 34.8962 31.991 34.8279 31.9765C34.4873 31.9053 34.1449 31.8225 33.7996 31.7993C32.6465 31.723 31.4916 31.6778 30.3382 31.6052C29.9553 31.5809 29.5731 31.5205 29.1949 31.4526C29.0854 31.433 28.9907 31.3304 28.8894 31.266C28.987 31.1883 29.0749 31.0646 29.1845 31.0404C29.5941 30.9503 30.0085 30.8578 30.4257 30.8289C32.759 30.6665 35.0954 30.7016 37.4308 30.7641C38.12 30.7826 38.807 30.8889 39.494 30.9623C39.5927 30.9728 39.6925 31.0147 39.7821 31.0603C39.9539 31.1478 39.9665 31.3 39.7937 31.3864C39.6194 31.4735 39.4253 31.543 39.2333 31.5683C38.6548 31.6438 38.073 31.6909 37.493 31.7559C37.2482 31.7834 37.0049 31.8239 36.7626 31.868C36.6694 31.885 36.5707 31.9132 36.4929 31.9642C36.4246 32.009 36.3385 32.0944 36.3396 32.1602C36.3407 32.2274 36.4267 32.3276 36.4969 32.3525C36.6994 32.4245 36.9102 32.4946 37.1224 32.5134C38.0632 32.5973 39.0062 32.6566 39.947 32.7383C40.4677 32.7835 40.9865 32.8533 41.5054 32.9169C41.5936 32.9278 41.6891 32.9488 41.7625 32.9943C41.8518 33.0496 41.9809 33.1346 41.9834 33.2105C41.9859 33.2872 41.8688 33.4058 41.7791 33.4394C41.5784 33.5143 41.364 33.5801 41.1521 33.592C40.0649 33.6538 38.9773 33.7214 37.8889 33.7413C36.5345 33.7666 35.1793 33.7475 33.8245 33.7475C33.8245 33.7547 33.8245 33.7623 33.8245 33.7695L33.8238 33.7699Z" fill="#ADF754"/>
<path d="M39.0836 28.9769C40.0902 29.0232 41.1727 29.063 42.2538 29.1284C42.5565 29.1468 42.8562 29.2333 43.1527 29.3067C43.2272 29.3251 43.2839 29.4137 43.349 29.4701C43.2832 29.5232 43.2243 29.6089 43.1505 29.6245C42.8219 29.6935 42.491 29.7677 42.1573 29.7944C40.3776 29.9369 38.5954 29.8985 36.8143 29.828C36.4249 29.8125 36.0373 29.7449 35.6504 29.691C35.5394 29.6755 35.4277 29.6353 35.3272 29.5847C35.2722 29.5569 35.2129 29.4864 35.2068 29.4296C35.2024 29.3902 35.2791 29.3135 35.3308 29.3012C35.6103 29.234 35.8909 29.149 36.1754 29.1298C37.118 29.0662 38.0621 29.0286 39.0843 28.9769H39.0836Z" fill="#ADF754"/>
<path d="M43.7182 30.8267C44.1843 30.8744 44.8 30.9326 45.4143 31.0042C45.5427 31.0191 45.6703 31.0715 45.7886 31.1268C45.8461 31.1536 45.9238 31.2338 45.9169 31.2779C45.9072 31.3391 45.8363 31.4132 45.7741 31.4385C45.6302 31.4967 45.4783 31.5441 45.3254 31.5694C44.1669 31.7617 43.0113 31.7249 41.8608 31.5025C41.722 31.4757 41.5835 31.4193 41.4602 31.3495C41.3271 31.2743 41.3344 31.1449 41.4779 31.0954C41.6865 31.0234 41.9042 30.9601 42.1226 30.9381C42.6013 30.8896 43.0826 30.869 43.7182 30.8271V30.8267Z" fill="#ADF754"/>
</g>
<defs>
<clipPath id="clip0_335_658">
<rect width="39.8998" height="40" fill="white" transform="translate(12 12)"/>
</clipPath>
</defs>
</svg>
