<svg width="64" height="64" viewBox="0 0 64 64" fill="none" xmlns="http://www.w3.org/2000/svg">
<rect width="64" height="64" fill="#E62058"/>
<path d="M40.8376 27.5222H23.0246C18.1334 27.5025 14.1279 31.3899 14 36.2811C14 36.409 14.0984 36.5172 14.2362 36.5172H32.0492C36.9404 36.5369 40.9458 32.6397 41.0738 27.7485C41.0738 27.6206 40.9655 27.5123 40.8376 27.5123V27.5222Z" fill="white"/>
<path d="M49.8622 14.0001H23.0246C18.1334 13.9804 14.128 17.8776 14.0099 22.7688C14.0099 22.8967 14.1083 23.005 14.2362 23.005H41.0836C45.9748 23.0247 49.9803 19.1275 50.1082 14.2363C50.1082 14.1083 49.9999 14.0001 49.872 14.0001H49.8622Z" fill="white"/>
<path d="M18.5172 50C21.012 50 23.0344 47.9776 23.0344 45.4828C23.0344 42.988 21.012 40.9656 18.5172 40.9656C16.0224 40.9656 14 42.988 14 45.4828C14 47.9776 16.0224 50 18.5172 50Z" fill="white"/>
</svg>
