<svg width="64" height="64" viewBox="0 0 64 64" fill="none" xmlns="http://www.w3.org/2000/svg">
<g clip-path="url(#clip0_768_24)">
<rect width="64" height="64" transform="matrix(-1 0 0 1 64 0)" fill="#152022"/>
<mask id="mask0_768_24" style="mask-type:luminance" maskUnits="userSpaceOnUse" x="-1" y="0" width="65" height="65">
<path d="M64 0H-0.00025177V64.0003H64V0Z" fill="white"/>
</mask>
<g mask="url(#mask0_768_24)">
<path d="M49.2384 31.9821H32.1415C31.9937 31.9822 31.8515 32.0415 31.7462 32.1471L14.2027 49.7551C14.0487 49.9097 13.9802 49.8779 13.9973 49.6596C14.0281 49.2578 14.0444 48.8034 14.0461 48.2964C14.0735 42.4658 14.0547 37.014 13.9896 31.9409C13.9537 29.2352 14.6853 26.2511 15.9406 23.8185C17.9241 19.9738 20.9063 17.1839 24.8869 15.4487C29.2613 13.5418 34.357 13.5135 38.7801 15.3869C45.5059 18.2344 49.7802 24.6148 49.8341 31.9564C49.8477 33.8633 49.852 39.8142 49.8468 49.809C49.8468 49.9363 49.7834 50 49.6567 50H32.1261C32.1062 49.9997 32.0868 49.9938 32.0703 49.9825C32.0539 49.9714 32.0411 49.9555 32.0337 49.937C32.0262 49.9185 32.0245 49.898 32.0286 49.8785C32.0327 49.859 32.0425 49.8412 32.0568 49.8272L49.4128 32.4048C49.6938 32.123 49.6353 31.9821 49.2384 31.9821Z" fill="#DCFF23"/>
</g>
</g>
<defs>
<clipPath id="clip0_768_24">
<rect width="64" height="64" fill="white" transform="matrix(-1 0 0 1 64 0)"/>
</clipPath>
</defs>
</svg>
