<svg width="64" height="64" viewBox="0 0 64 64" fill="none" xmlns="http://www.w3.org/2000/svg">
<g clip-path="url(#clip0_393_1529)">
<rect x="1.16" y="1.16" width="61.68" height="61.68" rx="14.84" fill="url(#paint0_linear_393_1529)"/>
<rect x="1.16" y="1.16" width="61.68" height="61.68" rx="14.84" stroke="url(#paint1_linear_393_1529)" stroke-width="2.32"/>
<path d="M48.7178 37.3066L48.6708 37.356C48.6488 37.3788 48.6265 37.4014 48.6039 37.4238L35.6914 50.3156C33.442 52.5614 29.795 52.5614 27.5457 50.3156L23.9798 46.7557C23.727 46.5043 23.7264 46.0955 23.9781 45.843C24.0522 45.7687 24.1432 45.7136 24.2433 45.6822C28.0653 44.5024 31.1707 43.1406 33.5598 41.5967C39.2491 37.9196 44.3018 36.4896 48.7178 37.3066ZM46.0108 26.7016C50.7782 28.2039 50.2217 31.7111 50.285 33.0936C45.0639 30.3559 38.7829 31.3594 31.4417 36.1039C25.97 39.6401 21.3866 41.0981 17.6915 40.4778C13.9965 39.8576 13.1652 35.3447 13 34.1455C17.0602 36.1985 22.5015 35.0202 29.3237 30.6111C35.681 26.5025 41.2433 25.1993 46.0108 26.7016ZM35.6914 16.3993L39.0419 19.744C39.2942 19.9958 39.2946 20.4046 39.0429 20.657C38.953 20.7471 38.8385 20.8085 38.7139 20.8337C33.8635 21.8108 29.9845 23.2391 27.0766 25.1183C22.0937 28.3387 17.8476 29.8355 14.338 29.6088L14.3384 29.6079L27.5457 16.3993C29.795 14.1535 33.442 14.1535 35.6914 16.3993Z" fill="url(#paint2_linear_393_1529)"/>
<path fill-rule="evenodd" clip-rule="evenodd" d="M44.1917 9.99998C42.303 9.99998 40.772 11.531 40.772 13.4197V20.3405C40.772 22.2292 42.303 23.7601 44.1917 23.7601H51.4401C53.3288 23.7601 54.8598 22.2292 54.8598 20.3405V13.4197C54.8598 11.531 53.3288 9.99998 51.4401 9.99998H44.1917ZM43.6375 14.0284V19.2704H46.8958V18.4744H44.5871V14.0284H43.6375ZM48.0292 18.5844V19.2704H51.6228V18.4769H49.3396V18.4411L50.2432 17.5222C50.5828 17.1946 50.8464 16.9156 51.0341 16.6853C51.2235 16.4549 51.3557 16.245 51.4309 16.0556C51.5059 15.8662 51.5434 15.6734 51.5434 15.4772C51.5434 15.1837 51.4692 14.9226 51.3208 14.694C51.174 14.4652 50.9676 14.2853 50.7013 14.1539C50.4352 14.0225 50.1264 13.9568 49.7748 13.9568C49.4284 13.9568 49.1212 14.0242 48.8534 14.159C48.5872 14.2938 48.3781 14.484 48.2262 14.7298C48.0744 14.9754 47.9984 15.2647 47.9984 15.5974H48.902C48.902 15.4183 48.937 15.2638 49.007 15.1342C49.0786 15.0045 49.1793 14.9047 49.309 14.8347C49.4386 14.763 49.5896 14.7272 49.762 14.7272C49.9292 14.7272 50.0786 14.7596 50.2099 14.8245C50.3413 14.8893 50.4446 14.9814 50.5196 15.1009C50.5948 15.2186 50.6323 15.3602 50.6323 15.5258C50.6323 15.6709 50.6032 15.8074 50.5453 15.9353C50.4872 16.0633 50.4002 16.1955 50.2841 16.332C50.1681 16.4685 50.0231 16.6247 49.8491 16.8004L48.0292 18.5844Z" fill="url(#paint3_linear_393_1529)"/>
</g>
<defs>
<linearGradient id="paint0_linear_393_1529" x1="32" y1="0" x2="32" y2="64" gradientUnits="userSpaceOnUse">
<stop stop-color="#10012A"/>
<stop offset="1" stop-color="#2A036A"/>
</linearGradient>
<linearGradient id="paint1_linear_393_1529" x1="32" y1="0" x2="32" y2="64" gradientUnits="userSpaceOnUse">
<stop stop-color="#7CAFFB"/>
<stop offset="1" stop-color="#CEDFFD"/>
</linearGradient>
<linearGradient id="paint2_linear_393_1529" x1="31.6425" y1="14.7149" x2="31.6425" y2="52" gradientUnits="userSpaceOnUse">
<stop stop-color="#7DADFF"/>
<stop offset="1" stop-color="#CEDFFF"/>
</linearGradient>
<linearGradient id="paint3_linear_393_1529" x1="47.8159" y1="9.99998" x2="47.8159" y2="23.7601" gradientUnits="userSpaceOnUse">
<stop stop-color="#FFB901"/>
<stop offset="1" stop-color="#F9CB53"/>
</linearGradient>
<clipPath id="clip0_393_1529">
<rect width="64" height="64" fill="white"/>
</clipPath>
</defs>
</svg>
