<svg width="64" height="64" viewBox="0 0 64 64" fill="none" xmlns="http://www.w3.org/2000/svg">
<rect width="64" height="64" fill="#E36E1B"/>
<path d="M11 14.9184V22.7211C12.7311 21.7901 14.4472 21.9033 16.1506 21.7121V14C14.2811 14 12.7311 14.0151 11 14.9184ZM26.0996 15.7815C24.4998 15.1732 22.8562 14.687 21.183 14.3271V21.9511C22.8336 22.2556 24.4716 22.7487 26.0996 23.3174V15.7815Z" fill="white"/>
<path d="M21.183 29.57V21.9485C19.5265 21.621 17.8305 21.5413 16.1506 21.712V29.4241C17.826 29.2227 19.522 29.2719 21.183 29.57ZM11 30.5262V38.3263C12.7311 37.3324 14.4472 37.3853 16.1506 37.1362V29.4241C14.3893 29.5725 12.7311 29.56 11 30.5262ZM21.183 29.57V37.194C22.8336 37.4406 24.4716 37.8784 26.0996 38.3892V30.8533C24.4741 30.3123 22.8336 29.8468 21.183 29.57ZM16.1506 37.1362V44.8482C17.8173 44.5887 19.5133 44.5785 21.183 44.8181V37.194C19.5177 36.9253 17.8216 36.9058 16.1506 37.1362ZM48.9364 33.8198C50.8487 32.1894 51.9281 29.5675 51.9281 26.8677C51.9281 22.6883 49.4119 20.9773 44.1783 20.4464V16.8004C43.0522 16.738 41.9302 16.617 40.8167 16.4381V20.0765C39.7533 19.9157 38.6958 19.7176 37.6463 19.4827V15.8191C36.4833 15.5472 35.3272 15.2469 34.179 14.9183V18.6171C33.0851 18.3133 31.9947 17.9971 30.908 17.6685V25.1189C29.3152 24.5201 27.7124 23.881 26.1021 23.3173V30.8533C27.7124 31.3892 29.3152 31.9981 30.908 32.5718V40.0197C29.3152 39.4787 27.7124 38.8975 26.1021 38.3892V45.9252C27.7124 46.4032 29.3152 46.9568 30.908 47.4726C32.0025 47.7242 33.092 47.9658 34.179 48.1872V51.886C35.3415 52.1124 36.4964 52.3137 37.6488 52.4773V48.8112C38.7106 48.9697 39.7649 49.0981 40.8192 49.1811V52.817C41.9439 52.895 43.0636 52.9227 44.1758 52.8824V49.2692C49.9831 48.9421 53 44.2595 53 39.5869C53 36.1398 51.4526 34.4665 48.9364 33.8198ZM37.6538 25.4812C38.7132 25.7001 39.7674 25.8838 40.8142 26.0272C41.3662 26.1032 41.9199 26.1661 42.4748 26.216L42.5403 26.226L42.7718 26.2587L42.7894 26.2613L43.0334 26.3065L43.0737 26.3166C43.1492 26.3317 43.2247 26.3468 43.2951 26.3669H43.3027C43.3832 26.3871 43.4612 26.4097 43.5342 26.4324C43.7545 26.4972 43.9685 26.5823 44.1733 26.6865C45.0539 27.1419 45.5018 27.9194 45.5018 29.0718C45.5018 30.2444 45.0539 31.0772 44.1733 31.4999C43.9739 31.5938 43.7646 31.6647 43.5492 31.7113C43.5442 31.7113 43.5392 31.7113 43.5342 31.7163C43.4587 31.7314 43.3832 31.7465 43.3027 31.7566H43.2951C43.2216 31.7673 43.1477 31.7757 43.0737 31.7817L43.0309 31.7868C42.9497 31.7935 42.8683 31.7977 42.7868 31.7994H42.7718C42.5854 31.8023 42.3991 31.7972 42.2132 31.7843C41.7452 31.7465 41.2797 31.6987 40.8116 31.6434C39.7649 31.5175 38.7106 31.3414 37.6538 31.1401V25.4762V25.4812ZM44.1707 43.3134C44.0298 43.3366 43.8879 43.3534 43.7455 43.3637L43.67 43.3687C43.6172 43.3714 43.5644 43.3731 43.5115 43.3738L43.441 43.3763H43.207C42.408 43.3587 41.6099 43.3126 40.8142 43.2379C39.7561 43.1371 38.702 42.9986 37.6538 42.8227V36.8745C38.7132 37.0657 39.7674 37.2217 40.8142 37.3349C41.687 37.431 42.5633 37.4923 43.441 37.5186L43.5115 37.5237L43.6725 37.5362L43.7455 37.5413L43.9015 37.5589L43.9644 37.5639L44.1733 37.5941C45.7735 37.8407 46.6089 38.661 46.6089 40.3292C46.6089 41.9823 45.771 43.0366 44.1707 43.3134Z" fill="white"/>
</svg>
