<svg width="64" height="64" viewBox="0 0 64 64" fill="none" xmlns="http://www.w3.org/2000/svg">
<rect width="64" height="64" fill="url(#paint0_linear_765_19)"/>
<path fill-rule="evenodd" clip-rule="evenodd" d="M15.5714 12.9386V41.318C15.5717 41.8482 15.6916 42.3714 15.9222 42.8492C16.1527 43.3268 16.4881 43.7469 16.9035 44.0782L30.3349 54.8178C30.8074 55.1946 31.3947 55.4 32 55.4C32.6053 55.4 33.1925 55.1946 33.6651 54.8178L47.0965 44.0782C47.5118 43.7469 47.8473 43.3268 48.0777 42.8492C48.3083 42.3714 48.4283 41.8482 48.4286 41.318V12.9386C48.4286 12.0001 48.0543 11.1 47.3882 10.4364C46.7221 9.77281 45.8185 9.39999 44.8764 9.39999H19.1235C18.1814 9.39999 17.278 9.77281 16.6118 10.4364C15.9457 11.1 15.5714 12.0001 15.5714 12.9386Z" fill="#004DE5"/>
<path d="M41.5779 25.7969V19.6116C41.5779 18.7914 41.2548 18.0048 40.68 17.4248C40.105 16.8448 39.3252 16.519 38.5122 16.519H25.4827C24.6696 16.519 23.8898 16.8448 23.3149 17.4248C22.7399 18.0048 22.4169 18.7914 22.4169 19.6116V37.5586C22.4172 38.0219 22.5207 38.4792 22.7197 38.8968C22.9186 39.3143 23.2081 39.6813 23.5666 39.9709L28.3108 43.8135C28.3671 43.8597 28.4353 43.8887 28.5073 43.8972C28.5793 43.9058 28.6523 43.8936 28.7177 43.8621C28.7831 43.8304 28.8383 43.7808 28.8768 43.7188C28.9154 43.6569 28.9357 43.5852 28.9355 43.512V30.8224C28.9355 30.72 28.9758 30.6215 29.0477 30.5491C29.1196 30.4767 29.217 30.4359 29.3187 30.4359H32.7677C33.3775 30.4359 33.9623 30.6802 34.3935 31.1153C34.8247 31.5502 35.0669 32.1401 35.0669 32.7553V43.512C35.0671 43.5849 35.0874 43.6561 35.1259 43.7178C35.1643 43.7793 35.2193 43.8288 35.2844 43.8603C35.3494 43.8918 35.4219 43.9042 35.4936 43.8958C35.5655 43.8876 35.6334 43.8591 35.6897 43.8135L40.434 39.9709C40.7924 39.6813 41.0819 39.3143 41.2808 38.8968C41.4799 38.4792 41.5832 38.0219 41.5835 37.5586V31.9823C41.5835 31.162 41.2607 30.3754 40.6857 29.7953C40.1107 29.2154 39.3309 28.8895 38.5178 28.8895C39.33 28.888 40.1083 28.5615 40.6819 27.9818C41.2556 27.4018 41.5779 26.6161 41.5779 25.7969ZM32.7638 27.3433H29.3149C29.2132 27.3433 29.1157 27.3025 29.0439 27.2301C28.972 27.1575 28.9316 27.0592 28.9316 26.9566V19.9982C28.9316 19.8957 28.972 19.7973 29.0439 19.7248C29.1157 19.6523 29.2132 19.6116 29.3149 19.6116H34.68C34.7815 19.6116 34.879 19.6523 34.9509 19.7248C35.0227 19.7973 35.0632 19.8957 35.0632 19.9982V25.0237C35.0632 25.6389 34.821 26.2288 34.3896 26.6639C33.9585 27.0988 33.3736 27.3433 32.7638 27.3433Z" fill="url(#paint1_linear_765_19)"/>
<defs>
<linearGradient id="paint0_linear_765_19" x1="105.5" y1="-29" x2="5.3956" y2="64" gradientUnits="userSpaceOnUse">
<stop stop-color="#004DE5"/>
<stop offset="1" stop-color="#777B90"/>
</linearGradient>
<linearGradient id="paint1_linear_765_19" x1="32.0003" y1="16.519" x2="32.0003" y2="43.8999" gradientUnits="userSpaceOnUse">
<stop stop-color="white"/>
<stop offset="0.458333" stop-color="white"/>
<stop offset="1" stop-color="white"/>
</linearGradient>
</defs>
</svg>
