<svg width="64" height="64" viewBox="0 0 64 64" fill="none" xmlns="http://www.w3.org/2000/svg">
<rect width="64" height="64" fill="#181A1E"/>
<path d="M22.1761 19.5141L32 14L41.8239 19.5141L38.2122 21.5512L32 18.0742L25.7878 21.5512L22.1761 19.5141ZM41.8239 26.4683L38.2122 24.4312L32 27.9083L25.7878 24.4312L22.1761 26.4683V30.5424L28.3882 34.0195V40.9737L32 43.0107L35.6118 40.9737V34.0195L41.8239 30.5424V26.4683ZM41.8239 37.4966V33.4225L38.2122 35.4595V39.5337L41.8239 37.4966ZM44.3883 38.9366L38.1761 42.4137V46.4878L48 40.9737V29.9454L44.3883 31.9825V38.9366ZM40.7765 22.9912L44.3883 25.0283V29.1025L48 27.0654V22.9912L44.3883 20.9542L40.7765 22.9912ZM28.3882 43.8888V47.9629L32 50L35.6118 47.9629V43.8888L32 45.9258L28.3882 43.8888ZM22.1761 37.4966L25.7878 39.5337V35.4595L22.1761 33.4225V37.4966ZM28.3882 22.9912L32 25.0283L35.6118 22.9912L32 20.9542L28.3882 22.9912ZM19.6117 25.0283L23.2235 22.9912L19.6117 20.9542L16 22.9912V27.0654L19.6117 29.1025V25.0283ZM19.6117 31.9825L16 29.9454V40.9737L25.8239 46.4878V42.4137L19.6117 38.9366V31.9825Z" fill="#F0B90B"/>
</svg>
