<svg width="64" height="64" viewBox="0 0 64 64" fill="none" xmlns="http://www.w3.org/2000/svg">
<rect width="64" height="64" fill="url(#paint0_linear_765_54)"/>
<path d="M46.753 46.6269L38.3294 38.4068H25.0275L16.6038 46.6269L20.5563 50.4838L28.9799 42.2637C29.7021 41.559 30.6542 41.1745 31.6785 41.1745C32.7027 41.1745 33.6547 41.559 34.3768 42.2637L42.8006 50.4838L46.753 46.6269Z" fill="white"/>
<path d="M39.7342 36.0362L51.237 39.0411L52.6815 33.7682L41.1786 30.7633C40.1938 30.5071 39.3731 29.8921 38.8609 29.0272C38.3488 28.1685 38.2176 27.1627 38.4802 26.2017L41.5594 14.9769L36.1559 13.5674L33.0767 24.7922L39.7276 36.0299L39.7342 36.0362Z" fill="white"/>
<path d="M12.126 39.0411L23.6289 36.0362L23.6355 36.0299L30.2864 24.7922L27.2072 13.5674L21.8037 14.9769L24.8829 26.2017C25.1456 27.1627 25.0142 28.1685 24.5021 29.0272C23.99 29.8921 23.1693 30.5071 22.1845 30.7633L10.6816 33.7682L12.126 39.0411Z" fill="white"/>
<defs>
<linearGradient id="paint0_linear_765_54" x1="0.999999" y1="1.5" x2="64" y2="64" gradientUnits="userSpaceOnUse">
<stop stop-color="#74FFDE"/>
<stop offset="0.5" stop-color="#00DE73"/>
<stop offset="0.75" stop-color="#41F09C"/>
<stop offset="0.875" stop-color="#03D26E"/>
<stop offset="1" stop-color="#00C466"/>
</linearGradient>
</defs>
</svg>
