<svg width="64" height="64" viewBox="0 0 64 64" fill="none" xmlns="http://www.w3.org/2000/svg">
<rect width="64" height="64" transform="matrix(-1 0 0 1 64 0)" fill="#0D4FF0"/>
<path d="M18.0207 27.7986C20.3902 27.7986 22.2864 29.7236 22.2864 32.131C22.2864 34.5377 20.3902 36.4634 18.0207 36.4634C15.6512 36.4634 13.7551 34.5377 13.7551 32.131C13.7551 29.7236 15.6512 27.7986 18.0207 27.7986ZM18.0207 39.262C21.9009 39.262 25.0408 36.0722 25.0408 32.131C25.0408 28.1891 21.9009 25 18.0207 25C14.1399 25 11 28.1891 11 32.131C11 36.0722 14.1399 39.262 18.0207 39.262ZM27.8492 25C27.5908 25 27.3815 25.2128 27.3815 25.4754V27.3772C27.3815 27.6399 27.5908 27.8527 27.8492 27.8527H35.3377C35.5961 27.8527 35.8054 27.6399 35.8054 27.3772V25.4754C35.8054 25.2128 35.5961 25 35.3377 25H27.8492ZM36.2738 27.8527C36.0154 27.8527 35.8054 28.0655 35.8054 28.3281V30.232C35.8054 30.4947 36.0154 30.7075 36.2738 30.7075H38.1461C38.4045 30.7075 38.6138 30.4947 38.6138 30.232V28.3281C38.6138 28.0655 38.4045 27.8527 38.1461 27.8527H36.2738ZM27.8492 33.5573C27.5908 33.5573 27.3815 33.7701 27.3815 34.0328V35.9339C27.3815 36.1965 27.5908 36.4093 27.8492 36.4093H29.7215C29.9799 36.4093 30.1892 36.1965 30.1892 35.9339V34.0328C30.1892 33.7701 29.9799 33.5573 29.7215 33.5573H27.8492ZM31.5931 31.1801C31.5931 30.9174 31.8031 30.7047 32.0615 30.7047H33.9338C34.1922 30.7047 34.4015 30.9174 34.4015 31.1801V33.0819C34.4015 33.3445 34.1922 33.5573 33.9338 33.5573H32.0615C31.8031 33.5573 31.5931 33.3445 31.5931 33.0819V31.1801ZM30.6576 36.4093C30.3992 36.4093 30.1892 36.6221 30.1892 36.8848V38.7865C30.1892 39.0492 30.3992 39.262 30.6576 39.262H38.1461C38.4045 39.262 38.6138 39.0492 38.6138 38.7865V36.8848C38.6138 36.6221 38.4045 36.4093 38.1461 36.4093H30.6576Z" fill="white"/>
<path d="M45.8543 36.417L41.2848 36.417C41.0035 36.417 40.7754 36.6451 40.7754 36.9264L40.7754 38.6627C40.7754 38.9441 41.0035 39.1721 41.2848 39.1721L45.8543 39.1721C49.787 39.1721 53 36.0322 53 32.1514C53 28.2713 49.787 25.1306 45.8543 25.1306L41.2848 25.1306C41.0035 25.1306 40.7754 25.3587 40.7754 25.64L40.7754 27.3763C40.7754 27.6577 41.0035 27.8857 41.2848 27.8857L45.8543 27.8857C48.2561 27.8857 50.2077 29.7812 50.2077 32.1514C50.2077 34.5209 48.2561 36.417 45.8543 36.417Z" fill="white"/>
</svg>
