<svg width="64" height="64" viewBox="0 0 64 64" fill="none" xmlns="http://www.w3.org/2000/svg">
<rect width="64" height="64" fill="#0054FA"/>
<mask id="mask0_170_324" style="mask-type:luminance" maskUnits="userSpaceOnUse" x="12" y="17" width="40" height="30">
<path d="M51.1903 17.8771H12.8715V46.2272H51.1903V17.8771Z" fill="white"/>
</mask>
<g mask="url(#mask0_170_324)">
<path d="M44.9942 45.4765L45.0622 45.7361L45.0957 45.8625C45.1503 46.0694 45.3505 46.2255 45.5641 46.2264C45.5766 46.2274 45.6053 46.2264 45.6255 46.2264H45.7596C46.5317 46.2322 47.6583 46.2226 48.4323 46.2264H48.9669H49.2332L49.3452 46.2217C49.9076 46.1824 50.421 45.7907 50.6107 45.2581C50.6653 45.1135 50.8291 44.6586 50.8876 44.5034C51.1865 43.7142 51.2689 42.8474 51.1146 42.018C50.9968 41.3897 50.354 39.6456 50.1499 38.9953C50.0417 38.6974 49.9325 38.2961 49.7936 38.0231C49.647 37.7185 49.465 37.4485 49.2437 37.1927C48.9573 36.8594 47.7703 35.4352 47.5203 35.1431L47.3469 34.9362C46.9896 34.5359 47.1419 33.9746 47.0538 33.4919C46.7568 30.7326 44.3351 28.4588 41.5732 28.3372C40.9918 28.3151 40.0558 28.3305 39.4523 28.3257C39.05 28.3391 38.6428 28.2567 38.2865 28.0652C37.9713 27.9138 37.6532 27.5738 37.4042 27.3305L35.8752 25.8316C35.6597 25.6238 35.3273 25.2895 35.1137 25.0884C34.4862 24.5003 33.7581 24.0205 32.9707 23.6776C32.6191 23.5215 30.8785 22.8386 30.4972 22.6786C30.1361 22.5311 29.8017 22.3156 29.5172 22.0484C29.2547 21.8071 29.021 21.4632 28.8093 21.1826C28.6541 20.9786 28.3351 20.5418 28.1713 20.3321C27.5438 19.5285 26.6404 18.9682 25.6595 18.7106C25.2849 18.61 23.369 18.0009 22.9944 17.929C21.9042 17.7183 20.7326 18.1608 20.0477 19.0381C19.79 19.3532 19.6137 19.7373 19.4997 20.1262C19.4422 20.3599 19.3972 20.6415 19.3665 20.8838C19.2516 21.7094 18.8033 22.4794 18.1432 22.9861L18.0254 23.0723C18.0139 23.0809 18.0072 23.0857 18.0034 23.0895L17.9861 23.1029C17.7811 23.259 17.7437 23.5847 17.9114 23.7829C17.9181 23.7925 17.9382 23.8155 17.9507 23.8308L18.2936 24.2417L18.2764 24.2235C18.3856 24.3308 18.4182 24.5042 18.3568 24.644C18.2984 24.7628 18.1844 24.9917 18.125 25.1123C17.9871 25.3901 17.7083 25.9504 17.5704 26.2272C17.2513 26.8402 17.5847 27.6648 18.2448 27.8726L18.831 28.069C18.9987 28.1197 19.1443 28.2414 19.2276 28.3965L19.3713 28.6829L19.4413 28.8228C19.5974 29.1589 19.9595 29.3581 20.3245 29.3323C20.4395 29.3342 22.4368 29.3313 22.9925 29.3323C23.0643 29.3323 23.1228 29.3907 23.1228 29.4625C23.1228 29.5248 23.0787 29.5784 23.0183 29.5909L22.0604 29.7815C21.9234 29.8093 21.8237 29.9299 21.8237 30.0698V30.313C21.8237 31.0764 21.4951 31.8033 20.9223 32.3062L17.6872 35.146C16.1583 36.4878 15.0107 38.2195 14.3688 40.1532L12.9434 44.4325C12.8073 44.8425 12.8648 45.3003 13.1244 45.6451C13.3668 45.965 13.7337 46.1489 14.136 46.1489H18.2218C18.4919 46.1489 18.7103 45.9295 18.7103 45.6585V45.1988C18.7103 45.0685 18.6586 44.944 18.5676 44.852L18.3626 44.6471C18.2323 44.5159 18.172 44.3233 18.2246 44.1452C18.2879 43.9345 18.4785 43.7947 18.6931 43.7947H19.7852C20.0553 43.7947 20.2737 43.5753 20.2737 43.3043V42.5199C20.2737 41.9337 20.5487 41.3811 21.0162 41.0296L21.1091 40.9597C22.503 39.9109 23.3565 38.2674 23.3383 36.5185C23.3287 35.6507 23.7138 34.8424 24.3902 34.305L25.2303 33.6375C25.3098 33.5743 25.3529 33.4747 25.3395 33.3731C25.2926 33.0006 25.2083 32.6328 25.0866 32.2784C24.9985 32.0198 24.8174 31.4834 24.7312 31.2277C24.1976 29.7566 24.3614 28.0393 25.1843 26.7109C25.7045 25.8613 26.4804 25.1784 27.3704 24.7896C27.4336 24.7618 27.5083 24.7896 27.54 24.8528C27.5706 24.9141 27.5486 24.9878 27.4901 25.0242C25.5024 26.2617 24.5089 28.8103 25.3184 31.0323C25.4008 31.2871 25.5838 31.8455 25.6623 32.0868C26.0273 33.194 26.0752 34.4037 25.7965 35.5348L24.2455 41.2518L24.1967 41.4299C23.9801 42.1329 24.0769 42.9078 24.4352 43.5466C24.4496 43.582 24.5252 43.7228 24.5386 43.7535C24.7025 44.0533 24.6708 44.423 24.6718 44.7467V45.4861C24.667 45.6508 24.667 45.8558 24.7944 45.9822C24.9036 46.1106 25.0703 46.1604 25.2351 46.1489H28.1837H29.658C29.7021 46.1508 29.8621 46.1489 29.9042 46.146C30.1677 46.1211 30.366 45.8682 30.3411 45.6058V45.2361C30.343 45.1537 30.3324 45.0723 30.298 44.9976C30.2663 44.92 30.1974 44.8492 30.137 44.7917L29.8745 44.5274C29.6417 44.3004 29.6168 43.8971 29.8113 43.6424C29.8764 43.5476 30.2721 42.9968 30.3468 42.8896C30.729 42.3321 31.4628 41.3389 31.8307 40.7863C32.6641 39.5134 32.9295 37.8938 32.5683 36.4179C32.486 36.008 32.2407 35.4534 32.1056 35.055C31.9332 34.5656 31.4945 33.4363 31.3565 32.9412C31.1391 32.2008 31.141 31.4231 31.1908 30.6617C31.2147 30.2096 31.2416 29.7566 31.2827 29.3045C31.2895 29.2356 31.3469 29.1819 31.4169 29.1819C31.4858 29.1819 31.5443 29.2346 31.551 29.3036C31.6152 29.996 31.642 30.7038 31.6774 31.3944C31.7244 32.1108 31.8901 32.7851 32.1622 33.4526C32.3432 33.921 32.782 35.0741 32.9525 35.5252C33.0914 35.893 33.1949 36.2761 33.261 36.665C33.3108 36.9571 33.5071 37.2061 33.7802 37.3192C34.1883 37.4887 34.6174 37.6371 35.0667 37.7636C35.5294 37.8938 36.0151 37.6745 36.2239 37.2397C36.2594 37.1659 36.2968 37.0922 36.3351 37.0194C36.634 36.438 37.0354 35.9189 37.4358 35.4084C37.8017 34.9353 38.182 34.4736 38.5767 34.0215C38.6217 33.9698 38.6993 33.9612 38.7549 34.0005C38.8114 34.0407 38.8287 34.1183 38.7932 34.1777C38.3391 34.9372 37.7979 35.7599 37.3084 36.484C36.7259 37.3862 36.3169 38.4034 36.1416 39.4646C36.0065 40.3132 35.7565 41.9069 35.6204 42.7708C35.5649 43.0907 35.5371 43.5198 35.3627 43.8014C35.2104 44.1021 34.8569 44.3425 34.6069 44.5523L34.422 44.7036L34.399 44.7227L34.3846 44.7361C34.2467 44.8549 34.1931 45.0522 34.2477 45.2265C34.2994 45.4104 34.3741 45.7179 34.4268 45.8883C34.491 46.0655 34.6711 46.1881 34.8608 46.1843L35.8149 46.1814C36.6043 46.1786 37.4099 46.1853 38.2002 46.1862C38.2357 46.1862 38.343 46.1872 38.3784 46.1862C38.7271 46.1843 39.0749 46.0722 39.3536 45.8606C39.7081 45.6049 39.8796 45.2457 40.0175 44.8271C40.1229 44.5388 40.7264 42.9068 40.8452 42.5831C40.9525 42.2823 41.0809 41.9576 41.2198 41.6713C41.6537 40.7729 42.2639 39.9588 43.0246 39.3104C43.9461 38.5537 44.6282 37.5749 45.09 36.4572C45.1168 36.392 45.1867 36.3576 45.2538 36.3767C45.3208 36.3959 45.3639 36.4619 45.3534 36.5309C45.2011 37.4695 44.7489 38.3449 44.1272 39.0623C43.8791 39.3487 43.7344 39.7107 43.7344 40.09V40.407C43.7316 40.5593 43.7325 40.7403 43.7603 40.8916C43.8245 41.2719 44.0285 41.6215 44.3178 41.8743L44.5142 42.0553L45.3017 42.7804L45.6954 43.1434C45.8036 43.2353 45.8899 43.3579 45.9263 43.4958C46.0096 43.7793 45.8793 44.0944 45.637 44.2573C45.5335 44.3425 45.3247 44.5101 45.2212 44.5944C45.1743 44.6375 45.0861 44.6978 45.044 44.7438C44.9242 44.8654 44.8792 45.0513 44.9223 45.216L44.9903 45.4755L44.9942 45.4765Z" fill="white"/>
</g>
</svg>
