<svg width="64" height="64" viewBox="0 0 64 64" fill="none" xmlns="http://www.w3.org/2000/svg">
<rect width="64" height="64" fill="#680DFE"/>
<path d="M16.1227 17.3861C13.8628 18.7232 11.4483 23.5324 16.733 27.2377C22.0151 30.943 21.2799 31.651 21.8469 32.7956C22.4138 33.9402 22.0721 35.0389 22.0721 35.0389C22.0721 35.0389 16.4998 36.5361 18.2957 42.1672C20.0916 47.7982 21.6189 49.6644 24.8772 51.0721C27.9781 52.4122 29.2966 51.7178 29.7604 51.4656C30.2243 51.2133 33.1 49.2684 34.7874 50.1147C38.3467 51.9022 41.1357 52.1817 43.3955 50.8362C45.6581 49.4936 47.7226 48.4791 49.1632 43.8381C50.6063 39.197 50.9158 34.9628 49.1632 32.5867C47.4107 30.2078 44.9961 28.8544 44.9961 28.8544C44.9961 28.8544 45.064 28.6781 44.6977 25.0135C44.1849 19.8598 39.2855 12.5063 35.8997 12.6799C32.712 12.8426 28.998 14.8932 30.0453 18.7287C30.8945 21.84 37.012 30.4928 33.8081 32.3317C29.5352 34.7812 27.7611 10.5045 16.1199 17.3888L16.1227 17.3861Z" fill="#C0FF0E"/>
<path d="M44.8459 29.2584C44.7674 24.5766 43.278 19.5368 40.3289 15.8804C38.7962 13.9627 36.3464 12.5847 33.9129 13.488C30.4812 14.6543 29.1573 16.8163 30.7009 20.2584C31.4904 22.0242 32.6894 23.6463 33.373 25.4743C33.7529 26.383 34.0784 27.3162 34.3416 28.271C34.5858 29.2609 34.8218 30.2511 34.6292 31.2926C34.3931 32.6815 32.787 33.0477 31.8321 32.0793C31.0699 31.3198 30.6683 30.3785 30.2532 29.4319C29.4937 27.6254 28.9266 25.7538 28.1671 23.969C26.7942 20.6626 23.9837 17.4781 20.3185 16.9736C18.5417 16.7729 16.8516 17.5377 15.5411 18.734C14.5998 19.5612 13.8022 20.7032 13.8836 22.0024C14.1657 24.7312 16.8271 26.7438 18.8727 28.3361C20.5898 29.5241 22.6462 32.6436 22.1742 34.789L22.0413 34.762C22.1714 32.8876 20.7554 31.1055 19.5209 29.8333C18.8237 29.1687 17.9502 28.7484 17.1797 28.1624C16.3714 27.5848 15.5819 26.9609 14.8684 26.2338C12.2016 23.6408 11.6509 20.3588 14.5998 17.7113C17.0604 15.3054 20.5004 14.7955 23.5008 16.5313C26.2246 18.0775 28.2023 20.6462 29.2767 23.516C29.9955 25.3524 30.4839 27.2538 31.116 29.0983C31.4252 29.95 31.7617 30.883 32.3504 31.5503C32.8767 32.1931 33.8968 32.0467 34.0568 31.157C34.2764 30.2754 34.0893 29.2773 33.8886 28.3849C33.4246 26.5188 32.6894 24.6851 31.6856 23.044C30.6439 21.3569 29.4665 19.6508 29.3065 17.5785C29.1003 15.3134 30.8935 13.5531 32.8006 12.7041C33.7177 12.2619 34.8109 11.9392 35.9043 12.0097C41.1158 12.4301 43.8937 18.8859 44.7456 23.3641C45.1118 25.3117 45.2448 27.3135 44.9762 29.2664L44.8405 29.2557L44.8459 29.2584Z" fill="#231F20"/>
<path d="M25.5662 41.3613C27.1423 43.4202 30.1645 44.402 32.6251 43.6859C34.0006 43.2763 35.0531 42.1914 35.574 40.8758C36.0894 39.4247 36.7162 37.3658 35.8235 35.988C35.4139 35.3966 34.6027 35.0793 33.9109 35.2989C32.8395 35.7276 31.719 35.8361 30.6013 35.874C29.0143 35.9147 27.4191 35.7003 25.8943 35.2528C25.4604 35.1227 25.0154 35.0521 24.5542 35.0412C21.2308 35.0033 18.442 37.4092 18.5424 40.8568C18.6564 46.0186 22.7284 51.6253 28.2328 51.5413C28.8785 51.506 29.5378 51.373 30.0423 51.0313C31.1737 50.2094 32.5736 49.6479 34.0033 49.6887C34.7249 49.7103 35.4411 49.8731 36.1057 50.1389C36.5805 50.3179 37.001 50.6054 37.473 50.7681C38.2272 51.0231 39.0275 51.0665 39.8306 51.0503C42.6927 50.9255 45.6036 49.5936 47.1797 47.1579C48.3953 45.2321 49.2145 43.016 49.6756 40.7918C50.0691 38.7438 50.1749 36.6145 49.4831 34.6425C48.7452 32.3885 45.2401 29.4942 42.8391 30.1588C40.5549 30.8532 39.8088 34.1895 39.3938 36.3025C39.0763 38.2257 38.9814 40.233 39.4914 42.1181C39.8088 43.2953 40.4844 44.4535 41.6699 44.8686C43.4333 45.3921 45.6958 44.7925 46.7322 43.1841C47.4619 42.091 47.7305 40.7021 47.7035 39.392L47.8391 39.3784C47.9882 40.7564 47.8038 42.1941 47.1039 43.4174C46.0159 45.3486 43.5336 46.1435 41.4258 45.6172C39.1822 44.9364 38.3276 42.4137 38.1051 40.317C37.7904 37.1814 38.3764 32.6081 40.4518 30.1182C42.1364 28.1462 44.8766 28.3821 46.9004 29.6543C48.7697 30.8125 50.4326 32.5159 51.0077 34.6804C51.9165 38.1498 51.0565 41.836 49.6892 45.053C48.5526 47.7899 46.8353 50.0602 44.0084 51.1723C42.0118 51.959 39.8061 52.2302 37.7118 51.704C37.0255 51.5358 36.4395 51.1208 35.8128 50.8224C34.6408 50.2854 33.3088 50.1905 32.0771 50.5919C31.4559 50.7845 30.8806 51.0856 30.3164 51.4518C29.6761 51.8587 28.9464 51.9725 28.2437 51.9997C25.4223 52.024 22.8044 50.5077 20.9949 48.4272C17.9618 44.9065 15.8864 38.3721 20.4223 35.1849C22.0718 34.0187 24.2639 33.5277 26.228 34.0946C27.6334 34.4988 29.1064 34.6804 30.5713 34.6724C31.5617 34.6507 32.5979 34.5639 33.504 34.2058C34.676 33.8017 36.0623 34.336 36.7296 35.3641C37.199 36.0639 37.3184 36.8722 37.3102 37.6099C37.2804 39.0312 36.822 40.4798 36.1763 41.7357C34.7085 44.5241 31.3689 45.1669 28.6399 44.0033C27.3593 43.4797 26.1601 42.6389 25.4467 41.4346L25.5607 41.3613H25.5662Z" fill="#231F20"/>
<path d="M15.2983 18.9485C12.8024 21.1185 13.7817 24.5227 16.7036 26.9151C19.6254 29.3074 21.2259 29.5001 22.2786 34.1248C23.5862 28.2252 14.2836 27.0616 15.2983 18.9485Z" fill="#658900"/>
<path d="M36.2823 37.488C36.3719 39.3189 35.4359 43.4663 31.7301 43.9979C28.3499 44.1904 26.5403 42.6226 25.5718 41.4021C31.5511 45.9346 35.3437 41.8606 36.2823 37.488Z" fill="#658900"/>
<path d="M18.8405 43.1217C19.7305 46.8921 22.6305 51.1642 27.1746 51.5005C30.5277 51.9888 30.3161 49.7835 33.927 49.7076C37.0849 49.8026 36.6102 51.3215 40.175 51.0341C43.7396 50.7464 47.1443 48.9915 48.6745 44.185C43.6365 54.4762 37.9123 48.8233 33.9406 49.2058C29.2283 49.9951 25.8942 53.9797 18.838 43.1244L18.8405 43.1217Z" fill="#658900"/>
<path d="M26.9414 46.0024C27.9288 44.5676 28.9191 45.5712 32.2669 45.2377C35.6146 44.9039 37.3129 41.1337 37.2666 38.3588C36.1897 43.4528 33.9949 44.5107 31.0731 44.5297C27.3428 44.554 26.9441 46.0052 26.9441 46.0052L26.9414 46.0024Z" fill="#658900"/>
<path d="M31.379 14.7682C30.9964 15.8695 30.8634 17.375 33.1125 21.1996C35.3615 25.0268 37.2497 32.8443 35.2637 33.609C33.278 34.374 30.6709 33.9671 27.73 23.4454C29.4989 27.3432 30.858 32.9962 33.1343 32.7004C35.4104 32.4047 35.0224 29.7818 33.2535 25.0974C31.3463 20.9446 28.2563 18.0042 31.3763 14.7682H31.379Z" fill="#658900"/>
<path d="M37.9888 39.3214C37.9888 45.8829 40.7126 47.3585 44.2665 46.5068C47.8204 45.6551 47.8612 40.9517 47.8612 40.9517C47.8612 40.9517 47.7554 45.5791 42.647 45.7146C41.0545 45.5818 38.5232 45.1885 37.9862 39.3214H37.9888Z" fill="#658900"/>
</svg>
