<svg width="64" height="64" viewBox="0 0 64 64" fill="none" xmlns="http://www.w3.org/2000/svg">
<rect width="64" height="64" fill="white"/>
<path d="M50.9531 31.0769C50.2035 20.0572 40.6626 11.7314 29.6428 12.481C24.1532 12.8544 19.3331 15.4103 15.9695 19.2431L15.9601 19.2363C15.9375 19.2676 15.9163 19.2986 15.8938 19.3299C12.5527 23.1814 10.6735 28.3025 11.0469 33.7913C11.0824 34.3143 11.144 34.829 11.2184 35.3392C11.2184 35.3391 11.2184 35.3393 11.2184 35.3392C11.2218 35.3622 11.2252 35.3856 11.2285 35.4087C11.2788 35.7453 11.3371 36.0788 11.4038 36.4094C11.4037 36.4093 11.4038 36.4096 11.4038 36.4094C11.405 36.4154 11.4063 36.422 11.4074 36.428C11.4681 36.7273 11.5355 37.0239 11.6092 37.3179C11.6093 37.3181 11.6095 37.319 11.6095 37.3192C13.9193 46.5305 22.5496 53.0543 32.3572 52.3872C43.377 51.6376 51.7027 42.0966 50.9531 31.0769ZM46.5997 31.373C46.692 32.7297 46.6066 34.0581 46.365 35.336C46.3621 35.3287 46.3597 35.3211 46.3567 35.3138C44.9068 31.7697 42.0387 29.2109 39.5165 27.7974C40.0269 21.7921 37.9896 19.2621 35.6838 18.8504C35.6211 18.8384 35.558 18.8281 35.4939 18.8201C33.6638 18.5854 31.9903 19.8789 31.7559 21.7089C31.5211 23.539 32.8147 25.2126 34.6446 25.4474C34.8043 25.4676 34.9622 25.4732 35.1186 25.4707C35.1287 25.6734 35.1351 25.8888 35.1369 26.114C33.0047 25.5856 31.0118 25.4822 29.1947 25.6456C28.5151 25.6909 27.8352 25.7765 27.1589 25.9029C27.3857 23.875 28.1465 21.5984 29.6228 19.9323C31.0499 18.3218 33.1716 17.3986 35.4861 17.6355C35.9249 17.6804 36.3931 17.7882 36.8146 17.9297C36.8339 17.9362 36.8545 17.9417 36.8737 17.9484C36.8739 17.948 36.8743 17.9475 36.8746 17.9471C42.2356 20.1311 46.1811 25.219 46.5997 31.373ZM32.6599 34.4278C32.6585 34.43 32.6569 34.4321 32.6555 34.4343C32.1783 35.1226 31.6107 35.8012 30.9445 36.4576C29.9457 35.395 29.1434 34.2506 28.5347 33.0668C28.5035 33.0033 28.4702 32.943 28.4397 32.8785C28.4386 32.8762 28.4375 32.8738 28.4363 32.8714C28.0787 32.1137 27.7747 31.2825 27.5393 30.377C28.9605 30.0426 30.3542 29.9196 31.6852 29.9844C31.7557 29.9891 31.8247 29.9905 31.8957 29.9963C31.8983 29.9965 31.901 29.9968 31.9036 29.9969C32.7372 30.066 33.6077 30.218 34.5081 30.4662C34.0871 31.8636 33.4969 33.1316 32.7755 34.2515C32.7362 34.3102 32.7005 34.3692 32.6599 34.4278ZM25.8259 17.682C25.8222 17.6868 25.818 17.6914 25.8142 17.6962C23.4711 20.7224 22.6888 24.4833 22.725 27.3738C17.2693 29.9344 16.097 32.9636 16.8934 35.1663C16.9143 35.2266 16.9369 35.2864 16.9621 35.3459C17.6738 37.0482 19.6309 37.8507 21.3329 37.1388C23.0351 36.427 23.8377 34.4699 23.1261 32.7678C23.0638 32.6194 22.9897 32.4798 22.9094 32.3456C23.0818 32.2342 23.2669 32.1198 23.4636 32.0043C24.072 34.1153 24.9722 35.9009 26.0224 37.393C26.4006 37.9578 26.8139 38.5027 27.2604 39.0243C25.3907 39.8421 23.0382 40.3218 20.8567 39.8763C18.7483 39.4457 16.888 38.0698 15.9359 35.9469C15.7554 35.5445 15.6147 35.0853 15.5265 34.6495C15.4723 34.2687 15.4268 33.885 15.4003 33.4952C14.913 26.331 19.3577 19.9531 25.8259 17.682ZM32.0611 48.0338C27.8068 48.3232 23.83 46.8721 20.8244 44.2927C24.6168 44.8088 28.265 43.6058 30.7502 42.1292C35.6976 45.5765 38.9085 45.0774 40.4182 43.2859C40.46 43.2377 40.5005 43.1882 40.5394 43.1367C41.6577 41.6691 41.3742 39.573 39.9066 38.455C38.4391 37.3367 36.3429 37.6202 35.2246 39.0875C35.1273 39.2157 35.0435 39.3496 34.9674 39.4863C34.786 39.3933 34.5955 39.2907 34.3986 39.1791C35.9238 37.5959 37.0107 35.9204 37.7783 34.264C38.0789 33.6528 38.3447 33.0211 38.5734 32.3723C40.2175 33.5826 41.8106 35.3809 42.5159 37.494C43.1971 39.5352 42.9357 41.8342 41.5733 43.7202C41.3151 44.0777 40.9877 44.4293 40.6543 44.7236C40.6495 44.7278 40.6447 44.7323 40.6399 44.7367C38.2564 46.6101 35.3072 47.813 32.0611 48.0338Z" fill="url(#paint0_linear_384_1219)"/>
<path style="mix-blend-mode:overlay" opacity="0.9" d="M35.684 18.8503C35.6214 18.8383 35.5582 18.828 35.4941 18.82C35.1703 18.7785 34.852 18.7871 34.5451 18.8357C36.4584 19.8766 37.8533 22.7766 37.1199 28.4972C36.877 30.3918 36.3136 32.1949 35.5 33.8493C34.8408 35.2719 33.9439 36.708 32.7383 38.0882C33.3173 38.5224 33.8819 38.8859 34.3988 39.179C35.9241 37.5958 37.011 35.9204 37.7785 34.2639C38.5921 32.6095 39.1555 30.8065 39.3984 28.9118C40.2716 22.1005 38.1279 19.2866 35.684 18.8503Z" fill="url(#paint1_radial_384_1219)"/>
<g style="mix-blend-mode:overlay" opacity="0.8">
<path d="M37.1204 28.4971C37.8537 22.7766 36.4588 19.8765 34.5456 18.8357C34.4708 18.8475 34.3975 18.8635 34.3244 18.8803C36.1975 19.957 37.5452 22.8543 36.8218 28.4971C36.5789 30.3918 36.0155 32.1948 35.202 33.8492C34.5646 35.2247 33.7025 36.6125 32.5566 37.9505C32.6176 37.9976 32.6781 38.0426 32.7388 38.0881C33.9444 36.708 34.8413 35.2718 35.5005 33.8492C36.3141 32.1948 36.8775 30.3918 37.1204 28.4971Z" fill="#E6E9EE"/>
</g>
<path style="mix-blend-mode:overlay" opacity="0.5" d="M29.8481 41.4719C29.6683 41.3349 29.4953 41.1915 29.3223 41.0481C26.4988 42.2261 22.5847 42.9647 18.6982 42.0628C19.3347 42.874 20.0449 43.6231 20.8251 44.2926C24.6174 44.8088 28.2656 43.6057 30.7508 42.1292C30.4558 41.9236 30.1555 41.7061 29.8481 41.4719Z" fill="url(#paint2_radial_384_1219)"/>
<path style="mix-blend-mode:overlay" opacity="0.6" d="M29.322 41.0481C29.2355 40.9765 29.1484 40.9055 29.0637 40.8323C26.2188 41.9692 22.2869 42.6488 18.4092 41.6823C18.5037 41.8106 18.5997 41.9376 18.698 42.0628C22.5844 42.9648 26.4985 42.2262 29.322 41.0481Z" fill="url(#paint3_linear_384_1219)"/>
<path style="mix-blend-mode:overlay" opacity="0.9" d="M16.8944 35.1696C16.9153 35.2299 16.9379 35.2897 16.9631 35.3492C17.089 35.6504 17.2556 35.9218 17.4512 36.1633C17.396 33.9859 19.21 31.3279 24.5309 29.1027C26.2931 28.3657 28.1363 27.9521 29.9758 27.8295C31.5374 27.6891 33.2296 27.7477 35.0277 28.1018C35.1142 27.3833 35.1468 26.7126 35.1421 26.1183C33.0084 25.589 31.014 25.4854 29.1957 25.6489C27.3561 25.7716 25.513 26.1852 23.7507 26.9221C17.4154 29.5716 16.0503 32.835 16.8944 35.1696Z" fill="url(#paint4_radial_384_1219)"/>
<g style="mix-blend-mode:overlay" opacity="0.8">
<path d="M24.5311 29.1027C19.2103 31.3279 17.3962 33.986 17.4514 36.1633C17.499 36.2221 17.5495 36.2776 17.6006 36.3326C17.5966 34.1721 19.4318 31.5563 24.6803 29.3613C26.4426 28.6244 28.2858 28.2108 30.1253 28.0881C31.6352 27.9523 33.2681 28.005 34.9998 28.3284C35.0101 28.252 35.0188 28.1771 35.0279 28.1019C33.2299 27.7478 31.5376 27.6891 29.9761 27.8295C28.1365 27.9522 26.2933 28.3658 24.5311 29.1027Z" fill="#E6E9EE"/>
</g>
<path style="mix-blend-mode:overlay" opacity="0.4" d="M39.4029 28.9133C39.3742 29.1376 39.3365 29.3591 39.2988 29.5807C41.7308 31.4368 44.3275 34.4572 45.4896 38.274C45.8739 37.3172 46.1675 36.3276 46.3573 35.3172C44.9081 31.7748 42.0421 29.2169 39.5208 27.803C39.4903 28.1613 39.452 28.53 39.4029 28.9133Z" fill="url(#paint5_radial_384_1219)"/>
<path style="mix-blend-mode:overlay" opacity="0.5" d="M39.299 29.5806C39.2802 29.6913 39.2622 29.8022 39.2412 29.9122C41.6482 31.8075 44.2027 34.8728 45.3046 38.7142C45.3685 38.5682 45.4304 38.4216 45.4898 38.2739C44.3276 34.4571 41.7309 31.4367 39.299 29.5806Z" fill="url(#paint6_linear_384_1219)"/>
<path style="mix-blend-mode:overlay" opacity="0.9" d="M40.4205 43.2813C40.4623 43.2331 40.5028 43.1836 40.5417 43.132C40.7396 42.8724 40.8913 42.5924 41.0027 42.3023C39.1446 43.4388 35.9356 43.1968 31.3482 39.7014C29.8288 38.5437 28.549 37.1543 27.523 35.6225C26.6207 34.3403 25.8254 32.8455 25.233 31.1113C24.5674 31.3956 23.9703 31.7028 23.458 32.004C24.0665 34.1165 24.974 35.8955 26.0247 37.3884C27.0507 38.9202 28.3305 40.3096 29.8499 41.4673C35.312 45.6292 38.8208 45.1796 40.4205 43.2813Z" fill="url(#paint7_radial_384_1219)"/>
<g style="mix-blend-mode:overlay" opacity="0.8">
<path d="M31.3486 39.7014C35.9361 43.1968 39.1451 43.4388 41.0031 42.3023C41.0302 42.2317 41.0531 42.1602 41.0751 42.0885C39.2061 43.1722 36.023 42.8907 31.4979 39.4429C29.9786 38.2852 28.6988 36.8958 27.6728 35.364C26.8003 34.1243 26.0294 32.6838 25.4437 31.0225C25.3723 31.0517 25.3031 31.0816 25.2334 31.1114C25.8258 32.8455 26.6211 34.3404 27.5235 35.6226C28.5495 37.1543 29.8293 38.5437 31.3486 39.7014Z" fill="#E6E9EE"/>
</g>
<path style="mix-blend-mode:overlay" opacity="0.3" d="M23.7483 26.9161C23.9569 26.8289 24.1676 26.7508 24.3783 26.6726C24.7698 23.6384 26.0872 19.8794 28.8115 16.9646C27.7907 17.1101 26.7869 17.3507 25.817 17.6916C23.4738 20.7178 22.6916 24.4787 22.7278 27.3692C23.0533 27.2165 23.3918 27.0652 23.7483 26.9161Z" fill="url(#paint8_radial_384_1219)"/>
<path style="mix-blend-mode:overlay" opacity="0.4" d="M24.3779 26.6726C24.4832 26.6336 24.5882 26.5937 24.694 26.5569C25.1319 23.5247 26.5093 19.7798 29.2851 16.9048C29.1267 16.9225 28.9687 16.9422 28.8112 16.9646C26.0869 19.8794 24.7695 23.6384 24.3779 26.6726Z" fill="url(#paint9_linear_384_1219)"/>
<path style="mix-blend-mode:multiply" opacity="0.4" d="M29.6427 12.481C24.1531 12.8544 19.3331 15.4104 15.9695 19.2431C15.9441 19.2721 15.9188 19.3011 15.8936 19.3302C16.5484 19.9798 18.6888 21.2603 19.5562 21.7944C21.2593 19.9628 23.4003 18.5337 25.8259 17.682C25.9953 17.4637 26.1709 17.2484 26.3569 17.0385C28.616 14.4892 31.7011 13.1418 35.2795 13.1418C35.6778 13.1418 36.4889 13.2052 36.5063 13.2064C34.337 12.5832 32.025 12.319 29.6427 12.481Z" fill="url(#paint10_linear_384_1219)"/>
<path style="mix-blend-mode:multiply" opacity="0.4" d="M32.0609 48.0337C27.8066 48.3231 23.8298 46.872 20.8242 44.2926C20.5445 44.2545 20.2641 44.2088 19.9832 44.1515C16.6459 43.4696 13.9365 41.4716 12.1473 38.3726C11.9482 38.0277 11.77 37.6763 11.6094 37.3193C13.9192 46.5305 22.5495 53.0542 32.357 52.3871C32.4005 51.3771 32.1028 49.0337 32.0609 48.0337Z" fill="url(#paint11_linear_384_1219)"/>
<path style="mix-blend-mode:multiply" opacity="0.4" d="M50.9528 31.0769C50.3384 31.0139 47.3372 31.2508 46.5994 31.373C46.6917 32.7297 46.6063 34.0581 46.3647 35.336C46.4683 35.5902 46.5665 35.8483 46.6547 36.1126C47.7329 39.3437 47.3572 42.6892 45.568 45.7882C45.3726 46.1267 45.1616 46.4509 44.9375 46.763C44.9333 46.7689 44.9284 46.7757 44.9248 46.7807C44.9248 46.7807 44.934 46.7728 44.9392 46.768C49.0014 42.816 51.3675 37.1744 50.9528 31.0769Z" fill="url(#paint12_linear_384_1219)"/>
<path style="mix-blend-mode:multiply" opacity="0.5" d="M35.4861 17.6355C35.9248 17.6804 36.393 17.7882 36.8145 17.9297C36.8339 17.9362 36.8545 17.9417 36.8736 17.9484L36.8746 17.9471C38.5998 18.65 40.1772 19.6549 41.5389 20.898C41.5418 20.9005 41.5447 20.9025 41.5477 20.9049C42.204 20.1546 43.4676 19.3302 43.4676 19.3302C43.4676 19.3302 41.5327 17.351 38.5734 16.7367C36.5017 16.3067 31.8289 15.8899 28.8818 20.9049C28.8818 20.9049 28.8936 20.8939 28.9108 20.8779C29.1288 20.5484 29.3606 20.2281 29.6227 19.9323C31.0499 18.3218 33.1716 17.3986 35.4861 17.6355Z" fill="url(#paint13_linear_384_1219)"/>
<path style="mix-blend-mode:multiply" opacity="0.5" d="M41.5731 43.7184C41.3148 44.0759 40.9874 44.4275 40.6541 44.7218C40.6388 44.7353 40.6237 44.7503 40.6084 44.7636L40.609 44.765C39.1377 45.9078 37.4787 46.7713 35.7213 47.329C35.7177 47.3304 35.7145 47.3319 35.7109 47.3332C36.0326 48.2767 36.1147 49.7832 36.1147 49.7832C36.1147 49.7832 38.7963 49.0972 40.8078 46.8415C42.2161 45.2623 44.9135 41.424 42.0439 36.3643C42.0439 36.3643 42.0476 36.38 42.0527 36.4028C42.2291 36.7564 42.3906 37.1173 42.5157 37.4922C43.1969 39.5334 42.9355 41.8324 41.5731 43.7184Z" fill="url(#paint14_linear_384_1219)"/>
<path style="mix-blend-mode:multiply" opacity="0.5" d="M15.9432 35.9529C15.7627 35.5504 15.6219 35.0911 15.5337 34.6553C15.5297 34.6353 15.5241 34.6147 15.5203 34.5948L15.5188 34.5946C15.2648 32.7491 15.3465 30.8806 15.7422 29.0797C15.7428 29.076 15.7431 29.0725 15.7437 29.0687C14.7658 28.8755 13.42 28.1934 13.42 28.1934C13.42 28.1934 12.6734 30.8587 13.6211 33.7286C14.2846 35.7377 16.26 39.9929 22.0766 40.0376C22.0766 40.0376 22.0612 40.033 22.0388 40.026C21.6444 40.002 21.2512 39.9614 20.8639 39.8823C18.7556 39.4516 16.8953 38.0758 15.9432 35.9529Z" fill="url(#paint15_linear_384_1219)"/>
<path style="mix-blend-mode:multiply" opacity="0.6" d="M34.6448 25.4473C34.8044 25.4675 34.9624 25.4731 35.1187 25.4706C35.1187 25.4706 35.0143 23.3926 34.7591 22.3264C34.5039 21.2602 34.1276 20.5541 33.7142 20.1545C33.418 19.8682 32.4831 19.5117 31.756 21.7088C31.5213 23.5389 32.8149 25.2125 34.6448 25.4473Z" fill="url(#paint16_linear_384_1219)"/>
<path style="mix-blend-mode:multiply" opacity="0.5" d="M23.1274 32.771C23.0651 32.6226 22.991 32.4831 22.9107 32.3489C22.9107 32.3489 21.1633 33.4784 20.3675 34.2325C19.5717 34.9865 19.1485 35.6655 19.0091 36.2233C18.9092 36.6229 19.0679 37.6109 21.3342 37.142C23.0364 36.4302 23.839 34.4731 23.1274 32.771Z" fill="url(#paint17_linear_384_1219)"/>
<path style="mix-blend-mode:multiply" opacity="0.6" d="M35.2279 39.082C35.1306 39.2102 35.0468 39.3441 34.9707 39.4808C34.9707 39.4808 36.8226 40.4293 37.8735 40.7415C38.9244 41.0536 39.7241 41.0807 40.2769 40.9225C40.6729 40.8091 41.4491 40.1777 39.9099 38.4495C38.4424 37.3312 36.3462 37.6147 35.2279 39.082Z" fill="url(#paint18_linear_384_1219)"/>
<path style="mix-blend-mode:multiply" opacity="0.3" d="M34.5079 30.4663C34.087 31.8637 33.4967 33.1317 32.7754 34.2516C32.7361 34.3103 32.7004 34.3693 32.6598 34.4279C32.6584 34.4301 32.6568 34.4322 32.6554 34.4344C32.1782 35.1227 31.6106 35.8013 30.9443 36.4577C31.4022 36.9449 31.8973 37.4165 32.441 37.8639C33.1239 38.4028 33.7932 38.836 34.3985 39.1792C35.9237 37.596 37.0106 35.9206 37.7782 34.2641C38.0788 33.6529 38.3446 33.0212 38.5733 32.3724C37.8697 31.8544 37.1569 31.4422 36.5001 31.1621C35.8208 30.8726 35.1568 30.6452 34.5079 30.4663Z" fill="url(#paint19_linear_384_1219)"/>
<path style="mix-blend-mode:multiply" opacity="0.3" d="M20.8243 44.2929C24.6167 44.809 28.2648 43.606 30.75 42.1294C30.455 41.9238 30.1547 41.7063 29.8473 41.4721C28.8881 40.7412 28.025 39.9176 27.2603 39.0244C25.3905 39.8423 23.038 40.322 20.8565 39.8765C18.7482 39.4458 16.8879 38.07 15.9358 35.9471C15.7553 35.5447 15.6146 35.0854 15.5264 34.6497C16.0773 38.5159 18.0283 41.8933 20.8243 44.2929Z" fill="url(#paint20_linear_384_1219)"/>
<path style="mix-blend-mode:multiply" opacity="0.3" d="M30.9448 36.4578C29.946 35.3952 29.1437 34.2508 28.535 33.067C28.5038 33.0036 28.4705 32.9432 28.44 32.8787C28.4389 32.8764 28.4378 32.874 28.4366 32.8716C28.079 32.1139 27.775 31.2827 27.5396 30.3772C26.8902 30.53 26.2357 30.7226 25.5779 30.9692C24.7715 31.2905 24.0629 31.6527 23.4639 32.0045C24.0723 34.1156 24.9725 35.9011 26.0227 37.3933C26.4009 37.958 26.8142 38.5029 27.2608 39.0245C28.0624 38.6738 28.7769 38.2621 29.3485 37.8327C29.9379 37.39 30.466 36.9295 30.9448 36.4578Z" fill="url(#paint21_linear_384_1219)"/>
<path style="mix-blend-mode:multiply" opacity="0.3" d="M25.8141 17.6963C23.4709 20.7225 22.6886 24.4834 22.7248 27.3739C23.0516 27.2206 23.3915 27.0686 23.7496 26.9189C24.8609 26.4542 26.0043 26.1187 27.1588 25.903C27.3856 23.8751 28.1464 21.5985 29.6226 19.9324C31.0498 18.3219 33.1715 17.3987 35.486 17.6356C35.9248 17.6805 36.393 17.7883 36.8144 17.9298C36.8338 17.9363 36.8544 17.9418 36.8735 17.9485C36.8738 17.9481 36.8742 17.9476 36.8745 17.9472C34.7421 17.0786 32.3865 16.668 29.9388 16.8345C28.5012 16.9323 27.1237 17.2264 25.8258 17.6821C25.8221 17.6869 25.8178 17.6915 25.8141 17.6963Z" fill="url(#paint22_linear_384_1219)"/>
<path style="mix-blend-mode:multiply" opacity="0.3" d="M46.3566 35.314C44.9066 31.7698 42.0386 29.2111 39.5163 27.7976C39.4857 28.1571 39.4473 28.5274 39.398 28.9121C39.2448 30.1068 38.9637 31.2649 38.5732 32.3725C40.2173 33.5828 41.8104 35.3811 42.5157 37.4942C43.197 39.5354 42.9356 41.8344 41.5732 43.7204C41.3149 44.0779 40.9875 44.4296 40.6542 44.7238C40.6493 44.7281 40.6446 44.7325 40.6398 44.737C43.576 42.4292 45.6528 39.1031 46.3649 35.3362C46.3619 35.329 46.3595 35.3213 46.3566 35.314Z" fill="url(#paint23_linear_384_1219)"/>
<path style="mix-blend-mode:multiply" opacity="0.3" d="M27.1469 28.3082C27.2356 29.0396 27.3702 29.727 27.5392 30.3771C28.9604 30.0427 30.3541 29.9198 31.6851 29.9846C31.7556 29.9893 31.8245 29.9906 31.8956 29.9965C31.8982 29.9967 31.9008 29.9969 31.9034 29.9971C32.7371 30.0661 33.6075 30.2181 34.5079 30.4663C34.7005 29.8271 34.861 29.1635 34.9765 28.4699C35.102 27.6078 35.1423 26.8106 35.1367 26.1141C33.0046 25.5858 31.0117 25.4824 29.1945 25.6457C28.515 25.691 27.835 25.7766 27.1588 25.903C27.0615 26.7731 27.0608 27.5981 27.1469 28.3082Z" fill="url(#paint24_linear_384_1219)"/>
<rect x="32" y="36" width="19" height="13.2174" rx="2.74" fill="#081029"/>
<path d="M45.3208 46.7389L43.2904 43.9442V46.7389H41.248V37.9008H43.2904V42.7856L45.3088 40.0745H47.8289L45.058 43.4186L47.8528 46.7389H45.3208Z" fill="white"/>
<path d="M37.5922 45.055H40.4826V46.739H35.311V45.1147L38.0819 41.7586H35.3349V40.0745H40.4229V41.6989L37.5922 45.055Z" fill="white"/>
<defs>
<linearGradient id="paint0_linear_384_1219" x1="17.3512" y1="46.0838" x2="42.8545" y2="20.5805" gradientUnits="userSpaceOnUse">
<stop offset="0.001139" stop-color="#E6007A"/>
<stop offset="0.207149" stop-color="#703AC2"/>
<stop offset="0.456011" stop-color="#0070EB"/>
<stop offset="0.768132" stop-color="#0297FB"/>
<stop offset="1" stop-color="#0AE2FF"/>
</linearGradient>
<radialGradient id="paint1_radial_384_1219" cx="0" cy="0" r="1" gradientUnits="userSpaceOnUse" gradientTransform="translate(36.7011 28.3856) scale(7.60439)">
<stop stop-color="white"/>
<stop offset="1" stop-color="white" stop-opacity="0"/>
</radialGradient>
<radialGradient id="paint2_radial_384_1219" cx="0" cy="0" r="1" gradientUnits="userSpaceOnUse" gradientTransform="translate(25.4612 42.4927) scale(4.4243)">
<stop stop-color="white"/>
<stop offset="1" stop-color="white" stop-opacity="0"/>
</radialGradient>
<linearGradient id="paint3_linear_384_1219" x1="18.8214" y1="41.7444" x2="23.0861" y2="41.6852" gradientUnits="userSpaceOnUse">
<stop stop-color="white" stop-opacity="0"/>
<stop offset="1" stop-color="white"/>
</linearGradient>
<radialGradient id="paint4_radial_384_1219" cx="0" cy="0" r="1" gradientUnits="userSpaceOnUse" gradientTransform="translate(24.6436 29.5212) rotate(-120) scale(7.60439)">
<stop stop-color="white"/>
<stop offset="1" stop-color="white" stop-opacity="0"/>
</radialGradient>
<radialGradient id="paint5_radial_384_1219" cx="0" cy="0" r="1" gradientUnits="userSpaceOnUse" gradientTransform="translate(42.4804 32.2021) rotate(-120) scale(4.4243)">
<stop stop-color="white"/>
<stop offset="1" stop-color="white" stop-opacity="0"/>
</radialGradient>
<linearGradient id="paint6_linear_384_1219" x1="45.1523" y1="38.3262" x2="42.9686" y2="34.6625" gradientUnits="userSpaceOnUse">
<stop stop-color="white" stop-opacity="0"/>
<stop offset="1" stop-color="white"/>
</linearGradient>
<radialGradient id="paint7_radial_384_1219" cx="0" cy="0" r="1" gradientUnits="userSpaceOnUse" gradientTransform="translate(31.2952 39.0428) rotate(120) scale(7.60439)">
<stop stop-color="white"/>
<stop offset="1" stop-color="white" stop-opacity="0"/>
</radialGradient>
<radialGradient id="paint8_radial_384_1219" cx="0" cy="0" r="1" gradientUnits="userSpaceOnUse" gradientTransform="translate(25.0577 22.6066) rotate(120) scale(4.4243)">
<stop stop-color="white"/>
<stop offset="1" stop-color="white" stop-opacity="0"/>
</radialGradient>
<linearGradient id="paint9_linear_384_1219" x1="29.0253" y1="17.2307" x2="26.9442" y2="20.9537" gradientUnits="userSpaceOnUse">
<stop stop-color="white" stop-opacity="0"/>
<stop offset="1" stop-color="white"/>
</linearGradient>
<linearGradient id="paint10_linear_384_1219" x1="29.9522" y1="15.3383" x2="23.4366" y2="17.2337" gradientUnits="userSpaceOnUse">
<stop stop-color="#231F20"/>
<stop offset="1" stop-color="white"/>
</linearGradient>
<linearGradient id="paint11_linear_384_1219" x1="17.6388" y1="40.1881" x2="23.0882" y2="45.8744" gradientUnits="userSpaceOnUse">
<stop stop-color="#231F20"/>
<stop offset="1" stop-color="white"/>
</linearGradient>
<linearGradient id="paint12_linear_384_1219" x1="46.8858" y1="39.3311" x2="48.7812" y2="33.5659" gradientUnits="userSpaceOnUse">
<stop stop-color="#231F20"/>
<stop offset="1" stop-color="white"/>
</linearGradient>
<linearGradient id="paint13_linear_384_1219" x1="32.921" y1="18.6352" x2="41.6566" y2="20.6354" gradientUnits="userSpaceOnUse">
<stop stop-color="#231F20"/>
<stop offset="1" stop-color="white"/>
</linearGradient>
<linearGradient id="paint14_linear_384_1219" x1="41.9899" y1="40.9972" x2="35.8899" y2="47.5623" gradientUnits="userSpaceOnUse">
<stop stop-color="#231F20"/>
<stop offset="1" stop-color="white"/>
</linearGradient>
<linearGradient id="paint15_linear_384_1219" x1="18.0914" y1="37.6744" x2="15.4559" y2="29.1092" gradientUnits="userSpaceOnUse">
<stop stop-color="#231F20"/>
<stop offset="1" stop-color="white"/>
</linearGradient>
<linearGradient id="paint16_linear_384_1219" x1="34.831" y1="21.857" x2="32.0668" y2="24.6212" gradientUnits="userSpaceOnUse">
<stop stop-color="#231F20"/>
<stop offset="1" stop-color="white"/>
</linearGradient>
<linearGradient id="paint17_linear_384_1219" x1="19.925" y1="34.4049" x2="23.701" y2="35.4166" gradientUnits="userSpaceOnUse">
<stop stop-color="#231F20"/>
<stop offset="1" stop-color="white"/>
</linearGradient>
<linearGradient id="paint18_linear_384_1219" x1="38.2441" y1="41.0384" x2="37.2323" y2="37.2625" gradientUnits="userSpaceOnUse">
<stop stop-color="#231F20"/>
<stop offset="1" stop-color="white"/>
</linearGradient>
<linearGradient id="paint19_linear_384_1219" x1="32.4959" y1="37.6811" x2="34.1544" y2="35.3907" gradientUnits="userSpaceOnUse">
<stop stop-color="#231F20"/>
<stop offset="1" stop-color="white"/>
</linearGradient>
<linearGradient id="paint20_linear_384_1219" x1="26.7851" y1="36.6895" x2="23.4681" y2="38.2691" gradientUnits="userSpaceOnUse">
<stop stop-color="#231F20"/>
<stop offset="1" stop-color="white"/>
</linearGradient>
<linearGradient id="paint21_linear_384_1219" x1="25.5819" y1="31.1681" x2="26.6086" y2="33.3005" gradientUnits="userSpaceOnUse">
<stop stop-color="#231F20"/>
<stop offset="1" stop-color="white"/>
</linearGradient>
<linearGradient id="paint22_linear_384_1219" x1="30.3576" y1="24.5824" x2="29.6468" y2="22.1342" gradientUnits="userSpaceOnUse">
<stop stop-color="#231F20"/>
<stop offset="1" stop-color="white"/>
</linearGradient>
<linearGradient id="paint23_linear_384_1219" x1="38.0181" y1="35.7919" x2="40.0715" y2="36.2658" gradientUnits="userSpaceOnUse">
<stop stop-color="#231F20"/>
<stop offset="1" stop-color="white"/>
</linearGradient>
<linearGradient id="paint24_linear_384_1219" x1="34.7956" y1="28.8552" x2="32.1894" y2="28.3814" gradientUnits="userSpaceOnUse">
<stop stop-color="#231F20"/>
<stop offset="1" stop-color="white"/>
</linearGradient>
</defs>
</svg>
