<svg width="64" height="64" viewBox="0 0 64 64" fill="none" xmlns="http://www.w3.org/2000/svg">
<rect width="64" height="64" fill="black"/>
<path d="M49.5938 41.2306L43.6872 47.5635C43.5592 47.7008 43.4044 47.8103 43.2324 47.8854C43.0603 47.9605 42.8748 47.9995 42.6871 48H14.6861C14.5529 47.9993 14.4227 47.9599 14.3114 47.8866C14.2001 47.8133 14.1125 47.7092 14.0593 47.5871C14.006 47.4649 13.9893 47.3299 14.0114 47.1985C14.0334 47.0671 14.0931 46.9449 14.1832 46.8467L20.0826 40.5138C20.2106 40.3766 20.3654 40.267 20.5374 40.192C20.7094 40.1169 20.895 40.0779 21.0826 40.0774H49.0836C49.2183 40.0747 49.3508 40.1119 49.4645 40.1843C49.5781 40.2567 49.6679 40.361 49.7224 40.4843C49.7769 40.6075 49.7938 40.7441 49.7709 40.8769C49.748 41.0097 49.6864 41.1328 49.5938 41.2306ZM43.6872 28.4738C43.5586 28.3372 43.4037 28.2281 43.2318 28.1531C43.06 28.0781 42.8746 28.0387 42.6871 28.0373H14.6861C14.5526 28.0374 14.422 28.0764 14.3103 28.1496C14.1986 28.2228 14.1107 28.327 14.0573 28.4494C14.0039 28.5718 13.9874 28.7071 14.0098 28.8387C14.0321 28.9704 14.0924 29.0927 14.1832 29.1906L20.0826 35.5278C20.2111 35.6644 20.366 35.7735 20.5379 35.8485C20.7098 35.9235 20.8951 35.9629 21.0826 35.9643H49.0836C49.2166 35.963 49.3464 35.9232 49.4573 35.8497C49.5681 35.7762 49.6553 35.6721 49.7082 35.5501C49.7611 35.428 49.7775 35.2932 49.7554 35.1621C49.7333 35.0309 49.6736 34.909 49.5836 34.811L43.6872 28.4738ZM14.6861 23.9242H42.6871C42.8748 23.9237 43.0603 23.8847 43.2324 23.8096C43.4044 23.7346 43.5592 23.625 43.6872 23.4878L49.5938 17.1534C49.6625 17.08 49.7142 16.9923 49.7453 16.8966C49.7764 16.801 49.786 16.6996 49.7736 16.5998C49.7612 16.5 49.727 16.4041 49.6735 16.319C49.6199 16.2338 49.5483 16.1615 49.4637 16.1071C49.3504 16.0346 49.2181 15.9974 49.0836 16.0001H21.0826C20.895 16.0007 20.7094 16.0397 20.5374 16.1148C20.3654 16.1898 20.2106 16.2994 20.0826 16.4366L14.1832 22.771C14.0924 22.8689 14.0321 22.9911 14.0098 23.1228C13.9874 23.2544 14.0039 23.3898 14.0573 23.5122C14.1107 23.6346 14.1986 23.7388 14.3103 23.8119C14.422 23.8851 14.5526 23.9242 14.6861 23.9242Z" fill="url(#paint0_linear_459_196)"/>
<defs>
<linearGradient id="paint0_linear_459_196" x1="17.0202" y1="48.7645" x2="46.3796" y2="15.6634" gradientUnits="userSpaceOnUse">
<stop offset="0.08" stop-color="#9945FF"/>
<stop offset="0.3" stop-color="#8752F3"/>
<stop offset="0.5" stop-color="#5497D5"/>
<stop offset="0.6" stop-color="#43B4CA"/>
<stop offset="0.72" stop-color="#28E0B9"/>
<stop offset="0.97" stop-color="#19FB9B"/>
</linearGradient>
</defs>
</svg>
