<svg width="64" height="64" viewBox="0 0 64 64" fill="none" xmlns="http://www.w3.org/2000/svg">
<rect width="64" height="64" fill="#131615"/>
<path d="M32 12C20.9539 12 12 20.955 12 32C12 43.045 20.955 52 32 52C43.045 52 52 43.045 52 32C52 20.955 43.045 12 32 12ZM32 48.4598C22.9096 48.4598 15.5402 41.0904 15.5402 32C15.5402 22.9096 22.9096 15.5402 32 15.5402C41.0904 15.5402 48.4598 22.9096 48.4598 32C48.4598 41.0904 41.0904 48.4598 32 48.4598Z" fill="#37FA85"/>
<path d="M31.8902 21.0019C25.8388 21.0616 20.9337 26.0755 21.0019 32.1269C21.019 33.6741 21.3559 35.1446 21.951 36.4764C22.0395 36.6758 22.3039 36.7206 22.4553 36.5639L24.8801 34.0612C25.038 33.8981 25.103 33.6677 25.0572 33.4449C24.9612 32.9789 24.9111 32.4969 24.9111 32.0021C24.9111 28.0855 28.0855 24.9111 32.0011 24.9111C32.402 24.9111 32.7944 24.9441 33.1762 25.0081C33.4321 25.0508 33.6933 24.9697 33.8735 24.7831L36.2856 22.2954C36.4263 22.1493 36.3773 21.9062 36.1896 21.8294C34.8663 21.2845 33.414 20.9891 31.8902 21.0041V21.0019Z" fill="#37FA85"/>
<path d="M32.1088 43.012C38.1602 42.9522 43.0653 37.9384 42.997 31.887C42.98 30.3397 42.643 28.8693 42.048 27.5374C41.9595 27.338 41.695 27.2932 41.5436 27.45L39.1188 29.9527C38.961 30.1158 38.8959 30.3461 38.9418 30.569C39.0378 31.035 39.0879 31.517 39.0879 32.0117C39.0879 35.9283 35.9134 39.1028 31.9979 39.1028C31.5969 39.1028 31.2045 39.0697 30.8228 39.0058C30.5669 38.9631 30.3056 39.0442 30.1254 39.2308L27.7134 41.7185C27.5726 41.8646 27.6217 42.1077 27.8093 42.1845C29.1327 42.7294 30.585 43.0247 32.1088 43.0098V43.012Z" fill="#37FA85"/>
<path d="M26.3341 34.1741L21.715 38.7931C20.7777 39.7305 20.7776 41.2503 21.715 42.1877C22.6524 43.125 24.1722 43.125 25.1096 42.1877L29.7286 37.5686C30.666 36.6312 30.666 35.1115 29.7286 34.1741C28.7912 33.2367 27.2714 33.2367 26.3341 34.1741Z" fill="#37FA85"/>
<path d="M38.7902 21.7471L34.1712 26.3661C33.2338 27.3035 33.2338 28.8233 34.1712 29.7607C35.1086 30.698 36.6283 30.698 37.5657 29.7607L42.1848 25.1416C43.1221 24.2042 43.1221 22.6845 42.1848 21.7471C41.2474 20.8097 39.7276 20.8097 38.7902 21.7471Z" fill="#37FA85"/>
</svg>
