<svg width="64" height="64" viewBox="0 0 64 64" fill="none" xmlns="http://www.w3.org/2000/svg">
<rect width="64" height="64" fill="#FFEBD4"/>
<path d="M35.8433 12.0057C35.7947 11.9971 35.7449 11.9982 35.6967 12.009C35.6485 12.0198 35.603 12.0401 35.5626 12.0686C35.5223 12.0971 35.4881 12.1333 35.4619 12.1752C35.4357 12.217 35.4181 12.2637 35.41 12.3124L32.9267 26.6529H31.0733L28.59 12.3124C28.5819 12.2637 28.5643 12.217 28.5381 12.1752C28.5119 12.1333 28.4776 12.0971 28.4373 12.0686C28.397 12.0401 28.3515 12.0198 28.3033 12.009C28.2551 11.9982 28.2053 11.9971 28.1567 12.0057C19.34 13.7424 12.58 21.3894 12.0233 30.7364C12.0233 30.7498 12 31.1431 12 31.3398V31.9932C12 41.9069 18.95 50.1572 28.1667 51.9839C28.3733 52.0173 28.5667 51.8839 28.6 51.6739L31.0867 37.3334H32.94L35.4067 51.6873C35.4467 51.8973 35.64 52.0306 35.8433 51.9939C44.66 50.2439 51.4066 42.5969 51.9766 33.2532C51.9766 33.2399 52 32.8432 52 32.6465V31.9932C52.0133 22.0794 45.06 13.8291 35.8433 12.0057Z" fill="#FF6C15"/>
</svg>
