<svg width="64" height="64" viewBox="0 0 64 64" fill="none" xmlns="http://www.w3.org/2000/svg">
<rect width="64" height="64" fill="black"/>
<g clip-path="url(#clip0_137_295)">
<g clip-path="url(#clip1_137_295)">
<path d="M19.5907 35.628C19.5634 35.6279 19.5361 35.6291 19.5089 35.6317C19.263 35.6548 19.1941 35.7385 19.1941 35.9965C19.1941 40.5888 19.1952 45.1825 19.1973 49.7776C19.1973 50.3412 18.7868 50.8618 18.1284 50.8548C16.435 50.8363 14.7411 50.8414 13.0476 50.8521C12.3805 50.8562 12.0032 50.4637 12.0028 49.8123C12.0009 45.1488 12.0023 40.4854 12.0069 35.8222C12.0069 35.1648 12.2908 34.849 12.9833 34.843C14.3754 34.831 15.7674 34.843 17.1594 34.837C17.4507 34.8419 17.7348 34.7464 17.9639 34.5665C18.2385 34.3502 18.3064 34.0455 18.3097 33.7344C18.3217 32.6128 18.3217 31.4914 18.3097 30.3701C18.3112 30.2298 18.2845 30.0907 18.2311 29.961C18.1777 29.8313 18.0987 29.7136 17.9989 29.6151C17.899 29.5166 17.7804 29.4391 17.65 29.3874C17.5196 29.3357 17.3801 29.3108 17.2399 29.3142C15.9643 29.3299 14.6879 29.3216 13.4119 29.3169C13.1668 29.3195 12.9219 29.302 12.6796 29.2647C12.3934 29.2185 12.171 29.0608 12.0938 28.7599C12.0518 28.592 12.0055 28.4191 12.0051 28.2485C11.9995 26.083 11.9995 23.9176 12.0051 21.7521C12.0051 21.4488 12.0328 21.1298 12.3042 20.9259C12.4253 20.8335 12.5816 20.7512 12.7286 20.741C13.2344 20.7049 13.7425 20.6948 14.2501 20.6888C14.9227 20.6809 15.5954 20.692 16.2685 20.6846C16.6384 20.6804 17.0055 20.6661 17.3726 20.6384C17.6634 20.6152 17.8867 20.4368 18.1086 20.2653C18.379 20.0563 18.6476 19.8455 18.9204 19.6398C19.2214 19.4128 19.2856 19.0901 19.2861 18.7443C19.2879 17.2131 19.2879 15.6819 19.2861 14.1507C19.2861 13.7212 19.6032 13.404 20.0387 13.4036H24.5394C33.4158 13.3888 42.9321 13.3509 51.816 13.3365C51.8398 13.3365 51.8634 13.3411 51.8855 13.3502C51.9075 13.3593 51.9276 13.3726 51.9444 13.3895C51.9613 13.4063 51.9747 13.4263 51.9838 13.4483C51.993 13.4703 51.9977 13.4939 51.9977 13.5178V13.9718C51.9976 14.0198 51.9784 14.0658 51.9445 14.0998C51.9105 14.1337 51.8645 14.1529 51.8164 14.153H46.8507C46.664 14.1515 46.4789 14.1876 46.3064 14.2591C46.1339 14.3305 45.9775 14.436 45.8466 14.5691C44.3556 16.061 42.8669 17.5575 41.3658 19.0415C40.9197 19.483 40.4412 19.8922 39.9668 20.3041C39.6502 20.5792 39.2572 20.6827 38.8485 20.6832C34.0842 20.6878 29.3202 20.6895 24.5565 20.6883C23.152 20.6883 21.7475 20.7096 20.3429 20.7373C19.9546 20.7452 19.557 20.7951 19.3503 21.2056C19.2944 21.3166 19.2727 21.4456 19.2422 21.5676C19.2368 21.6137 19.2368 21.6602 19.2422 21.7063L19.1959 26.6854C19.1908 27.1478 18.7521 27.5527 18.2574 27.5532C16.7184 27.5532 15.1793 27.5532 13.6403 27.556C13.5037 27.5573 13.3677 27.5728 13.2344 27.6022C12.9787 27.6572 12.8312 27.8163 12.8391 28.0081C12.8478 28.1301 12.9001 28.2449 12.9866 28.3314C13.073 28.4179 13.1877 28.4704 13.3097 28.4792C13.3786 28.4857 13.4484 28.4792 13.5187 28.4792L48.4873 28.4718C48.9996 28.4654 49.4637 28.9383 49.4582 29.4325C49.4401 31.1958 49.4512 32.9591 49.4512 34.7223C49.4512 35.2591 49.0814 35.6252 48.5446 35.6252L19.5907 35.628Z" fill="white"/>
</g>
</g>
<defs>
<clipPath id="clip0_137_295">
<rect width="40" height="40" fill="white" transform="translate(12 12)"/>
</clipPath>
<clipPath id="clip1_137_295">
<rect width="40" height="37.5215" fill="white" transform="translate(12 13.3333)"/>
</clipPath>
</defs>
</svg>
