<svg width="64" height="64" viewBox="0 0 64 64" fill="none" xmlns="http://www.w3.org/2000/svg">
<rect width="64" height="64" fill="#0000FF"/>
<path d="M40.5808 23.5083C31.7039 14.6314 21.4248 10.5182 16.0077 15.9353C10.5906 21.3524 14.7039 31.6315 23.5808 40.5084C32.4577 49.3853 42.6638 53.5713 48.1538 48.0814C53.6438 42.5914 49.4577 32.3852 40.5808 23.5083Z" fill="white"/>
<path d="M44.2632 30.3034C45.2798 31.7324 46.1489 33.1536 46.8536 34.5468C47.3822 35.5926 47.8166 36.6197 48.1495 37.6336C48.5977 39.0132 48.8668 40.3628 48.8481 41.7228C46.764 42.2158 44.7711 42.2127 42.912 41.8777C42.9319 41.7079 42.9387 41.4717 42.9102 41.1727C42.8571 40.5894 42.6668 39.7881 42.3139 38.8664C41.7882 37.481 40.9038 35.8273 39.7073 34.0989C38.5128 32.3687 37.008 30.5582 35.256 28.8063C33.6299 27.1802 31.9545 25.7679 30.3388 24.618C29.1278 23.7549 27.9488 23.0397 26.8623 22.4907C26.0474 22.079 25.2846 21.7615 24.6086 21.5384C23.5947 21.2019 22.7714 21.102 22.3102 21.1359C22.2622 21.1394 22.2216 21.143 22.1828 21.1485C21.8497 19.2894 21.8447 17.2964 22.3395 15.2124C22.3672 15.2125 22.3949 15.2089 22.4207 15.2089C23.7807 15.2068 25.1322 15.4833 26.5118 15.9408C28.5785 16.6324 30.7237 17.7469 32.9104 19.2121C35.0916 20.6791 37.3051 22.5005 39.4344 24.6279C41.2862 26.4798 42.9076 28.3993 44.2632 30.3034Z" fill="#F79342"/>
<path fill-rule="evenodd" clip-rule="evenodd" d="M19.9516 26.8262L22.3316 23.7813C23.1133 22.781 23.9765 21.8036 24.9174 20.8627C28.7052 17.0749 33.1159 14.5177 37.2529 13.4964C41.3528 12.4842 45.469 12.9353 48.2272 15.6367C48.252 15.6604 48.2765 15.6844 48.3007 15.7087C48.3341 15.742 48.3669 15.7758 48.3992 15.8101C51.0813 18.5729 51.5233 22.683 50.5084 26.776C49.484 30.9075 46.9288 35.3106 43.1467 39.0926C42.2059 40.0336 41.2284 40.8967 40.2283 41.6785L37.1833 44.0584L37.635 40.4952C36.9247 41.1707 36.1981 41.8278 35.4594 42.4621C32.1292 45.3214 28.6627 47.6216 25.4807 49.043L21.6813 50.7402L23.5014 46.6657C21.8773 47.6401 20.4465 48.3742 19.2655 48.9188C18.1586 49.4291 17.2716 49.7729 16.651 49.9917C16.3408 50.1009 16.0971 50.1791 15.9259 50.2312C15.8403 50.2573 15.7728 50.2769 15.7241 50.2906C15.6997 50.2975 15.6801 50.3029 15.6653 50.3069C15.6579 50.309 15.6516 50.3106 15.6466 50.3119L15.64 50.3136L15.6363 50.3147C15.6358 50.3148 15.6352 50.3149 15.2348 48.7747C15.2348 48.7747 15.9184 48.5969 17.1354 48.1068C18.7888 47.4411 21.4266 46.1989 24.6729 44.043C25.4851 43.5036 26.3353 42.9071 27.2178 42.248L24.8316 47.5899C25.5632 47.2631 26.3144 46.8853 27.0791 46.4604C29.4573 45.1394 31.9661 43.3639 34.4227 41.2546C35.6414 40.2082 36.8267 39.0973 37.9586 37.9436C38.5953 37.2945 39.2151 36.632 39.8143 35.9598L39.2482 40.4245C39.8567 39.9489 40.4569 39.441 41.0455 38.9017C41.3747 38.6 41.7002 38.2885 42.0214 37.9673C49.2444 30.7443 51.5687 21.3445 47.2488 16.9098C47.2248 16.8842 47.2003 16.8589 47.1754 16.834C47.1573 16.8158 47.1389 16.7979 47.1203 16.7802C42.6939 12.4337 33.2767 14.7542 26.0428 21.988C25.7215 22.3092 25.41 22.6348 25.1083 22.964C24.569 23.5526 24.0611 24.1528 23.5855 24.7613L28.0495 24.1953C27.3772 24.7945 26.7146 25.4143 26.0656 26.051C24.912 27.1828 23.8012 28.3681 22.7548 29.5867C20.6455 32.0433 18.87 34.5521 17.5489 36.9303C17.1241 37.695 16.7463 38.4462 16.4195 39.1778L21.7695 36.7881C21.1117 37.6696 20.516 38.5195 19.9771 39.3317C17.8236 42.577 16.5766 45.2202 15.9068 46.8761C15.4154 48.0911 15.2348 48.7747 15.2348 48.7747C13.6961 48.3679 13.6963 48.3675 13.6964 48.3669L13.6974 48.3632L13.6991 48.3567C13.7005 48.3517 13.7021 48.3456 13.7042 48.3382C13.7082 48.3234 13.7137 48.3039 13.7207 48.2795C13.7345 48.2309 13.7544 48.1633 13.7808 48.0777C13.8336 47.9064 13.9126 47.6623 14.023 47.3516C14.2439 46.7301 14.5901 45.8418 15.1025 44.734C15.6486 43.5534 16.3832 42.1237 17.3554 40.5028L13.2693 42.3281L14.9664 38.5287C16.3878 35.3467 18.688 31.8802 21.5473 28.55C22.1815 27.8114 22.8386 27.0849 23.514 26.3746L19.9516 26.8262ZM15.2348 48.7747L15.6352 50.3149L13.0005 51L13.6961 48.3679L15.2348 48.7747Z" fill="white"/>
<path d="M15.2348 48.7746C15.2348 48.7746 15.9183 48.5969 17.1354 48.1068C18.7888 47.4411 21.4266 46.1989 24.6729 44.043C25.4851 43.5036 26.3353 42.907 27.2178 42.2479L24.8316 47.5899C25.5632 47.2631 26.3144 46.8853 27.0791 46.4604C29.4573 45.1394 31.9661 43.3638 34.4227 41.2546C35.6414 40.2082 36.8267 39.0973 37.9585 37.9436C38.5953 37.2945 39.215 36.632 39.8143 35.9597L39.2482 40.4245C39.8567 39.9489 40.4569 39.441 41.0455 38.9017C41.3747 38.6 41.7001 38.2885 42.0214 37.9673C49.2444 30.7443 51.5687 21.3445 47.2488 16.9098C47.2248 16.8841 47.2003 16.8589 47.1754 16.834C47.1573 16.8158 47.1388 16.7979 47.1202 16.7802C42.6939 12.4337 33.2766 14.7542 26.0428 21.988C25.7215 22.3092 25.41 22.6348 25.1083 22.964C24.569 23.5526 24.0611 24.1528 23.5855 24.7613L28.0495 24.1953C27.3772 24.7945 26.7146 25.4143 26.0655 26.051C24.912 27.1827 23.8011 28.3681 22.7548 29.5867C20.6455 32.0433 18.87 34.552 17.5489 36.9302C17.1241 37.6949 16.7463 38.4462 16.4195 39.1778L21.7694 36.7881C21.1117 37.6696 20.516 38.5195 19.977 39.3317C17.8235 42.5769 16.5766 45.2201 15.9068 46.8761C15.4154 48.091 15.2348 48.7746 15.2348 48.7746Z" fill="white"/>
<path fill-rule="evenodd" clip-rule="evenodd" d="M23.5852 24.761C24.3268 23.8123 25.147 22.8833 26.0425 21.9877C33.2763 14.7539 42.6936 12.4334 47.12 16.7799C47.1386 16.7977 47.157 16.8156 47.1751 16.8337C47.2 16.8586 47.2244 16.8839 47.2485 16.9096C51.5684 21.3443 49.2441 30.7441 42.0211 37.9671C41.1256 38.8626 40.1968 39.6827 39.2479 40.4243L39.8141 35.9594C38.1497 37.8267 36.3268 39.6193 34.4223 41.2544C31.1759 44.0418 27.8382 46.2465 24.8313 47.5896L27.2175 42.2477C20.2116 47.4803 15.2345 48.7744 15.2345 48.7744C15.2345 48.7744 16.5555 43.7764 21.7691 36.7878L16.4192 39.1776C17.7624 36.1706 19.9671 32.8329 22.7545 29.5865C24.3896 27.6821 26.1821 25.8594 28.0491 24.195L23.5852 24.761Z" fill="#0000FF"/>
<path d="M21.2656 22.5513C21.3371 23.1309 21.5254 23.888 21.8561 24.7524C22.1737 25.5891 22.6226 26.524 23.188 27.5127C24.634 30.1626 26.4496 32.2634 27.6985 33.5916C28.1333 34.0669 28.5848 34.5423 29.0547 35.0121C29.5005 35.458 29.95 35.8854 30.4013 36.298C31.7313 37.5526 33.8748 39.4199 36.5929 40.8975C36.9403 41.0958 37.2822 41.283 37.6148 41.4518C38.4444 41.8728 39.224 42.1958 39.9128 42.4227C40.526 42.6272 41.0688 42.743 41.51 42.7995C43.7774 43.3182 46.2576 43.3816 48.8689 42.6575C48.8209 43.4194 48.6734 44.1904 48.3782 44.9408C48.083 45.691 47.6272 46.417 47.0234 47.017C46.3092 47.733 45.4247 48.2364 44.5267 48.522C43.7376 48.7747 42.937 48.8761 42.1453 48.8796C40.7577 48.8835 39.3803 48.5995 37.973 48.1328C35.8638 47.4282 33.6762 46.2915 31.4487 44.7967C29.2232 43.3 26.9653 41.4434 24.7953 39.2734C22.9065 37.3845 21.2537 35.4281 19.8703 33.4851C18.8332 32.0265 17.9475 30.5776 17.228 29.1567C16.6901 28.0905 16.2446 27.0413 15.9061 26.0089C15.4022 24.4575 15.1179 22.9436 15.2044 21.4122C15.2505 20.6484 15.398 19.8737 15.6969 19.1215C15.9921 18.3712 16.4479 17.6472 17.0517 17.0453C17.7659 16.3292 18.6504 15.8258 19.5483 15.5402C20.166 15.3425 20.7894 15.2389 21.4112 15.2017C20.687 17.8092 20.7505 20.2858 21.2674 22.5513H21.2656Z" fill="#FBB042"/>
</svg>
