<svg width="64" height="64" viewBox="0 0 64 64" fill="none" xmlns="http://www.w3.org/2000/svg">
<rect width="64" height="64" fill="black"/>
<path d="M36.4701 32.0173H36.1856L37.2185 31.7871C37.0999 31.8447 36.5275 32.0173 36.4701 32.0173ZM37.6181 31.7871H37.3303L37.6181 31.6178C37.3303 31.6178 37.0999 31.6178 36.8697 31.5028C35.61 31.7295 34.2925 31.7871 33.0905 32.0173C33.0329 32.0173 32.9177 32.1325 32.9177 32.1325C32.9177 32.1901 32.9177 32.19 32.9753 32.2442C33.5477 32.2442 34.1232 32.3594 34.7532 32.3594C35.2679 32.3594 35.8402 32.1901 36.3584 32.1325C35.8978 32.4744 34.2925 32.417 33.6628 32.417C33.4324 32.417 33.2631 32.4744 33.0905 32.532C33.2022 32.8774 33.6052 32.9926 33.7202 33.3345C34.9801 34.5942 36.128 36.3718 37.0425 37.8617C37.0425 38.0345 37.0999 38.3223 37.2185 38.434V38.6642C37.2185 38.7794 37.3879 38.952 37.5029 39.0063H37.5605C37.5605 39.0637 37.5029 39.1213 37.5029 39.1789C37.5029 39.4091 38.0176 39.5819 38.0176 39.7545C38.0176 39.8089 38.0176 39.8697 37.96 39.8697C37.4452 39.8089 37.3303 39.5243 37.0999 39.1213C36.5851 38.7794 36.4702 38.0345 35.8402 37.7467C35.725 37.2896 35.4372 37.3472 35.2679 36.8865L34.7532 35.7421C34.9801 35.7997 35.1527 35.9723 35.1527 36.1992C35.4948 37.0018 36.0704 37.5198 36.4701 38.2614C36.6427 38.3223 36.6427 38.5492 36.8697 38.6066C36.5275 37.6349 35.9554 36.3718 35.0377 35.7421C35.0377 35.5693 34.9801 35.3391 34.7532 35.3391C34.6347 35.3391 34.6347 35.5693 34.6955 35.6269C34.4654 35.285 34.3501 34.9396 34.0048 34.7094L34.0624 34.5942C34.0624 34.3096 33.893 34.0795 33.6628 34.0219C33.5477 33.6223 33.0905 34.0219 32.8601 33.5647C32.6875 33.1619 32.1728 33.0502 31.8274 33.0502C30.798 34.5942 27.0152 38.207 26.4971 39.7545C26.1551 39.8089 25.9247 40.039 25.5828 40.039C25.5252 40.039 25.295 40.039 25.295 39.9239C25.295 39.8089 25.5252 39.6936 25.5828 39.5243C26.1551 38.6066 31.255 33.2769 31.255 32.5896C31.255 32.417 30.8553 32.305 30.6827 32.305C30.5099 32.2442 30.2832 32.1901 30.1069 32.1901C29.5922 32.1901 29.1351 32.305 28.6203 32.305C27.4182 32.305 26.1551 32.532 24.8952 32.532C24.6651 32.532 24.7803 32.305 24.6075 32.1325C25.007 32.0749 25.3524 31.7871 25.7554 31.7871C25.8671 31.7871 26.0975 31.8447 26.2701 31.9599C26.6155 31.9599 26.9577 32.0173 27.2996 32.0173C28.5627 32.0173 30.3373 31.9599 31.5394 31.6719C31.6004 31.6178 31.6581 31.6178 31.6581 31.5569C31.6581 31.5028 31.3701 31.4452 31.4277 31.2723C31.4277 31.0422 30.1069 29.8977 30.1069 29.5523C30.168 29.5523 30.168 29.4947 30.168 29.4947C30.168 28.865 28.1597 26.515 27.645 25.9427V25.8851C27.645 25.5397 27.3572 25.3703 27.3572 25.0826C27.3572 24.9676 27.53 24.8523 27.645 24.8523C27.8178 24.8523 27.933 25.0826 28.0447 25.1978C27.9906 25.2553 27.933 25.313 27.933 25.3703C27.933 25.6549 29.1927 27.2599 29.3044 27.2599C29.3654 27.2599 29.3655 27.0871 29.4231 27.0871C30.7403 27.8896 31.0857 29.383 31.9424 30.5274C32.8025 30.5274 34.6955 25.8851 35.7826 25.4856H35.8978C34.9225 26.9178 33.8354 28.2926 33.0329 29.8401L33.1446 29.9553C33.6628 29.7249 33.5477 29.1528 33.7745 28.98C33.893 28.8074 34.4654 28.4652 34.4654 28.2926C34.4654 28.1775 35.8978 26.3998 36.1856 25.7701C36.4702 25.4856 36.6427 25.1402 36.9305 24.7982L36.5275 24.91C36.6428 24.4528 37.6181 23.8805 38.0752 23.9381C37.5605 24.8523 36.5851 25.3703 36.1856 26.3422C35.6674 27.4325 35.0953 28.0625 34.3502 28.98V29.0376C34.3502 29.2102 34.0048 29.383 34.0048 29.5523C33.6628 30.1244 32.5723 30.7576 32.5723 31.5569C32.7451 31.6178 32.9753 31.6178 33.1446 31.6178C34.6347 31.6178 36.1856 31.2723 37.6722 31.2723C38.1904 31.2723 38.9354 31.2148 39.3925 31.4452C38.8204 31.6719 38.1904 31.7295 37.6181 31.7871Z" fill="#FBFDFD" stroke="#FBFDFD" stroke-width="1.77758" stroke-miterlimit="10"/>
<path d="M40.9672 40.9342C41.1026 40.5008 41.2213 40.0369 41.3398 39.5628C41.4548 39.4104 41.5735 39.2615 41.6852 39.1057C41.6852 39.8169 41.3093 40.3654 40.9672 40.9342ZM37.4454 46.4975C37.3878 46.7854 37.1609 46.8429 36.9306 46.9005C37.1506 46.2808 37.4352 45.6985 37.713 45.1229C38.2684 44.9129 38.7661 44.4356 39.2978 44.1511C38.7288 44.9705 38.1158 45.7594 37.4454 46.4975ZM40.5203 40.6194C40.1714 41.3574 39.7447 42.1701 39.2198 43.1759C38.7796 43.3587 38.5629 43.8158 38.2581 44.1408C38.3158 43.9715 38.3731 43.7954 38.4749 43.6904C38.9692 42.5527 39.7412 41.5878 40.5203 40.6194ZM34.1199 48.9627C33.7169 49.7076 32.1151 50.6251 31.3702 50.6251C30.5676 50.6251 29.8801 49.8802 29.0776 49.8228C28.9048 49.2505 28.2751 49.5348 27.8753 49.2505C26.9 48.5597 25.5795 47.1851 25.0071 46.1556C24.0353 44.3204 23.1749 41.9162 22.6602 39.9658C22.43 39.1633 22.43 34.5209 22.43 33.5491C22.43 30.1088 22.3148 27.4169 23.7472 24.2644C23.7472 23.5771 24.4348 23.1775 24.4348 22.6595V22.4326C24.8378 21.972 24.8378 21.2271 25.3525 20.8276C25.8672 19.1651 27.4147 18.1322 28.2174 16.5848C28.8472 16.3004 29.0235 15.4403 29.5956 15.0408C30.8519 14.2348 32.1727 13.0903 33.7779 13.0903C33.9473 13.2055 34.1199 13.3207 34.3503 13.3207C34.4653 13.3207 34.5194 13.2631 34.6381 13.2631L34.865 13.0903C35.0952 13.1479 35.3798 13.3781 35.4982 12.9754C36.5276 13.2055 37.9601 12.6908 38.5933 13.8352C40.8283 15.2677 40.1375 18.305 41.0552 20.3672C41.2281 22.2024 41.4006 24.0342 41.4548 25.9271C41.5124 28.5039 41.8545 31.0841 41.8545 33.7184C41.8545 35.8449 41.7089 37.2061 41.3533 38.459C41.1264 38.8992 40.8859 39.3259 40.6522 39.7965C40.0258 40.1384 39.9073 41.0561 39.2198 41.2831C38.7831 42.116 38.2514 43.2944 37.6417 44.4829C37.6317 44.4829 37.6249 44.4929 37.6148 44.4929C37.5436 44.4321 37.5267 44.3473 37.4826 44.2762C37.3269 44.4625 37.1778 44.6488 36.9983 44.8181C37.0863 44.9401 37.1711 45.0688 37.2761 45.1668C36.3651 46.8496 35.3052 48.4345 34.1199 48.9627ZM29.9377 51.5394C28.1631 51.5394 26.1551 50.9097 25.1256 49.4198C24.3231 48.3904 23.2325 47.4152 22.7145 46.1556C22.1998 45.5833 20.4793 38.7062 20.4793 37.6734C20.4793 37.6158 20.4793 37.3856 20.6556 37.3856C21.3397 37.3856 22.6028 41.0561 22.7145 41.5709C23.2325 43.2909 24.2043 45.1229 25.0071 46.7279C25.4675 47.5302 26.0975 48.1026 26.5581 48.9051C27.1304 49.0777 27.4147 49.7076 28.0446 49.8228C28.3324 50.3374 28.9048 50.3949 29.2469 50.7979C29.4771 50.7979 30.1103 50.9673 30.1103 51.2551C30.1103 51.3703 30.1103 51.5394 29.9377 51.5394ZM43.5782 34.1214C43.2902 34.3516 42.7755 34.6938 42.8331 35.1541V35.3235C42.3725 36.0142 42.3151 36.8133 41.8545 37.5006C41.8104 37.5752 41.7799 37.653 41.7393 37.7276C42.4471 33.8608 42.6605 29.4249 42.6605 26.9022C42.6605 24.5524 41.8545 22.26 41.6311 19.9101C41.5124 18.0781 41.4548 16.0702 40.2527 14.5802C39.0472 13.2055 37.3878 12.1761 35.4982 12.1761C35.2104 12.1761 34.9259 12.1761 34.6381 12.2304C34.4077 12.0611 34.1199 12 33.8353 12C32.9752 12 32.2844 12.6332 31.4819 12.6332C31.2584 12.6332 31.0281 12.5756 30.8519 12.5182L30.5676 12.806L31.6003 12.8636C31.6579 12.9754 31.7697 13.0903 31.7697 13.2055C31.7697 13.5475 30.7978 13.4357 30.6826 14.0081C28.8472 14.9832 26.9 17.3296 25.8096 19.0499C25.1797 20.0826 24.6074 21.3423 24.0353 22.4326C23.9776 22.4868 23.5746 23.3469 23.4629 23.3469C23.4629 23.7499 23.3442 24.0953 23.2901 24.4372C22.833 24.8943 23.1175 25.7545 22.6602 26.2148C21.9694 28.3888 21.3971 31.0841 21.3971 33.3189C21.3971 33.4917 21.2821 33.5491 21.1093 33.6067C21.0551 33.0887 20.8823 32.5164 20.9399 31.9442V31.5988C21.1703 26.4418 21.2821 22.0872 24.3231 17.6177C26.6122 14.2348 29.5347 13.7202 30.3948 12.6908C30.2255 12.6908 30.1103 12.6332 29.9377 12.6332C29.4771 12.6332 29.0235 12.8636 28.7931 13.2631C25.5251 14.35 23.9201 17.3296 22.5452 20.1978C22.3148 20.5398 22.0305 20.7699 21.9694 21.2271C21.7425 22.26 21.5699 23.2351 21.1703 24.2644C21.0551 24.6674 20.8249 25.2973 20.8249 25.6968C20.8249 26.0422 20.9975 26.3842 20.9975 26.7296C20.9975 27.1867 20.9399 27.5897 20.8249 28.0468C20.195 31.1991 20.0222 34.6361 20.0222 37.846C20.0222 40.4229 21.1703 42.7153 21.9694 45.0653C22.833 47.5878 24.665 49.65 26.6122 51.3703L28.0446 51.6005C28.3901 51.8848 28.7931 52 29.2469 52C29.8801 52 30.5101 51.7698 31.1398 51.8274H31.3702C32.1727 51.3127 33.5475 50.9673 34.1775 50.2799C34.3501 50.168 34.4653 49.7652 34.6957 49.7652C34.7498 49.7652 34.8074 49.7652 34.865 49.8228C36.0705 48.5056 37.5606 47.4152 38.6475 46.0404C39.2198 45.3531 39.5652 44.4929 40.0799 43.748C40.2527 43.5178 40.2527 43.1759 40.5405 43.0031C41.2281 41.2831 43.9778 35.7841 43.9778 34.294V34.1214H43.5782Z" stroke="#FBFDFD" stroke-width="1.77758" stroke-miterlimit="10"/>
</svg>
