<svg width="64" height="64" viewBox="0 0 64 64" fill="none" xmlns="http://www.w3.org/2000/svg">
<rect width="64" height="64" fill="#002D2B"/>
<path fill-rule="evenodd" clip-rule="evenodd" d="M48.6401 25.9457L51.8912 29.1968L51.8977 29.2033C53.3954 30.701 53.3954 33.1329 51.8977 34.6305L46.1952 40.3328C45.184 41.3376 43.4625 40.6273 43.4625 39.2001V37.9586V30.5281C43.456 30.0672 43.2769 29.6257 42.9504 29.2992C41.8562 28.2048 39.9808 28.9792 39.9808 30.5281V43.2192C39.9808 45.2672 39.2064 47.136 37.9328 48.5505L37.9456 48.5632L34.7008 51.808C33.1969 53.3119 30.7649 53.3057 29.2673 51.808L26.0224 48.5569L13.8816 36.4032L12.0832 34.5986C10.5856 33.1009 10.5856 30.6687 12.0832 29.1713L17.8176 23.4369C18.8288 22.4256 20.5505 23.1423 20.5505 24.5698V25.8753V33.3185C20.5505 33.7729 20.7296 34.2016 21.0496 34.5281C22.1313 35.6161 23.9872 34.8481 23.9872 33.312V28.8129V20.5825C23.9872 18.5344 24.7616 16.6656 26.0352 15.2512L26.0224 15.2384L29.2673 11.9936C30.7712 10.4896 33.2034 10.496 34.7008 11.9936L37.9456 15.2448L48.6401 25.9457Z" fill="#E3FBE3"/>
</svg>
