<svg width="64" height="64" viewBox="0 0 64 64" fill="none" xmlns="http://www.w3.org/2000/svg">
<rect width="64" height="64" fill="black"/>
<path d="M15 32.2559C15.0409 28.512 15.5589 25.1725 17.1446 22.0851C19.1347 18.214 22.2493 15.7014 26.4839 14.6291C29.728 13.8067 32.9835 13.7772 36.2367 14.62C39.2559 15.4038 41.7685 17.0099 43.7858 19.3635C46.3439 22.3509 47.5229 25.8994 47.8978 29.7615C48.1454 32.3013 48.0227 34.8253 47.4002 37.2924C46.1121 42.404 43.3292 46.3796 38.4017 48.6082C35.5824 49.885 32.5973 50.1758 29.5304 49.91C27.8788 49.7668 26.2726 49.4329 24.7505 48.7991C21.2111 47.3247 18.5485 44.8916 16.9219 41.393C15.8201 39.0236 15.2363 36.5223 15.0818 33.9166C15.0432 33.2578 15.0159 32.5967 15 32.2513V32.2559ZM31.5159 34.8003C28.6035 34.8003 25.691 34.8094 22.7809 34.7912C22.3356 34.7889 22.172 34.8889 22.2243 35.3592C22.4969 37.8718 23.5397 39.9686 25.4934 41.602C28.2082 43.8715 31.3387 44.4281 34.5783 43.265C38.1904 41.9701 40.3804 39.3166 40.7825 35.3728C40.8302 34.9025 40.7121 34.7867 40.2532 34.7912C37.3408 34.8094 34.4283 34.8003 31.5182 34.8003H31.5159ZM22.4197 29.1163C22.6491 29.1299 22.8127 29.1481 22.9785 29.1481C28.6671 29.1481 34.3556 29.1481 40.0442 29.1481C40.1396 29.1481 40.2555 29.1822 40.3214 29.139C40.4236 29.0708 40.5644 28.9482 40.5622 28.8528C40.5485 28.4211 40.5372 27.9804 40.4418 27.5601C40.0715 25.9335 39.3649 24.4637 38.2381 23.2255C37.0613 21.9329 35.646 20.9469 33.9467 20.5062C30.5708 19.6316 27.5743 20.3881 25.0981 22.8711C23.4124 24.5613 22.4765 26.6128 22.4219 29.114L22.4197 29.1163Z" fill="white"/>
</svg>
