<svg width="64" height="64" viewBox="0 0 64 64" fill="none" xmlns="http://www.w3.org/2000/svg">
<rect width="64" height="64" fill="black"/>
<path fill-rule="evenodd" clip-rule="evenodd" d="M14.3215 12.0588V18.1472C14.3215 18.1656 14.3301 18.183 14.3448 18.1941L30.4616 30.3549C30.483 30.3711 30.5126 30.3707 30.5336 30.354L35.4385 26.4589C35.4686 26.4351 35.4681 26.3892 35.4374 26.366L24.7553 18.2822C24.7103 18.2481 24.7344 18.1765 24.7908 18.1765H40.3394C40.347 18.1765 40.3543 18.1778 40.3613 18.1807C42.1746 18.9204 45.0189 21.2692 41.9728 24.7891C41.9701 24.7923 41.9668 24.7954 41.9634 24.7979L14.3452 45.3647C14.3302 45.3758 14.3215 45.3933 14.3215 45.4119V51.9412C14.3215 51.9737 14.3478 52 14.3803 52H41.5228C41.5258 52 41.5287 51.9998 41.5317 51.9993C43.8455 51.6414 48.3481 49.4126 49.5151 43.3837C49.7666 42.0845 49.7353 40.7374 49.3694 39.4657C48.6239 36.8748 46.799 33.4021 43.1299 31.9056C43.0814 31.8858 43.077 31.8174 43.1243 31.7951C45.3666 30.7396 49.5839 27.236 49.4685 21.1176C49.3509 14.8852 43.3466 12.4434 40.355 12.0006C40.3522 12.0002 40.3495 12 40.3466 12H14.3803C14.3478 12 14.3215 12.0264 14.3215 12.0588ZM24.9097 45.5294H40.4979C41.5274 45.2353 43.3215 44.1176 43.4391 42C43.5568 39.8824 39.8607 37 37.8509 35.8235L24.9097 45.5294Z" fill="#00FB8A"/>
</svg>
