<svg width="64" height="64" viewBox="0 0 64 64" fill="none" xmlns="http://www.w3.org/2000/svg">
<rect width="64" height="64" fill="#0A0402"/>
<path d="M11.7565 33.2336V33.236C12.8262 37.4625 16.2879 40.7411 20.9943 41.6652C19.8816 40.5015 19.5186 38.6676 20.4356 37.0797C20.4356 37.0797 28.9834 22.3728 29.3193 21.9724C29.3248 21.9653 29.3304 21.9581 29.336 21.9509C31.5201 18.9032 35.6423 16.8027 40.3329 16.8027C41.2196 16.8027 42.0848 16.8759 42.919 17.0152L42.6277 16.6729C36.3189 9.69398 24.5515 10.5321 19.5537 19.1882L12.9019 30.7088C12.3351 31.6903 11.7581 33.2257 11.7549 33.2336H11.7565Z" fill="url(#paint0_linear_506_92)"/>
<path d="M45.0743 42.8886C45.0743 41.3715 44.779 39.9093 44.2338 38.5379C43.8907 40.4028 42.4142 41.9478 40.445 41.9478H23.9464L23.453 41.9263H23.449C17.5087 41.8101 13.0028 38.1702 11.7548 33.2376V33.236C8.58368 42.2025 15.8579 51.7118 25.1101 51.7118H39.1874C40.0001 51.7118 41.4249 51.5128 41.4742 51.5072C43.7339 49.1122 45.0751 46.1273 45.0751 42.8894L45.0743 42.8886Z" fill="url(#paint1_linear_506_92)"/>
<path d="M51.1038 30.7224L44.4441 19.1874C43.9904 18.4017 42.9206 17.0184 42.919 17.016C42.0841 16.8767 41.2189 16.8035 40.333 16.8035C35.6424 16.8035 31.5201 18.904 29.336 21.9517C29.3344 21.9533 29.3336 21.9557 29.332 21.9573C31.0608 20.3391 34.029 20.589 35.3089 22.8058L43.5622 37.1012C43.5805 37.133 43.9784 37.9393 43.9784 37.9393L44.1098 38.2362C44.7354 39.6944 45.0753 41.2592 45.0753 42.8886C45.0753 46.1257 43.7341 49.1114 41.4736 51.5064C50.7528 49.8779 56.0627 39.3115 51.1038 30.7216V30.7224Z" fill="url(#paint2_linear_506_92)"/>
<defs>
<linearGradient id="paint0_linear_506_92" x1="18.3327" y1="40.2468" x2="34.606" y2="12.3198" gradientUnits="userSpaceOnUse">
<stop stop-color="#A02B23"/>
<stop offset="0.35" stop-color="#C0662F"/>
<stop offset="1" stop-color="#F4C844"/>
</linearGradient>
<linearGradient id="paint1_linear_506_92" x1="44.2314" y1="42.4882" x2="11.9641" y2="42.4699" gradientUnits="userSpaceOnUse">
<stop stop-color="#A02B23"/>
<stop offset="0.35" stop-color="#C0662F"/>
<stop offset="1" stop-color="#F4C844"/>
</linearGradient>
<linearGradient id="paint2_linear_506_92" x1="33.6342" y1="19.181" x2="49.5748" y2="46.811" gradientUnits="userSpaceOnUse">
<stop stop-color="#A02B23"/>
<stop offset="0.35" stop-color="#C0662F"/>
<stop offset="1" stop-color="#F4C844"/>
</linearGradient>
</defs>
</svg>
