<svg width="64" height="64" viewBox="0 0 64 64" fill="none" xmlns="http://www.w3.org/2000/svg">
<rect width="64" height="64" fill="black"/>
<path d="M33.5895 21.4559L35.5927 26.2951C36.1021 27.527 37.7479 27.7631 38.5809 26.7204L45.8758 17.6189C42.2773 14.1362 37.3735 11.9933 31.9673 12C21.1649 12.0101 12.2444 20.7438 12.0049 31.5495C11.9273 35.093 12.7739 38.434 14.3151 41.3462L30.5981 21.0307C31.4345 19.9879 33.0769 20.2241 33.5895 21.4559Z" fill="#F5E203"/>
<path d="M29.9641 42.8681L29.1546 38.7341C28.9387 37.6373 27.7685 37.0197 26.7433 37.4585L14.9763 42.4969C18.4972 48.2001 24.8006 52 31.991 52C41.6905 52 49.778 45.0852 51.5959 35.9129L32.3789 44.147C31.3502 44.5824 30.1799 43.9648 29.9641 42.8681Z" fill="#F5E203"/>
</svg>
