<svg width="64" height="64" viewBox="0 0 64 64" fill="none" xmlns="http://www.w3.org/2000/svg">
<rect width="64" height="64" fill="#814625"/>
<g clip-path="url(#clip0_459_59)">
<path d="M40.6011 37.8261V35.6446C41.9438 35.1841 42.9216 33.754 42.9216 32.0613C42.9216 30.3686 41.9438 28.9345 40.6011 28.478V26.2965C41.8656 25.8642 42.8086 24.5674 42.9129 23H41.3745V23.6666C41.3745 24.1796 41.0618 24.6321 40.6011 24.8583V24.5472C40.6011 24.0908 40.2013 23.7191 39.7103 23.7191H39.6321C39.1411 23.7191 38.7412 24.0908 38.7412 24.5472V24.8583C38.2806 24.6321 37.9677 24.1837 37.9677 23.6666V23H36.4295C36.5338 24.5674 37.4767 25.8642 38.7412 26.2965V28.478C37.4028 28.9345 36.4208 30.3646 36.4208 32.0613C36.4208 33.758 37.3985 35.1881 38.7412 35.6446V37.8261C37.4767 38.2584 36.5338 39.5552 36.4295 41.1226H37.9677V40.456C37.9677 39.943 38.2806 39.4904 38.7412 39.2643V39.5754C38.7412 40.0319 39.1411 40.4036 39.6321 40.4036H39.7103C40.2013 40.4036 40.6011 40.0319 40.6011 39.5754V39.2643C41.0618 39.4904 41.3745 39.9389 41.3745 40.456V41.1226H42.9129C42.8086 39.5552 41.8656 38.2584 40.6011 37.8261ZM37.9677 33.0147V31.1038C37.9677 30.5908 38.2806 30.1384 38.7412 29.9121V30.2232C38.7412 30.6797 39.1411 31.0513 39.6321 31.0513H39.7103C40.2013 31.0513 40.6011 30.6797 40.6011 30.2232V29.9121C41.0618 30.1384 41.3745 30.5868 41.3745 31.1038V33.0147C41.3745 33.5278 41.0618 33.9802 40.6011 34.2065V33.8954C40.6011 33.4389 40.2013 33.0672 39.7103 33.0672H39.6321C39.1411 33.0672 38.7412 33.4389 38.7412 33.8954V34.2065C38.285 33.9802 37.9677 33.5318 37.9677 33.0147Z" fill="#F9F4D5"/>
<path d="M50.0392 33.2208V30.8978C51.3819 30.4373 52.3597 29.0072 52.3597 27.3145C52.3597 25.6218 51.3819 24.1877 50.0392 23.7312V23H48.1837V23.7312C46.8409 24.1917 45.8633 25.6218 45.8633 27.3145C45.8633 29.0072 46.8409 30.4413 48.1837 30.8978V33.2208C46.8409 33.6813 45.8633 35.1114 45.8633 36.804C45.8633 38.4968 46.8409 39.9309 48.1837 40.3874V41.1185H50.0392V40.3874C51.3819 39.9268 52.3597 38.4968 52.3597 36.804C52.3597 35.1114 51.3819 33.6813 50.0392 33.2208ZM47.4058 28.2679V26.3571C47.4058 25.844 47.7188 25.3916 48.1794 25.1653V25.4764C48.1794 25.9329 48.5792 26.3046 49.0702 26.3046H49.1441C49.6351 26.3046 50.0348 25.9329 50.0348 25.4764V25.1653C50.4955 25.3916 50.8083 25.84 50.8083 26.3571V28.2679C50.8083 28.781 50.4955 29.2334 50.0348 29.4597V29.1486C50.0348 28.6921 49.6351 28.3204 49.1441 28.3204H49.0658C48.5749 28.3204 48.175 28.6921 48.175 29.1486V29.4597C47.7231 29.2334 47.4058 28.785 47.4058 28.2679ZM50.8127 37.7615C50.8127 38.2745 50.4999 38.727 50.0392 38.9532V38.4968C50.0392 38.0402 49.6394 37.6686 49.1485 37.6686H49.0746C48.5836 37.6686 48.1837 38.0402 48.1837 38.4968V38.9532C47.7231 38.727 47.4102 38.2786 47.4102 37.7615V35.8506C47.4102 35.3376 47.7231 34.8851 48.1837 34.6589V34.8245C48.1837 35.281 48.5836 35.6527 49.0746 35.6527H49.1528C49.6438 35.6527 50.0435 35.281 50.0435 34.8245V34.6589C50.5042 34.8851 50.8171 35.3335 50.8171 35.8506V37.7615H50.8127Z" fill="#F9F4D5"/>
<path d="M29.968 30.211C29.9506 30.1181 29.9288 30.0293 29.8941 29.9445C29.9071 29.9243 32.7924 26.1874 30.1201 23.8766C27.452 21.5659 24.3362 24.5796 24.3188 24.5957C23.8235 24.4503 23.3237 24.3614 22.8283 24.321C22.8283 24.321 22.8283 24.321 22.824 24.321C21.8072 24.1635 20.3818 24.321 20.3818 24.321C19.8908 24.3614 19.3955 24.4503 18.9044 24.5917C18.887 24.5755 15.7713 21.5618 13.1032 23.8726C10.4351 26.1834 13.3161 29.9243 13.3292 29.9404C13.2988 30.0293 13.2727 30.1181 13.2553 30.207C12.9685 31.8068 11 32.2996 11 35.0871C11 37.9271 13.0554 40.1651 17.2531 40.1651H18.9739C18.9826 40.1732 19.6475 41.054 21.0206 41.1065C21.0206 41.1065 21.3378 41.1387 22.0679 41.1145C23.5236 41.1145 24.2319 40.1813 24.2363 40.1691H25.9571C30.1547 40.1691 32.2102 37.9312 32.2102 35.0912C32.2232 32.3078 30.2547 31.8109 29.968 30.211Z" fill="#F9F4D5"/>
</g>
<defs>
<clipPath id="clip0_459_59">
<rect width="42" height="18.1622" fill="white" transform="translate(11 23)"/>
</clipPath>
</defs>
</svg>
