<svg width="64" height="64" viewBox="0 0 64 64" fill="none" xmlns="http://www.w3.org/2000/svg">
<rect width="64" height="64" fill="#040404"/>
<path d="M32.2044 22.4333C32.2044 20.9191 33.4216 19.6855 34.9157 19.6855H39.767V13H34.9157C29.7757 13 25.608 17.2241 25.608 22.4333C25.608 23.7926 25.8936 25.0847 26.4041 26.2511C22.4124 27.9612 19.7616 31.5948 19.1444 36.193C18.4233 41.2415 20.4192 46.6875 24.7659 49.3184C28.6452 51.7944 34.7109 51.6306 37.9872 48.1958V50.4761H44.7395V25.1811H34.9185C33.4244 25.1811 32.2072 23.9476 32.2072 22.4333H32.2044ZM38.1372 31.8696V38.2188C38.1372 41.7268 35.3309 44.5682 31.8726 44.5682C28.4145 44.5682 25.608 41.7237 25.608 38.2188C25.608 34.7139 28.4145 31.8696 31.8726 31.8696H38.1372Z" fill="#BFF009"/>
</svg>
