<svg width="64" height="64" viewBox="0 0 64 64" fill="none" xmlns="http://www.w3.org/2000/svg">
<rect width="64" height="64" fill="#072723"/>
<path d="M52.9986 31.4864C53.0368 34.9345 52.3153 38.2293 50.8978 41.3772C48.8737 45.8597 44.0208 49.5249 39.5894 45.6234C35.9753 42.4436 35.3048 35.988 29.8902 35.043C22.7258 34.1746 22.5534 42.4818 17.873 43.4205C12.6562 44.4805 10.9258 35.7071 11.0024 31.7227C11.079 27.7382 12.139 22.1383 16.6726 22.1383C21.8894 22.1383 22.2405 30.0369 28.8621 29.6091C35.4198 29.1622 35.5347 20.9443 39.8192 17.426C43.5163 14.3866 47.8648 16.615 50.0421 20.2738C52.0599 23.658 52.9475 27.6297 52.9921 31.4864H52.9986Z" fill="#97FCE4"/>
</svg>
