<svg width="64" height="64" viewBox="0 0 64 64" fill="none" xmlns="http://www.w3.org/2000/svg">
<rect width="64" height="64" fill="#0B0B0B"/>
<path d="M50.8299 35.4339L36.7795 14.1782C36.71 14.0753 36.5496 14.1177 36.5435 14.2418C36.5103 14.7805 36.0565 17.6527 32.8192 17.6527C30.1931 17.6527 28.9798 17.1806 26.2751 17.1806C25.3402 17.1806 24.2268 17.7103 23.6429 18.597L22.5386 20.2677L33.1096 36.2541H37.2455C38.4648 36.2541 39.6023 36.8655 40.274 37.8824L42.7972 41.705H51.3956V37.3104C51.3956 36.6446 51.199 35.9908 50.8299 35.4339ZM39.2998 26.33C37.6025 25.6429 36.2803 22.6285 36.2803 22.6285C39.7112 22.6285 42.0227 26.7174 42.0227 26.7174C42.0227 26.7174 41.0001 27.017 39.3028 26.33H39.2998Z" fill="url(#paint0_linear_264_566)"/>
<path d="M38.1138 49.8766H22.587C21.4706 49.8766 20.4328 49.3199 19.8156 48.3878L13.208 38.3909C12.4032 37.1742 12.4032 35.5973 13.208 34.3807L20.5599 23.2701H20.5629L38.1138 49.8796V49.8766Z" fill="url(#paint1_linear_264_566)"/>
<defs>
<linearGradient id="paint0_linear_264_566" x1="36.9671" y1="41.705" x2="36.9671" y2="14.1207" gradientUnits="userSpaceOnUse">
<stop stop-color="#FCB124"/>
<stop offset="1" stop-color="#F63E58"/>
</linearGradient>
<linearGradient id="paint1_linear_264_566" x1="25.3614" y1="49.8796" x2="25.3614" y2="23.264" gradientUnits="userSpaceOnUse">
<stop stop-color="#FCB124"/>
<stop offset="1" stop-color="#F63E58"/>
</linearGradient>
</defs>
</svg>
