<svg width="64" height="64" viewBox="0 0 64 64" fill="none" xmlns="http://www.w3.org/2000/svg">
<rect width="64" height="64" fill="#2539EF"/>
<path fill-rule="evenodd" clip-rule="evenodd" d="M32 52C43.598 52 53 43.0457 53 32C53 20.9543 43.598 12 32 12C20.402 12 11 20.9543 11 32C11 42.3084 19.1888 50.7953 29.709 51.8824C30.3583 51.96 31.0198 52 31.6912 52C31.739 52 31.7868 51.9998 31.8345 51.9994C31.8896 51.9998 31.9448 52 32 52ZM31.8345 51.9994C40.467 51.9261 47.4412 45.2387 47.4412 37C47.4412 28.7157 40.3896 22 31.6912 22C22.9927 22 15.9412 28.7157 15.9412 37C15.9412 44.6449 21.9462 50.954 29.709 51.8824C30.4078 51.9546 31.1169 51.9941 31.8345 51.9994Z" fill="white"/>
<path fill-rule="evenodd" clip-rule="evenodd" d="M32 52C37.799 52 42.5 47.5228 42.5 42C42.5 36.4772 37.799 32 32 32C26.201 32 21.5 36.4772 21.5 42C21.5 47.3549 25.9194 51.7267 31.4741 51.9877C31.5968 51.9958 31.7207 52 31.8456 52C31.8669 52 31.8883 51.9999 31.9095 51.9996C31.9397 51.9999 31.9698 52 32 52ZM31.9095 51.9996C34.7796 51.967 37.0956 49.7411 37.0956 47C37.0956 44.2386 34.7451 42 31.8456 42C28.9461 42 26.5956 44.2386 26.5956 47C26.5956 49.6425 28.7479 51.8062 31.4741 51.9877C31.6185 51.9945 31.7637 51.9985 31.9095 51.9996Z" fill="white"/>
</svg>
