<svg width="64" height="64" viewBox="0 0 64 64" fill="none" xmlns="http://www.w3.org/2000/svg">
<rect width="64" height="64" fill="url(#paint0_linear_170_342)"/>
<path d="M51.8626 21.0624C51.5753 20.5645 50.9352 20.4006 50.4451 20.6995L24.1203 36.7366C23.4495 35.4795 23.0693 34.0431 23.0693 32.5179C23.0693 27.5656 27.0764 23.5509 32.0196 23.5509C34.142 23.5509 36.0906 24.2931 37.6249 25.5297L32.0246 29.3811L46.5786 20.9625C46.8923 20.7815 46.9996 20.3792 46.818 20.0658C46.6272 19.7345 46.195 19.6363 45.8796 19.8532L42.3157 22.3041C39.6895 19.6465 36.0471 18 32.0196 18C24.0164 18 17.5287 24.4997 17.5287 32.5179C17.5287 35.0995 18.2021 37.5232 19.3809 39.624L12 44.1202L19.5778 39.9639C22.1086 44.1996 26.7329 47.0358 32.0196 47.0358C40.0227 47.0358 46.5103 40.536 46.5103 32.5179C46.5103 32.0653 46.5103 32.1424 46.5103 30.7842C46.5103 29.4261 47.0606 27.6885 49.0096 26.6424C49.1767 26.5527 49.2372 26.3427 49.1426 26.1779C49.0497 26.0173 48.8451 25.9618 48.6848 26.0549L31.4041 36.0508C33.3331 35.2293 34.8077 34.7297 36.7624 34.3363C40.8341 33.5168 40.9377 35.4616 39.3652 37.6553C38.3124 39.1241 35.9338 41.4831 32.0212 41.4831C28.8307 41.4831 26.0313 39.811 24.4459 37.2934L51.4679 22.4741C51.9717 22.1982 52.1499 21.5603 51.8626 21.0624Z" fill="white"/>
<defs>
<linearGradient id="paint0_linear_170_342" x1="32" y1="0" x2="32" y2="115" gradientUnits="userSpaceOnUse">
<stop stop-color="#060503"/>
<stop offset="1" stop-color="#F75B11"/>
</linearGradient>
</defs>
</svg>
