<svg width="64" height="64" viewBox="0 0 64 64" fill="none" xmlns="http://www.w3.org/2000/svg">
<rect width="64" height="64" fill="#0040FF"/>
<path d="M22.1699 26.1248C25.6022 26.1248 28.3489 28.7352 28.3489 32C28.3489 35.2638 25.6022 37.8752 22.1699 37.8752C18.7375 37.8752 15.9908 35.2638 15.9908 32C15.9908 28.7352 18.7375 26.1248 22.1699 26.1248ZM22.1699 41.6705C27.7904 41.6705 32.3388 37.3448 32.3388 32C32.3388 26.6543 27.7904 22.3295 22.1699 22.3295C16.5483 22.3295 12 26.6543 12 32C12 37.3448 16.5483 41.6705 22.1699 41.6705ZM36.4069 22.3295C36.0326 22.3295 35.7294 22.6181 35.7294 22.9743V25.5533C35.7294 25.9095 36.0326 26.1981 36.4069 26.1981H47.2543C47.6287 26.1981 47.9318 25.9095 47.9318 25.5533V22.9743C47.9318 22.6181 47.6287 22.3295 47.2543 22.3295H36.4069ZM48.6104 26.1981C48.236 26.1981 47.9318 26.4867 47.9318 26.8429V29.4248C47.9318 29.781 48.236 30.0695 48.6104 30.0695H51.3225C51.6968 30.0695 52 29.781 52 29.4248V26.8429C52 26.4867 51.6968 26.1981 51.3225 26.1981H48.6104ZM36.4069 33.9343C36.0326 33.9343 35.7294 34.2229 35.7294 34.5791V37.1571C35.7294 37.5133 36.0326 37.8019 36.4069 37.8019H39.119C39.4934 37.8019 39.7965 37.5133 39.7965 37.1571V34.5791C39.7965 34.2229 39.4934 33.9343 39.119 33.9343H36.4069ZM41.8301 30.7105C41.8301 30.3543 42.1343 30.0657 42.5086 30.0657H45.2208C45.5951 30.0657 45.8983 30.3543 45.8983 30.7105V33.2895C45.8983 33.6457 45.5951 33.9343 45.2208 33.9343H42.5086C42.1343 33.9343 41.8301 33.6457 41.8301 33.2895V30.7105ZM40.4751 37.8019C40.1007 37.8019 39.7965 38.0905 39.7965 38.4467V41.0257C39.7965 41.3819 40.1007 41.6705 40.4751 41.6705H51.3225C51.6968 41.6705 52 41.3819 52 41.0257V38.4467C52 38.0905 51.6968 37.8019 51.3225 37.8019H40.4751Z" fill="white"/>
</svg>
