<svg width="42" height="42" viewBox="0 0 42 42" fill="none" xmlns="http://www.w3.org/2000/svg">
<path d="M21.0007 4.056C21.8263 4.05339 22.6362 4.28192 23.3386 4.71573C24.0411 5.14954 24.608 5.77131 24.9754 6.51067L37.4754 31.5107C37.8146 32.1883 37.9749 32.9413 37.9411 33.6983C37.9073 34.4553 37.6805 35.1911 37.2822 35.8358C36.8839 36.4804 36.3274 37.0125 35.6656 37.3815C35.0037 37.7505 34.2585 37.9441 33.5007 37.944H8.50075C7.7431 37.9439 6.99806 37.7501 6.3364 37.381C5.67473 37.0119 5.11841 36.4798 4.72029 35.8352C4.32217 35.1906 4.09546 34.4549 4.0617 33.698C4.02794 32.9411 4.18826 32.1882 4.52741 31.5107L17.0261 6.51067C17.3935 5.77131 17.9604 5.14954 18.6629 4.71573C19.3653 4.28192 20.1752 4.05339 21.0007 4.056ZM21.0007 1C19.6081 0.999862 18.243 1.38746 17.0582 2.11937C15.8735 2.85127 14.9159 3.89859 14.2927 5.144L1.79275 30.144C1.22059 31.2875 0.950284 32.5583 1.00752 33.8357C1.06475 35.1131 1.44762 36.3546 2.11976 37.4424C2.79189 38.5302 3.73097 39.428 4.84779 40.0507C5.96461 40.6733 7.22208 41.0001 8.50075 41H33.5007C34.7793 40.9999 36.0366 40.6729 37.1532 40.0502C38.2699 39.4274 39.2088 38.5296 39.8808 37.4418C40.5527 36.3541 40.9355 35.1127 40.9927 33.8354C41.0498 32.5581 40.7795 31.2874 40.2074 30.144L27.7087 5.144C27.0856 3.89859 26.128 2.85127 24.9433 2.11937C23.7585 1.38746 22.3934 0.999862 21.0007 1Z" fill="#78D64B"/>
</svg>
