<svg width="42" height="42" viewBox="0 0 42 42" fill="none" xmlns="http://www.w3.org/2000/svg">
<path fill-rule="evenodd" clip-rule="evenodd" d="M2.43661 33.0408H8.60233V38.9842H2.43661V33.0408ZM2.43661 19.6445H8.60233V25.588H2.43661V19.6445ZM2.43661 6.31611H8.60233V12.2596H2.43661V6.31611ZM16.2809 6.43481H22.4466V12.3783H16.2809V6.43481ZM30.0724 6.43481H36.2381V12.3783H30.0724V6.43481ZM15.0495 20.5517V22.646H15.0055H14.2755H13.132V15.6851C13.132 15.6851 11.3553 15.4476 8.47038 15.4646C5.58543 15.4815 4.21331 15.3204 2.13756 16.5922C0.0618012 17.864 0.0442097 19.1866 0.0442097 22.1711C0.0442097 25.1557 0.0442097 25.6135 0.0442097 26.012C0.0442097 26.4105 0.246508 26.9615 0.994134 26.9615H4.20453C3.87909 27.3346 2.52456 28.8777 1.80334 29.768C0.976542 30.7854 0.0178223 32.8203 0.0178223 34.923C0.0178223 37.0173 0.0266183 38.662 0.149757 39.12C0.272896 39.5523 0.501581 40.4765 1.16125 40.9513C2.34866 41.7992 7.16863 41.5278 8.59353 41.2227C12.0238 40.4935 13.3519 38.925 13.308 35.4063C13.2728 32.7695 13.308 29.395 13.1145 29.0135C12.9122 28.6319 12.49 28.793 10.6429 28.793C8.79583 28.793 5.72616 28.793 5.72616 28.793L5.66459 26.9701H9.37633C10.2471 26.9701 12.1557 26.5631 13.3871 25.3846C14.2667 24.5366 14.7241 24.0704 14.9176 23.8839L15.0671 23.8414V26.1392C15.0671 26.1392 15.0319 27.0293 16.1226 27.0293C17.2132 27.0293 21.6286 27.0887 22.7192 27.0634C23.8099 27.0293 24.5312 26.9701 25.2964 26.3342C26.0527 25.6983 26.9324 24.9691 26.9764 24.3162C27.0291 23.6634 26.9764 17.0161 26.9764 16.3802C26.9764 15.7443 26.8444 15.524 25.6217 15.524C24.3992 15.524 22.6664 15.5832 21.567 15.5832C20.4587 15.5832 20.2389 15.6935 20.0014 15.2949C19.7639 14.9049 19.4122 13.7095 19.4122 13.7095H24.5752L26.0879 12.3953C26.0879 12.3953 27.0291 11.6492 27.0291 10.9963C27.0291 10.3435 27.1434 3.8573 27.1434 3.0603C27.1434 2.26331 27.1787 1.88179 26.7124 1.44088C26.2551 1 24.9269 1.1187 23.3174 1.1187C21.6989 1.1187 20.9074 1.1187 19.8167 1.1187C18.726 1.1187 17.9169 1.64437 17.4067 2.13613C16.8966 2.6279 15.0143 4.41689 15.0143 8.63078H13.132V1.4748C13.132 1.4748 11.3553 1.23739 8.47038 1.25436C5.58543 1.27131 4.29248 1.35611 2.25191 2.79747C0.220121 4.23884 0.0442097 6.52807 0.0442097 8.85122C0.0442097 11.8442 0.0442097 12.2936 0.0442097 12.692C0.0442097 13.0905 0.246508 13.6416 0.994134 13.6416C1.73296 13.6416 8.49678 13.6416 9.37633 13.6416C10.2471 13.6416 12.1557 13.2347 13.3871 12.0561C14.6185 10.8691 15.0231 10.4452 15.0231 10.4452V12.692V13.3873C15.0231 13.3873 15.0231 13.7264 15.2694 13.7095H18.2335C18.2335 13.7095 16.3512 15.7104 15.929 16.66C15.4805 17.5926 15.0759 18.0251 15.0495 20.5517ZM28.5419 19.6275C28.5419 19.6275 28.5771 23.3158 28.6387 24.9352C28.7002 26.5547 29.2016 26.9362 29.5622 26.9362H32.1217C32.1217 26.9362 28.3924 29.9715 28.5244 33.6343C28.5244 33.6343 28.5595 36.9409 28.6914 38.7214C28.8234 40.502 28.4276 41.0446 29.6149 41.1379C30.8024 41.2311 34.6284 41.6127 37.5662 40.7563C40.5039 39.9 41.5859 37.9922 41.8584 36.3982C42.1224 34.8129 41.9464 29.98 41.8936 29.3441C41.8761 29.0981 41.7704 28.9541 41.6299 28.8777C41.4099 28.7505 41.0756 28.776 40.7679 28.776C40.2752 28.776 37.2056 28.8099 35.5872 28.8099C33.9689 28.8099 34.3646 28.776 34.3646 28.2333C34.3646 27.6907 34.3646 26.9447 34.3646 26.9447H36.3524C37.1439 26.9447 39.5189 26.7497 40.4072 25.7407C41.2956 24.7232 41.9904 23.4853 41.9904 21.7641C41.9904 20.043 41.8409 17.3637 41.8409 16.5667C41.8409 15.7697 41.6561 15.6087 41.1109 15.6002C40.5654 15.5832 37.2144 15.6173 35.7807 15.6173C34.3469 15.6173 34.3469 15.6341 34.3469 15.3288C34.3469 15.0237 34.3469 13.7858 34.3469 13.7858C37.1704 13.7858 38.8944 13.7858 39.9939 12.9549C41.1812 12.0646 41.9376 9.84322 41.9729 8.5036C42.0079 7.17245 41.9024 3.0603 41.8057 2.52616C41.6914 1.8733 40.9086 1.39001 39.8619 1.22044C39.8619 1.22044 38.0499 1 35.9654 1C33.8897 1 31.4797 1.60199 30.1604 2.68724C28.8409 3.77252 28.5771 5.68021 28.5771 8.28316C28.5771 10.8861 28.6387 12.921 28.9729 13.3703C29.2279 13.7179 29.9669 13.7773 31.7964 13.7858C31.8139 13.7858 28.4892 16.855 28.5419 19.6275ZM16.2809 19.6445H22.4466V25.588H16.2809V19.6445ZM29.958 19.6445H36.1237V25.588H29.958V19.6445ZM29.958 33.117H36.1237V39.0606H29.958V33.117Z" fill="white"/>
<path fill-rule="evenodd" clip-rule="evenodd" d="M36.2378 8.31692V12.3867H30.4943L31.8048 13.0904L30.9253 13.7687C31.1891 13.7772 31.4883 13.7772 31.8136 13.7772C31.8048 13.7856 28.4801 16.855 28.5328 19.6273C28.5328 19.6273 28.5681 23.3156 28.6296 24.935C28.6913 26.5545 29.1926 26.936 29.5531 26.936H29.8083L29.949 26.6817C29.949 26.6817 29.9051 26.2408 30.0458 25.5794H29.949V19.6444H36.1148V20.17C39.2458 18.5082 40.9698 16.4394 41.5416 15.6764C41.436 15.6255 41.2953 15.6 41.1106 15.5916C40.5653 15.5746 37.2141 15.6085 35.7805 15.6085C34.3468 15.6085 34.3468 15.6255 34.3468 15.3202C34.3468 15.0151 34.3468 13.7772 34.3468 13.7772C37.1701 13.7772 38.8941 13.7772 39.9936 12.9463C41.181 12.056 41.9373 9.83459 41.9726 8.49497C41.9901 7.75732 41.9638 6.16334 41.9286 4.80676L36.2378 8.31692Z" fill="white"/>
<path fill-rule="evenodd" clip-rule="evenodd" d="M26.9581 24.2907C27.0021 23.6973 26.9668 18.1862 26.9581 16.6854C26.4479 16.6176 24.9086 16.5498 23.7653 18.1777C23.3254 18.805 22.7889 19.2714 22.1908 19.6445H22.4546V25.588H16.289V23.5446C15.5765 24.7316 15.172 26.0119 15.0752 26.3087C15.084 26.3511 15.1016 26.402 15.1192 26.4443C15.1807 26.5121 15.2687 26.6309 15.3655 26.7749C15.5238 26.9021 15.7613 26.9954 16.1131 26.9954C17.2037 26.9954 21.6191 27.0548 22.7098 27.0293C23.8004 26.9954 24.5216 26.936 25.2869 26.3001C26.0346 25.6728 26.9053 24.9436 26.9581 24.2907Z" fill="white"/>
<path fill-rule="evenodd" clip-rule="evenodd" d="M13.2986 35.3979C13.2722 33.2274 13.2898 30.5734 13.1843 29.4797C10.1146 29.9377 9.29662 31.5062 8.60177 33.5411V38.9843H4.3623V41.511C6.01588 41.5363 7.80138 41.3838 8.57538 41.2142C12.0057 40.485 13.3338 38.9165 13.2986 35.3979Z" fill="white"/>
<path fill-rule="evenodd" clip-rule="evenodd" d="M10.8364 26.7244C11.6808 26.4955 12.6395 26.063 13.3696 25.3677C14.2491 24.5199 14.7065 24.0535 14.9 23.867L15.0495 23.8247V26.1224C15.0495 26.1224 15.0495 26.2072 15.0759 26.3173C15.1638 26.0206 15.5684 24.7402 16.2897 23.5533V19.6531H22.2003C22.7985 19.2716 23.335 18.8052 23.7748 18.1863C24.9182 16.5584 26.4662 16.6178 26.9675 16.6941C26.9675 16.5414 26.9675 16.4228 26.9675 16.3635C26.9675 15.7276 26.8356 15.5071 25.613 15.5071C24.3905 15.5071 22.6578 15.5665 21.5583 15.5665C20.8195 15.5665 20.4763 15.6172 20.2565 15.524L20.4853 16.2702L16.624 17.0926L17.4771 14.532C16.9053 15.1934 16.1753 16.0921 15.9291 16.6433C15.4981 17.6014 15.1023 18.0337 15.0671 20.5518V22.6461H15.0231H14.2931H13.1497V22.0357L12.877 22.5358V24.4774L10.8364 26.7244Z" fill="white"/>
<path fill-rule="evenodd" clip-rule="evenodd" d="M40.1168 1.26282L34.6106 5.21386L36.2378 6.43478L36.2643 6.45173L36.2378 6.46868V8.30856L41.9463 4.79841C41.911 3.69618 41.867 2.74657 41.823 2.50916C41.7175 1.92414 41.049 1.46629 40.1168 1.26282Z" fill="white"/>
<path fill-rule="evenodd" clip-rule="evenodd" d="M36.2378 6.43481L34.6105 5.21389L40.1165 1.26283C40.0375 1.24588 39.9583 1.22893 39.8792 1.22044C39.8792 1.22044 38.0673 1 35.9827 1C33.907 1 31.497 1.60199 30.1775 2.68724C28.8583 3.77252 28.5945 5.68021 28.5945 8.28316C28.5945 10.8861 28.656 12.921 28.9902 13.3703C29.2013 13.6501 29.729 13.7434 30.9253 13.7688L31.8048 13.0905L30.4943 12.3868H30.072V12.1579L30.028 12.1324L30.072 12.107V6.43481H36.2378Z" fill="white"/>
<path fill-rule="evenodd" clip-rule="evenodd" d="M19.9745 15.2695C19.737 14.8795 19.385 13.684 19.385 13.684H24.548L26.061 12.3699C26.061 12.3699 27.002 11.6237 27.002 10.9709C27.002 10.5893 27.046 8.20685 27.0725 6.13806L25.8675 6.18893L22.446 8.35098V12.3783H16.2803V12.2427L16.1131 12.3529L15.0577 10.4452L15.0049 10.5639V12.6751V13.3703C15.0049 13.3703 15.0049 13.7095 15.2512 13.6925H18.2153C18.2153 13.6925 17.881 14.0486 17.4588 14.5319L16.6057 17.0925L20.467 16.2701L20.2383 15.5239C20.1327 15.4815 20.0535 15.4053 19.9745 15.2695Z" fill="white"/>
<path fill-rule="evenodd" clip-rule="evenodd" d="M13.1232 22.0353V15.6762C13.1232 15.6762 13.0001 15.6594 12.7626 15.6339L12.2788 19.2203L8.59349 22.8323V25.5878H2.42777V25.2827L2.31343 25.325L2.25185 26.529L2.04077 26.9529H3.60637L4.52992 26.4696L2.55092 29.3607L4.62667 30.4121L5.51502 26.4696L7.98659 26.9529H9.34991C9.71053 26.9529 10.2383 26.8851 10.8276 26.724L12.8418 24.4686V22.527L13.1232 22.0353Z" fill="white"/>
<path fill-rule="evenodd" clip-rule="evenodd" d="M2.43661 6.31605H8.60233V12.2596H2.43661V6.31605ZM9.35875 13.6331C10.2295 13.6331 12.1381 13.2261 13.3695 12.0476C14.6009 10.8606 15.0055 10.4367 15.0055 10.4367V10.5723L15.0583 10.4536L16.1138 12.3613L16.2809 12.2511V6.44323H22.4466V8.3594L25.8681 6.19736L27.0731 6.14648C27.0994 4.67968 27.1171 3.37396 27.1171 3.04331C27.1171 2.24632 27.1522 1.86477 26.6861 1.42389C26.2287 0.982988 24.9006 1.1017 23.2909 1.1017C21.6726 1.1017 20.8809 1.1017 19.7904 1.1017C18.6997 1.1017 17.8904 1.62738 17.3804 2.11914C16.8702 2.61089 14.9879 4.39988 14.9879 8.61377H13.1057V1.45779C13.1057 1.45779 11.3289 1.2204 8.444 1.23735C5.55905 1.25432 4.26609 1.3391 2.22551 2.78046C0.193734 4.22183 0.0178223 6.51106 0.0178223 8.83421C0.0178223 11.8272 0.0178223 12.2765 0.0178223 12.675C0.0178223 13.0735 0.220121 13.6246 0.967747 13.6246C1.72416 13.6331 8.48798 13.6331 9.35875 13.6331Z" fill="white"/>
<path fill-rule="evenodd" clip-rule="evenodd" d="M8.45205 15.4562C5.56711 15.4733 4.19499 15.3122 2.11924 16.584C0.0434704 17.8556 0.0258789 19.1784 0.0258789 22.1629C0.0258789 25.1473 0.0258789 25.6053 0.0258789 26.0037C0.0258789 26.4023 0.228178 26.9533 0.975803 26.9533H2.04886L2.25996 26.5294L2.32153 25.3254L2.43587 25.2829V19.6448H8.60158V22.8328L12.2869 19.2207L12.7707 15.6344C12.111 15.5665 10.5806 15.4394 8.45205 15.4562Z" fill="white"/>
<path fill-rule="evenodd" clip-rule="evenodd" d="M10.6251 28.7848C8.77801 28.7848 5.70834 28.7848 5.70834 28.7848L5.64677 26.9618H7.99519L5.52364 26.4785L4.63527 30.4211L2.55952 29.3698L4.53852 26.4785L3.61499 26.9618H4.1867C3.86127 27.3349 2.50675 28.8779 1.7855 29.7682C0.958719 30.7856 0 32.8205 0 34.9233C0 37.0175 0.00879527 38.6623 0.131933 39.1202C0.255072 39.5526 0.483759 40.4767 1.14343 40.9516C1.67995 41.3415 2.9817 41.4942 4.36262 41.5196V38.9931H2.42758V33.041H8.59329V33.5413C9.28815 31.5064 10.1061 29.9379 13.1758 29.4799C13.1494 29.2426 13.123 29.0815 13.0878 29.0137C12.9031 28.6236 12.4722 28.7848 10.6251 28.7848Z" fill="white"/>
</svg>
