<svg width="342" height="326" viewBox="0 0 342 326" fill="none" xmlns="http://www.w3.org/2000/svg">
<g filter="url(#filter0_bd_88_251)">
<g clip-path="url(#clip0_88_251)">
<rect x="18.4375" y="18" width="150.953" height="45.0625" rx="12" stroke="white"/>
<rect x="28.875" y="28.0312" width="25" height="25" rx="6.25" fill="white"/>
<path opacity="0.5" d="M61.8279 35.9803C61.4754 35.9803 61.2374 35.7285 61.2374 35.3715V29.8875C61.2374 29.5304 61.4754 29.2832 61.8279 29.2832H65.4808C65.8242 29.2832 66.0759 29.5212 66.0759 29.8646C66.0759 30.2079 65.8242 30.4505 65.4808 30.4505H62.423V32.103H65.1192C65.4625 32.103 65.7143 32.3456 65.7143 32.689C65.7143 33.0323 65.4625 33.2703 65.1192 33.2703H62.423V35.3715C62.423 35.7285 62.1849 35.9803 61.8279 35.9803ZM68.2915 35.9803C67.9665 35.9803 67.733 35.7377 67.733 35.3989V31.3157C67.733 30.9769 67.9665 30.7389 68.2915 30.7389C68.6165 30.7389 68.85 30.9769 68.85 31.3157V31.4988C69.2253 30.9907 69.8571 30.7023 70.6581 30.7023C71.3814 30.7023 71.8804 30.9495 72.2512 31.2745C72.48 31.4438 72.5807 31.6361 72.5807 31.8925C72.5807 32.2266 72.3198 32.4372 72.0269 32.4372C71.8163 32.4372 71.6378 32.3548 71.4638 32.2083C71.1983 31.9474 70.8824 31.7368 70.3377 31.7368C69.4359 31.7368 68.85 32.3136 68.85 33.2017V35.3989C68.85 35.7422 68.6165 35.9803 68.2915 35.9803ZM76.6045 36.0123C75.0481 36.0123 73.9266 34.9503 73.9266 33.3573C73.9266 31.7597 75.0481 30.7023 76.6045 30.7023C78.1609 30.7023 79.2824 31.7597 79.2824 33.3573C79.2824 34.9503 78.1609 36.0123 76.6045 36.0123ZM75.0756 33.3573C75.0756 34.3232 75.7119 34.9778 76.6045 34.9778C77.4971 34.9778 78.1334 34.3232 78.1334 33.3573C78.1334 32.3914 77.4971 31.7368 76.6045 31.7368C75.7119 31.7368 75.0756 32.3914 75.0756 33.3573ZM85.4119 35.9803C85.1143 35.9803 84.8992 35.7377 84.8992 35.4127V32.9545C84.8992 32.1992 84.7115 31.7963 84.3544 31.7963C83.9699 31.7963 83.7319 32.2632 83.7319 33.014V35.4127C83.7319 35.7377 83.5121 35.9803 83.2192 35.9803C82.9216 35.9803 82.7065 35.7377 82.7065 35.4127V32.9545C82.7065 32.1992 82.5188 31.7963 82.1617 31.7963C81.7818 31.7963 81.5438 32.2632 81.5438 33.014V35.4127C81.5438 35.7422 81.3286 35.9803 81.0311 35.9803C80.7289 35.9803 80.5138 35.7422 80.5138 35.4127V31.3019C80.5138 30.9724 80.7289 30.7343 81.0311 30.7343C81.3286 30.7343 81.5438 30.9724 81.5438 31.3019V31.3935C81.7589 30.9495 82.1114 30.7023 82.5508 30.7023C83.0132 30.7023 83.3657 31.0364 83.5579 31.6224C83.796 31.0044 84.1622 30.7023 84.6749 30.7023C85.4851 30.7023 85.9246 31.453 85.9246 32.8538V35.4127C85.9246 35.7377 85.7048 35.9803 85.4119 35.9803Z" fill="white"/>
<path d="M62.2612 49.1875C61.7913 49.1875 61.48 48.8518 61.48 48.3757V41.2041C61.48 40.728 61.7913 40.3984 62.2612 40.3984H66.9426C67.4004 40.3984 67.73 40.7158 67.73 41.1736C67.73 41.6313 67.4004 41.9548 66.9426 41.9548H63.0486V44.0056H66.5398C66.967 44.0056 67.2905 44.3169 67.2905 44.7441C67.2905 45.1775 66.9609 45.4766 66.5398 45.4766H63.0486V47.6311H66.967C67.4187 47.6311 67.7544 47.9485 67.7544 48.4062C67.7544 48.864 67.4187 49.1875 66.967 49.1875H62.2612ZM74.3096 49.3706C72.8691 49.3706 71.7583 48.3635 71.7583 47.0085V43.8225H70.2324C69.8113 43.8225 69.5 43.5417 69.5 43.145C69.5 42.7544 69.8113 42.4736 70.2324 42.4736H71.7583V41.259C71.7583 40.8074 72.0818 40.49 72.5273 40.49C72.9729 40.49 73.2842 40.8074 73.2842 41.259V42.4736H75.8782C76.2993 42.4736 76.6106 42.7544 76.6106 43.145C76.6106 43.5417 76.2993 43.8225 75.8782 43.8225H73.2842V46.8254C73.2842 47.4907 73.7297 47.9424 74.4805 47.9424C74.9321 47.9424 75.3044 47.7898 75.634 47.5945C75.8171 47.4907 76.0002 47.3809 76.2383 47.3809C76.5984 47.3809 76.8486 47.6311 76.8486 47.9851C76.8486 48.2598 76.6838 48.5283 76.3909 48.7603C75.9087 49.1326 75.1152 49.3706 74.3096 49.3706ZM79.5647 49.3157C79.1252 49.3157 78.8201 48.9983 78.8201 48.5466V41.021C78.8201 40.5693 79.1252 40.252 79.5647 40.252C80.0042 40.252 80.3093 40.5693 80.3093 41.021V43.2549C80.7427 42.6323 81.53 42.2905 82.4944 42.2905C84.1973 42.2905 85.3203 43.322 85.3203 45.1592V48.5527C85.3203 48.9983 85.0029 49.3279 84.5757 49.3279C84.1423 49.3279 83.8311 48.9922 83.8311 48.5527V45.4216C83.8311 44.2314 83.1902 43.6577 82.1587 43.6577C81.0112 43.6577 80.3093 44.4084 80.3093 45.5254V48.5466C80.3093 48.9983 80.0042 49.3157 79.5647 49.3157ZM91.1309 49.3584C88.9519 49.3584 87.5359 47.9668 87.5359 45.8245C87.5359 43.7004 88.9275 42.2844 90.9417 42.2844C92.8765 42.2844 94.2314 43.5784 94.2314 45.3972C94.2314 45.9648 93.9629 46.2395 93.438 46.2395H89.0312C89.1289 47.2954 89.9651 47.9668 91.1919 47.9668C91.8999 47.9668 92.4004 47.7532 92.8154 47.3442C93.0291 47.1733 93.2305 47.0574 93.4746 47.0574C93.8652 47.0574 94.0544 47.2954 94.0544 47.6555C94.0544 47.8691 93.9568 48.0645 93.8347 48.2476C93.3159 48.98 92.2112 49.3584 91.1309 49.3584ZM89.0435 45.031H92.7483C92.6079 44.1155 91.9548 43.5173 90.8989 43.5173C89.8857 43.5173 89.1716 44.1216 89.0435 45.031ZM97.3809 49.3279C96.9475 49.3279 96.6362 49.0044 96.6362 48.5527V43.1084C96.6362 42.6567 96.9475 42.3394 97.3809 42.3394C97.8142 42.3394 98.1255 42.6567 98.1255 43.1084V43.3525C98.626 42.675 99.4683 42.2905 100.536 42.2905C101.501 42.2905 102.166 42.6201 102.66 43.0535C102.966 43.2793 103.1 43.5356 103.1 43.8774C103.1 44.323 102.752 44.6038 102.361 44.6038C102.081 44.6038 101.843 44.4939 101.611 44.2986C101.257 43.9507 100.835 43.6699 100.109 43.6699C98.9067 43.6699 98.1255 44.439 98.1255 45.623V48.5527C98.1255 49.0105 97.8142 49.3279 97.3809 49.3279ZM108.709 49.3584C106.53 49.3584 105.114 47.9668 105.114 45.8245C105.114 43.7004 106.506 42.2844 108.52 42.2844C110.455 42.2844 111.81 43.5784 111.81 45.3972C111.81 45.9648 111.541 46.2395 111.016 46.2395H106.609C106.707 47.2954 107.543 47.9668 108.77 47.9668C109.478 47.9668 109.979 47.7532 110.394 47.3442C110.607 47.1733 110.809 47.0574 111.053 47.0574C111.443 47.0574 111.633 47.2954 111.633 47.6555C111.633 47.8691 111.535 48.0645 111.413 48.2476C110.894 48.98 109.789 49.3584 108.709 49.3584ZM106.622 45.031H110.326C110.186 44.1155 109.533 43.5173 108.477 43.5173C107.464 43.5173 106.75 44.1216 106.622 45.031ZM114.776 42.3333C115.215 42.3333 115.521 42.6689 115.521 43.1023V46.2395C115.521 47.4297 116.161 48.0034 117.193 48.0034C118.34 48.0034 119.048 47.2466 119.048 46.1357V43.1084C119.048 42.6506 119.354 42.3333 119.787 42.3333C120.226 42.3333 120.538 42.6567 120.538 43.1084V48.5527C120.538 49.0044 120.226 49.3279 119.787 49.3279C119.354 49.3279 119.048 49.0044 119.048 48.5527V48.4001C118.615 49.0288 117.828 49.3706 116.863 49.3706C115.154 49.3706 114.031 48.3391 114.031 46.4958V43.1023C114.031 42.6628 114.349 42.3333 114.776 42.3333ZM128.997 49.3279C128.6 49.3279 128.313 49.0044 128.313 48.571V45.2935C128.313 44.2864 128.063 43.7493 127.587 43.7493C127.074 43.7493 126.757 44.3718 126.757 45.3728V48.571C126.757 49.0044 126.464 49.3279 126.073 49.3279C125.677 49.3279 125.39 49.0044 125.39 48.571V45.2935C125.39 44.2864 125.14 43.7493 124.664 43.7493C124.157 43.7493 123.84 44.3718 123.84 45.3728V48.571C123.84 49.0105 123.553 49.3279 123.156 49.3279C122.753 49.3279 122.466 49.0105 122.466 48.571V43.0901C122.466 42.6506 122.753 42.3333 123.156 42.3333C123.553 42.3333 123.84 42.6506 123.84 43.0901V43.2122C124.126 42.6201 124.596 42.2905 125.182 42.2905C125.799 42.2905 126.269 42.7361 126.525 43.5173C126.843 42.6934 127.331 42.2905 128.014 42.2905C129.095 42.2905 129.681 43.2915 129.681 45.1592V48.571C129.681 49.0044 129.388 49.3279 128.997 49.3279Z" fill="white"/>
<rect x="172.734" y="18" width="150.953" height="45.0625" rx="12" stroke="white"/>
<path opacity="0.5" d="M271.296 35.9803C270.943 35.9803 270.705 35.7285 270.705 35.3715V30.4505H268.975C268.632 30.4505 268.38 30.2079 268.38 29.8646C268.38 29.5212 268.632 29.2832 268.975 29.2832H273.617C273.96 29.2832 274.212 29.5212 274.212 29.8646C274.212 30.2079 273.96 30.4505 273.617 30.4505H271.886V35.3715C271.886 35.7285 271.648 35.9803 271.296 35.9803ZM277.888 36.0123C276.331 36.0123 275.21 34.9503 275.21 33.3573C275.21 31.7597 276.331 30.7023 277.888 30.7023C279.444 30.7023 280.566 31.7597 280.566 33.3573C280.566 34.9503 279.444 36.0123 277.888 36.0123ZM276.359 33.3573C276.359 34.3232 276.995 34.9778 277.888 34.9778C278.78 34.9778 279.417 34.3232 279.417 33.3573C279.417 32.3914 278.78 31.7368 277.888 31.7368C276.995 31.7368 276.359 32.3914 276.359 33.3573Z" fill="white"/>
<path d="M247.923 49.1875C247.459 49.1875 247.147 48.8518 247.147 48.3818V41.2041C247.147 40.7341 247.459 40.3984 247.923 40.3984H250.785C252.549 40.3984 253.678 41.3628 253.678 42.8887C253.678 43.7188 253.239 44.3535 252.47 44.7075C253.269 45.0615 253.739 45.7268 253.739 46.5874C253.739 48.1438 252.598 49.1875 250.81 49.1875H247.923ZM248.716 47.6677H250.761C251.597 47.6677 252.091 47.2405 252.091 46.4958C252.091 45.7878 251.615 45.3545 250.761 45.3545H248.716V47.6677ZM248.716 44.0483H250.718C251.56 44.0483 252.03 43.6516 252.03 43.0107C252.03 42.3271 251.548 41.9182 250.718 41.9182H248.716V44.0483ZM258.323 49.3523C256.876 49.3523 255.924 48.5894 255.924 47.4053C255.924 46.3616 256.583 45.7085 257.945 45.4216L259.507 45.092C260.087 44.9761 260.258 44.8235 260.258 44.4634C260.258 43.9263 259.788 43.5967 259 43.5967C258.311 43.5967 257.682 43.8835 257.273 44.3352C256.986 44.6038 256.791 44.7319 256.535 44.7319C256.168 44.7319 255.912 44.5061 255.912 44.1643C255.912 43.908 256.034 43.6516 256.229 43.4258C256.84 42.7056 257.829 42.2905 259.007 42.2905C260.764 42.2905 261.771 43.0962 261.771 44.5977V47.4236C261.771 47.6738 261.857 47.8997 262.162 47.8997C262.327 47.8997 262.437 47.8264 262.528 47.7043C262.632 47.5945 262.724 47.5396 262.864 47.5396C263.126 47.5396 263.303 47.7593 263.303 48.0522C263.303 48.3086 263.224 48.5161 263.053 48.7358C262.797 49.0837 262.309 49.3218 261.82 49.3218C261.186 49.3218 260.697 49.0105 260.447 48.4856C259.971 49.0349 259.214 49.3523 258.323 49.3523ZM257.523 47.3015C257.523 47.7837 257.993 48.1072 258.689 48.1072C259.586 48.1072 260.264 47.5151 260.264 46.7339V45.9099C260.105 46.0442 259.861 46.1479 259.495 46.2212L258.671 46.3799C257.884 46.5386 257.523 46.8315 257.523 47.3015ZM268.046 49.3706C266.923 49.3706 265.873 49.0288 265.22 48.4185C264.903 48.1316 264.683 47.8569 264.683 47.5762C264.683 47.2039 264.933 46.9597 265.312 46.9597C265.574 46.9597 265.818 47.1245 266.172 47.4114C266.685 47.8264 267.332 48.1133 268.18 48.1133C269.145 48.1133 269.688 47.8325 269.688 47.332C269.688 46.8743 269.273 46.5996 268.528 46.4775L267.259 46.27C265.733 46.0198 264.933 45.3484 264.933 44.3291C264.933 43.0657 266.111 42.2905 268.015 42.2905C269.077 42.2905 269.853 42.5225 270.426 42.8826C270.89 43.1816 271.189 43.5845 271.189 43.9202C271.189 44.262 270.933 44.5122 270.567 44.5122C270.304 44.5122 270.03 44.2864 269.688 44.03C269.309 43.7493 268.711 43.5112 267.973 43.5112C267.057 43.5112 266.508 43.7798 266.508 44.2314C266.508 44.6282 266.923 44.8845 267.729 45.0127L269.041 45.2263C270.53 45.4766 271.269 46.1357 271.269 47.1917C271.269 48.5527 270.06 49.3706 268.046 49.3706ZM277.006 49.3584C274.827 49.3584 273.411 47.9668 273.411 45.8245C273.411 43.7004 274.802 42.2844 276.817 42.2844C278.751 42.2844 280.106 43.5784 280.106 45.3972C280.106 45.9648 279.838 46.2395 279.313 46.2395H274.906C275.004 47.2954 275.84 47.9668 277.067 47.9668C277.775 47.9668 278.275 47.7532 278.69 47.3442C278.904 47.1733 279.105 47.0574 279.35 47.0574C279.74 47.0574 279.929 47.2954 279.929 47.6555C279.929 47.8691 279.832 48.0645 279.71 48.2476C279.191 48.98 278.086 49.3584 277.006 49.3584ZM274.918 45.031H278.623C278.483 44.1155 277.83 43.5173 276.774 43.5173C275.761 43.5173 275.047 44.1216 274.918 45.031Z" fill="white"/>
<rect x="288.25" y="28.0312" width="25" height="25" rx="6.25" fill="white"/>
<rect x="18.4375" y="69.1924" width="305.25" height="69.0625" rx="8.875" stroke="white"/>
<path d="M34.2552 103.067C33.1017 103.067 32.2502 102.518 32.2502 100.898C32.2502 97.8489 34.3376 95.7615 39.5287 93.5367C43.4426 91.8339 44.4451 90.7902 44.4451 89.0598C44.4451 87.4943 42.9344 86.1622 40.49 86.1622C38.0043 86.1622 36.274 87.4531 35.5873 89.4993C35.2578 90.1722 34.6398 90.5155 34.0081 90.5155C32.9644 90.5155 32.3601 89.8701 32.3601 88.8401C32.3601 87.8925 32.7721 86.9999 33.3489 86.1347C34.681 84.1022 37.3864 82.88 40.4488 82.88C45.0081 82.88 48.0156 85.1597 48.0156 89.0735C48.0156 92.4656 46.1068 94.2921 41.6298 96.0911C38.2515 97.5056 36.9606 98.3982 36.6997 99.6891H46.6698C47.686 99.6891 48.3864 100.376 48.3864 101.392C48.3864 102.394 47.686 103.067 46.6698 103.067H34.2552ZM60.1143 103.383C58.7685 103.383 57.7248 102.326 57.7248 100.994C57.7248 99.6616 58.7685 98.6454 60.1143 98.6454C61.4464 98.6454 62.4764 99.6616 62.4764 100.994C62.4764 102.326 61.4464 103.383 60.1143 103.383ZM74.218 103.067C73.2704 103.067 72.5701 102.367 72.5701 101.378C72.5701 100.389 73.2704 99.7028 74.218 99.7028H78.4752V88.332C77.5414 89.6778 75.5776 90.5292 73.8747 90.5292C72.9409 90.5292 72.2954 89.8289 72.2954 88.9362C72.2954 88.1397 72.7486 87.6179 73.5588 87.2333C75.4814 86.739 77.5551 85.3657 78.2555 83.9924C78.8185 83.4019 79.2855 82.9761 80.2468 82.9761C81.4278 82.9761 81.9496 83.7177 81.9496 84.8987V99.7028H86.1794C87.127 99.7028 87.8273 100.389 87.8273 101.378C87.8273 102.367 87.127 103.067 86.1794 103.067H74.218ZM99.6514 103.479C94.8723 103.479 91.549 101.131 91.549 97.6703C91.549 95.2671 92.9222 93.3307 95.2294 92.6716C93.2244 92.0536 92.0296 90.3644 92.0296 88.3182C92.0296 85.0086 95.0783 82.88 99.6514 82.88C104.211 82.88 107.273 85.0086 107.273 88.3182C107.273 90.3644 106.078 92.0536 104.06 92.6716C106.38 93.3307 107.754 95.2808 107.754 97.6703C107.754 101.131 104.417 103.479 99.6514 103.479ZM95.2843 97.3545C95.2843 99.2222 97.0696 100.458 99.6514 100.458C102.219 100.458 104.018 99.2222 104.018 97.3545C104.018 95.3495 102.288 94.1135 99.6514 94.1135C97.0009 94.1135 95.2843 95.3495 95.2843 97.3545ZM95.7238 88.5792C95.7238 90.2683 97.2481 91.312 99.6514 91.312C102.041 91.312 103.565 90.2683 103.565 88.5792C103.565 86.89 101.972 85.8051 99.6514 85.8051C97.3168 85.8051 95.7238 86.89 95.7238 88.5792Z" fill="white"/>
<rect x="235.812" y="81.9424" width="75.375" height="24.25" rx="12.125" stroke="white"/>
<rect x="241.562" y="86.5674" width="15" height="15" rx="7.5" fill="white"/>
<path d="M262.14 98.5674C261.67 98.5674 261.359 98.2317 261.359 97.7556V90.584C261.359 90.1079 261.67 89.7783 262.14 89.7783H266.822C267.279 89.7783 267.609 90.0957 267.609 90.5535C267.609 91.0112 267.279 91.3347 266.822 91.3347H262.927V93.3855H266.419C266.846 93.3855 267.169 93.6968 267.169 94.124C267.169 94.5574 266.84 94.8564 266.419 94.8564H262.927V97.011H266.846C267.298 97.011 267.633 97.3284 267.633 97.7861C267.633 98.2439 267.298 98.5674 266.846 98.5674H262.14ZM273.188 98.7078C272.718 98.7078 272.4 98.3721 272.4 97.896V91.3347H270.093C269.635 91.3347 269.3 91.0112 269.3 90.5535C269.3 90.0957 269.635 89.7783 270.093 89.7783H276.282C276.74 89.7783 277.075 90.0957 277.075 90.5535C277.075 91.0112 276.74 91.3347 276.282 91.3347H273.975V97.896C273.975 98.3721 273.657 98.7078 273.188 98.7078ZM284.662 98.7078C284.198 98.7078 283.881 98.3721 283.881 97.896V94.887H280.072V97.896C280.072 98.3721 279.755 98.7078 279.285 98.7078C278.821 98.7078 278.504 98.3721 278.504 97.896V90.4436C278.504 89.9675 278.821 89.6379 279.285 89.6379C279.755 89.6379 280.072 89.9675 280.072 90.4436V93.3855H283.881V90.4436C283.881 89.9736 284.198 89.6379 284.662 89.6379C285.132 89.6379 285.449 89.9675 285.449 90.4436V97.896C285.449 98.3721 285.132 98.7078 284.662 98.7078Z" fill="white"/>
<g opacity="0.9">
<g clip-path="url(#clip1_88_251)">
<path d="M302.287 93.2959C302.21 93.4608 302.093 93.6051 301.94 93.7376L299.231 96.0637C298.951 96.2963 298.677 96.4111 298.409 96.4111C298.141 96.4111 297.856 96.2963 297.588 96.0637L294.879 93.7376C294.72 93.6081 294.599 93.4608 294.523 93.2959C294.446 93.134 294.408 92.9632 294.408 92.7836C294.408 92.604 294.458 92.4332 294.558 92.2713C294.658 92.1064 294.793 91.9769 294.964 91.8738C295.135 91.7737 295.318 91.7236 295.512 91.7236C295.803 91.7236 296.08 91.8355 296.342 92.0622L298.409 93.8642L300.467 92.0622C300.735 91.8355 301.015 91.7236 301.306 91.7236C301.498 91.7236 301.677 91.7737 301.845 91.8738C302.016 91.9739 302.149 92.1064 302.252 92.2713C302.352 92.4332 302.402 92.604 302.402 92.7836C302.402 92.9632 302.364 93.134 302.287 93.2959Z" fill="white"/>
</g>
</g>
<g opacity="0.5">
<path d="M33.0223 116.648C33.0223 116.334 33.2405 116.111 33.5427 116.111C33.849 116.111 34.063 116.329 34.063 116.648V117.106C34.5539 117.19 34.9442 117.37 35.2463 117.567C35.6366 117.815 35.8631 118.213 35.8631 118.553C35.8631 118.851 35.6869 119.082 35.3848 119.082C35.196 119.082 35.0617 118.998 34.8896 118.847C34.6001 118.406 34.1301 118.075 33.3874 118.075C32.7664 118.075 32.3384 118.327 32.3384 118.784C32.3384 119.271 32.6824 119.405 33.2196 119.523L34.2812 119.762C35.1372 119.955 35.8715 120.328 35.8715 121.461C35.8715 122.485 35.1666 123.169 34.063 123.32V123.757C34.063 124.075 33.849 124.294 33.5427 124.294C33.2405 124.294 33.0223 124.071 33.0223 123.757V123.32C32.4265 123.249 31.9943 123.064 31.625 122.796C31.2599 122.527 31.0166 122.124 31.0166 121.768C31.0166 121.47 31.239 121.235 31.5285 121.235C31.6754 121.235 31.8138 121.306 31.9271 121.44C32.3342 122.019 32.8083 122.321 33.6518 122.321C34.3399 122.321 34.7386 122.036 34.7386 121.554C34.7386 121.092 34.4071 120.895 33.9455 120.798L32.8419 120.572C31.8222 120.362 31.197 119.9 31.197 118.872C31.197 117.89 31.902 117.223 33.0223 117.085V116.648ZM39.5882 123.361C38.6132 123.361 37.835 123.013 37.4871 122.528C37.3406 122.326 37.2307 122.075 37.2307 121.832C37.2307 121.516 37.4413 121.296 37.7617 121.296C37.9631 121.296 38.0913 121.383 38.2607 121.553C38.485 121.942 38.9656 122.226 39.7209 122.226C40.4763 122.226 41.0485 121.736 41.0485 121.04C41.0485 120.308 40.5541 119.864 39.7896 119.864C39.3639 119.864 38.9977 119.992 38.691 120.166C38.4987 120.262 38.3385 120.317 38.1371 120.317C37.7709 120.317 37.5695 120.051 37.5695 119.667C37.5695 119.584 37.5832 119.488 37.5878 119.433L37.7983 117.163C37.8258 116.824 38.0776 116.632 38.3843 116.632H41.3826C41.7214 116.632 41.9503 116.861 41.9503 117.195C41.9503 117.534 41.7214 117.753 41.3826 117.753H38.8832L38.7368 119.209C39.1487 118.966 39.5836 118.866 40.0368 118.866C41.346 118.866 42.2295 119.717 42.2295 121.031C42.2295 122.45 41.1354 123.361 39.5882 123.361ZM46.3677 123.361C44.7289 123.361 43.6806 122.024 43.6806 119.928C43.6806 117.827 44.7289 116.495 46.3677 116.495C48.011 116.495 49.0547 117.827 49.0547 119.928C49.0547 122.024 48.011 123.361 46.3677 123.361ZM44.912 119.928C44.912 121.434 45.4521 122.217 46.3677 122.217C47.2832 122.217 47.8234 121.434 47.8234 119.928C47.8234 118.417 47.2832 117.634 46.3677 117.634C45.4521 117.634 44.912 118.422 44.912 119.928ZM52.9595 123.361C51.3207 123.361 50.2724 122.024 50.2724 119.928C50.2724 117.827 51.3207 116.495 52.9595 116.495C54.6028 116.495 55.6465 117.827 55.6465 119.928C55.6465 122.024 54.6028 123.361 52.9595 123.361ZM51.5038 119.928C51.5038 121.434 52.0439 122.217 52.9595 122.217C53.875 122.217 54.4152 121.434 54.4152 119.928C54.4152 118.417 53.875 117.634 52.9595 117.634C52.0439 117.634 51.5038 118.422 51.5038 119.928Z" fill="white"/>
</g>
<path opacity="0.5" d="M161.181 122.324C160.865 122.324 160.627 122.077 160.627 121.725V120.745H157.62C157.263 120.745 157.043 120.512 157.043 120.223C157.043 120.026 157.134 119.866 157.23 119.747L160.362 115.971C160.572 115.714 160.778 115.531 161.076 115.531C161.488 115.531 161.712 115.82 161.712 116.204V119.688H162.261C162.6 119.688 162.829 119.912 162.829 120.228C162.829 120.521 162.6 120.745 162.257 120.745H161.712V121.725C161.712 122.077 161.474 122.324 161.181 122.324ZM158.595 119.688H160.627V117.202L158.595 119.688ZM164.536 122.224C164.152 122.224 163.868 122.041 163.868 121.5C163.868 120.484 164.564 119.788 166.294 119.047C167.599 118.479 167.933 118.131 167.933 117.554C167.933 117.033 167.429 116.589 166.615 116.589C165.786 116.589 165.209 117.019 164.98 117.701C164.871 117.925 164.665 118.04 164.454 118.04C164.106 118.04 163.905 117.825 163.905 117.481C163.905 117.165 164.042 116.868 164.234 116.579C164.678 115.902 165.58 115.495 166.601 115.495C168.121 115.495 169.123 116.254 169.123 117.559C169.123 118.69 168.487 119.299 166.995 119.898C165.868 120.37 165.438 120.667 165.351 121.098H168.675C169.013 121.098 169.247 121.326 169.247 121.665C169.247 121.999 169.013 122.224 168.675 122.224H164.536ZM173.156 122.329C172.707 122.329 172.36 121.976 172.36 121.532C172.36 121.088 172.707 120.75 173.156 120.75C173.6 120.75 173.943 121.088 173.943 121.532C173.943 121.976 173.6 122.329 173.156 122.329ZM179.743 122.361C178.104 122.361 177.056 121.024 177.056 118.928C177.056 116.827 178.104 115.495 179.743 115.495C181.387 115.495 182.43 116.827 182.43 118.928C182.43 121.024 181.387 122.361 179.743 122.361ZM178.288 118.928C178.288 120.434 178.828 121.217 179.743 121.217C180.659 121.217 181.199 120.434 181.199 118.928C181.199 117.417 180.659 116.634 179.743 116.634C178.828 116.634 178.288 117.422 178.288 118.928ZM186.665 115.495C187.507 115.495 188.18 115.755 188.578 116.149C188.761 116.328 188.871 116.538 188.871 116.763C188.871 117.078 188.651 117.284 188.363 117.284C188.171 117.284 188.038 117.216 187.873 117.101C187.548 116.817 187.136 116.666 186.578 116.666C185.731 116.666 184.893 117.266 184.893 118.484C185.227 117.966 185.809 117.701 186.596 117.701C187.969 117.701 188.995 118.644 188.995 119.976C188.995 121.381 187.937 122.361 186.385 122.361C184.683 122.361 183.68 121.249 183.68 119.289C183.68 116.625 184.866 115.495 186.665 115.495ZM184.985 120.017C184.985 120.791 185.543 121.317 186.376 121.317C187.214 121.317 187.786 120.786 187.786 120.017C187.786 119.253 187.223 118.731 186.404 118.731C185.552 118.731 184.985 119.248 184.985 120.017ZM192.597 122.361C191.755 122.361 191.087 122.1 190.688 121.706C190.505 121.523 190.391 121.313 190.391 121.088C190.391 120.777 190.611 120.571 190.899 120.571C191.096 120.571 191.229 120.64 191.389 120.754C191.714 121.033 192.126 121.189 192.689 121.189C193.536 121.189 194.369 120.585 194.369 119.367C194.035 119.884 193.453 120.155 192.666 120.155C191.293 120.155 190.272 119.212 190.272 117.879C190.272 116.47 191.325 115.495 192.877 115.495C194.579 115.495 195.586 116.607 195.586 118.566C195.586 121.226 194.396 122.361 192.597 122.361ZM191.48 117.838C191.48 118.603 192.043 119.125 192.863 119.125C193.714 119.125 194.277 118.603 194.277 117.838C194.277 117.06 193.719 116.538 192.886 116.538C192.053 116.538 191.48 117.069 191.48 117.838ZM204.417 122.224C204.064 122.224 203.831 121.972 203.831 121.615V116.236C203.831 115.879 204.064 115.632 204.417 115.632H207.928C208.271 115.632 208.518 115.87 208.518 116.213C208.518 116.557 208.271 116.799 207.928 116.799H205.007V118.337H207.626C207.946 118.337 208.189 118.571 208.189 118.891C208.189 119.216 207.942 119.44 207.626 119.44H205.007V121.056H207.946C208.285 121.056 208.537 121.294 208.537 121.638C208.537 121.981 208.285 122.224 207.946 122.224H204.417ZM212.702 122.329C212.35 122.329 212.112 122.077 212.112 121.72V116.799H210.381C210.038 116.799 209.786 116.557 209.786 116.213C209.786 115.87 210.038 115.632 210.381 115.632H215.023C215.366 115.632 215.618 115.87 215.618 116.213C215.618 116.557 215.366 116.799 215.023 116.799H213.293V121.72C213.293 122.077 213.055 122.329 212.702 122.329ZM221.308 122.329C220.96 122.329 220.722 122.077 220.722 121.72V119.463H217.866V121.72C217.866 122.077 217.628 122.329 217.275 122.329C216.927 122.329 216.689 122.077 216.689 121.72V116.131C216.689 115.774 216.927 115.527 217.275 115.527C217.628 115.527 217.866 115.774 217.866 116.131V118.337H220.722V116.131C220.722 115.778 220.96 115.527 221.308 115.527C221.661 115.527 221.899 115.774 221.899 116.131V121.72C221.899 122.077 221.661 122.329 221.308 122.329ZM230.033 122.343C229.74 122.343 229.479 122.091 229.479 121.784C229.479 121.688 229.507 121.546 229.557 121.395L231.374 116.428C231.59 115.815 231.887 115.495 232.478 115.495C233.064 115.495 233.366 115.806 233.581 116.428L235.398 121.391C235.453 121.551 235.476 121.688 235.476 121.784C235.476 122.091 235.215 122.343 234.922 122.343C234.634 122.343 234.432 122.214 234.345 121.958L233.901 120.695H231.054L230.61 121.958C230.523 122.214 230.322 122.343 230.033 122.343ZM231.448 119.569H233.508L232.478 116.63L231.448 119.569ZM239.069 122.361C238.538 122.361 238.291 122.008 238.122 121.633L236.396 117.815C236.355 117.724 236.341 117.623 236.341 117.573C236.341 117.252 236.62 117.06 236.904 117.06C237.156 117.06 237.335 117.207 237.449 117.458L239.074 121.079L240.695 117.458C240.804 117.207 240.983 117.06 241.235 117.06C241.523 117.06 241.798 117.252 241.798 117.573C241.798 117.619 241.793 117.715 241.747 117.815L240.017 121.633C239.852 122.008 239.605 122.361 239.069 122.361ZM245.016 122.347C243.931 122.347 243.217 121.775 243.217 120.887C243.217 120.104 243.711 119.614 244.732 119.399L245.904 119.152C246.339 119.065 246.467 118.951 246.467 118.681C246.467 118.278 246.114 118.031 245.524 118.031C245.007 118.031 244.535 118.246 244.228 118.584C244.013 118.786 243.867 118.882 243.675 118.882C243.4 118.882 243.208 118.713 243.208 118.456C243.208 118.264 243.299 118.072 243.446 117.902C243.903 117.362 244.645 117.051 245.529 117.051C246.847 117.051 247.602 117.655 247.602 118.781V120.901C247.602 121.088 247.666 121.258 247.895 121.258C248.019 121.258 248.101 121.203 248.17 121.111C248.248 121.029 248.316 120.988 248.422 120.988C248.618 120.988 248.751 121.152 248.751 121.372C248.751 121.564 248.692 121.72 248.563 121.885C248.371 122.146 248.005 122.324 247.639 122.324C247.163 122.324 246.797 122.091 246.609 121.697C246.252 122.109 245.684 122.347 245.016 122.347ZM244.416 120.809C244.416 121.171 244.769 121.413 245.29 121.413C245.963 121.413 246.471 120.969 246.471 120.383V119.765C246.352 119.866 246.169 119.944 245.895 119.999L245.277 120.118C244.686 120.237 244.416 120.457 244.416 120.809ZM252.445 116.474C252.042 116.474 251.745 116.181 251.745 115.783C251.745 115.398 252.042 115.096 252.445 115.096C252.848 115.096 253.146 115.398 253.146 115.783C253.146 116.181 252.848 116.474 252.445 116.474ZM250.047 121.716C250.047 121.423 250.266 121.212 250.568 121.212H251.896V118.2H250.839C250.532 118.2 250.312 117.989 250.312 117.692C250.312 117.399 250.532 117.188 250.839 117.188H252.491C252.793 117.188 253.013 117.399 253.013 117.692V121.212H254.395C254.702 121.212 254.917 121.423 254.917 121.716C254.917 122.013 254.702 122.224 254.395 122.224H250.568C250.266 122.224 250.047 122.013 250.047 121.716ZM257.403 116.643C257.096 116.643 256.876 116.433 256.876 116.135C256.876 115.842 257.096 115.632 257.403 115.632H258.964C259.266 115.632 259.486 115.842 259.486 116.135V121.212H260.813C261.115 121.212 261.335 121.423 261.335 121.716C261.335 122.013 261.115 122.224 260.813 122.224H257.041C256.735 122.224 256.515 122.013 256.515 121.716C256.515 121.423 256.735 121.212 257.041 121.212H258.369V116.643H257.403ZM264.791 122.347C263.706 122.347 262.992 121.775 262.992 120.887C262.992 120.104 263.487 119.614 264.507 119.399L265.679 119.152C266.114 119.065 266.242 118.951 266.242 118.681C266.242 118.278 265.89 118.031 265.299 118.031C264.782 118.031 264.311 118.246 264.004 118.584C263.789 118.786 263.642 118.882 263.45 118.882C263.175 118.882 262.983 118.713 262.983 118.456C262.983 118.264 263.075 118.072 263.221 117.902C263.679 117.362 264.42 117.051 265.304 117.051C266.622 117.051 267.378 117.655 267.378 118.781V120.901C267.378 121.088 267.442 121.258 267.671 121.258C267.794 121.258 267.877 121.203 267.945 121.111C268.023 121.029 268.092 120.988 268.197 120.988C268.394 120.988 268.527 121.152 268.527 121.372C268.527 121.564 268.467 121.72 268.339 121.885C268.147 122.146 267.78 122.324 267.414 122.324C266.938 122.324 266.572 122.091 266.384 121.697C266.027 122.109 265.46 122.347 264.791 122.347ZM264.192 120.809C264.192 121.171 264.544 121.413 265.066 121.413C265.739 121.413 266.247 120.969 266.247 120.383V119.765C266.128 119.866 265.945 119.944 265.67 119.999L265.052 120.118C264.462 120.237 264.192 120.457 264.192 120.809ZM272.312 122.361C271.63 122.361 271.085 122.141 270.701 121.661V121.748C270.701 122.086 270.472 122.329 270.147 122.329C269.827 122.329 269.589 122.086 269.589 121.748V116.108C269.589 115.765 269.827 115.527 270.147 115.527C270.472 115.527 270.701 115.765 270.701 116.108V117.783C271.072 117.303 271.639 117.051 272.312 117.051C273.69 117.051 274.725 118.117 274.725 119.706C274.725 121.29 273.69 122.361 272.312 122.361ZM270.678 119.706C270.678 120.612 271.259 121.326 272.125 121.326C272.939 121.326 273.576 120.704 273.576 119.706C273.576 118.703 272.939 118.085 272.125 118.085C271.259 118.085 270.678 118.8 270.678 119.706ZM277.178 116.643C276.872 116.643 276.652 116.433 276.652 116.135C276.652 115.842 276.872 115.632 277.178 115.632H278.739C279.041 115.632 279.261 115.842 279.261 116.135V121.212H280.589C280.891 121.212 281.11 121.423 281.11 121.716C281.11 122.013 280.891 122.224 280.589 122.224H276.817C276.51 122.224 276.29 122.013 276.29 121.716C276.29 121.423 276.51 121.212 276.817 121.212H278.144V116.643H277.178ZM285.395 122.352C283.761 122.352 282.699 121.308 282.699 119.701C282.699 118.108 283.743 117.046 285.253 117.046C286.704 117.046 287.721 118.017 287.721 119.381C287.721 119.807 287.519 120.013 287.125 120.013H283.82C283.894 120.805 284.521 121.308 285.441 121.308C285.972 121.308 286.347 121.148 286.659 120.841C286.819 120.713 286.97 120.626 287.153 120.626C287.446 120.626 287.588 120.805 287.588 121.075C287.588 121.235 287.515 121.381 287.423 121.519C287.034 122.068 286.205 122.352 285.395 122.352ZM283.83 119.106H286.608C286.503 118.42 286.013 117.971 285.221 117.971C284.461 117.971 283.926 118.424 283.83 119.106Z" fill="white"/>
<g opacity="0.5">
<rect x="292.297" y="113.692" width="18.8905" height="12.0625" rx="6.03125" stroke="white"/>
</g>
<rect x="18.3281" y="148.521" width="305.469" height="100.156" rx="12.1094" stroke="white" stroke-width="0.78125"/>
<path d="M33.8753 169.517C32.0671 169.517 30.8449 168.116 30.8449 166.098C30.8449 164.07 32.145 162.651 33.9165 162.651C34.7405 162.651 35.3859 162.916 35.83 163.273C36.187 163.557 36.4342 163.992 36.4342 164.377C36.4342 164.72 36.1779 164.903 35.9169 164.903C35.7109 164.903 35.5553 164.839 35.3676 164.656C35.0609 164.166 34.6031 163.813 33.8799 163.813C32.795 163.813 32.0443 164.761 32.0443 166.089C32.0443 167.407 32.7812 168.35 33.9119 168.35C34.8229 168.35 35.3859 167.769 35.4317 166.807H33.857C33.5503 166.807 33.2894 166.569 33.2894 166.253C33.2894 165.892 33.5503 165.69 33.857 165.69H36.0222C36.3472 165.69 36.6219 165.892 36.6219 166.34C36.6219 168.377 35.4958 169.517 33.8753 169.517ZM40.5083 169.508C38.8741 169.508 37.8121 168.464 37.8121 166.858C37.8121 165.265 38.8558 164.203 40.3664 164.203C41.8175 164.203 42.8337 165.173 42.8337 166.537C42.8337 166.963 42.6323 167.169 42.2386 167.169H38.9336C39.0068 167.961 39.634 168.464 40.5541 168.464C41.0851 168.464 41.4604 168.304 41.7717 167.997C41.9319 167.869 42.083 167.782 42.2661 167.782C42.5591 167.782 42.701 167.961 42.701 168.231C42.701 168.391 42.6277 168.538 42.5362 168.675C42.1471 169.224 41.3185 169.508 40.5083 169.508ZM38.9427 166.263H41.7214C41.6161 165.576 41.1263 165.127 40.3344 165.127C39.5745 165.127 39.0389 165.58 38.9427 166.263ZM47.6677 169.517C46.5874 169.517 45.7543 168.762 45.7543 167.746V165.356H44.6099C44.294 165.356 44.0605 165.146 44.0605 164.848C44.0605 164.555 44.294 164.344 44.6099 164.344H45.7543V163.434C45.7543 163.095 45.9969 162.857 46.3311 162.857C46.6652 162.857 46.8987 163.095 46.8987 163.434V164.344H48.8442C49.16 164.344 49.3935 164.555 49.3935 164.848C49.3935 165.146 49.16 165.356 48.8442 165.356H46.8987V167.608C46.8987 168.107 47.2328 168.446 47.7959 168.446C48.1346 168.446 48.4139 168.332 48.6611 168.185C48.7984 168.107 48.9357 168.025 49.1143 168.025C49.3843 168.025 49.572 168.213 49.572 168.478C49.572 168.684 49.4484 168.885 49.2287 169.059C48.8671 169.339 48.272 169.517 47.6677 169.517ZM60.1006 169.517C58.5442 169.517 57.4227 168.455 57.4227 166.862C57.4227 165.265 58.5442 164.207 60.1006 164.207C61.657 164.207 62.7785 165.265 62.7785 166.862C62.7785 168.455 61.657 169.517 60.1006 169.517ZM58.5717 166.862C58.5717 167.828 59.2079 168.483 60.1006 168.483C60.9932 168.483 61.6295 167.828 61.6295 166.862C61.6295 165.896 60.9932 165.242 60.1006 165.242C59.2079 165.242 58.5717 165.896 58.5717 166.862ZM68.5509 169.485C68.2259 169.485 67.9924 169.233 67.9924 168.904V166.555C67.9924 165.663 67.5118 165.233 66.7382 165.233C65.8776 165.233 65.3511 165.796 65.3511 166.633V168.904C65.3511 169.243 65.1177 169.485 64.7927 169.485C64.4677 169.485 64.2342 169.243 64.2342 168.904V164.821C64.2342 164.477 64.4677 164.239 64.7927 164.239C65.1177 164.239 65.3511 164.477 65.3511 164.821V164.93C65.6761 164.464 66.2667 164.207 66.9899 164.207C68.2671 164.207 69.1094 164.981 69.1094 166.359V168.904C69.1094 169.238 68.8713 169.485 68.5509 169.485ZM78.022 169.38C77.6741 169.38 77.4407 169.128 77.4407 168.776V163.392C77.4407 163.04 77.6741 162.788 78.022 162.788H80.1689C81.4919 162.788 82.3387 163.511 82.3387 164.656C82.3387 165.278 82.0092 165.754 81.4324 166.02C82.032 166.285 82.3845 166.784 82.3845 167.43C82.3845 168.597 81.5285 169.38 80.1873 169.38H78.022ZM78.6171 168.24H80.1506C80.7778 168.24 81.1486 167.92 81.1486 167.361C81.1486 166.83 80.7915 166.505 80.1506 166.505H78.6171V168.24ZM78.6171 165.526H80.1186C80.7503 165.526 81.1028 165.228 81.1028 164.747C81.1028 164.235 80.7411 163.928 80.1186 163.928H78.6171V165.526ZM85.8223 169.503C84.7374 169.503 84.0233 168.931 84.0233 168.043C84.0233 167.26 84.5177 166.771 85.5385 166.555L86.7104 166.308C87.1453 166.221 87.2734 166.107 87.2734 165.837C87.2734 165.434 86.921 165.187 86.3304 165.187C85.8132 165.187 85.3417 165.402 85.035 165.741C84.8198 165.942 84.6733 166.038 84.4811 166.038C84.2064 166.038 84.0142 165.869 84.0142 165.612C84.0142 165.42 84.1057 165.228 84.2522 165.059C84.71 164.518 85.4515 164.207 86.335 164.207C87.6534 164.207 88.4087 164.811 88.4087 165.938V168.057C88.4087 168.245 88.4728 168.414 88.7017 168.414C88.8253 168.414 88.9077 168.359 88.9763 168.268C89.0541 168.185 89.1228 168.144 89.2281 168.144C89.4249 168.144 89.5577 168.309 89.5577 168.528C89.5577 168.721 89.4982 168.876 89.37 169.041C89.1777 169.302 88.8115 169.481 88.4453 169.481C87.9692 169.481 87.603 169.247 87.4153 168.853C87.0583 169.265 86.4907 169.503 85.8223 169.503ZM85.2227 167.965C85.2227 168.327 85.5751 168.57 86.097 168.57C86.7699 168.57 87.278 168.126 87.278 167.54V166.922C87.159 167.022 86.9759 167.1 86.7012 167.155L86.0833 167.274C85.4927 167.393 85.2227 167.613 85.2227 167.965ZM93.1145 169.517C92.2722 169.517 91.4849 169.261 90.9951 168.803C90.757 168.588 90.5922 168.382 90.5922 168.171C90.5922 167.892 90.7799 167.709 91.0637 167.709C91.2606 167.709 91.4437 167.833 91.7092 168.048C92.0937 168.359 92.5789 168.574 93.2152 168.574C93.9385 168.574 94.3459 168.364 94.3459 167.988C94.3459 167.645 94.0346 167.439 93.4761 167.347L92.524 167.192C91.3796 167.004 90.7799 166.501 90.7799 165.736C90.7799 164.789 91.6634 164.207 93.0916 164.207C93.8881 164.207 94.4695 164.381 94.8998 164.651C95.2477 164.875 95.472 165.178 95.472 165.429C95.472 165.686 95.2797 165.873 95.0051 165.873C94.8082 165.873 94.6022 165.704 94.3459 165.512C94.0621 165.301 93.6135 165.123 93.0596 165.123C92.3729 165.123 91.9609 165.324 91.9609 165.663C91.9609 165.96 92.2722 166.153 92.8765 166.249L93.8607 166.409C94.9776 166.597 95.5315 167.091 95.5315 167.883C95.5315 168.904 94.6251 169.517 93.1145 169.517ZM99.8345 169.508C98.2003 169.508 97.1382 168.464 97.1382 166.858C97.1382 165.265 98.1819 164.203 99.6926 164.203C101.144 164.203 102.16 165.173 102.16 166.537C102.16 166.963 101.958 167.169 101.565 167.169H98.2598C98.333 167.961 98.9601 168.464 99.8802 168.464C100.411 168.464 100.787 168.304 101.098 167.997C101.258 167.869 101.409 167.782 101.592 167.782C101.885 167.782 102.027 167.961 102.027 168.231C102.027 168.391 101.954 168.538 101.862 168.675C101.473 169.224 100.645 169.508 99.8345 169.508ZM98.2689 166.263H101.048C100.942 165.576 100.452 165.127 99.6605 165.127C98.9006 165.127 98.3651 165.58 98.2689 166.263Z" fill="white"/>
<rect x="235.143" y="157.755" width="76.0441" height="18.25" rx="9.125" stroke="white"/>
<rect x="30.4375" y="184.067" width="27" height="27" rx="13.5" fill="white"/>
<path d="M66.2327 198.224C65.4636 198.224 64.896 197.857 64.896 196.777C64.896 194.745 66.2876 193.353 69.7483 191.87C72.3575 190.735 73.0259 190.039 73.0259 188.885C73.0259 187.842 72.0188 186.953 70.3892 186.953C68.7321 186.953 67.5785 187.814 67.1207 189.178C66.901 189.627 66.489 189.856 66.0679 189.856C65.3721 189.856 64.9692 189.425 64.9692 188.739C64.9692 188.107 65.2439 187.512 65.6284 186.935C66.5165 185.58 68.3201 184.765 70.3617 184.765C73.4012 184.765 75.4062 186.285 75.4062 188.894C75.4062 191.156 74.1337 192.373 71.149 193.573C68.8969 194.516 68.0363 195.111 67.8623 195.971H74.509C75.1865 195.971 75.6534 196.429 75.6534 197.107C75.6534 197.775 75.1865 198.224 74.509 198.224H66.2327ZM83.472 198.434C82.5748 198.434 81.879 197.729 81.879 196.841C81.879 195.953 82.5748 195.276 83.472 195.276C84.3601 195.276 85.0468 195.953 85.0468 196.841C85.0468 197.729 84.3601 198.434 83.472 198.434ZM92.8745 198.224C92.2428 198.224 91.7759 197.757 91.7759 197.098C91.7759 196.438 92.2428 195.981 92.8745 195.981H95.7126V188.4C95.0901 189.297 93.7809 189.865 92.6456 189.865C92.0231 189.865 91.5928 189.398 91.5928 188.803C91.5928 188.272 91.8949 187.924 92.4351 187.668C93.7168 187.338 95.0992 186.422 95.5662 185.507C95.9415 185.113 96.2528 184.829 96.8937 184.829C97.681 184.829 98.0289 185.324 98.0289 186.111V195.981H100.849C101.48 195.981 101.947 196.438 101.947 197.098C101.947 197.757 101.48 198.224 100.849 198.224H92.8745ZM109.83 198.498C106.644 198.498 104.428 196.933 104.428 194.626C104.428 193.023 105.344 191.733 106.882 191.293C105.545 190.881 104.749 189.755 104.749 188.391C104.749 186.184 106.781 184.765 109.83 184.765C112.87 184.765 114.911 186.184 114.911 188.391C114.911 189.755 114.115 190.881 112.769 191.293C114.316 191.733 115.232 193.033 115.232 194.626C115.232 196.933 113.007 198.498 109.83 198.498ZM106.919 194.415C106.919 195.66 108.109 196.484 109.83 196.484C111.542 196.484 112.741 195.66 112.741 194.415C112.741 193.078 111.588 192.254 109.83 192.254C108.063 192.254 106.919 193.078 106.919 194.415ZM107.212 188.565C107.212 189.691 108.228 190.387 109.83 190.387C111.423 190.387 112.439 189.691 112.439 188.565C112.439 187.439 111.377 186.715 109.83 186.715C108.274 186.715 107.212 187.439 107.212 188.565ZM132.81 198.224C132.105 198.224 131.638 197.72 131.638 197.006V186.249C131.638 185.534 132.105 185.04 132.81 185.04H139.832C140.519 185.04 141.013 185.516 141.013 186.203C141.013 186.889 140.519 187.375 139.832 187.375H133.991V190.451H139.228C139.869 190.451 140.354 190.918 140.354 191.559C140.354 192.209 139.859 192.657 139.228 192.657H133.991V195.889H139.869C140.546 195.889 141.05 196.365 141.05 197.052C141.05 197.738 140.546 198.224 139.869 198.224H132.81ZM149.381 198.434C148.676 198.434 148.2 197.931 148.2 197.217V187.375H144.739C144.052 187.375 143.549 186.889 143.549 186.203C143.549 185.516 144.052 185.04 144.739 185.04H154.023C154.709 185.04 155.213 185.516 155.213 186.203C155.213 186.889 154.709 187.375 154.023 187.375H150.562V197.217C150.562 197.931 150.086 198.434 149.381 198.434ZM166.593 198.434C165.897 198.434 165.421 197.931 165.421 197.217V192.703H159.708V197.217C159.708 197.931 159.232 198.434 158.527 198.434C157.831 198.434 157.355 197.931 157.355 197.217V186.038C157.355 185.324 157.831 184.829 158.527 184.829C159.232 184.829 159.708 185.324 159.708 186.038V190.451H165.421V186.038C165.421 185.333 165.897 184.829 166.593 184.829C167.298 184.829 167.774 185.324 167.774 186.038V197.217C167.774 197.931 167.298 198.434 166.593 198.434Z" fill="white"/>
<path opacity="0.5" d="M66.2723 203.336C66.2723 203.021 66.4905 202.799 66.7927 202.799C67.099 202.799 67.313 203.017 67.313 203.336V203.793C67.8039 203.877 68.1942 204.057 68.4963 204.255C68.8866 204.502 69.1131 204.901 69.1131 205.241C69.1131 205.539 68.9369 205.77 68.6348 205.77C68.446 205.77 68.3117 205.686 68.1396 205.535C67.8501 205.094 67.3801 204.762 66.6374 204.762C66.0164 204.762 65.5884 205.014 65.5884 205.472C65.5884 205.958 65.9324 206.093 66.4696 206.21L67.5312 206.449C68.3872 206.642 69.1215 207.016 69.1215 208.149C69.1215 209.173 68.4166 209.857 67.313 210.008V210.444C67.313 210.763 67.099 210.981 66.7927 210.981C66.4905 210.981 66.2723 210.759 66.2723 210.444V210.008C65.6765 209.936 65.2443 209.752 64.875 209.483C64.5099 209.215 64.2666 208.812 64.2666 208.455C64.2666 208.157 64.489 207.922 64.7785 207.922C64.9254 207.922 65.0638 207.993 65.1771 208.128C65.5842 208.707 66.0583 209.009 66.9018 209.009C67.5899 209.009 67.9886 208.724 67.9886 208.241C67.9886 207.779 67.6571 207.582 67.1955 207.486L66.0919 207.259C65.0722 207.049 64.447 206.588 64.447 205.56C64.447 204.578 65.152 203.911 66.2723 203.772V203.336ZM72.8382 210.048C71.8632 210.048 71.085 209.701 70.7371 209.215C70.5906 209.014 70.4807 208.762 70.4807 208.52C70.4807 208.204 70.6913 207.984 71.0117 207.984C71.2131 207.984 71.3413 208.071 71.5107 208.24C71.735 208.629 72.2156 208.913 72.9709 208.913C73.7263 208.913 74.2985 208.423 74.2985 207.728C74.2985 206.995 73.8041 206.551 73.0396 206.551C72.6139 206.551 72.2477 206.679 71.941 206.853C71.7487 206.949 71.5885 207.004 71.3871 207.004C71.0209 207.004 70.8195 206.739 70.8195 206.354C70.8195 206.272 70.8332 206.176 70.8378 206.121L71.0483 203.85C71.0758 203.512 71.3276 203.319 71.6343 203.319H74.6326C74.9714 203.319 75.2003 203.548 75.2003 203.882C75.2003 204.221 74.9714 204.441 74.6326 204.441H72.1332L71.9868 205.897C72.3987 205.654 72.8336 205.553 73.2868 205.553C74.596 205.553 75.4795 206.405 75.4795 207.718C75.4795 209.138 74.3854 210.048 72.8382 210.048ZM79.6177 210.048C77.9789 210.048 76.9306 208.712 76.9306 206.615C76.9306 204.514 77.9789 203.182 79.6177 203.182C81.261 203.182 82.3047 204.514 82.3047 206.615C82.3047 208.712 81.261 210.048 79.6177 210.048ZM78.162 206.615C78.162 208.121 78.7021 208.904 79.6177 208.904C80.5332 208.904 81.0734 208.121 81.0734 206.615C81.0734 205.105 80.5332 204.322 79.6177 204.322C78.7021 204.322 78.162 205.109 78.162 206.615ZM86.2095 210.048C84.5707 210.048 83.5224 208.712 83.5224 206.615C83.5224 204.514 84.5707 203.182 86.2095 203.182C87.8528 203.182 88.8965 204.514 88.8965 206.615C88.8965 208.712 87.8528 210.048 86.2095 210.048ZM84.7538 206.615C84.7538 208.121 85.2939 208.904 86.2095 208.904C87.125 208.904 87.6652 208.121 87.6652 206.615C87.6652 205.105 87.125 204.322 86.2095 204.322C85.2939 204.322 84.7538 205.109 84.7538 206.615Z" fill="white"/>
<g opacity="0.5">
<rect x="29.9375" y="221.505" width="59.75" height="15.5625" rx="7.78125" stroke="white"/>
<g clip-path="url(#clip2_88_251)">
<path d="M37.4688 224.598C34.8845 224.598 32.7812 226.701 32.7812 229.285C32.7812 231.869 34.8845 233.973 37.4688 233.973C40.053 233.973 42.1562 231.869 42.1562 229.285C42.1562 226.701 40.053 224.598 37.4688 224.598ZM37.2377 228.656L38.1525 228.858C39.1476 229.079 39.7512 229.491 39.7512 230.486C39.7512 231.481 39.0375 232.096 38.0912 232.226V232.659C38.0912 232.96 37.89 233.162 37.5992 233.162C37.3084 233.162 37.1072 232.951 37.1072 232.659V232.247C36.131 232.146 35.1769 231.613 35.1769 230.769C35.1769 230.488 35.3781 230.266 35.65 230.266C35.7915 230.266 35.9518 230.326 36.1027 230.577C36.3448 230.989 36.8573 231.282 37.6212 231.282C38.305 231.282 38.687 231.021 38.687 230.568C38.687 230.165 38.4261 229.964 37.8822 229.854L36.8966 229.653C35.8701 229.442 35.3372 228.969 35.3372 228.024C35.3372 227.08 36.0116 226.446 37.1072 226.325V225.923C37.1072 225.621 37.3178 225.41 37.5992 225.41C37.8806 225.41 38.0912 225.621 38.0912 225.923V226.355C38.9464 226.506 39.7606 226.989 39.7606 227.723C39.7606 228.004 39.6003 228.226 39.3079 228.226C39.1271 228.226 38.9354 228.155 38.8049 227.944C38.5832 227.583 38.0912 227.29 37.4074 227.29C36.7944 227.29 36.4124 227.521 36.4124 227.944C36.4124 228.397 36.7048 228.537 37.2377 228.658V228.656Z" fill="white"/>
</g>
<path d="M48.5771 231.923C46.9384 231.923 45.8901 230.587 45.8901 228.49C45.8901 226.389 46.9384 225.057 48.5771 225.057C50.2205 225.057 51.2642 226.389 51.2642 228.49C51.2642 230.587 50.2205 231.923 48.5771 231.923ZM47.1215 228.49C47.1215 229.996 47.6616 230.779 48.5771 230.779C49.4927 230.779 50.0328 229.996 50.0328 228.49C50.0328 226.98 49.4927 226.197 48.5771 226.197C47.6616 226.197 47.1215 226.984 47.1215 228.49ZM60.1677 231.891C59.8152 231.891 59.5772 231.64 59.5772 231.283V225.799C59.5772 225.442 59.8152 225.194 60.1677 225.194H63.8207C64.164 225.194 64.4158 225.432 64.4158 225.776C64.4158 226.119 64.164 226.362 63.8207 226.362H60.7628V228.014H63.459C63.8024 228.014 64.0541 228.257 64.0541 228.6C64.0541 228.943 63.8024 229.181 63.459 229.181H60.7628V231.283C60.7628 231.64 60.5248 231.891 60.1677 231.891ZM68.5356 231.914C66.9014 231.914 65.8394 230.871 65.8394 229.264C65.8394 227.671 66.8831 226.609 68.3937 226.609C69.8448 226.609 70.8611 227.579 70.8611 228.943C70.8611 229.369 70.6597 229.575 70.266 229.575H66.9609C67.0342 230.367 67.6613 230.871 68.5814 230.871C69.1124 230.871 69.4878 230.71 69.7991 230.404C69.9593 230.276 70.1104 230.189 70.2935 230.189C70.5864 230.189 70.7283 230.367 70.7283 230.637C70.7283 230.797 70.6551 230.944 70.5635 231.081C70.1744 231.63 69.3459 231.914 68.5356 231.914ZM66.9701 228.669H69.7487C69.6434 227.982 69.1536 227.534 68.3617 227.534C67.6018 227.534 67.0662 227.987 66.9701 228.669ZM75.1274 231.914C73.4932 231.914 72.4312 230.871 72.4312 229.264C72.4312 227.671 73.4749 226.609 74.9855 226.609C76.4366 226.609 77.4529 227.579 77.4529 228.943C77.4529 229.369 77.2515 229.575 76.8578 229.575H73.5527C73.626 230.367 74.2531 230.871 75.1732 230.871C75.7042 230.871 76.0796 230.71 76.3909 230.404C76.5511 230.276 76.7021 230.189 76.8853 230.189C77.1782 230.189 77.3201 230.367 77.3201 230.637C77.3201 230.797 77.2469 230.944 77.1553 231.081C76.7662 231.63 75.9377 231.914 75.1274 231.914ZM73.5619 228.669H76.3405C76.2352 227.982 75.7454 227.534 74.9535 227.534C74.1936 227.534 73.658 227.987 73.5619 228.669ZM81.5911 231.923C80.7488 231.923 79.9614 231.667 79.4716 231.209C79.2336 230.994 79.0688 230.788 79.0688 230.578C79.0688 230.298 79.2565 230.115 79.5403 230.115C79.7371 230.115 79.9202 230.239 80.1857 230.454C80.5703 230.765 81.0555 230.98 81.6918 230.98C82.415 230.98 82.8224 230.77 82.8224 230.395C82.8224 230.051 82.5112 229.845 81.9527 229.754L81.0005 229.598C79.8561 229.41 79.2565 228.907 79.2565 228.142C79.2565 227.195 80.14 226.613 81.5682 226.613C82.3647 226.613 82.946 226.787 83.3763 227.057C83.7242 227.282 83.9485 227.584 83.9485 227.836C83.9485 228.092 83.7563 228.28 83.4816 228.28C83.2848 228.28 83.0788 228.11 82.8224 227.918C82.5386 227.707 82.09 227.529 81.5361 227.529C80.8495 227.529 80.4375 227.73 80.4375 228.069C80.4375 228.367 80.7488 228.559 81.353 228.655L82.3372 228.815C83.4542 229.003 84.0081 229.497 84.0081 230.289C84.0081 231.31 83.1017 231.923 81.5911 231.923Z" fill="white"/>
<g clip-path="url(#clip3_88_251)">
<path fill-rule="evenodd" clip-rule="evenodd" d="M106.599 228.192C106.599 227.991 106.522 227.8 106.384 227.655L104.64 225.833C104.471 225.657 104.489 225.371 104.685 225.218C104.855 225.085 105.106 225.118 105.256 225.276L107.003 227.097C107.117 227.197 107.212 227.316 107.284 227.449C107.368 227.594 107.431 227.766 107.431 227.966V230.98C107.431 231.617 106.94 232.172 106.305 232.191C105.669 232.211 105.106 231.683 105.106 231.03V230.074C105.106 229.844 104.677 229.659 104.447 229.659H104.228V232.606C104.228 232.635 104.228 232.663 104.223 232.692C104.207 232.848 104.148 232.991 104.059 233.108C103.908 233.308 103.668 233.436 103.398 233.436H100.075C99.7883 233.436 99.5358 233.292 99.3862 233.07C99.2961 232.938 99.2446 232.777 99.2446 232.605V226.378C99.2446 225.689 99.8028 225.133 100.49 225.133H102.98C103.668 225.133 104.225 225.691 104.225 226.378V228.828H104.444C105.132 228.828 105.933 229.386 105.933 230.073V231.009C105.933 231.183 106.059 231.34 106.232 231.358C106.432 231.377 106.598 231.223 106.598 231.028V228.192H106.599ZM100.575 225.882C100.213 225.882 99.9203 226.201 99.9203 226.595V228.564C99.9203 228.958 100.213 229.277 100.575 229.277H102.792C103.154 229.277 103.446 228.958 103.446 228.564V226.595C103.446 226.201 103.154 225.882 102.792 225.882H100.575Z" fill="white"/>
</g>
<path d="M114.358 231.923C112.72 231.923 111.671 230.587 111.671 228.49C111.671 226.389 112.72 225.057 114.358 225.057C116.002 225.057 117.045 226.389 117.045 228.49C117.045 230.587 116.002 231.923 114.358 231.923ZM112.903 228.49C112.903 229.996 113.443 230.779 114.358 230.779C115.274 230.779 115.814 229.996 115.814 228.49C115.814 226.98 115.274 226.197 114.358 226.197C113.443 226.197 112.903 226.984 112.903 228.49ZM120.955 231.891C120.506 231.891 120.158 231.539 120.158 231.095C120.158 230.651 120.506 230.312 120.955 230.312C121.399 230.312 121.742 230.651 121.742 231.095C121.742 231.539 121.399 231.891 120.955 231.891ZM127.542 231.923C125.903 231.923 124.855 230.587 124.855 228.49C124.855 226.389 125.903 225.057 127.542 225.057C129.185 225.057 130.229 226.389 130.229 228.49C130.229 230.587 129.185 231.923 127.542 231.923ZM126.086 228.49C126.086 229.996 126.626 230.779 127.542 230.779C128.458 230.779 128.998 229.996 128.998 228.49C128.998 226.98 128.458 226.197 127.542 226.197C126.626 226.197 126.086 226.984 126.086 228.49ZM134.134 231.923C132.495 231.923 131.447 230.587 131.447 228.49C131.447 226.389 132.495 225.057 134.134 225.057C135.777 225.057 136.821 226.389 136.821 228.49C136.821 230.587 135.777 231.923 134.134 231.923ZM132.678 228.49C132.678 229.996 133.218 230.779 134.134 230.779C135.049 230.779 135.589 229.996 135.589 228.49C135.589 226.98 135.049 226.197 134.134 226.197C133.218 226.197 132.678 226.984 132.678 228.49ZM140.726 231.923C139.087 231.923 138.039 230.587 138.039 228.49C138.039 226.389 139.087 225.057 140.726 225.057C142.369 225.057 143.413 226.389 143.413 228.49C143.413 230.587 142.369 231.923 140.726 231.923ZM139.27 228.49C139.27 229.996 139.81 230.779 140.726 230.779C141.641 230.779 142.181 229.996 142.181 228.49C142.181 226.98 141.641 226.197 140.726 226.197C139.81 226.197 139.27 226.984 139.27 228.49ZM147.203 231.923C146.278 231.923 145.409 231.635 144.983 231.077C144.795 230.834 144.676 230.55 144.676 230.289C144.676 229.951 144.882 229.749 145.212 229.749C145.422 229.749 145.578 229.818 145.738 230.01C146.013 230.491 146.503 230.788 147.212 230.788C148.022 230.788 148.572 230.33 148.572 229.658C148.572 228.975 148.027 228.586 147.061 228.586C146.864 228.586 146.612 228.623 146.461 228.623C146.168 228.623 145.949 228.449 145.949 228.184C145.949 228.046 146.026 227.895 146.191 227.753L147.931 226.307H145.367C145.024 226.307 144.772 226.078 144.772 225.753C144.772 225.428 145.029 225.194 145.367 225.194H149.13C149.519 225.194 149.762 225.4 149.762 225.744C149.762 225.918 149.67 226.11 149.492 226.256L147.642 227.781C149.025 227.854 149.798 228.545 149.798 229.69C149.798 231.035 148.755 231.923 147.203 231.923ZM158.807 231.786C158.455 231.786 158.221 231.534 158.221 231.177V225.799C158.221 225.442 158.455 225.194 158.807 225.194H162.318C162.662 225.194 162.909 225.432 162.909 225.776C162.909 226.119 162.662 226.362 162.318 226.362H159.398V227.9H162.016C162.337 227.9 162.579 228.133 162.579 228.454C162.579 228.779 162.332 229.003 162.016 229.003H159.398V230.619H162.337C162.675 230.619 162.927 230.857 162.927 231.2C162.927 231.544 162.675 231.786 162.337 231.786H158.807ZM167.093 231.891C166.74 231.891 166.502 231.64 166.502 231.283V226.362H164.772C164.429 226.362 164.177 226.119 164.177 225.776C164.177 225.432 164.429 225.194 164.772 225.194H169.414C169.757 225.194 170.009 225.432 170.009 225.776C170.009 226.119 169.757 226.362 169.414 226.362H167.683V231.283C167.683 231.64 167.445 231.891 167.093 231.891ZM175.699 231.891C175.351 231.891 175.113 231.64 175.113 231.283V229.026H172.256V231.283C172.256 231.64 172.018 231.891 171.666 231.891C171.318 231.891 171.08 231.64 171.08 231.283V225.693C171.08 225.336 171.318 225.089 171.666 225.089C172.018 225.089 172.256 225.336 172.256 225.693V227.9H175.113V225.693C175.113 225.341 175.351 225.089 175.699 225.089C176.051 225.089 176.289 225.336 176.289 225.693V231.283C176.289 231.64 176.051 231.891 175.699 231.891Z" fill="white"/>
<path d="M267.597 231.786C267.282 231.786 267.048 231.553 267.048 231.223C267.048 230.893 267.282 230.665 267.597 230.665H269.016V226.874C268.705 227.323 268.051 227.607 267.483 227.607C267.172 227.607 266.957 227.373 266.957 227.076C266.957 226.81 267.108 226.636 267.378 226.508C268.019 226.343 268.71 225.886 268.943 225.428C269.131 225.231 269.287 225.089 269.607 225.089C270.001 225.089 270.175 225.336 270.175 225.73V230.665H271.585C271.9 230.665 272.134 230.893 272.134 231.223C272.134 231.553 271.9 231.786 271.585 231.786H267.597ZM284.883 231.891C284.585 231.891 284.37 231.649 284.37 231.324V228.866C284.37 228.11 284.182 227.707 283.825 227.707C283.441 227.707 283.203 228.174 283.203 228.925V231.324C283.203 231.649 282.983 231.891 282.69 231.891C282.392 231.891 282.177 231.649 282.177 231.324V228.866C282.177 228.11 281.99 227.707 281.632 227.707C281.253 227.707 281.014 228.174 281.014 228.925V231.324C281.014 231.653 280.799 231.891 280.502 231.891C280.2 231.891 279.984 231.653 279.984 231.324V227.213C279.984 226.883 280.2 226.645 280.502 226.645C280.799 226.645 281.014 226.883 281.014 227.213V227.305C281.23 226.861 281.582 226.613 282.022 226.613C282.484 226.613 282.836 226.948 283.029 227.534C283.267 226.916 283.633 226.613 284.146 226.613C284.956 226.613 285.395 227.364 285.395 228.765V231.324C285.395 231.649 285.176 231.891 284.883 231.891ZM289.451 226.037C289.048 226.037 288.751 225.744 288.751 225.345C288.751 224.961 289.048 224.659 289.451 224.659C289.854 224.659 290.151 224.961 290.151 225.345C290.151 225.744 289.854 226.037 289.451 226.037ZM287.052 231.278C287.052 230.985 287.272 230.774 287.574 230.774H288.902V227.762H287.844C287.538 227.762 287.318 227.552 287.318 227.254C287.318 226.961 287.538 226.751 287.844 226.751H289.497C289.799 226.751 290.019 226.961 290.019 227.254V230.774H291.401C291.708 230.774 291.923 230.985 291.923 231.278C291.923 231.576 291.708 231.786 291.401 231.786H287.574C287.272 231.786 287.052 231.576 287.052 231.278ZM297.709 231.891C297.384 231.891 297.151 231.64 297.151 231.31V228.962C297.151 228.069 296.67 227.639 295.896 227.639C295.036 227.639 294.509 228.202 294.509 229.04V231.31C294.509 231.649 294.276 231.891 293.951 231.891C293.626 231.891 293.392 231.649 293.392 231.31V227.227C293.392 226.883 293.626 226.645 293.951 226.645C294.276 226.645 294.509 226.883 294.509 227.227V227.337C294.834 226.87 295.425 226.613 296.148 226.613C297.425 226.613 298.268 227.387 298.268 228.765V231.31C298.268 231.644 298.03 231.891 297.709 231.891Z" fill="white"/>
<mask id="mask0_88_251" style="mask-type:luminance" maskUnits="userSpaceOnUse" x="302" y="224" width="10" height="10">
<path d="M311.688 224.599H302.312V233.974H311.688V224.599Z" fill="white"/>
</mask>
<g mask="url(#mask0_88_251)">
<path d="M307 224.599C304.416 224.599 302.312 226.702 302.312 229.286C302.312 231.87 304.416 233.974 307 233.974C309.584 233.974 311.688 231.87 311.688 229.286C311.688 226.702 309.584 224.599 307 224.599ZM309.455 227.654L310.117 227.274C310.202 227.222 310.317 227.25 310.369 227.34C310.421 227.43 310.392 227.544 310.303 227.596L309.641 227.977C309.613 227.991 309.58 228 309.545 228C309.484 228 309.416 227.967 309.383 227.904C309.331 227.82 309.364 227.705 309.454 227.653L309.455 227.654ZM308.308 226.645L308.688 225.984C308.74 225.892 308.855 225.864 308.944 225.917C309.036 225.965 309.064 226.079 309.01 226.169L308.63 226.831C308.597 226.892 308.529 226.927 308.468 226.927C308.435 226.927 308.407 226.917 308.372 226.903C308.287 226.851 308.253 226.736 308.306 226.647L308.308 226.645ZM303.108 229.286C303.108 229.181 303.193 229.101 303.293 229.101H304.059C304.164 229.101 304.244 229.181 304.244 229.286C304.244 229.391 304.164 229.472 304.059 229.472H303.293C303.193 229.472 303.108 229.387 303.108 229.286ZM304.545 230.918L303.883 231.298C303.855 231.317 303.822 231.322 303.792 231.322C303.726 231.322 303.663 231.289 303.63 231.231C303.578 231.139 303.606 231.026 303.696 230.974L304.358 230.594C304.449 230.542 304.562 230.57 304.614 230.66C304.666 230.75 304.633 230.864 304.543 230.916L304.545 230.918ZM304.615 227.906C304.582 227.967 304.515 228.002 304.453 228.002C304.42 228.002 304.387 227.992 304.358 227.978L303.696 227.598C303.605 227.546 303.576 227.431 303.63 227.342C303.683 227.252 303.796 227.222 303.881 227.276L304.543 227.656C304.634 227.708 304.667 227.823 304.614 227.908L304.615 227.906ZM305.691 231.927L305.31 232.589C305.277 232.645 305.21 232.68 305.148 232.68C305.115 232.68 305.082 232.675 305.052 232.656C304.961 232.604 304.933 232.49 304.986 232.4L305.367 231.738C305.419 231.653 305.533 231.619 305.623 231.672C305.708 231.724 305.742 231.839 305.689 231.929L305.691 231.927ZM305.625 226.902C305.592 226.916 305.563 226.925 305.529 226.925C305.463 226.925 305.4 226.892 305.367 226.829L304.986 226.167C304.934 226.076 304.963 225.963 305.052 225.916C305.144 225.864 305.257 225.892 305.309 225.982L305.689 226.644C305.741 226.735 305.708 226.848 305.623 226.9L305.625 226.902ZM307.185 232.988C307.185 233.093 307.105 233.178 307 233.178C306.895 233.178 306.815 233.093 306.815 232.988V232.227C306.815 232.122 306.895 232.037 307 232.037C307.105 232.037 307.185 232.122 307.185 232.227V232.988ZM308.946 232.655C308.918 232.674 308.885 232.678 308.85 232.678C308.789 232.678 308.721 232.645 308.688 232.587L308.308 231.925C308.256 231.834 308.289 231.721 308.374 231.669C308.465 231.617 308.578 231.65 308.63 231.735L309.01 232.397C309.062 232.488 309.034 232.601 308.944 232.653L308.946 232.655ZM307.014 229.582C306.914 229.582 306.829 229.525 306.781 229.443C306.753 229.401 306.739 229.347 306.739 229.296V225.561C306.739 225.403 306.868 225.284 307.025 225.284C307.182 225.284 307.302 225.413 307.302 225.565V229.02H309.182C309.339 229.02 309.468 229.154 309.468 229.302C309.468 229.459 309.33 229.583 309.182 229.583H307.017L307.014 229.582ZM310.369 231.232C310.336 231.289 310.273 231.323 310.207 231.323C310.178 231.323 310.145 231.319 310.116 231.3L309.454 230.919C309.363 230.868 309.33 230.753 309.383 230.663C309.436 230.574 309.55 230.544 309.639 230.597L310.301 230.978C310.392 231.029 310.421 231.144 310.367 231.234L310.369 231.232ZM310.707 229.472H309.941C309.836 229.472 309.756 229.387 309.756 229.286C309.756 229.186 309.836 229.101 309.941 229.101H310.707C310.807 229.101 310.892 229.181 310.892 229.286C310.892 229.391 310.807 229.472 310.707 229.472Z" fill="white"/>
</g>
</g>
<rect x="18.4375" y="262.067" width="305.25" height="43" rx="21.5" stroke="white"/>
</g>
<path d="M52 317.568L51.0559 317.567L51.0559 318.067C50.4184 318.067 49.7941 318.067 49.1827 318.067L49.183 317.567C48.542 317.566 47.9152 317.565 47.3019 317.564L47.3008 318.064C46.6608 318.062 46.0355 318.06 45.4246 318.057L45.4271 317.557C44.786 317.554 44.1607 317.55 43.5506 317.544L43.5459 318.044C42.9046 318.038 42.2799 318.031 41.671 318.021L41.6787 317.521C41.0357 317.511 40.4107 317.499 39.8028 317.485L39.7908 317.985C39.1469 317.969 38.5217 317.951 37.9143 317.93L37.932 317.43C37.2897 317.407 36.6677 317.381 36.0648 317.35L36.0391 317.849C35.3936 317.816 34.7695 317.778 34.1651 317.734L34.2014 317.235C33.5599 317.188 32.9417 317.135 32.3447 317.074L32.2941 317.572C31.6499 317.506 31.0296 317.432 30.4307 317.348L30.5001 316.853C29.8664 316.764 29.2582 316.665 28.6726 316.553L28.5787 317.044C27.9441 316.922 27.3346 316.787 26.7467 316.635L26.8717 316.151C26.261 315.993 25.6754 315.818 25.1107 315.624L24.9481 316.097C24.3457 315.89 23.7654 315.661 23.2027 315.408L23.4078 314.952C23.1287 314.826 22.8541 314.694 22.5835 314.557C22.2608 314.392 21.9419 314.222 21.6268 314.045L21.3825 314.481C20.7385 314.121 20.1104 313.736 19.4996 313.328L19.7773 312.912C19.175 312.509 18.5897 312.084 18.0225 311.637L17.713 312.03C17.1342 311.573 16.5741 311.095 16.0337 310.595L16.3731 310.228C15.842 309.737 15.3303 309.226 14.8393 308.694L14.4722 309.034C13.9727 308.493 13.4942 307.933 13.0379 307.355L13.4306 307.045C12.9835 306.478 12.5581 305.892 12.1556 305.29L11.7399 305.568C11.3317 304.957 10.9467 304.329 10.586 303.685L11.0223 303.441C10.8459 303.126 10.6754 302.807 10.5109 302.484C10.3731 302.213 10.2415 301.939 10.116 301.66L9.65999 301.865C9.40692 301.302 9.17792 300.722 8.97072 300.119L9.44353 299.957C9.2493 299.392 9.07429 298.807 8.91664 298.196L8.43251 298.321C8.28075 297.733 8.14507 297.123 8.02377 296.489L8.51488 296.395C8.40294 295.809 8.30324 295.201 8.21446 294.567L7.71929 294.637C7.63541 294.038 7.5613 293.418 7.49584 292.773L7.99328 292.723C7.93261 292.126 7.87936 291.508 7.83264 290.866L7.33397 290.902C7.28995 290.298 7.25173 289.674 7.21856 289.028L7.7179 289.003C7.68691 288.4 7.66031 287.778 7.6375 287.135L7.13781 287.153C7.11624 286.546 7.09804 285.921 7.08269 285.277L7.58255 285.265C7.56806 284.657 7.55611 284.032 7.54626 283.389L7.04632 283.397C7.03698 282.788 7.02953 282.163 7.02358 281.522L7.52356 281.517C7.5179 280.907 7.5136 280.282 7.51033 279.64L7.01034 279.643C7.00722 279.032 7.00505 278.407 7.00353 277.767L7.50353 277.766C7.50207 277.152 7.50121 276.525 7.50071 275.884L7.00071 275.885C7.00023 275.273 7.00008 274.649 7.00003 274.012L7.50003 274.012L7.5 273.068V272.063H7V270.054H7.5V268.044H7V266.035H7.5V264.026H7V262.017H7.5V260.008H7V257.998H7.5V255.989H7V253.98H7.5V251.971H7V249.962H7.5V247.952H7V245.943H7.5V243.934H7V241.925H7.5V239.916H7V237.906H7.5V235.897H7V233.888H7.5V231.879H7V229.87H7.5V227.86H7V225.851H7.5V223.842H7V221.833H7.5V219.824H7V217.814H7.5V215.805H7V213.796H7.5V211.787H7V209.778H7.5V207.768H7V205.759H7.5V203.75H7V201.741H7.5V199.732H7V197.722H7.5V195.713H7V193.704H7.5V191.695H7V189.686H7.5V187.676H7V185.667H7.5V183.658H7V181.649H7.5V179.64H7V177.63H7.5V175.621H7V173.612H7.5V171.603H7V169.594H7.5V167.584H7V165.575H7.5V163.566H7V161.557H7.5V159.548H7V157.538H7.5V155.529H7V153.52H7.5V151.511H7V149.502H7.5V147.492H7V145.483H7.5V143.474H7V141.465H7.5V139.456H7V137.446H7.5V135.437H7V133.428H7.5V131.419H7V129.41H7.5V127.4H7V125.391H7.5V123.382H7V121.373H7.5V119.364H7V117.354H7.5V115.345H7V113.336H7.5V111.327H7V109.318H7.5V107.308H7V105.299H7.5V103.29H7V101.281H7.5V99.2716H7V97.2624H7.5V95.2532H7V93.244H7.5V91.2348H7V89.2256H7.5V87.2164H7V85.2072H7.5V83.198H7V81.1888H7.5V79.1796H7V77.1704H7.5V75.1612H7V73.152H7.5V71.1428H7V69.1336H7.5V67.1244H7V65.1152H7.5V63.106H7V61.0968H7.5V59.0876H7V57.0784H7.5V55.0692H7V53.06H7.5V51.0508H7V49.0415H7.5V47.0324H7V45.0232H7.5V43.014H7V41.0047H7.5V40L7.50005 39.0243L7.00005 39.0243C7.00014 38.356 7.00044 37.7066 7.00136 37.0752L7.50136 37.076C7.50233 36.4073 7.504 35.759 7.50687 35.1301L7.00687 35.1278C7.00993 34.4574 7.01434 33.8088 7.02071 33.1808L7.52068 33.1859C7.52749 32.5152 7.53653 31.8685 7.54853 31.2443L7.04863 31.2347C7.06158 30.5614 7.07798 29.9137 7.09875 29.2899L7.59847 29.3065C7.62089 28.633 7.6484 27.9882 7.68215 27.3696L7.18289 27.3424C7.21981 26.6656 7.26418 26.0192 7.31752 25.4003L7.81567 25.4433C7.87343 24.773 7.94166 24.1369 8.02222 23.5307L7.52658 23.4648C7.61606 22.7915 7.72074 22.1529 7.84321 21.5441L8.33339 21.6427C8.46401 20.9933 8.61482 20.3808 8.78879 19.7981L8.30968 19.6551C8.50077 19.015 8.71974 18.4077 8.97066 17.8252L9.42987 18.023C9.55487 17.7328 9.68798 17.4492 9.82974 17.171C9.99945 16.8379 10.1775 16.5099 10.3637 16.1874L9.93072 15.9374C10.3136 15.2742 10.73 14.6334 11.1777 14.0172L11.5822 14.3111C12.0215 13.7065 12.4916 13.1262 12.9903 12.5723L12.6187 12.2378C13.1298 11.6702 13.6702 11.1298 14.2378 10.6187L14.5723 10.9903C15.1262 10.4916 15.7065 10.0215 16.3111 9.58224L16.0172 9.17774C16.6334 8.73004 17.2742 8.31363 17.9374 7.93072L18.1874 8.36373C18.5099 8.17754 18.8379 7.99945 19.171 7.82974C19.4492 7.68798 19.7328 7.55487 20.023 7.42987L19.8252 6.97066C20.4077 6.71974 21.015 6.50077 21.6551 6.30969L21.7981 6.78879C22.3808 6.61482 22.9933 6.46402 23.6427 6.33339L23.5441 5.84321C24.1529 5.72074 24.7915 5.61606 25.4648 5.52658L25.5307 6.02222C26.1369 5.94166 26.773 5.87343 27.4433 5.81567L27.4003 5.31752C28.0192 5.26418 28.6656 5.21981 29.3424 5.18289L29.3696 5.68215C29.9882 5.6484 30.633 5.62089 31.3065 5.59847L31.2899 5.09875C31.9137 5.07798 32.5613 5.06158 33.2347 5.04863L33.2443 5.54853C33.8685 5.53653 34.5152 5.52749 35.1859 5.52068L35.1808 5.02071C35.8088 5.01434 36.4574 5.00993 37.1278 5.00687L37.1301 5.50687C37.759 5.504 38.4073 5.50233 39.076 5.50136L39.0752 5.00136C39.7066 5.00044 40.356 5.00014 41.0242 5.00005L41.0243 5.50005L42 5.5H42.9928V5H44.9784V5.5H46.9639V5H48.9495V5.5H50.9351V5H52.9207V5.5H54.9062V5H56.8918V5.5H58.8774V5H60.863V5.5H62.8486V5H64.8341V5.5H66.8197V5H68.8053V5.5H70.7909V5H72.7764V5.5H74.762V5H76.7476V5.5H78.7332V5H80.7188V5.5H82.7043V5H84.6899V5.5H86.6755V5H88.661V5.5H90.6466V5H92.6322V5.5H94.6178V5H96.6034V5.5H98.5889V5H100.575V5.5H102.56V5H104.546V5.5H106.531V5H108.517V5.5H110.502V5H112.488V5.5H114.474V5H116.459V5.5H118.445V5H120.43V5.5H122.416V5H124.401V5.5H126.387V5H128.373V5.5H130.358V5H132.344V5.5H134.329V5H136.315V5.5H138.301V5H140.286V5.5H142.272V5H144.257V5.5H146.243V5H148.228V5.5H150.214V5H152.2V5.5H154.185V5H156.171V5.5H158.156V5H160.142V5.5H162.127V5H164.113V5.5H166.099V5H168.084V5.5H170.07V5H172.055V5.5H174.041V5H176.027V5.5H178.012V5H179.998V5.5H181.983V5H183.969V5.5H185.954V5H187.94V5.5H189.926V5H191.911V5.5H193.897V5H195.882V5.5H197.868V5H199.854V5.5H201.839V5H203.825V5.5H205.81V5H207.796V5.5H209.781V5H211.767V5.5H213.753V5H215.738V5.5H217.724V5H219.709V5.5H221.695V5H223.68V5.5H225.666V5H227.652V5.5H229.637V5H231.623V5.5H233.608V5H235.594V5.5H237.58V5H239.565V5.5H241.551V5H243.536V5.5H245.522V5H247.507V5.5H249.493V5H251.479V5.5H253.464V5H255.45V5.5H257.435V5H259.421V5.5H261.406V5H263.392V5.5H265.378V5H267.363V5.5H269.349V5H271.334V5.5H273.32V5H275.306V5.5H277.291V5H279.277V5.5H281.262V5H283.248V5.5H285.233V5H287.219V5.5H289.205V5H291.19V5.5H293.176V5H295.161V5.5H297.147V5H299.133V5.5H300.125L301.101 5.50005L301.101 5.00005C301.769 5.00014 302.418 5.00044 303.05 5.00136L303.049 5.50136C303.718 5.50233 304.366 5.504 304.995 5.50687L304.997 5.00687C305.668 5.00993 306.316 5.01434 306.944 5.02071L306.939 5.52068C307.61 5.52749 308.256 5.53653 308.881 5.54853L308.89 5.04863C309.564 5.06158 310.211 5.07798 310.835 5.09875L310.818 5.59847C311.492 5.62089 312.137 5.6484 312.755 5.68215L312.783 5.18289C313.459 5.21981 314.106 5.26418 314.725 5.31752L314.682 5.81567C315.352 5.87343 315.988 5.94166 316.594 6.02222L316.66 5.52658C317.334 5.61606 317.972 5.72074 318.581 5.84321L318.482 6.33339C319.132 6.46402 319.744 6.61482 320.327 6.78879L320.47 6.30969C321.11 6.50078 321.717 6.71975 322.3 6.97066L322.102 7.42987C322.392 7.55487 322.676 7.68798 322.954 7.82974C323.287 7.99945 323.615 8.17754 323.938 8.36373L324.188 7.93072C324.851 8.31363 325.492 8.73004 326.108 9.17774L325.814 9.58224C326.418 10.0215 326.999 10.4916 327.553 10.9903L327.887 10.6187C328.455 11.1298 328.995 11.6702 329.506 12.2378L329.135 12.5723C329.633 13.1262 330.104 13.7065 330.543 14.3111L330.947 14.0172C331.395 14.6334 331.811 15.2742 332.194 15.9374L331.761 16.1874C331.947 16.5099 332.126 16.8379 332.295 17.171C332.437 17.4492 332.57 17.7328 332.695 18.023L333.154 17.8252C333.405 18.4077 333.624 19.015 333.815 19.6551L333.336 19.7981C333.51 20.3808 333.661 20.9933 333.792 21.6427L334.282 21.5441C334.404 22.1529 334.509 22.7915 334.598 23.4648L334.103 23.5307C334.183 24.1369 334.252 24.773 334.309 25.4433L334.807 25.4003C334.861 26.0192 334.905 26.6656 334.942 27.3424L334.443 27.3696C334.477 27.9882 334.504 28.633 334.527 29.3065L335.026 29.2899C335.047 29.9137 335.063 30.5613 335.076 31.2347L334.576 31.2443C334.588 31.8685 334.598 32.5152 334.604 33.1859L335.104 33.1808C335.111 33.8088 335.115 34.4574 335.118 35.1278L334.618 35.1301C334.621 35.759 334.623 36.4073 334.624 37.076L335.124 37.0752C335.125 37.7066 335.125 38.356 335.125 39.0242L334.625 39.0243L334.625 40V41.0046H335.125V43.0138H334.625V45.023H335.125V47.0322H334.625V49.0414H335.125V51.0506H334.625V53.0598H335.125V55.069H334.625V57.0782H335.125V59.0874H334.625V61.0966H335.125V63.1058H334.625V65.115H335.125V67.1242H334.625V69.1334H335.125V71.1426H334.625V73.1518H335.125V75.161H334.625V77.1702H335.125V79.1795H334.625V81.1887H335.125V83.1978H334.625V85.2071H335.125V87.2163H334.625V89.2255H335.125V91.2347H334.625V93.2439H335.125V95.2531H334.625V97.2623H335.125V99.2715H334.625V101.281H335.125V103.29H334.625V105.299H335.125V107.308H334.625V109.317H335.125V111.327H334.625V113.336H335.125V115.345H334.625V117.354H335.125V119.363H334.625V121.373H335.125V123.382H334.625V125.391H335.125V127.4H334.625V129.409H335.125V131.419H334.625V133.428H335.125V135.437H334.625V137.446H335.125V139.455H334.625V141.465H335.125V143.474H334.625V145.483H335.125V147.492H334.625V149.501H335.125V151.511H334.625V153.52H335.125V155.529H334.625V157.538H335.125V159.547H334.625V161.557H335.125V163.566H334.625V165.575H335.125V167.584H334.625V169.594H335.125V171.603H334.625V173.612H335.125V175.621H334.625V177.63H335.125V179.64H334.625V181.649H335.125V183.658H334.625V185.667H335.125V187.676H334.625V189.686H335.125V191.695H334.625V193.704H335.125V195.713H334.625V197.722H335.125V199.732H334.625V201.741H335.125V203.75H334.625V205.759H335.125V207.768H334.625V209.778H335.125V211.787H334.625V213.796H335.125V215.805H334.625V217.814H335.125V219.824H334.625V221.833H335.125V223.842H334.625V225.851H335.125V227.86H334.625V229.87H335.125V231.879H334.625V233.888H335.125V235.897H334.625V237.906H335.125V239.916H334.625V241.925H335.125V243.934H334.625V245.943H335.125V247.952H334.625V249.962H335.125V251.971H334.625V253.98H335.125V255.989H334.625V257.998H335.125V260.008H334.625V262.017H335.125V264.026H334.625V266.035H335.125V268.044H334.625V270.054H335.125V272.063H334.625V273.067L334.625 274.012L335.125 274.012C335.125 274.649 335.125 275.273 335.124 275.885L334.624 275.884C334.624 276.525 334.623 277.152 334.621 277.766L335.121 277.767C335.12 278.407 335.118 279.032 335.115 279.643L334.615 279.64C334.611 280.281 334.607 280.907 334.601 281.517L335.101 281.522C335.095 282.163 335.088 282.788 335.079 283.396L334.579 283.389C334.569 284.032 334.557 284.657 334.542 285.265L335.042 285.277C335.027 285.921 335.009 286.546 334.987 287.153L334.487 287.135C334.465 287.778 334.438 288.4 334.407 289.003L334.906 289.028C334.873 289.674 334.835 290.298 334.791 290.902L334.292 290.866C334.246 291.508 334.192 292.126 334.132 292.723L334.629 292.773C334.564 293.418 334.49 294.038 334.406 294.637L333.911 294.567C333.822 295.201 333.722 295.809 333.61 296.395L334.101 296.489C333.98 297.123 333.844 297.733 333.693 298.321L333.208 298.196C333.051 298.807 332.876 299.392 332.681 299.957L333.154 300.119C332.947 300.722 332.718 301.302 332.465 301.865L332.009 301.66C331.883 301.939 331.752 302.213 331.614 302.484C331.45 302.807 331.279 303.126 331.103 303.441L331.539 303.685C331.178 304.329 330.793 304.957 330.385 305.568L329.969 305.29C329.567 305.892 329.142 306.478 328.694 307.045L329.087 307.355C328.631 307.933 328.152 308.493 327.653 309.034L327.286 308.694C326.795 309.226 326.283 309.737 325.752 310.228L326.091 310.595C325.551 311.095 324.991 311.573 324.412 312.03L324.102 311.637C323.535 312.084 322.95 312.509 322.348 312.912L322.625 313.328C322.015 313.736 321.387 314.121 320.742 314.481L320.498 314.045C320.183 314.222 319.864 314.392 319.541 314.557C319.271 314.694 318.996 314.826 318.717 314.952L318.922 315.408C318.36 315.661 317.779 315.89 317.177 316.097L317.014 315.624C316.45 315.818 315.864 315.993 315.253 316.151L315.378 316.635C314.79 316.787 314.181 316.922 313.546 317.044L313.452 316.553C312.867 316.665 312.259 316.764 311.625 316.853L311.694 317.348C311.095 317.432 310.475 317.506 309.831 317.572L309.78 317.074C309.183 317.135 308.565 317.188 307.924 317.235L307.96 317.734C307.356 317.778 306.731 317.816 306.086 317.849L306.06 317.35C305.457 317.381 304.835 317.407 304.193 317.43L304.211 317.93C303.603 317.951 302.978 317.969 302.334 317.985L302.322 317.485C301.714 317.499 301.089 317.511 300.446 317.521L300.454 318.021C299.845 318.031 299.22 318.038 298.579 318.044L298.574 317.544C298.294 317.547 298.01 317.549 297.723 317.551C297.386 317.553 297.044 317.555 296.698 317.557L296.7 318.057C296.089 318.06 295.464 318.062 294.824 318.064L294.823 317.564C294.21 317.565 293.583 317.566 292.942 317.567L292.942 318.067C292.331 318.067 291.707 318.067 291.069 318.067L291.069 317.567L290.125 317.568H289.133V318.068H287.148V317.568H285.164V318.068H283.18V317.568H281.195V318.068H279.211V317.568H277.227V318.068H275.242V317.568H273.258V318.068H271.273V317.568H269.289V318.068H267.305V317.568H265.32V318.068H263.336V317.568H261.352V318.068H259.367V317.568H257.383V318.068H255.398V317.568H253.414V318.068H251.43V317.568H249.445V318.068H247.461V317.568H245.477V318.068H243.492V317.568H241.508V318.068H239.523V317.568H237.539V318.068H235.555V317.568H233.57V318.068H231.586V317.568H229.602V318.068H227.617V317.568H225.633V318.068H223.648V317.568H221.664V318.068H219.68V317.568H217.695V318.068H215.711V317.568H213.727V318.068H211.742V317.568H209.758V318.068H207.773V317.568H205.789V318.068H203.805V317.568H201.82V318.068H199.836V317.568H197.852V318.068H195.867V317.568H193.883V318.068H191.898V317.568H189.914V318.068H187.93V317.568H185.945V318.068H183.961V317.568H181.977V318.068H179.992V317.568H178.008V318.068H176.023V317.568H174.039V318.068H172.055V317.568H170.07V318.068H168.086V317.568H166.102V318.068H164.117V317.568H162.133V318.068H160.148V317.568H158.164V318.068H156.18V317.568H154.195V318.068H152.211V317.568H150.227V318.068H148.242V317.568H146.258V318.068H144.273V317.568H142.289V318.068H140.305V317.568H138.32V318.068H136.336V317.568H134.352V318.068H132.367V317.568H130.383V318.068H128.398V317.568H126.414V318.068H124.43V317.568H122.445V318.068H120.461V317.568H118.477V318.068H116.492V317.568H114.508V318.068H112.523V317.568H110.539V318.068H108.555V317.568H106.57V318.068H104.586V317.568H102.602V318.068H100.617V317.568H98.6328V318.068H96.6484V317.568H94.6641V318.068H92.6797V317.568H90.6953V318.068H88.7109V317.568H86.7266V318.068H84.7422V317.568H82.7578V318.068H80.7734V317.568H78.7891V318.068H76.8047V317.568H74.8203V318.068H72.8359V317.568H70.8516V318.068H68.8672V317.568H66.8828V318.068H64.8984V317.568H62.9141V318.068H60.9297V317.568H58.9453V318.068H56.9609V317.568H54.9766V318.068H52.9922V317.568H52Z" stroke="white" stroke-dasharray="2 2" shape-rendering="crispEdges"/>
</g>
<defs>
<filter id="filter0_bd_88_251" x="0.75" y="0.3125" width="340.625" height="325.567" filterUnits="userSpaceOnUse" color-interpolation-filters="sRGB">
<feFlood flood-opacity="0" result="BackgroundImageFix"/>
<feGaussianBlur in="BackgroundImageFix" stdDeviation="1.5625"/>
<feComposite in2="SourceAlpha" operator="in" result="effect1_backgroundBlur_88_251"/>
<feColorMatrix in="SourceAlpha" type="matrix" values="0 0 0 0 0 0 0 0 0 0 0 0 0 0 0 0 0 0 127 0" result="hardAlpha"/>
<feOffset dy="1.5625"/>
<feGaussianBlur stdDeviation="3.125"/>
<feComposite in2="hardAlpha" operator="out"/>
<feColorMatrix type="matrix" values="0 0 0 0 0 0 0 0 0 0 0 0 0 0 0 0 0 0 0.05 0"/>
<feBlend mode="normal" in2="effect1_backgroundBlur_88_251" result="effect2_dropShadow_88_251"/>
<feBlend mode="normal" in="SourceGraphic" in2="effect2_dropShadow_88_251" result="shape"/>
</filter>
<clipPath id="clip0_88_251">
<path d="M7 40C7 27.7489 7 21.6233 9.38423 16.944C11.4815 12.8279 14.8279 9.48146 18.944 7.38423C23.6233 5 29.7489 5 42 5H300.125C312.376 5 318.502 5 323.181 7.38423C327.297 9.48146 330.644 12.8279 332.741 16.944C335.125 21.6233 335.125 27.7489 335.125 40V273.067C335.125 288.819 335.125 296.695 332.06 302.711C329.363 308.003 325.061 312.306 319.768 315.002C313.752 318.068 305.876 318.068 290.125 318.068H52C36.2485 318.068 28.3728 318.068 22.3565 315.002C17.0645 312.306 12.7619 308.003 10.0654 302.711C7 296.695 7 288.819 7 273.068V40Z" fill="white"/>
</clipPath>
<clipPath id="clip1_88_251">
<rect width="7.99702" height="4.6875" fill="white" transform="translate(294.408 91.7236)"/>
</clipPath>
<clipPath id="clip2_88_251">
<rect width="9.375" height="9.375" fill="white" transform="translate(32.7812 224.599)"/>
</clipPath>
<clipPath id="clip3_88_251">
<rect width="9.375" height="9.375" fill="white" transform="translate(98.5625 224.599)"/>
</clipPath>
</defs>
</svg>
