<svg width="42" height="42" viewBox="0 0 42 42" fill="none" xmlns="http://www.w3.org/2000/svg">
<g clip-path="url(#clip0_666_43)">
<path d="M30.4835 11.6145C20.6722 1.80313 9.31117 -2.74308 3.32385 3.24426C-2.66349 9.2316 1.88272 20.5927 11.694 30.404C21.5053 40.2153 32.7858 44.842 38.8537 38.7741C44.9216 32.7062 40.2949 21.4258 30.4835 11.6145Z" fill="white"/>
<path d="M34.5535 19.1248C35.6771 20.7042 36.6377 22.275 37.4166 23.8148C38.0008 24.9707 38.4809 26.106 38.8488 27.2266C39.3442 28.7514 39.6417 30.2431 39.621 31.7462C37.3176 32.2911 35.1149 32.2877 33.0601 31.9174C33.0821 31.7297 33.0895 31.4687 33.0581 31.1383C32.9993 30.4935 32.7891 29.6078 32.399 28.5891C31.818 27.058 30.8405 25.2302 29.5181 23.3198C28.1978 21.4074 26.5346 19.4064 24.5982 17.4701C22.8009 15.6728 20.9491 14.1119 19.1633 12.8409C17.8249 11.887 16.5218 11.0964 15.321 10.4897C14.4203 10.0347 13.5771 9.68376 12.83 9.43717C11.7093 9.0652 10.7994 8.95478 10.2896 8.99223C10.2366 8.9962 10.1917 9.00017 10.1489 9.00617C9.78066 6.95142 9.77517 4.74862 10.3221 2.44528C10.3526 2.44535 10.3832 2.44135 10.4117 2.44142C11.9149 2.43909 13.4087 2.74471 14.9335 3.25028C17.2178 4.01475 19.5888 5.24652 22.0057 6.86593C24.4165 8.48734 26.863 10.5005 29.2164 12.8519C31.2631 14.8987 33.0552 17.0202 34.5535 19.1248Z" fill="#F79342"/>
<path fill-rule="evenodd" clip-rule="evenodd" d="M7.68288 15.2816L10.3133 11.9162C11.1774 10.8106 12.1314 9.73033 13.1714 8.69034C17.3578 4.50388 22.2328 1.67746 26.8053 0.548639C31.3368 -0.570056 35.8863 -0.0715318 38.9348 2.91427C38.9622 2.94049 38.9893 2.96698 39.016 2.99378C39.053 3.03067 39.0892 3.06804 39.1249 3.10588C42.0893 6.1595 42.5778 10.7022 41.4561 15.2261C40.3239 19.7925 37.4998 24.6591 33.3195 28.8392C32.2796 29.8792 31.1992 30.8332 30.0939 31.6972L26.7283 34.3277L27.2276 30.3895C26.4426 31.1361 25.6395 31.8623 24.823 32.5634C21.1423 35.7237 17.3109 38.2659 13.7939 39.837L9.59464 41.7128L11.6062 37.2095C9.81121 38.2864 8.22979 39.0978 6.92448 39.6997C5.70109 40.2638 4.7207 40.6437 4.03483 40.8855C3.69191 41.0063 3.4226 41.0927 3.23335 41.1503C3.13872 41.1791 3.06411 41.2008 3.01031 41.216C2.9834 41.2236 2.9617 41.2295 2.94531 41.234C2.9371 41.2362 2.93023 41.238 2.9247 41.2395L2.9174 41.2414L2.91325 41.2425C2.91268 41.2426 2.91212 41.2428 2.46949 39.5404C2.46949 39.5404 3.22502 39.344 4.57022 38.8023C6.39761 38.0665 9.31314 36.6936 12.9011 34.3107C13.7988 33.7145 14.7385 33.0552 15.7139 32.3267L13.0765 38.2309C13.8851 37.8697 14.7154 37.4522 15.5606 36.9826C18.1892 35.5225 20.962 33.5601 23.6772 31.2288C25.0242 30.0723 26.3343 28.8444 27.5853 27.5692C28.289 26.8518 28.974 26.1196 29.6363 25.3766L29.0107 30.3113C29.6832 29.7857 30.3466 29.2243 30.9971 28.6282C31.361 28.2947 31.7207 27.9505 32.0758 27.5955C40.0591 19.6122 42.6281 9.2229 37.8534 4.32139C37.8269 4.29302 37.7998 4.26509 37.7723 4.23758C37.7523 4.21751 37.7319 4.1977 37.7113 4.17812C32.819 -0.625908 22.4105 1.93882 14.4152 9.93408C14.0601 10.2892 13.7158 10.649 13.3823 11.0128C12.7863 11.6634 12.2249 12.3268 11.6993 12.9993L16.6331 12.3737C15.8901 13.0361 15.1577 13.7211 14.4403 14.4248C13.1654 15.6757 11.9376 16.9858 10.7811 18.3327C8.44982 21.0478 6.48737 23.8207 5.02724 26.4492C4.55772 27.2944 4.14013 28.1248 3.77891 28.9334L9.69203 26.2921C8.96509 27.2664 8.30663 28.2058 7.71096 29.1035C5.33078 32.6903 3.95255 35.6118 3.2123 37.442C2.66917 38.7849 2.46949 39.5404 2.46949 39.5404C0.768878 39.0909 0.76903 39.0904 0.769173 39.0898L0.770262 39.0857L0.772206 39.0785C0.773681 39.073 0.775533 39.0662 0.777783 39.058C0.782271 39.0416 0.788306 39.0201 0.795989 38.9932C0.811347 38.9394 0.833258 38.8648 0.862425 38.7701C0.92077 38.5807 1.00815 38.311 1.13019 37.9675C1.37427 37.2807 1.75699 36.2988 2.3233 35.0744C2.92686 33.7695 3.7388 32.1894 4.81332 30.3978L0.297079 32.4152L2.17287 28.216C3.74389 24.699 6.28617 20.8676 9.44646 17.1869C10.1475 16.3705 10.8737 15.5675 11.6202 14.7824L7.68288 15.2816ZM2.46949 39.5404L2.91212 41.2428L0 42L0.768888 39.0909L2.46949 39.5404Z" fill="white"/>
<path d="M2.46948 39.5404C2.46948 39.5404 3.22502 39.344 4.57021 38.8023C6.39761 38.0665 9.31314 36.6936 12.9011 34.3108C13.7988 33.7146 14.7385 33.0552 15.7139 32.3267L13.0765 38.231C13.8851 37.8698 14.7154 37.4522 15.5606 36.9826C18.1892 35.5225 20.962 33.5601 23.6772 31.2288C25.0242 30.0723 26.3343 28.8444 27.5853 27.5693C28.289 26.8519 28.974 26.1196 29.6363 25.3766L29.0107 30.3114C29.6832 29.7857 30.3466 29.2244 30.9971 28.6283C31.361 28.2948 31.7207 27.9505 32.0758 27.5955C40.0591 19.6122 42.6281 9.22295 37.8534 4.32143C37.8269 4.29306 37.7998 4.26514 37.7723 4.23763C37.7523 4.21756 37.7319 4.19774 37.7113 4.17816C32.819 -0.625865 22.4105 1.93886 14.4152 9.93412C14.0601 10.2892 13.7158 10.6491 13.3823 11.0129C12.7863 11.6634 12.2249 12.3269 11.6993 12.9994L16.6331 12.3738C15.8901 13.0361 15.1577 13.7211 14.4403 14.4249C13.1654 15.6757 11.9376 16.9858 10.7811 18.3327C8.44982 21.0479 6.48737 23.8207 5.02724 26.4493C4.55772 27.2945 4.14013 28.1248 3.77891 28.9334L9.69203 26.2921C8.96508 27.2665 8.30662 28.2058 7.71096 29.1036C5.33078 32.6904 3.95255 35.6118 3.2123 37.442C2.66917 38.7849 2.46948 39.5404 2.46948 39.5404Z" fill="white"/>
<path fill-rule="evenodd" clip-rule="evenodd" d="M11.6988 12.999C12.5185 11.9504 13.4251 10.9236 14.4148 9.93378C22.4101 1.93849 32.8187 -0.626235 37.711 4.1778C37.7316 4.19738 37.7518 4.21719 37.7719 4.23727C37.7995 4.26476 37.8264 4.2927 37.853 4.32107C42.6277 9.22261 40.0587 19.6119 32.0754 27.5952C31.0857 28.5849 30.059 29.4914 29.0102 30.311L29.636 25.3762C27.7964 27.44 25.7817 29.4212 23.6767 31.2285C20.0886 34.3093 16.3995 36.7461 13.0761 38.2306L15.7135 32.3264C7.97016 38.1097 2.46912 39.5401 2.46912 39.5401C2.46912 39.5401 3.92916 34.016 9.69161 26.2917L3.77854 28.9331C5.26312 25.6096 7.69986 21.9205 10.7807 18.3324C12.5879 16.2276 14.5691 14.2129 16.6327 12.3734L11.6988 12.999Z" fill="#0000FF"/>
<path d="M9.13513 10.5567C9.21421 11.1973 9.42233 12.0341 9.78779 12.9895C10.1389 13.9143 10.635 14.9476 11.2599 16.0404C12.8581 18.9692 14.8648 21.2912 16.2452 22.7591C16.7258 23.2845 17.2248 23.8099 17.7441 24.3292C18.2369 24.822 18.7337 25.2944 19.2325 25.7505C20.7025 27.1371 23.0716 29.201 26.0759 30.8341C26.4599 31.0532 26.8377 31.2602 27.2053 31.4468C28.1223 31.9121 28.9839 32.2691 29.7452 32.5198C30.423 32.7459 31.023 32.8739 31.5105 32.9363C34.0166 33.5096 36.7579 33.5797 39.6441 32.7794C39.591 33.6215 39.428 34.4736 39.1017 35.303C38.7754 36.1322 38.2717 36.9346 37.6044 37.5978C36.8149 38.3892 35.8373 38.9455 34.8449 39.2612C33.9727 39.5405 33.0878 39.6525 32.2128 39.6564C30.6791 39.6607 29.1567 39.3468 27.6012 38.8311C25.2701 38.0522 22.8521 36.7958 20.3902 35.1437C17.9304 33.4895 15.4348 31.4375 13.0364 29.0391C10.9488 26.9514 9.122 24.7889 7.593 22.6415C6.44675 21.0293 5.46781 19.4279 4.6725 17.8574C4.07806 16.679 3.58564 15.5193 3.21156 14.3783C2.65452 12.6636 2.34029 10.9903 2.43597 9.29769C2.48688 8.45351 2.64992 7.59731 2.98028 6.76594C3.30657 5.93661 3.81036 5.13638 4.47767 4.47112C5.26704 3.67971 6.24464 3.12332 7.23711 2.80765C7.91978 2.58909 8.60887 2.47457 9.29613 2.43347C8.4957 5.31543 8.56582 8.05273 9.13716 10.5567H9.13513Z" fill="#FBB042"/>
</g>
<defs>
<clipPath id="clip0_666_43">
<rect width="42" height="42" fill="white"/>
</clipPath>
</defs>
</svg>
