<svg width="42" height="42" viewBox="0 0 42 42" fill="none" xmlns="http://www.w3.org/2000/svg">
<g clip-path="url(#clip0_385_1451)">
<path d="M41.16 21C41.16 32.134 32.1341 41.16 21 41.16C9.86592 41.16 0.839966 32.134 0.839966 21C0.839966 9.86587 9.86592 0.839966 21 0.839966C32.1341 0.839966 41.16 9.86587 41.16 21Z" fill="#FFB852"/>
<path fill-rule="evenodd" clip-rule="evenodd" d="M42 21C42 32.598 32.598 42 21 42C9.40205 42 0 32.598 0 21C0 9.402 9.40205 0 21 0C32.598 0 42 9.402 42 21ZM21 41.16C32.1341 41.16 41.16 32.1341 41.16 21C41.16 9.86598 32.1341 0.840001 21 0.840001C9.86594 0.840001 0.840003 9.86598 0.840003 21C0.840003 32.1341 9.86594 41.16 21 41.16Z" fill="black"/>
<path d="M13.8295 26.8355C13.8321 26.9696 13.8341 27.0481 13.6487 27.0502L11.2478 27.0742L11.2747 29.2518L15.4595 29.2064L15.4988 32.3709L17.5794 32.3462L17.5401 29.1818L18.8334 29.1681L18.8715 32.3282L20.8506 32.3069L20.8158 29.1413L22.3043 29.1277C23.2955 29.1142 26.8343 28.2332 26.7871 24.9499C26.815 24.0615 26.5415 23.1897 26.011 22.4764C25.4806 21.7631 24.7245 21.2502 23.8656 21.0211C23.8656 21.0211 25.8659 19.7856 25.6482 17.7138C25.4306 15.642 23.8003 15.0792 22.8623 14.7812C22.1335 14.5815 21.3843 14.466 20.6292 14.4368L20.5895 11.1284L18.6879 11.162L18.7318 14.4507L17.203 14.4702L17.1731 11.164L15.2497 11.2032L15.2883 14.5073L11.257 14.5553L11.2747 16.5028L13.485 16.4767C13.7075 16.4741 13.7087 16.5853 13.7096 16.6595L13.8295 26.8355ZM17.2198 16.4321L19.5697 16.4065C19.9732 16.4029 21.9376 16.7155 21.9468 18.3818C21.962 18.8385 21.8132 19.2857 21.5271 19.6421C21.241 19.9985 20.8367 20.2405 20.3874 20.3244C20.2075 20.3712 20.0233 20.3992 19.8377 20.408L17.2467 20.4364L17.2198 16.4321ZM17.3204 22.5087L20.9931 22.4758C21.259 22.4776 21.5217 22.5337 21.7651 22.6404C22.0086 22.7472 22.2277 22.9025 22.4092 23.0968C22.5906 23.2911 22.7305 23.5204 22.8204 23.7706C22.9103 24.0208 22.9482 24.2867 22.9318 24.5521C22.949 25.8769 21.7986 26.4713 21.1941 26.6297C21.1056 26.6558 21.0141 26.6704 20.922 26.6731L17.378 26.7188L17.3204 22.5087Z" fill="#FFE3BD"/>
<path fill-rule="evenodd" clip-rule="evenodd" d="M12.9821 26.2168L10.3975 26.2426L10.4451 30.1008L14.63 30.0555L14.6692 33.2208L18.4297 33.1761L18.4296 33.173L21.6998 33.1377L21.665 29.9736L22.3119 29.9676H22.3157C22.9576 29.9588 24.2427 29.6947 25.3832 28.9755C26.5586 28.2343 27.6489 26.9556 27.6273 24.957C27.6565 23.8857 27.3248 22.8355 26.6851 21.9751C26.3306 21.4985 25.8931 21.0955 25.3973 20.7833C25.4263 20.7503 25.4552 20.7165 25.484 20.6819C26.0403 20.0138 26.6246 18.968 26.4836 17.626C26.3495 16.3491 25.7628 15.4904 25.0467 14.9236C24.3627 14.3822 23.587 14.1301 23.1166 13.9807L23.1005 13.9755L23.0843 13.9711C22.5513 13.825 22.0082 13.7204 21.4599 13.6581L21.4192 10.2737L18.0056 10.3339L18.0053 10.3068L14.4001 10.3804L14.4386 13.6773L10.4094 13.7252L10.4424 17.3527L12.8773 17.3239L12.9821 26.2168ZM15.2883 14.5073L11.2569 14.5553L11.2747 16.5028L13.485 16.4767C13.7075 16.4741 13.7087 16.5853 13.7096 16.6595L13.8295 26.8355V26.8364C13.8321 26.97 13.8336 27.0481 13.6487 27.0502L11.2478 27.0742L11.2747 29.2518L15.4596 29.2064L15.4988 32.3709L17.5792 32.3462L17.5401 29.1818L18.8334 29.1681L18.8714 32.3282L20.8507 32.3069L20.8158 29.1413L22.3043 29.1277C23.2955 29.1142 26.8342 28.2332 26.7872 24.95C26.8149 24.0615 26.5414 23.1897 26.011 22.4764C25.6778 22.0283 25.2555 21.6593 24.7746 21.39C24.49 21.2306 24.1849 21.1063 23.8656 21.0211C23.8656 21.0211 24.2236 20.7999 24.6203 20.3878C25.1612 19.8259 25.7738 18.9091 25.6482 17.7138C25.4306 15.642 23.8003 15.0792 22.8623 14.7812C22.1335 14.5815 21.3842 14.466 20.6292 14.4368L20.5895 11.1284L18.6878 11.162L18.7317 14.4507L17.2029 14.4703L17.173 11.164L15.2497 11.2033L15.2883 14.5073ZM21.9467 18.3818C21.9376 16.7155 19.9732 16.4029 19.5697 16.4065L17.2198 16.4321L17.2467 20.4364L19.8376 20.408C20.0233 20.3992 20.2076 20.3712 20.3874 20.3244C20.8367 20.2405 21.241 19.9985 21.527 19.6421C21.8132 19.2857 21.962 18.8385 21.9467 18.3818ZM19.8115 19.5683C19.9346 19.5615 20.0568 19.5424 20.1761 19.5114L20.2045 19.504L20.2333 19.4986C20.4851 19.4516 20.7116 19.316 20.872 19.1162C21.0323 18.9165 21.1158 18.666 21.1072 18.4099L21.1068 18.3982L21.1067 18.3864C21.1044 17.9644 20.8857 17.7067 20.5145 17.5111C20.3234 17.4103 20.1125 17.3413 19.9237 17.2984C19.8308 17.2772 19.7486 17.2637 19.6838 17.2556C19.6515 17.2516 19.6251 17.2492 19.6054 17.2478C19.5876 17.2466 19.5784 17.2465 19.577 17.2465C19.5768 17.2465 19.5768 17.2465 19.577 17.2465L18.0654 17.2629L18.081 19.5872L19.8115 19.5683ZM22.9317 24.5521C22.9481 24.2867 22.9102 24.0208 22.8204 23.7706C22.7306 23.5204 22.5906 23.2911 22.4092 23.0968C22.2278 22.9025 22.0086 22.7472 21.7652 22.6404C21.5216 22.5337 21.2589 22.4776 20.9931 22.4758L17.3204 22.5087L17.378 26.7184L20.9219 26.6732C21.0141 26.6704 21.1056 26.6558 21.194 26.6297C21.7986 26.4713 22.949 25.877 22.9317 24.5521ZM20.9014 25.8333C20.92 25.8325 20.9385 25.8293 20.9564 25.8241L20.9687 25.8205L20.9811 25.8172C21.1827 25.7643 21.4881 25.6314 21.7256 25.4117C21.9434 25.2103 22.0969 24.9479 22.0918 24.563L22.0915 24.5317L22.0934 24.5004C22.1027 24.3489 22.0811 24.1972 22.0298 24.0545C21.9786 23.9118 21.8987 23.7809 21.7952 23.6701C21.6917 23.5592 21.5666 23.4706 21.4278 23.4097C21.2906 23.3496 21.1428 23.3176 20.993 23.3158L18.1718 23.3412L18.2065 25.8681L20.9014 25.8333Z" fill="black"/>
<path d="M19.737 4.44007C23.0147 4.19009 26.2896 4.91856 29.1485 6.52831L28.6574 7.35123C25.9683 5.84263 22.8904 5.16037 19.8098 5.39531C16.5895 5.64091 13.5241 6.87678 11.0339 8.93345C8.54371 10.9901 6.75079 13.7667 5.90104 16.8826C5.05129 19.9985 5.18633 23.301 6.28763 26.3371C7.38893 29.3732 9.40256 31.9941 12.0523 33.8407C14.7021 35.6871 17.8582 36.6686 21.0878 36.6505C24.3175 36.6323 27.4624 35.6155 30.0913 33.7394C32.606 31.9447 34.5308 29.4477 35.6272 26.566L36.5318 26.8826C35.3697 29.951 33.3235 32.6096 30.6477 34.5191C27.858 36.5101 24.5205 37.5892 21.0932 37.6084C17.6659 37.6277 14.3166 36.5861 11.5046 34.6267C8.69268 32.6672 6.55574 29.8856 5.38703 26.6637C4.21831 23.4418 4.07501 19.9371 4.97678 16.6305C5.87855 13.3239 7.78122 10.3773 10.4239 8.19476C13.0664 6.01223 16.3195 4.7007 19.737 4.44007Z" fill="black"/>
<path d="M36.8912 21.6119H30.3735V19.8303L32.5208 17.6526C33.2822 16.8709 33.8101 16.2719 34.1044 15.8557C34.4091 15.4395 34.5613 14.9979 34.5613 14.5309C34.5613 14.0537 34.4344 13.7187 34.1806 13.5258C33.9369 13.3329 33.5867 13.2365 33.1299 13.2365C32.4496 13.2365 31.7085 13.2974 30.9066 13.4192L30.5411 13.4649L30.4345 11.8355C31.4294 11.531 32.4598 11.3787 33.5258 11.3787C35.6577 11.3787 36.7237 12.3381 36.7237 14.2568C36.7237 15.008 36.5613 15.6578 36.2364 16.2059C35.9115 16.7542 35.3227 17.4191 34.4699 18.2008L32.7187 19.7846H36.8912V21.6119Z" fill="#FFDFB6"/>
<path fill-rule="evenodd" clip-rule="evenodd" d="M37.7311 22.4518H29.5336V19.4857L31.919 17.0665L31.9208 17.0646C32.6769 16.2882 33.1649 15.7293 33.4187 15.3705L33.4225 15.3651L33.4265 15.3596C33.6373 15.0715 33.7212 14.8008 33.7212 14.5308C33.7212 14.3621 33.6983 14.2659 33.6805 14.2192C33.6747 14.2037 33.6701 14.1951 33.6674 14.1909L33.6657 14.1895L33.6592 14.1843C33.6195 14.153 33.4832 14.0764 33.1298 14.0764C32.4989 14.0764 31.8006 14.133 31.0326 14.2497L31.0217 14.2513L29.761 14.4088L29.5529 11.2269L30.1886 11.0322C31.2651 10.7026 32.3785 10.5386 33.5257 10.5386C34.7006 10.5386 35.7386 10.801 36.4861 11.4737C37.2504 12.1616 37.5636 13.1436 37.5636 14.2567C37.5636 15.1314 37.3734 15.9347 36.959 16.6342C36.571 17.2889 35.9101 18.0201 35.0375 18.82L35.0333 18.8238L34.8999 18.9445H37.7311V22.4518ZM32.7186 19.7845L34.4699 18.2008C35.3226 17.419 35.9115 16.7541 36.2363 16.2059C36.5612 15.6577 36.7236 15.008 36.7236 14.2567C36.7236 12.338 35.6577 11.3786 33.5257 11.3786C32.4598 11.3786 31.4293 11.5309 30.4344 11.8354L30.5411 13.4649L30.9065 13.4192C31.0653 13.395 31.2216 13.3733 31.3756 13.3539C31.9995 13.2756 32.5842 13.2364 33.1298 13.2364C33.5867 13.2364 33.9369 13.3329 34.1806 13.5257C34.4344 13.7187 34.5612 14.0536 34.5612 14.5308C34.5612 14.9978 34.409 15.4394 34.1045 15.8556C33.81 16.2718 33.2821 16.8708 32.5207 17.6525L30.3736 19.8302V21.6118H36.8911V19.7845H32.7186Z" fill="black"/>
</g>
<defs>
<clipPath id="clip0_385_1451">
<rect width="42" height="42" fill="white"/>
</clipPath>
</defs>
</svg>
