<svg width="42" height="42" viewBox="0 0 42 42" fill="none" xmlns="http://www.w3.org/2000/svg">
<g clip-path="url(#clip0_456_22)">
<path d="M41.7804 31.6161L34.8472 39.0498C34.6969 39.2109 34.5152 39.3395 34.3133 39.4276C34.1114 39.5157 33.8936 39.5615 33.6733 39.5621H0.805328C0.648908 39.5613 0.496099 39.515 0.36547 39.429C0.23484 39.3429 0.132015 39.2208 0.0694873 39.0774C0.00696012 38.934 -0.0125766 38.7756 0.0132513 38.6213C0.0390792 38.467 0.10916 38.3236 0.214977 38.2084L7.13973 30.7747C7.28999 30.6136 7.47169 30.485 7.6736 30.3969C7.87551 30.3088 8.09334 30.263 8.31364 30.2624H41.1816C41.3398 30.2592 41.4953 30.3029 41.6287 30.3879C41.7621 30.4728 41.8674 30.5954 41.9314 30.74C41.9954 30.8847 42.0152 31.045 41.9883 31.2009C41.9615 31.3568 41.8892 31.5012 41.7804 31.6161ZM34.8472 16.6419C34.6963 16.4816 34.5145 16.3535 34.3127 16.2655C34.111 16.1774 33.8934 16.1312 33.6733 16.1296H0.805328C0.648579 16.1297 0.495259 16.1755 0.36415 16.2614C0.233041 16.3473 0.129837 16.4696 0.0671786 16.6133C0.00452049 16.757 -0.0148704 16.9158 0.0113813 17.0703C0.0376329 17.2249 0.108387 17.3684 0.214977 17.4833L7.13973 24.9221C7.29061 25.0824 7.47244 25.2104 7.67421 25.2985C7.87597 25.3865 8.0935 25.4328 8.31364 25.4344H41.1816C41.3377 25.4329 41.4901 25.3862 41.6202 25.2999C41.7503 25.2136 41.8526 25.0914 41.9148 24.9482C41.9769 24.8049 41.9961 24.6467 41.9702 24.4928C41.9442 24.3388 41.8742 24.1956 41.7686 24.0807L34.8472 16.6419ZM0.805328 11.3016H33.6733C33.8936 11.301 34.1114 11.2552 34.3133 11.1671C34.5152 11.0789 34.6969 10.9504 34.8472 10.7893L41.7804 3.35391C41.8611 3.26767 41.9218 3.16477 41.9583 3.05248C41.9948 2.94018 42.0062 2.82124 41.9916 2.70407C41.977 2.5869 41.9369 2.47436 41.874 2.37441C41.8111 2.27447 41.7271 2.18956 41.6278 2.1257C41.4948 2.0406 41.3395 1.99691 41.1816 2.00017H8.31364C8.09334 2.00079 7.87551 2.04658 7.6736 2.1347C7.47169 2.22281 7.28999 2.35139 7.13973 2.51249L0.214977 9.94786C0.108387 10.0628 0.0376329 10.2063 0.0113813 10.3608C-0.0148704 10.5154 0.00452049 10.6742 0.0671786 10.8179C0.129837 10.9616 0.233041 11.0839 0.36415 11.1698C0.495259 11.2557 0.648579 11.3015 0.805328 11.3016Z" fill="url(#paint0_linear_456_22)"/>
</g>
<defs>
<linearGradient id="paint0_linear_456_22" x1="3.54503" y1="40.4595" x2="38.0076" y2="1.60491" gradientUnits="userSpaceOnUse">
<stop offset="0.08" stop-color="#9945FF"/>
<stop offset="0.3" stop-color="#8752F3"/>
<stop offset="0.5" stop-color="#5497D5"/>
<stop offset="0.6" stop-color="#43B4CA"/>
<stop offset="0.72" stop-color="#28E0B9"/>
<stop offset="0.97" stop-color="#19FB9B"/>
</linearGradient>
<clipPath id="clip0_456_22">
<rect width="42" height="42" fill="white"/>
</clipPath>
</defs>
</svg>
