<svg width="42" height="42" viewBox="0 0 42 42" fill="none" xmlns="http://www.w3.org/2000/svg">
<path d="M40.9531 20.0769C40.2035 9.05716 30.6626 0.731403 19.6428 1.48097C14.1532 1.85436 9.33311 4.41033 5.96951 8.24307L5.96014 8.23628C5.93748 8.26764 5.91631 8.29858 5.89381 8.32992C2.55267 12.1814 0.673527 17.3025 1.04687 22.7913C1.08245 23.3143 1.14401 23.829 1.21841 24.3392C1.21838 24.3391 1.21843 24.3393 1.21841 24.3392C1.22176 24.3622 1.22522 24.3856 1.22846 24.4087C1.27875 24.7453 1.33714 25.0788 1.40377 25.4094C1.40372 25.4093 1.40381 25.4096 1.40377 25.4094C1.40499 25.4154 1.40625 25.422 1.40743 25.428C1.46809 25.7273 1.53547 26.0239 1.60919 26.3179C1.60926 26.3181 1.60946 26.319 1.6095 26.3192C3.91927 35.5305 12.5496 42.0543 22.3572 41.3872C33.377 40.6376 41.7027 31.0966 40.9531 20.0769ZM36.5997 20.373C36.692 21.7297 36.6066 23.0581 36.365 24.336C36.3621 24.3287 36.3597 24.3211 36.3567 24.3138C34.9068 20.7697 32.0387 18.2109 29.5165 16.7974C30.0269 10.7921 27.9896 8.26207 25.6838 7.85042C25.6211 7.83835 25.558 7.82805 25.4939 7.82011C23.6638 7.58538 21.9903 8.87895 21.7559 10.7089C21.5211 12.539 22.8147 14.2126 24.6446 14.4474C24.8043 14.4676 24.9622 14.4732 25.1186 14.4707C25.1287 14.6734 25.1351 14.8888 25.1369 15.114C23.0047 14.5856 21.0118 14.4822 19.1947 14.6456C18.5151 14.6909 17.8352 14.7765 17.1589 14.9029C17.3857 12.875 18.1465 10.5984 19.6228 8.93232C21.0499 7.32177 23.1716 6.39864 25.4861 6.63554C25.9249 6.68044 26.3931 6.78816 26.8146 6.92972C26.8339 6.93622 26.8545 6.94172 26.8737 6.94838C26.8739 6.948 26.8743 6.94749 26.8746 6.94711C32.2356 9.13107 36.1811 14.219 36.5997 20.373ZM22.6599 23.4278C22.6585 23.43 22.6569 23.4321 22.6555 23.4343C22.1783 24.1226 21.6107 24.8012 20.9445 25.4576C19.9457 24.395 19.1434 23.2506 18.5347 22.0668C18.5035 22.0033 18.4702 21.943 18.4397 21.8785C18.4386 21.8762 18.4375 21.8738 18.4363 21.8714C18.0787 21.1137 17.7747 20.2825 17.5393 19.377C18.9605 19.0426 20.3542 18.9196 21.6852 18.9844C21.7557 18.9891 21.8247 18.9905 21.8957 18.9963C21.8983 18.9965 21.901 18.9968 21.9036 18.9969C22.7372 19.066 23.6077 19.218 24.5081 19.4662C24.0871 20.8636 23.4969 22.1316 22.7755 23.2515C22.7362 23.3102 22.7005 23.3692 22.6599 23.4278ZM15.8259 6.68199C15.8222 6.6868 15.818 6.69135 15.8142 6.69617C13.4711 9.72238 12.6888 13.4833 12.725 16.3738C7.26929 18.9344 6.09697 21.9636 6.89339 24.1663C6.91425 24.2266 6.93691 24.2864 6.96206 24.3459C7.67383 26.0482 9.63088 26.8507 11.3329 26.1388C13.0351 25.427 13.8377 23.4699 13.1261 21.7678C13.0638 21.6194 12.9897 21.4798 12.9094 21.3456C13.0818 21.2342 13.2669 21.1198 13.4636 21.0043C14.072 23.1153 14.9722 24.9009 16.0224 26.393C16.4006 26.9578 16.8139 27.5027 17.2604 28.0243C15.3907 28.8421 13.0382 29.3218 10.8567 28.8763C8.74832 28.4457 6.88804 27.0698 5.93593 24.9469C5.75545 24.5445 5.61472 24.0853 5.52652 23.6495C5.47226 23.2687 5.42678 22.885 5.40029 22.4952C4.91296 15.331 9.3577 8.95305 15.8259 6.68199ZM22.0611 37.0338C17.8068 37.3232 13.83 35.8721 10.8244 33.2927C14.6168 33.8088 18.265 32.6058 20.7502 31.1292C25.6976 34.5765 28.9085 34.0774 30.4182 32.2859C30.46 32.2377 30.5005 32.1882 30.5394 32.1367C31.6577 30.6691 31.3742 28.573 29.9066 27.455C28.4391 26.3367 26.3429 26.6202 25.2246 28.0875C25.1273 28.2157 25.0435 28.3496 24.9674 28.4863C24.786 28.3933 24.5955 28.2907 24.3986 28.1791C25.9238 26.5959 27.0107 24.9204 27.7783 23.264C28.0789 22.6528 28.3447 22.0211 28.5734 21.3723C30.2175 22.5826 31.8106 24.3809 32.5159 26.494C33.1971 28.5352 32.9357 30.8342 31.5733 32.7202C31.3151 33.0777 30.9877 33.4293 30.6543 33.7236C30.6495 33.7278 30.6447 33.7323 30.6399 33.7367C28.2564 35.6101 25.3072 36.813 22.0611 37.0338Z" fill="url(#paint0_linear_335_454)"/>
<path style="mix-blend-mode:overlay" opacity="0.9" d="M25.684 7.85035C25.6214 7.83828 25.5582 7.82798 25.4941 7.82003C25.1703 7.77851 24.852 7.78708 24.5451 7.83575C26.4584 8.87659 27.8533 11.7766 27.1199 17.4972C26.877 19.3918 26.3136 21.1949 25.5 22.8493C24.8408 24.2719 23.9439 25.708 22.7383 27.0882C23.3173 27.5224 23.8819 27.8859 24.3988 28.179C25.9241 26.5958 27.011 24.9204 27.7785 23.2639C28.5921 21.6095 29.1555 19.8065 29.3984 17.9118C30.2716 11.1005 28.1279 8.28663 25.684 7.85035Z" fill="url(#paint1_radial_335_454)"/>
<g style="mix-blend-mode:overlay" opacity="0.8">
<path d="M27.1204 17.4971C27.8537 11.7766 26.4588 8.87654 24.5456 7.83569C24.4708 7.84754 24.3975 7.86346 24.3244 7.88026C26.1975 8.95701 27.5452 11.8543 26.8218 17.4971C26.5789 19.3918 26.0155 21.1948 25.202 22.8492C24.5646 24.2247 23.7025 25.6125 22.5566 26.9505C22.6176 26.9976 22.6781 27.0426 22.7388 27.0881C23.9444 25.708 24.8413 24.2718 25.5005 22.8492C26.3141 21.1948 26.8775 19.3918 27.1204 17.4971Z" fill="#E6E9EE"/>
</g>
<path style="mix-blend-mode:overlay" opacity="0.5" d="M19.8481 30.4719C19.6683 30.3349 19.4953 30.1915 19.3223 30.0481C16.4988 31.2261 12.5847 31.9647 8.69824 31.0628C9.33467 31.874 10.0449 32.6231 10.8251 33.2926C14.6174 33.8088 18.2656 32.6057 20.7508 31.1292C20.4558 30.9236 20.1555 30.7061 19.8481 30.4719Z" fill="url(#paint2_radial_335_454)"/>
<path style="mix-blend-mode:overlay" opacity="0.6" d="M19.322 30.0481C19.2355 29.9765 19.1484 29.9055 19.0637 29.8323C16.2188 30.9692 12.2869 31.6488 8.40918 30.6823C8.50366 30.8106 8.59974 30.9376 8.69797 31.0628C12.5844 31.9648 16.4985 31.2262 19.322 30.0481Z" fill="url(#paint3_linear_335_454)"/>
<path style="mix-blend-mode:overlay" opacity="0.9" d="M6.89438 24.1696C6.91526 24.2299 6.93791 24.2897 6.96306 24.3492C7.08902 24.6504 7.2556 24.9218 7.45121 25.1633C7.39596 22.9859 9.21004 20.3279 14.5309 18.1027C16.2931 17.3657 18.1363 16.9521 19.9758 16.8295C21.5374 16.6891 23.2296 16.7477 25.0277 17.1018C25.1142 16.3833 25.1468 15.7126 25.1421 15.1183C23.0084 14.589 21.014 14.4854 19.1957 14.6489C17.3561 14.7716 15.513 15.1852 13.7507 15.9221C7.41535 18.5716 6.05029 21.835 6.89438 24.1696Z" fill="url(#paint4_radial_335_454)"/>
<g style="mix-blend-mode:overlay" opacity="0.8">
<path d="M14.5311 18.1027C9.21026 20.3279 7.39617 22.986 7.45141 25.1633C7.49903 25.2221 7.54946 25.2776 7.6006 25.3326C7.59655 23.1721 9.43184 20.5563 14.6803 18.3613C16.4426 17.6244 18.2858 17.2108 20.1253 17.0881C21.6352 16.9523 23.2681 17.005 24.9998 17.3284C25.0101 17.252 25.0188 17.1771 25.0279 17.1019C23.2299 16.7478 21.5376 16.6891 19.9761 16.8295C18.1365 16.9522 16.2933 17.3658 14.5311 18.1027Z" fill="#E6E9EE"/>
</g>
<path style="mix-blend-mode:overlay" opacity="0.4" d="M29.4029 17.9133C29.3742 18.1376 29.3365 18.3591 29.2988 18.5807C31.7308 20.4368 34.3275 23.4572 35.4896 27.274C35.8739 26.3172 36.1675 25.3276 36.3573 24.3172C34.9081 20.7748 32.0421 18.2169 29.5208 16.803C29.4903 17.1613 29.452 17.53 29.4029 17.9133Z" fill="url(#paint5_radial_335_454)"/>
<path style="mix-blend-mode:overlay" opacity="0.5" d="M29.299 18.5806C29.2802 18.6913 29.2622 18.8022 29.2412 18.9122C31.6482 20.8075 34.2027 23.8728 35.3046 27.7142C35.3685 27.5682 35.4304 27.4216 35.4898 27.2739C34.3276 23.4571 31.7309 20.4367 29.299 18.5806Z" fill="url(#paint6_linear_335_454)"/>
<path style="mix-blend-mode:overlay" opacity="0.9" d="M30.4205 32.2813C30.4623 32.2331 30.5028 32.1836 30.5417 32.132C30.7396 31.8724 30.8913 31.5924 31.0027 31.3023C29.1446 32.4388 25.9356 32.1968 21.3482 28.7014C19.8288 27.5437 18.549 26.1543 17.523 24.6225C16.6207 23.3403 15.8254 21.8455 15.233 20.1113C14.5674 20.3956 13.9703 20.7028 13.458 21.004C14.0665 23.1165 14.974 24.8955 16.0247 26.3884C17.0507 27.9202 18.3305 29.3096 19.8499 30.4673C25.312 34.6292 28.8208 34.1796 30.4205 32.2813Z" fill="url(#paint7_radial_335_454)"/>
<g style="mix-blend-mode:overlay" opacity="0.8">
<path d="M21.3486 28.7014C25.9361 32.1968 29.1451 32.4388 31.0031 31.3023C31.0302 31.2317 31.0531 31.1602 31.0751 31.0885C29.2061 32.1722 26.023 31.8907 21.4979 28.4429C19.9786 27.2852 18.6988 25.8958 17.6728 24.364C16.8003 23.1243 16.0294 21.6838 15.4437 20.0225C15.3723 20.0517 15.3031 20.0816 15.2334 20.1114C15.8258 21.8455 16.6211 23.3404 17.5235 24.6226C18.5495 26.1543 19.8293 27.5437 21.3486 28.7014Z" fill="#E6E9EE"/>
</g>
<path style="mix-blend-mode:overlay" opacity="0.3" d="M13.7483 15.9161C13.9569 15.8289 14.1676 15.7508 14.3783 15.6726C14.7698 12.6384 16.0872 8.8794 18.8115 5.9646C17.7907 6.11015 16.7869 6.3507 15.817 6.69156C13.4738 9.71779 12.6916 13.4787 12.7278 16.3692C13.0533 16.2165 13.3918 16.0652 13.7483 15.9161Z" fill="url(#paint8_radial_335_454)"/>
<path style="mix-blend-mode:overlay" opacity="0.4" d="M14.3779 15.6726C14.4832 15.6336 14.5882 15.5937 14.694 15.5569C15.1319 12.5247 16.5093 8.77979 19.2851 5.90479C19.1267 5.92246 18.9687 5.94217 18.8112 5.96464C16.0869 8.87944 14.7695 12.6384 14.3779 15.6726Z" fill="url(#paint9_linear_335_454)"/>
<path style="mix-blend-mode:multiply" opacity="0.4" d="M19.6427 1.481C14.1531 1.85438 9.33305 4.41035 5.96946 8.24309C5.94405 8.27206 5.91879 8.30109 5.89355 8.3302C6.5484 8.97976 8.68875 10.2603 9.55616 10.7944C11.2593 8.96283 13.4003 7.53366 15.8259 6.68201C15.9953 6.46373 16.1709 6.24837 16.3569 6.03846C18.616 3.4892 21.7011 2.14177 25.2795 2.14177C25.6778 2.14177 26.4889 2.20517 26.5063 2.20645C24.337 1.58321 22.025 1.31895 19.6427 1.481Z" fill="url(#paint10_linear_335_454)"/>
<path style="mix-blend-mode:multiply" opacity="0.4" d="M22.0609 37.0337C17.8066 37.3231 13.8298 35.872 10.8242 33.2926C10.5445 33.2545 10.2641 33.2088 9.98323 33.1515C6.64594 32.4696 3.93648 30.4716 2.14731 27.3726C1.94816 27.0277 1.76997 26.6763 1.60938 26.3193C3.91921 35.5305 12.5495 42.0542 22.357 41.3871C22.4005 40.3771 22.1028 38.0337 22.0609 37.0337Z" fill="url(#paint11_linear_335_454)"/>
<path style="mix-blend-mode:multiply" opacity="0.4" d="M40.9528 20.0769C40.3384 20.0139 37.3372 20.2508 36.5994 20.373C36.6917 21.7297 36.6063 23.0581 36.3647 24.336C36.4683 24.5902 36.5665 24.8483 36.6547 25.1126C37.7329 28.3437 37.3572 31.6892 35.568 34.7882C35.3726 35.1267 35.1616 35.4509 34.9375 35.763C34.9333 35.7689 34.9284 35.7757 34.9248 35.7807C34.9248 35.7807 34.934 35.7728 34.9392 35.768C39.0014 31.816 41.3675 26.1744 40.9528 20.0769Z" fill="url(#paint12_linear_335_454)"/>
<path style="mix-blend-mode:multiply" opacity="0.5" d="M25.4861 6.63554C25.9248 6.68044 26.393 6.78816 26.8145 6.92972C26.8339 6.93622 26.8545 6.94172 26.8736 6.94838L26.8746 6.94712C28.5998 7.64995 30.1772 8.65492 31.5389 9.89802C31.5418 9.90046 31.5447 9.90246 31.5477 9.9049C32.204 9.15462 33.4676 8.33018 33.4676 8.33018C33.4676 8.33018 31.5327 6.35095 28.5734 5.73671C26.5017 5.30671 21.8289 4.88989 18.8818 9.9049C18.8818 9.9049 18.8936 9.89385 18.9108 9.87793C19.1288 9.54842 19.3606 9.22814 19.6227 8.93232C21.0499 7.32177 23.1716 6.39864 25.4861 6.63554Z" fill="url(#paint13_linear_335_454)"/>
<path style="mix-blend-mode:multiply" opacity="0.5" d="M31.5731 32.7184C31.3148 33.0759 30.9874 33.4275 30.6541 33.7218C30.6388 33.7353 30.6237 33.7503 30.6084 33.7636L30.609 33.765C29.1377 34.9078 27.4787 35.7713 25.7213 36.329C25.7177 36.3304 25.7145 36.3319 25.7109 36.3332C26.0326 37.2767 26.1147 38.7832 26.1147 38.7832C26.1147 38.7832 28.7963 38.0972 30.8078 35.8415C32.2161 34.2623 34.9135 30.424 32.0439 25.3643C32.0439 25.3643 32.0476 25.38 32.0527 25.4028C32.2291 25.7564 32.3906 26.1173 32.5157 26.4922C33.1969 28.5334 32.9355 30.8324 31.5731 32.7184Z" fill="url(#paint14_linear_335_454)"/>
<path style="mix-blend-mode:multiply" opacity="0.5" d="M5.94318 24.9529C5.76268 24.5504 5.62187 24.0911 5.53372 23.6553C5.52966 23.6353 5.52414 23.6147 5.52033 23.5948L5.51877 23.5946C5.2648 21.7491 5.34646 19.8806 5.74217 18.0797C5.7428 18.076 5.74308 18.0725 5.74372 18.0687C4.76582 17.8755 3.42003 17.1934 3.42003 17.1934C3.42003 17.1934 2.67342 19.8587 3.62112 22.7286C4.28458 24.7377 6.25999 28.9929 12.0766 29.0376C12.0766 29.0376 12.0612 29.033 12.0388 29.026C11.6444 29.002 11.2512 28.9614 10.8639 28.8823C8.75557 28.4516 6.89528 27.0758 5.94318 24.9529Z" fill="url(#paint15_linear_335_454)"/>
<path style="mix-blend-mode:multiply" opacity="0.6" d="M24.6448 14.4473C24.8044 14.4675 24.9624 14.4731 25.1187 14.4706C25.1187 14.4706 25.0143 12.3926 24.7591 11.3264C24.5039 10.2602 24.1276 9.55414 23.7142 9.15452C23.418 8.86824 22.4831 8.5117 21.756 10.7088C21.5213 12.5389 22.8149 14.2125 24.6448 14.4473Z" fill="url(#paint16_linear_335_454)"/>
<path style="mix-blend-mode:multiply" opacity="0.5" d="M13.1274 21.771C13.0651 21.6226 12.991 21.4831 12.9107 21.3489C12.9107 21.3489 11.1633 22.4784 10.3675 23.2325C9.57173 23.9865 9.14846 24.6655 9.00908 25.2233C8.90923 25.6229 9.06793 26.6109 11.3342 26.142C13.0364 25.4302 13.839 23.4731 13.1274 21.771Z" fill="url(#paint17_linear_335_454)"/>
<path style="mix-blend-mode:multiply" opacity="0.6" d="M25.2279 28.082C25.1306 28.2102 25.0468 28.3441 24.9707 28.4808C24.9707 28.4808 26.8226 29.4293 27.8735 29.7415C28.9244 30.0536 29.7241 30.0807 30.2769 29.9225C30.6729 29.8091 31.4491 29.1777 29.9099 27.4495C28.4424 26.3312 26.3462 26.6147 25.2279 28.082Z" fill="url(#paint18_linear_335_454)"/>
<path style="mix-blend-mode:multiply" opacity="0.3" d="M24.5079 19.4663C24.087 20.8637 23.4967 22.1317 22.7754 23.2516C22.7361 23.3103 22.7004 23.3693 22.6598 23.4279C22.6584 23.4301 22.6568 23.4322 22.6554 23.4344C22.1782 24.1227 21.6106 24.8013 20.9443 25.4577C21.4022 25.9449 21.8973 26.4165 22.441 26.8639C23.1239 27.4028 23.7932 27.836 24.3985 28.1792C25.9237 26.596 27.0106 24.9206 27.7782 23.2641C28.0788 22.6529 28.3446 22.0212 28.5733 21.3724C27.8697 20.8544 27.1569 20.4422 26.5001 20.1621C25.8208 19.8726 25.1568 19.6452 24.5079 19.4663Z" fill="url(#paint19_linear_335_454)"/>
<path style="mix-blend-mode:multiply" opacity="0.3" d="M10.8243 33.2929C14.6167 33.809 18.2648 32.606 20.75 31.1294C20.455 30.9238 20.1547 30.7063 19.8473 30.4721C18.8881 29.7412 18.025 28.9176 17.2603 28.0244C15.3905 28.8423 13.038 29.322 10.8565 28.8765C8.74817 28.4458 6.88789 27.07 5.93578 24.9471C5.7553 24.5447 5.61457 24.0854 5.52637 23.6497C6.07735 27.5159 8.02829 30.8933 10.8243 33.2929Z" fill="url(#paint20_linear_335_454)"/>
<path style="mix-blend-mode:multiply" opacity="0.3" d="M20.9448 25.4578C19.946 24.3952 19.1437 23.2508 18.535 22.067C18.5038 22.0036 18.4705 21.9432 18.44 21.8787C18.4389 21.8764 18.4378 21.874 18.4366 21.8716C18.079 21.1139 17.775 20.2827 17.5396 19.3772C16.8902 19.53 16.2357 19.7226 15.5779 19.9692C14.7715 20.2905 14.0629 20.6527 13.4639 21.0045C14.0723 23.1156 14.9725 24.9011 16.0227 26.3933C16.4009 26.958 16.8142 27.5029 17.2608 28.0245C18.0624 27.6738 18.7769 27.2621 19.3485 26.8327C19.9379 26.39 20.466 25.9295 20.9448 25.4578Z" fill="url(#paint21_linear_335_454)"/>
<path style="mix-blend-mode:multiply" opacity="0.3" d="M15.8141 6.6963C13.4709 9.7225 12.6886 13.4834 12.7248 16.3739C13.0516 16.2206 13.3915 16.0686 13.7496 15.9189C14.8609 15.4542 16.0043 15.1187 17.1588 14.903C17.3856 12.8751 18.1464 10.5985 19.6226 8.93243C21.0498 7.32187 23.1715 6.39874 25.486 6.63564C25.9248 6.68054 26.393 6.78827 26.8144 6.92982C26.8338 6.93632 26.8544 6.94182 26.8735 6.94848C26.8738 6.94811 26.8742 6.9476 26.8745 6.94722C24.7421 6.07855 22.3865 5.66799 19.9388 5.83449C18.5012 5.93228 17.1237 6.22639 15.8258 6.68209C15.8221 6.68691 15.8178 6.69149 15.8141 6.6963Z" fill="url(#paint22_linear_335_454)"/>
<path style="mix-blend-mode:multiply" opacity="0.3" d="M36.3566 24.314C34.9066 20.7698 32.0386 18.2111 29.5163 16.7976C29.4857 17.1571 29.4473 17.5274 29.398 17.9121C29.2448 19.1068 28.9637 20.2649 28.5732 21.3725C30.2173 22.5828 31.8104 24.3811 32.5157 26.4942C33.197 28.5354 32.9356 30.8344 31.5732 32.7204C31.3149 33.0779 30.9875 33.4296 30.6542 33.7238C30.6493 33.7281 30.6446 33.7325 30.6398 33.737C33.576 31.4292 35.6528 28.1031 36.3649 24.3362C36.3619 24.329 36.3595 24.3213 36.3566 24.314Z" fill="url(#paint23_linear_335_454)"/>
<path style="mix-blend-mode:multiply" opacity="0.3" d="M17.1469 17.3082C17.2356 18.0396 17.3702 18.727 17.5392 19.3771C18.9604 19.0427 20.3541 18.9198 21.6851 18.9846C21.7556 18.9893 21.8245 18.9906 21.8956 18.9965C21.8982 18.9967 21.9008 18.9969 21.9034 18.9971C22.7371 19.0661 23.6075 19.2181 24.5079 19.4663C24.7005 18.8271 24.861 18.1635 24.9765 17.4699C25.102 16.6078 25.1423 15.8106 25.1367 15.1141C23.0046 14.5858 21.0117 14.4824 19.1945 14.6457C18.515 14.691 17.835 14.7766 17.1588 14.903C17.0615 15.7731 17.0608 16.5981 17.1469 17.3082Z" fill="url(#paint24_linear_335_454)"/>
<defs>
<linearGradient id="paint0_linear_335_454" x1="7.35118" y1="35.0838" x2="32.8545" y2="9.58049" gradientUnits="userSpaceOnUse">
<stop offset="0.001139" stop-color="#E6007A"/>
<stop offset="0.207149" stop-color="#703AC2"/>
<stop offset="0.456011" stop-color="#0070EB"/>
<stop offset="0.768132" stop-color="#0297FB"/>
<stop offset="1" stop-color="#0AE2FF"/>
</linearGradient>
<radialGradient id="paint1_radial_335_454" cx="0" cy="0" r="1" gradientUnits="userSpaceOnUse" gradientTransform="translate(26.7011 17.3856) scale(7.60439)">
<stop stop-color="white"/>
<stop offset="1" stop-color="white" stop-opacity="0"/>
</radialGradient>
<radialGradient id="paint2_radial_335_454" cx="0" cy="0" r="1" gradientUnits="userSpaceOnUse" gradientTransform="translate(15.4612 31.4927) scale(4.4243)">
<stop stop-color="white"/>
<stop offset="1" stop-color="white" stop-opacity="0"/>
</radialGradient>
<linearGradient id="paint3_linear_335_454" x1="8.82137" y1="30.7444" x2="13.0861" y2="30.6852" gradientUnits="userSpaceOnUse">
<stop stop-color="white" stop-opacity="0"/>
<stop offset="1" stop-color="white"/>
</linearGradient>
<radialGradient id="paint4_radial_335_454" cx="0" cy="0" r="1" gradientUnits="userSpaceOnUse" gradientTransform="translate(14.6436 18.5212) rotate(-120) scale(7.60439)">
<stop stop-color="white"/>
<stop offset="1" stop-color="white" stop-opacity="0"/>
</radialGradient>
<radialGradient id="paint5_radial_335_454" cx="0" cy="0" r="1" gradientUnits="userSpaceOnUse" gradientTransform="translate(32.4804 21.2021) rotate(-120) scale(4.4243)">
<stop stop-color="white"/>
<stop offset="1" stop-color="white" stop-opacity="0"/>
</radialGradient>
<linearGradient id="paint6_linear_335_454" x1="35.1523" y1="27.3262" x2="32.9686" y2="23.6625" gradientUnits="userSpaceOnUse">
<stop stop-color="white" stop-opacity="0"/>
<stop offset="1" stop-color="white"/>
</linearGradient>
<radialGradient id="paint7_radial_335_454" cx="0" cy="0" r="1" gradientUnits="userSpaceOnUse" gradientTransform="translate(21.2952 28.0428) rotate(120) scale(7.60439)">
<stop stop-color="white"/>
<stop offset="1" stop-color="white" stop-opacity="0"/>
</radialGradient>
<radialGradient id="paint8_radial_335_454" cx="0" cy="0" r="1" gradientUnits="userSpaceOnUse" gradientTransform="translate(15.0577 11.6066) rotate(120) scale(4.4243)">
<stop stop-color="white"/>
<stop offset="1" stop-color="white" stop-opacity="0"/>
</radialGradient>
<linearGradient id="paint9_linear_335_454" x1="19.0253" y1="6.23073" x2="16.9442" y2="9.95372" gradientUnits="userSpaceOnUse">
<stop stop-color="white" stop-opacity="0"/>
<stop offset="1" stop-color="white"/>
</linearGradient>
<linearGradient id="paint10_linear_335_454" x1="19.9522" y1="4.33829" x2="13.4366" y2="6.23373" gradientUnits="userSpaceOnUse">
<stop stop-color="#231F20"/>
<stop offset="1" stop-color="white"/>
</linearGradient>
<linearGradient id="paint11_linear_335_454" x1="7.63885" y1="29.1881" x2="13.0882" y2="34.8744" gradientUnits="userSpaceOnUse">
<stop stop-color="#231F20"/>
<stop offset="1" stop-color="white"/>
</linearGradient>
<linearGradient id="paint12_linear_335_454" x1="36.8858" y1="28.3311" x2="38.7812" y2="22.5659" gradientUnits="userSpaceOnUse">
<stop stop-color="#231F20"/>
<stop offset="1" stop-color="white"/>
</linearGradient>
<linearGradient id="paint13_linear_335_454" x1="22.921" y1="7.63517" x2="31.6566" y2="9.63536" gradientUnits="userSpaceOnUse">
<stop stop-color="#231F20"/>
<stop offset="1" stop-color="white"/>
</linearGradient>
<linearGradient id="paint14_linear_335_454" x1="31.9899" y1="29.9972" x2="25.8899" y2="36.5623" gradientUnits="userSpaceOnUse">
<stop stop-color="#231F20"/>
<stop offset="1" stop-color="white"/>
</linearGradient>
<linearGradient id="paint15_linear_335_454" x1="8.0914" y1="26.6744" x2="5.45586" y2="18.1092" gradientUnits="userSpaceOnUse">
<stop stop-color="#231F20"/>
<stop offset="1" stop-color="white"/>
</linearGradient>
<linearGradient id="paint16_linear_335_454" x1="24.831" y1="10.857" x2="22.0668" y2="13.6212" gradientUnits="userSpaceOnUse">
<stop stop-color="#231F20"/>
<stop offset="1" stop-color="white"/>
</linearGradient>
<linearGradient id="paint17_linear_335_454" x1="9.92505" y1="23.4049" x2="13.701" y2="24.4166" gradientUnits="userSpaceOnUse">
<stop stop-color="#231F20"/>
<stop offset="1" stop-color="white"/>
</linearGradient>
<linearGradient id="paint18_linear_335_454" x1="28.2441" y1="30.0384" x2="27.2323" y2="26.2625" gradientUnits="userSpaceOnUse">
<stop stop-color="#231F20"/>
<stop offset="1" stop-color="white"/>
</linearGradient>
<linearGradient id="paint19_linear_335_454" x1="22.4959" y1="26.6811" x2="24.1544" y2="24.3907" gradientUnits="userSpaceOnUse">
<stop stop-color="#231F20"/>
<stop offset="1" stop-color="white"/>
</linearGradient>
<linearGradient id="paint20_linear_335_454" x1="16.7851" y1="25.6895" x2="13.4681" y2="27.2691" gradientUnits="userSpaceOnUse">
<stop stop-color="#231F20"/>
<stop offset="1" stop-color="white"/>
</linearGradient>
<linearGradient id="paint21_linear_335_454" x1="15.5819" y1="20.1681" x2="16.6086" y2="22.3005" gradientUnits="userSpaceOnUse">
<stop stop-color="#231F20"/>
<stop offset="1" stop-color="white"/>
</linearGradient>
<linearGradient id="paint22_linear_335_454" x1="20.3576" y1="13.5824" x2="19.6468" y2="11.1342" gradientUnits="userSpaceOnUse">
<stop stop-color="#231F20"/>
<stop offset="1" stop-color="white"/>
</linearGradient>
<linearGradient id="paint23_linear_335_454" x1="28.0181" y1="24.7919" x2="30.0715" y2="25.2658" gradientUnits="userSpaceOnUse">
<stop stop-color="#231F20"/>
<stop offset="1" stop-color="white"/>
</linearGradient>
<linearGradient id="paint24_linear_335_454" x1="24.7956" y1="17.8552" x2="22.1894" y2="17.3814" gradientUnits="userSpaceOnUse">
<stop stop-color="#231F20"/>
<stop offset="1" stop-color="white"/>
</linearGradient>
</defs>
</svg>
