<svg width="42" height="43" viewBox="0 0 42 43" fill="none" xmlns="http://www.w3.org/2000/svg">
<path d="M22.0054 1.40296C22.3364 1.59468 22.6594 1.78301 22.984 1.9687C23.4608 2.2415 23.9391 2.51165 24.416 2.78435C24.8488 3.03185 25.2799 3.28236 25.7129 3.5295C26.1494 3.77864 26.5881 4.02412 27.0246 4.27333C27.4575 4.52054 27.8887 4.77082 28.3212 5.019C29.0239 5.42235 29.7266 5.82596 30.4302 6.22786C31.1677 6.64912 31.907 7.06726 32.6442 7.48905C33.3204 7.87593 33.994 8.26728 34.6703 8.65405C35.3129 9.02157 35.9581 9.38454 36.6009 9.75165C37.1827 10.0839 37.7626 10.4195 38.3438 10.7528C38.6615 10.9349 38.979 11.1176 39.2996 11.2947C39.3569 11.3264 39.3812 11.3596 39.3734 11.4213C39.3705 11.4443 39.373 11.4679 39.373 11.4913C39.373 18.4 39.3728 25.3088 39.375 32.2175C39.375 32.324 39.3531 32.3842 39.2486 32.4426C38.5411 32.8378 37.8399 33.2439 37.1372 33.6474C36.4617 34.0355 35.7877 34.4262 35.1115 34.813C34.4689 35.1806 33.8235 35.5432 33.1808 35.9106C32.5045 36.2973 31.8308 36.6883 31.1546 37.0752C30.5662 37.4119 29.9753 37.7444 29.3867 38.0808C28.805 38.4132 28.2255 38.7493 27.6438 39.0817C27.1532 39.3619 26.6601 39.6377 26.1695 39.9179C25.696 40.1884 25.2249 40.463 24.7515 40.7338C24.3153 40.9834 23.877 41.2293 23.4406 41.4787C22.9671 41.7493 22.495 42.0223 22.0219 42.2937C21.6975 42.4798 21.3732 42.6661 21.0466 42.8482C21.0202 42.8629 20.9688 42.8585 20.941 42.8425C20.1596 42.3961 19.3807 41.9457 18.5995 41.499C17.9028 41.1005 17.2031 40.7072 16.5063 40.3089C15.8841 39.9532 15.2648 39.5925 14.6428 39.2364C14.0544 38.8997 13.4635 38.5673 12.8749 38.2309C12.2932 37.8985 11.7136 37.5625 11.132 37.2299C10.5977 36.9242 10.0613 36.6221 9.52692 36.3165C8.94534 35.9838 8.36573 35.6478 7.78399 35.3155C7.29005 35.0333 6.79346 34.7556 6.29954 34.4734C5.77195 34.172 5.24674 33.8664 4.71932 33.5647C4.185 33.259 3.64918 32.9558 3.11416 32.6513C2.9686 32.5685 2.82243 32.4866 2.67932 32.3998C2.65485 32.3849 2.638 32.3492 2.62933 32.3198C2.62088 32.2911 2.6274 32.258 2.6274 32.2269C2.62739 25.3104 2.62757 18.3938 2.6256 11.4773C2.62557 11.3788 2.64831 11.3245 2.74367 11.2706C3.57112 10.8029 4.39244 10.3246 5.21736 9.85244C5.91395 9.45376 6.61376 9.06061 7.31055 8.66229C7.93276 8.30659 8.55191 7.94563 9.17405 7.5898C9.81663 7.22227 10.4619 6.85927 11.1047 6.49216C11.6865 6.15991 12.266 5.82383 12.8476 5.4912C13.382 5.18558 13.9184 4.88341 14.4527 4.5777C14.9801 4.27594 15.5054 3.97053 16.0328 3.66878C16.5637 3.36502 17.0967 3.06477 17.6277 2.76122C18.3244 2.36297 19.02 1.96279 19.7163 1.56386C20.1253 1.32953 20.5339 1.0944 20.9459 0.865306C20.978 0.847423 21.0427 0.861719 21.0802 0.882381C21.3878 1.05152 21.6925 1.22572 22.0054 1.40296ZM10.6862 34.3227C10.6934 34.326 10.7008 34.3288 10.7077 34.3327C14.1078 36.2766 17.5081 38.2204 20.9069 40.1665C20.9787 40.2076 21.0285 40.2039 21.097 40.1644C21.6797 39.8278 22.2644 39.4947 22.8486 39.1607C27.5532 36.4712 32.2577 33.7815 36.9634 31.0938C37.0378 31.0513 37.0636 31.0055 37.0636 30.9205C37.0614 24.8761 37.0614 18.8316 37.0637 12.7871C37.0637 12.7014 37.036 12.6561 36.9622 12.6145C36.3966 12.2951 35.8335 11.9715 35.2696 11.6492C30.5412 8.94632 25.8127 6.24364 21.0852 3.53908C21.0224 3.50316 20.9798 3.50184 20.9164 3.53815C18.9644 4.65656 17.011 5.77264 15.0578 6.88905C11.722 8.79573 8.38639 10.7027 5.04927 12.6071C4.96228 12.6568 4.93633 12.7115 4.93637 12.8089C4.93899 18.8378 4.93899 24.8667 4.93647 30.8956C4.93642 30.9969 4.96353 31.0527 5.05559 31.1051C6.92911 32.172 8.80025 33.243 10.6862 34.3227Z" fill="#A3CEF1"/>
<path d="M10.6792 34.318C8.8004 33.2431 6.92926 32.1721 5.05574 31.1052C4.96368 31.0528 4.93657 30.997 4.93661 30.8957C4.93914 24.8668 4.93914 18.8379 4.93652 12.809C4.93648 12.7116 4.96243 12.6569 5.04942 12.6072C8.38654 10.7028 11.7222 8.7958 15.058 6.88912C17.0112 5.77271 18.9646 4.65663 20.9166 3.53822C20.98 3.50191 21.0226 3.50324 21.0854 3.53916C25.8128 6.24372 30.5413 8.9464 35.2698 11.6492C35.8337 11.9715 36.3968 12.2952 36.9623 12.6145C37.0362 12.6562 37.0639 12.7015 37.0638 12.7872C37.0616 18.8317 37.0616 24.8761 37.0638 30.9206C37.0638 31.0055 37.0379 31.0514 36.9636 31.0939C32.2579 33.7816 27.5534 36.4712 22.8487 39.1607C22.2645 39.4947 21.6798 39.8279 21.0971 40.1645C21.0287 40.204 20.9789 40.2077 20.9071 40.1666C17.5082 38.2205 14.108 36.2767 10.7078 34.3328C10.701 34.3289 10.6935 34.3261 10.6792 34.318ZM29.6445 27.7843C29.647 27.7773 29.6494 27.7703 29.6556 27.7435C29.5769 27.2844 29.5133 26.8221 29.4158 26.367C29.2942 25.8001 29.0987 25.2544 28.8531 24.7277C28.4224 23.804 27.8376 22.9995 27.0139 22.3753C26.8955 22.2856 26.7979 22.1595 26.7158 22.0341C26.5159 21.7287 26.4396 21.3777 26.4054 21.0234C26.3624 20.5785 26.3748 20.1306 26.4503 19.689C26.5133 19.3205 26.5685 18.9469 26.678 18.5909C26.9191 17.8072 27.1923 17.0333 27.4522 16.2553C27.4896 16.1432 27.5254 16.0306 27.5653 15.9078C27.532 15.9174 27.5161 15.9199 27.5022 15.9264C26.5336 16.3786 25.5512 16.8043 24.5997 17.2896C22.7489 18.2337 21.1716 19.5269 19.8185 21.0903C19.6098 21.3315 19.4143 21.5839 19.2083 21.8365C19.1955 21.8225 19.1819 21.8095 19.1708 21.7948C18.643 21.0952 18.0556 20.4486 17.4149 19.8486C16.4493 18.9443 15.4069 18.1367 14.2347 17.5155C13.3616 17.0527 12.4544 16.6528 11.5617 16.2263C11.3336 16.1174 11.1026 16.0142 10.8488 15.8972C10.8669 15.9696 10.8757 16.0179 10.891 16.064C11.1637 16.8839 11.4335 17.7047 11.7117 18.5227C11.9192 19.1329 12.0022 19.7645 12.0314 20.4014C12.0458 20.7145 12.0124 21.034 11.9625 21.3447C11.8932 21.7764 11.7144 22.1581 11.3459 22.4335C10.829 22.8198 10.4116 23.2989 10.0652 23.8376C9.34738 24.954 8.97435 26.1885 8.80727 27.4915C8.79428 27.5928 8.78835 27.695 8.77866 27.802C9.55529 27.802 10.3087 27.802 11.0729 27.802C11.0964 27.6321 11.1064 27.4619 11.1451 27.2984C11.2521 26.8468 11.3589 26.395 11.5346 25.9621C11.8251 25.2464 12.2238 24.6119 12.864 24.1472C12.9772 24.065 13.0781 23.964 13.175 23.8627C13.8669 23.1401 14.1762 22.2538 14.2751 21.2847C14.3059 20.9839 14.2943 20.6789 14.3023 20.3759C14.3033 20.3401 14.3062 20.3043 14.3092 20.2506C14.3618 20.2865 14.397 20.3094 14.4311 20.334C15.2725 20.9412 16.0399 21.6299 16.726 22.4047C17.222 22.9649 17.689 23.5475 17.9982 24.2257C18.135 24.2257 18.2682 24.2257 18.4013 24.2257C19.038 24.2254 19.6748 24.2229 20.3115 24.2273C20.4089 24.2279 20.4493 24.195 20.4925 24.11C20.598 23.9025 20.7105 23.6964 20.8415 23.5041C21.6223 22.3584 22.5976 21.395 23.693 20.5461C23.8266 20.4425 23.9644 20.344 24.1136 20.2333C24.1136 20.418 24.117 20.5781 24.1129 20.7379C24.1017 21.1813 24.1739 21.6149 24.2823 22.0417C24.4985 22.8924 24.9121 23.6279 25.6225 24.1727C26.0077 24.4681 26.3167 24.8236 26.5577 25.239C26.9965 25.9954 27.22 26.8208 27.3436 27.6771C27.3524 27.7383 27.3504 27.7875 27.4393 27.7869C28.1703 27.7827 28.9013 27.7828 29.6445 27.7843ZM33.0357 22.4798C33.0964 22.2982 33.1571 22.1165 33.2254 21.9123C32.7965 22.1082 32.3929 22.2897 31.9931 22.4789C31.9415 22.5034 31.8896 22.5617 31.8712 22.6155C31.5538 23.5425 31.2375 24.4699 30.9301 25.4002C30.7744 25.8716 30.5638 26.3284 30.5178 26.831C30.4894 27.1413 30.4891 27.4505 30.5549 27.7567C30.8393 27.7567 31.1155 27.7567 31.3683 27.7567C31.4656 27.3651 31.5366 26.9812 31.6569 26.6131C32.106 25.2385 32.5712 23.869 33.0357 22.4798ZM16.8859 25.5436C16.3585 25.0965 15.781 24.7413 15.0981 24.5734C14.8308 24.5077 14.5629 24.5101 14.2832 24.5232C14.3284 24.5507 14.3645 24.5669 14.3934 24.5914C14.6236 24.7871 14.7259 25.0558 14.8187 25.3295C14.8232 25.3428 14.8183 25.3604 14.8145 25.3752C14.774 25.5325 14.7265 25.6884 14.6948 25.8473C14.6806 25.9186 14.6883 25.9979 14.7024 26.0704C14.7488 26.3087 14.9343 26.4084 15.1411 26.4795C15.4488 26.5852 15.7714 26.6263 16.0922 26.6376C16.61 26.6558 17.129 26.6431 17.6474 26.6414C17.6982 26.6413 17.749 26.6266 17.8239 26.6149C17.5727 26.1906 17.2465 25.8635 16.8859 25.5436ZM21.7197 26.6425C22.1119 26.6189 22.5062 26.6118 22.8956 26.565C23.0996 26.5405 23.2998 26.4578 23.4925 26.3792C23.6143 26.3295 23.7018 26.2221 23.7134 26.0827C23.7327 25.8516 23.6941 25.6266 23.6207 25.4064C23.6079 25.3681 23.6073 25.3176 23.6214 25.2801C23.7293 24.9915 23.8398 24.7032 24.1259 24.5243C23.7575 24.4935 23.4093 24.5289 23.0707 24.6462C22.1126 24.9782 21.3692 25.5919 20.7559 26.3757C20.7016 26.4451 20.6594 26.5238 20.6085 26.6029C20.6427 26.6198 20.6626 26.638 20.6826 26.6382C21.0204 26.6409 21.3582 26.6415 21.7197 26.6425ZM29.5707 25.0571C29.7222 25.5353 29.8737 26.0135 30.0116 26.4488C30.3976 25.285 30.7974 24.0795 31.207 22.8446C30.4565 23.1908 29.7344 23.5238 29.0245 23.8513C29.2082 24.2564 29.3859 24.6484 29.5707 25.0571Z" fill="#243144"/>
<path d="M29.7295 27.8843C28.9986 27.8855 28.2676 27.8854 27.5366 27.8896C27.4477 27.8902 27.4497 27.841 27.4409 27.7798C27.3173 26.9235 27.0938 26.0981 26.655 25.3417C26.414 24.9263 26.105 24.5708 25.7198 24.2754C25.0094 23.7306 24.5958 22.9951 24.3796 22.1444C24.2712 21.7176 24.199 21.284 24.2102 20.8406C24.2143 20.6807 24.2109 20.5207 24.2109 20.336C24.0617 20.4467 23.924 20.5452 23.7903 20.6488C22.6949 21.4977 21.7197 22.4611 20.9388 23.6068C20.8078 23.7991 20.6953 24.0052 20.5899 24.2127C20.5467 24.2977 20.5062 24.3306 20.4088 24.33C19.7721 24.3256 19.1354 24.3281 18.4986 24.3284C18.3655 24.3284 18.2323 24.3284 18.0955 24.3284C17.7863 23.6502 17.3193 23.0676 16.8233 22.5074C16.1372 21.7326 15.3698 21.0439 14.5284 20.4367C14.4944 20.4121 14.4591 20.3892 14.4065 20.3533C14.4035 20.407 14.4006 20.4428 14.3996 20.4786C14.3916 20.7816 14.4032 21.0866 14.3725 21.3874C14.2735 22.3565 13.9643 23.2428 13.2724 23.9654C13.1754 24.0667 13.0745 24.1677 12.9613 24.2499C12.3212 24.7146 11.9224 25.3491 11.6319 26.0648C11.4562 26.4977 11.3494 26.9495 11.2424 27.401C11.2037 27.5646 11.1937 27.7348 11.1702 27.9047C10.4061 27.9047 9.65261 27.9047 8.87598 27.9047C8.88567 27.7977 8.8916 27.6955 8.90458 27.5942C9.07166 26.2912 9.44469 25.0567 10.1626 23.9403C10.5089 23.4016 10.9264 22.9225 11.4432 22.5362C11.8117 22.2608 11.9905 21.8791 12.0598 21.4474C12.1097 21.1367 12.1431 20.8172 12.1287 20.5041C12.0995 19.8672 12.0165 19.2356 11.809 18.6254C11.5308 17.8074 11.261 16.9866 10.9884 16.1667C10.973 16.1206 10.9642 16.0723 10.9461 15.9999C11.1999 16.1169 11.4309 16.2201 11.659 16.329C12.5518 16.7554 13.4589 17.1554 14.3321 17.6182C15.5043 18.2394 16.5466 19.047 17.5122 19.9513C18.1529 20.5513 18.7403 21.1979 19.2681 21.8975C19.2793 21.9122 19.2928 21.9252 19.3056 21.9392C19.5116 21.6866 19.7071 21.4342 19.9158 21.193C21.2689 19.6296 22.8463 18.3364 24.6971 17.3923C25.6485 16.907 26.6309 16.4813 27.5995 16.0291C27.6134 16.0225 27.6293 16.0201 27.6626 16.0105C27.6227 16.1333 27.5869 16.2459 27.5495 16.358C27.2897 17.136 27.0164 17.9099 26.7754 18.6936C26.6658 19.0496 26.6106 19.4232 26.5476 19.7917C26.4721 20.2333 26.4598 20.6812 26.5027 21.1261C26.5369 21.4804 26.6132 21.8314 26.8132 22.1368C26.8952 22.2622 26.9928 22.3883 27.1112 22.478C27.935 23.1022 28.5197 23.9067 28.9504 24.8304C29.196 25.3571 29.3915 25.9028 29.5131 26.4697C29.6107 26.9248 29.6742 27.3871 29.7468 27.858C29.7351 27.8732 29.7314 27.878 29.7295 27.8843Z" fill="white"/>
<path d="M33.0329 22.4886C32.5711 23.8689 32.1059 25.2384 31.6567 26.613C31.5365 26.9812 31.4655 27.3651 31.3682 27.7566C31.1154 27.7566 30.8392 27.7566 30.5548 27.7566C30.489 27.4505 30.4893 27.1412 30.5177 26.8309C30.5637 26.3284 30.7742 25.8715 30.93 25.4001C31.2373 24.4698 31.5537 23.5424 31.8711 22.6154C31.8895 22.5616 31.9414 22.5033 31.993 22.4789C32.3928 22.2896 32.7964 22.1082 33.2252 21.9122C33.157 22.1165 33.0963 22.2981 33.0329 22.4886Z" fill="#58A5F0"/>
<path d="M16.8919 25.5493C17.2464 25.8634 17.5726 26.1906 17.8238 26.6149C17.7489 26.6266 17.6982 26.6412 17.6474 26.6414C17.1289 26.6431 16.61 26.6558 16.0922 26.6375C15.7713 26.6262 15.4487 26.5852 15.1411 26.4794C14.9342 26.4083 14.7488 26.3086 14.7024 26.0703C14.6882 25.9978 14.6805 25.9186 14.6947 25.8473C14.7264 25.6883 14.774 25.5324 14.8144 25.3751C14.8182 25.3604 14.8231 25.3427 14.8186 25.3294C14.7259 25.0558 14.6235 24.787 14.3934 24.5914C14.3645 24.5668 14.3283 24.5507 14.2832 24.5231C14.5628 24.5101 14.8308 24.5076 15.0981 24.5733C15.7809 24.7412 16.3585 25.0964 16.8919 25.5493Z" fill="#FEFEFE"/>
<path d="M21.7078 26.6424C21.3582 26.6414 21.0203 26.6409 20.6825 26.6381C20.6625 26.6379 20.6427 26.6198 20.6084 26.6029C20.6593 26.5237 20.7015 26.445 20.7558 26.3756C21.3691 25.5918 22.1125 24.9782 23.0706 24.6461C23.4092 24.5288 23.7574 24.4934 24.1258 24.5242C23.8397 24.7031 23.7292 24.9915 23.6213 25.28C23.6072 25.3175 23.6078 25.3681 23.6206 25.4064C23.694 25.6266 23.7326 25.8515 23.7134 26.0827C23.7018 26.222 23.6142 26.3295 23.4924 26.3791C23.2997 26.4577 23.0995 26.5404 22.8955 26.5649C22.5061 26.6118 22.1118 26.6188 21.7078 26.6424Z" fill="#FEFEFE"/>
<path d="M29.5671 25.0486C29.3858 24.6482 29.2081 24.2562 29.0244 23.8511C29.7344 23.5237 30.4564 23.1906 31.2069 22.8445C30.7974 24.0794 30.3976 25.2848 30.0116 26.4486C29.8737 26.0133 29.7222 25.5351 29.5671 25.0486Z" fill="#58A5EF"/>
<path d="M29.638 27.7833C29.6336 27.7755 29.6374 27.7706 29.6475 27.7651C29.6494 27.7704 29.6468 27.7775 29.638 27.7833Z" fill="#E4E6E8"/>
</svg>
