<svg width="42" height="42" viewBox="0 0 42 42" fill="none" xmlns="http://www.w3.org/2000/svg">
<g clip-path="url(#clip0_766_292)">
<path d="M1.71386 9H20.0998C20.4325 9 20.7018 9.26305 20.7018 9.58795V18.0017C20.7018 18.527 20.3884 19.0038 19.9001 19.2223L17.5843 20.2604C17.4712 20.3112 17.3983 20.4216 17.3983 20.5438C17.3983 20.6644 17.4689 20.7731 17.5803 20.8248L19.917 21.9099C20.3964 22.1323 20.7018 22.6043 20.7018 23.1234V32.2112C20.7018 32.5362 20.4325 32.7992 20.0998 32.7992H1.71386C0.767148 32.7992 0 32.05 0 31.1254V10.6738C0 9.74923 0.767148 9 1.71386 9ZM11.686 24.8661C12.1549 24.8661 12.4892 24.8043 12.688 24.6814C12.9044 24.5577 13.0127 24.329 13.0127 23.994V23.9408C13.0127 23.5884 12.8956 23.3411 12.6607 23.2001C12.4443 23.0592 12.074 22.9888 11.5505 22.9888H8.1228V24.8661H11.686ZM11.524 18.4401C12.3546 18.4401 12.7698 18.1489 12.7698 17.5672V17.4349C12.7698 17.0998 12.6616 16.8704 12.4451 16.7475C12.2463 16.6066 11.9128 16.5361 11.4431 16.5361H8.1236V18.4401H11.5249H11.524ZM22.2601 22.9096H29.837C29.837 23.5094 29.9452 23.9236 30.1617 24.153C30.3966 24.3823 30.73 24.4966 31.1637 24.4966C31.9036 24.4966 32.274 24.0824 32.274 23.2534C32.274 22.8478 32.1473 22.5574 31.8948 22.3804C31.6599 22.2043 31.2992 22.1158 30.8118 22.1158H26.6418V19.0485L33.0587 17.4881H22.2601C21.9588 17.4881 21.7142 17.2494 21.7142 16.955V9.44547C21.7142 9.19964 21.9186 9 22.1704 9H39.9342C40.881 9 41.6481 9.74923 41.6481 10.6738V16.6755C41.6481 17.3535 41.1711 17.943 40.4962 18.1004L33.4652 19.7366L33.7899 19.7899H40.5002C41.3282 19.7899 42 20.446 42 21.2546V31.1261C42 32.0508 41.2328 32.8 40.2862 32.8H22.1704C21.9186 32.8 21.7142 32.6003 21.7142 32.3546V23.4428C21.7142 23.1485 21.9588 22.9096 22.2601 22.9096Z" fill="white"/>
</g>
<defs>
<clipPath id="clip0_766_292">
<rect width="42" height="23.8" fill="white" transform="translate(0 9)"/>
</clipPath>
</defs>
</svg>
