<svg width="64" height="64" viewBox="0 0 64 64" fill="none" xmlns="http://www.w3.org/2000/svg">
<g clip-path="url(#clip0_170_332)">
<mask id="mask0_170_332" style="mask-type:luminance" maskUnits="userSpaceOnUse" x="0" y="8" width="64" height="48">
<path d="M64 8H0V55.3503H64V8Z" fill="white"/>
</mask>
<g mask="url(#mask0_170_332)">
<path d="M53.6509 54.0965L53.7645 54.53L53.8205 54.7412C53.9117 55.0867 54.2461 55.3475 54.6029 55.3491C54.6237 55.3507 54.6717 55.3491 54.7053 55.3491H54.9293C56.2189 55.3587 58.1005 55.3427 59.3933 55.3491H60.2861H60.7309L60.9181 55.3411C61.8573 55.2755 62.7149 54.6212 63.0317 53.7318C63.1229 53.4903 63.3965 52.7304 63.4941 52.4713C63.9933 51.1531 64.1309 49.7054 63.8733 48.3201C63.6765 47.2707 62.6029 44.3577 62.2621 43.2715C62.0813 42.774 61.8989 42.1038 61.6669 41.6479C61.4221 41.1392 61.1181 40.6881 60.7485 40.261C60.2701 39.7043 58.2877 37.3256 57.8701 36.8377L57.5805 36.4921C56.9837 35.8235 57.2381 34.8861 57.0909 34.0798C56.5949 29.4712 52.5501 25.6735 47.9373 25.4704C46.9661 25.4336 45.4029 25.4592 44.3949 25.4512C43.7229 25.4736 43.0429 25.336 42.4477 25.0161C41.9213 24.7633 41.3901 24.1954 40.9741 23.7891L38.4205 21.2856C38.0605 20.9385 37.5053 20.3802 37.1485 20.0443C36.1005 19.0621 34.8845 18.2607 33.5693 17.688C32.9821 17.4272 30.0749 16.2867 29.4381 16.0195C28.8349 15.7732 28.2765 15.4132 27.8013 14.9669C27.3629 14.5638 26.9725 13.9895 26.6189 13.5208C26.3597 13.1801 25.8269 12.4506 25.5533 12.1003C24.5053 10.7582 22.9965 9.82239 21.3581 9.39207C20.7325 9.22411 17.5325 8.20672 16.9069 8.08674C15.0861 7.73481 13.1293 8.47386 11.9853 9.93916C11.5549 10.4655 11.2605 11.1069 11.0701 11.7564C10.9741 12.1467 10.8989 12.617 10.8477 13.0217C10.6557 14.4007 9.90686 15.6868 8.80446 16.533L8.60766 16.677C8.58846 16.6914 8.57726 16.6994 8.57086 16.7058L8.54206 16.7282C8.19966 16.9889 8.13726 17.5328 8.41726 17.8639C8.42846 17.8799 8.46206 17.9183 8.48286 17.9439L9.05566 18.6302L9.02686 18.5998C9.20926 18.779 9.26366 19.0685 9.16126 19.302C9.06366 19.5004 8.87326 19.8827 8.77406 20.0843C8.54366 20.5482 8.07806 21.484 7.84766 21.9463C7.31486 22.9701 7.87166 24.3474 8.97406 24.6945L9.95326 25.0225C10.2333 25.1073 10.4765 25.3104 10.6157 25.5696L10.8557 26.0479L10.9725 26.2814C11.2333 26.8429 11.8381 27.1756 12.4477 27.1324C12.6397 27.1356 15.9757 27.1308 16.9037 27.1324C17.0237 27.1324 17.1213 27.23 17.1213 27.35C17.1213 27.454 17.0477 27.5436 16.9469 27.5644L15.3469 27.8827C15.1181 27.9291 14.9517 28.1306 14.9517 28.3642V28.7705C14.9517 30.0454 14.4029 31.2596 13.4461 32.0994L8.04286 36.8425C5.48926 39.0836 3.57246 41.9758 2.50046 45.2055L0.119656 52.3529C-0.107544 53.0375 -0.0115436 53.8022 0.422056 54.3781C0.826856 54.9124 1.43966 55.2195 2.11166 55.2195H8.93566C9.38686 55.2195 9.75166 54.8532 9.75166 54.4005V53.6326C9.75166 53.4151 9.66526 53.2071 9.51326 53.0535L9.17086 52.7112C8.95326 52.4921 8.85246 52.1705 8.94046 51.873C9.04606 51.5211 9.36446 51.2875 9.72286 51.2875H11.5469C11.9981 51.2875 12.3629 50.9212 12.3629 50.4685V49.1583C12.3629 48.1793 12.8221 47.2563 13.6029 46.6692L13.7581 46.5525C16.0861 44.8008 17.5117 42.0558 17.4813 39.1348C17.4653 37.6855 18.1085 36.3354 19.2381 35.4379L20.6413 34.323C20.7741 34.2174 20.8461 34.051 20.8237 33.8815C20.7453 33.2592 20.6045 32.6449 20.4013 32.053C20.2541 31.6211 19.9517 30.7253 19.8077 30.2982C18.9165 27.8411 19.1901 24.9729 20.5645 22.7541C21.4333 21.3352 22.7293 20.1947 24.2157 19.5452C24.3213 19.4988 24.4461 19.5452 24.4989 19.6508C24.5501 19.7532 24.5133 19.8763 24.4157 19.9371C21.0957 22.0039 19.4365 26.2606 20.7885 29.9719C20.9261 30.3974 21.2317 31.33 21.3629 31.7331C21.9725 33.5823 22.0525 35.6027 21.5869 37.4919L18.9965 47.0404L18.9149 47.3379C18.5533 48.5121 18.7149 49.8062 19.3133 50.8732C19.3373 50.9324 19.4637 51.1675 19.4861 51.2187C19.7597 51.7194 19.7069 52.3369 19.7085 52.8776V54.1125C19.7005 54.3877 19.7005 54.73 19.9133 54.9412C20.0957 55.1555 20.3741 55.2387 20.6493 55.2195H25.5741H28.0365C28.1101 55.2227 28.3773 55.2195 28.4477 55.2147C28.8877 55.1731 29.2189 54.7508 29.1773 54.3125V53.695C29.1805 53.5574 29.1629 53.4215 29.1053 53.2967C29.0525 53.1671 28.9373 53.0487 28.8365 52.9528L28.3981 52.5113C28.0093 52.1321 27.9677 51.4587 28.2925 51.0332C28.4013 50.8748 29.0621 49.955 29.1869 49.7758C29.8253 48.8448 31.0509 47.1859 31.6653 46.2629C33.0573 44.137 33.5005 41.4319 32.8973 38.9668C32.7597 38.2822 32.3501 37.356 32.1245 36.6905C31.8365 35.8731 31.1037 33.987 30.8733 33.16C30.5101 31.9235 30.5133 30.6245 30.5965 29.3528C30.6365 28.5977 30.6813 27.8411 30.7501 27.0861C30.7613 26.9709 30.8573 26.8813 30.9741 26.8813C31.0893 26.8813 31.1869 26.9693 31.1981 27.0845C31.3053 28.241 31.3501 29.4232 31.4093 30.5765C31.4877 31.7731 31.7645 32.8993 32.2189 34.0142C32.5213 34.7965 33.2541 36.7225 33.5389 37.4759C33.7709 38.0902 33.9437 38.7301 34.0541 39.3795C34.1373 39.8674 34.4653 40.2834 34.9213 40.4721C35.6029 40.7553 36.3197 41.0032 37.0701 41.2144C37.8429 41.4319 38.6541 41.0656 39.0029 40.3393C39.0621 40.2162 39.1245 40.093 39.1885 39.9714C39.6877 39.0004 40.3581 38.1334 41.0269 37.2808C41.6381 36.4905 42.2733 35.7195 42.9325 34.9644C43.0077 34.8781 43.1373 34.8637 43.2301 34.9292C43.3245 34.9964 43.3533 35.126 43.2941 35.2252C42.5357 36.4937 41.6317 37.8678 40.8141 39.0772C39.8413 40.5841 39.1581 42.2829 38.8653 44.0554C38.6397 45.4727 38.2221 48.1345 37.9949 49.5775C37.9021 50.1117 37.8557 50.8284 37.5645 51.2987C37.3101 51.801 36.7197 52.2025 36.3021 52.5528L35.9933 52.8056L35.9549 52.8376L35.9309 52.86C35.7005 53.0583 35.6109 53.3879 35.7021 53.679C35.7885 53.9861 35.9133 54.4996 36.0013 54.7844C36.1085 55.0803 36.4093 55.2851 36.7261 55.2787L38.3197 55.2739C39.6381 55.2691 40.9837 55.2803 42.3037 55.2819C42.3629 55.2819 42.5421 55.2835 42.6013 55.2819C43.1837 55.2787 43.7645 55.0915 44.2301 54.738C44.8221 54.3109 45.1085 53.711 45.3389 53.0119C45.5149 52.5304 46.5229 49.8046 46.7213 49.2639C46.9005 48.7616 47.1149 48.2193 47.3469 47.741C48.0717 46.2405 49.0909 44.8808 50.3613 43.7978C51.9005 42.5341 53.0397 40.8992 53.8109 39.0324C53.8557 38.9236 53.9725 38.866 54.0845 38.898C54.1965 38.93 54.2685 39.0404 54.2509 39.1556C53.9965 40.7233 53.2413 42.1854 52.2029 43.3835C51.7885 43.8618 51.5469 44.4665 51.5469 45.1V45.6295C51.5421 45.8838 51.5437 46.1861 51.5901 46.4389C51.6973 47.074 52.0381 47.6578 52.5213 48.0802L52.8493 48.3825L54.1645 49.5934L54.8221 50.1997C55.0029 50.3533 55.1469 50.5581 55.2077 50.7884C55.3469 51.2619 55.1293 51.7882 54.7245 52.0601C54.5517 52.2025 54.2029 52.4825 54.0301 52.6232C53.9517 52.6952 53.8045 52.796 53.7341 52.8728C53.5341 53.0759 53.4589 53.3863 53.5309 53.6614L53.6445 54.0949L53.6509 54.0965Z" fill="white"/>
</g>
</g>
<defs>
<clipPath id="clip0_170_332">
<rect width="64" height="64" fill="white"/>
</clipPath>
</defs>
</svg>
