<svg width="64" height="64" viewBox="0 0 64 64" fill="none" xmlns="http://www.w3.org/2000/svg">
<g clip-path="url(#clip0_167_218)">
<path d="M20.1995 31.091H0.326416L21.2344 21.2779L30.9124 0.206055L30.9351 20.2243C30.9428 26.2229 26.1343 31.0987 20.192 31.0987L20.1995 31.091Z" fill="white"/>
<path d="M43.8003 31.0912H63.6736L42.7656 21.278L33.0877 0.206177L33.065 20.2244C33.0573 26.223 37.8658 31.0988 43.808 31.0988L43.8003 31.0912Z" fill="white"/>
<path d="M43.8003 33.3212H63.6736L42.7656 43.1343L33.0877 64.2061L33.065 44.1879C33.0573 38.1893 37.8658 33.3135 43.808 33.3135L43.8003 33.3212Z" fill="white"/>
<path d="M20.1995 33.3212H0.326416L21.2344 43.1343L30.9124 64.2061L30.9351 44.1879C30.9428 38.1893 26.1343 33.3135 20.192 33.3135L20.1995 33.3212Z" fill="white"/>
</g>
<defs>
<clipPath id="clip0_167_218">
<rect width="64" height="64" fill="white"/>
</clipPath>
</defs>
</svg>
