<svg width="42" height="42" viewBox="0 0 42 42" fill="none" xmlns="http://www.w3.org/2000/svg">
<g clip-path="url(#clip0_384_1124)">
<path d="M31.2167 15.7287H10.4971C4.80785 15.7058 0.148814 20.2275 0 25.9168C0 26.0656 0.114473 26.1915 0.274734 26.1915H20.9943C26.6836 26.2144 31.3426 21.6813 31.4914 15.992C31.4914 15.8432 31.3655 15.7173 31.2167 15.7173V15.7287Z" fill="#E62058"/>
<path d="M41.7139 8.63399e-05H10.4972C4.80788 -0.0228082 0.148842 4.51031 0.0114746 10.1996C0.0114746 10.3484 0.125947 10.4743 0.274762 10.4743H31.5029C37.1922 10.4972 41.8512 5.96411 42 0.274821C42 0.126006 41.8741 8.63399e-05 41.7253 8.63399e-05H41.7139Z" fill="#E62058"/>
<path d="M5.25429 41.8742C8.15616 41.8742 10.5086 39.5218 10.5086 36.6199C10.5086 33.718 8.15616 31.3656 5.25429 31.3656C2.35243 31.3656 0 33.718 0 36.6199C0 39.5218 2.35243 41.8742 5.25429 41.8742Z" fill="#E62058"/>
</g>
<defs>
<clipPath id="clip0_384_1124">
<rect width="42" height="42" fill="white"/>
</clipPath>
</defs>
</svg>
