<svg width="42" height="42" viewBox="0 0 42 42" fill="none" xmlns="http://www.w3.org/2000/svg">
<path fill-rule="evenodd" clip-rule="evenodd" d="M19.0429 1.38317L9.12663 6.59636C8.52902 6.91053 8.22218 7.35731 8.17814 7.83584H8.17371V7.90257C8.1722 7.939 8.17222 7.97559 8.17371 8.01229V33.9068C8.17202 33.9429 8.17214 33.9867 8.17371 34.0398C8.18877 34.554 8.49291 35.0705 9.12663 35.4036L19.0429 40.6169C20.0148 41.1277 21.4934 41.1277 22.4652 40.6169L32.3815 35.4036C33.0178 35.069 33.3423 34.5562 33.3548 34.0398L33.3551 34.0088V7.83584H33.3458C33.2882 7.36252 32.9668 6.90405 32.3815 6.59636L22.4652 1.38317C21.4934 0.872277 20.0148 0.872277 19.0429 1.38317ZM9.73453 33.9884L19.0429 38.8561C19.6036 39.1541 20.1869 39.4445 20.7541 39.4464C21.2763 39.4481 21.7843 39.2002 22.2976 38.9497L22.3968 38.9014L31.7944 33.9465V22.4549L22.4652 27.3595C21.4934 27.8704 20.0148 27.8704 19.0429 27.3595L9.73453 22.4659V33.9884ZM9.73453 19.037L18.6094 14.3713L9.73453 9.70563V19.037ZM31.7944 9.69469V19.0479L22.8987 14.3713L31.7944 9.69469ZM21.7362 2.75692L31.6524 7.97011L31.675 7.98233L31.6907 7.9912L31.6823 7.99604C31.6728 8.00139 31.6629 8.00681 31.6524 8.01229L21.7362 13.2255C21.2206 13.4966 20.2875 13.4966 19.7718 13.2255L9.85558 8.01229L9.83298 8.00007L9.81742 7.9912L9.82582 7.98635C9.83525 7.981 9.84518 7.97559 9.85558 7.97011L19.7718 2.75692C20.2875 2.48582 21.2206 2.48582 21.7362 2.75692ZM21.7362 15.5171L31.6524 20.7304L31.675 20.7426L31.6907 20.7514L31.6823 20.7562L31.6616 20.7677L31.6524 20.7725L21.7362 25.9856C21.6745 26.0182 21.6068 26.0467 21.5345 26.0715V15.4314C21.6068 15.4561 21.6745 15.4847 21.7362 15.5171ZM19.9737 15.4314C19.9014 15.4561 19.8336 15.4847 19.7718 15.5171L9.85558 20.7304C9.84518 20.7359 9.83525 20.7412 9.82582 20.7465L9.81742 20.7514L9.83298 20.7603L9.85558 20.7725L19.7718 25.9856C19.8336 26.0182 19.9014 26.0467 19.9737 26.0715V15.4314ZM33.2596 3.32861L32.4518 4.65793L33.0151 4.99626L33.1985 5.10807C33.354 5.2039 33.4818 5.28545 33.5978 5.36329L33.628 5.38364C34.1566 5.74194 34.4459 6.03642 34.6389 6.42174C34.8717 6.88662 34.9889 7.5465 34.9889 8.55049H36.5498L36.5495 8.48066C36.5385 6.18804 35.9766 5.08595 34.4703 4.0751C34.3294 3.98054 34.1783 3.88431 33.996 3.77233L33.89 3.70757L33.2596 3.32861ZM9.0979 37.3628L8.29006 38.6921L7.65966 38.3131L7.55369 38.2484C7.37141 38.1364 7.22033 38.0402 7.07941 37.9456C5.57305 36.9348 5.01125 35.8327 5.00017 33.5401L5 33.4702H6.56084C6.56084 34.4743 6.67807 35.1341 6.91082 35.599C7.10374 35.9843 7.39321 36.2788 7.92175 36.6371L7.95193 36.6575C8.06792 36.7352 8.1957 36.8168 8.35124 36.9127L8.53466 37.0245L9.0979 37.3628Z" fill="white"/>
</svg>
