<svg width="42" height="42" viewBox="0 0 42 42" fill="none" xmlns="http://www.w3.org/2000/svg">
<g clip-path="url(#clip0_365_1066)">
<path d="M21 0C9.40163 0 0 9.40275 0 21C0 32.5972 9.40275 42 21 42C32.5972 42 42 32.5972 42 21C42 9.40275 32.5972 0 21 0ZM21 38.2828C11.4551 38.2828 3.71721 30.5449 3.71721 21C3.71721 11.4551 11.4551 3.71721 21 3.71721C30.5449 3.71721 38.2828 11.4551 38.2828 21C38.2828 30.5449 30.5449 38.2828 21 38.2828Z" fill="#37FA85"/>
<path d="M20.8846 9.45203C14.5306 9.51473 9.38025 14.7793 9.45191 21.1333C9.46982 22.7579 9.82363 24.3018 10.4484 25.7003C10.5413 25.9096 10.819 25.9567 10.978 25.7921L13.524 23.1643C13.6898 22.993 13.7581 22.7511 13.7099 22.5171C13.6091 22.0278 13.5565 21.5218 13.5565 21.0023C13.5565 16.8898 16.8897 13.5566 21.001 13.5566C21.422 13.5566 21.834 13.5913 22.2349 13.6585C22.5036 13.7033 22.7779 13.6182 22.9671 13.4223L25.4997 10.8102C25.6475 10.6568 25.596 10.4015 25.399 10.3209C24.0095 9.74873 22.4845 9.43859 20.8846 9.45427V9.45203Z" fill="#37FA85"/>
<path d="M21.1141 32.5626C27.4681 32.4999 32.6185 27.2353 32.5468 20.8814C32.5289 19.2568 32.1751 17.7128 31.5503 16.3143C31.4574 16.105 31.1797 16.0579 31.0207 16.2225L28.4747 18.8503C28.309 19.0216 28.2407 19.2635 28.2888 19.4975C28.3896 19.9868 28.4422 20.4928 28.4422 21.0124C28.4422 25.1248 25.109 28.458 20.9977 28.458C20.5767 28.458 20.1647 28.4233 19.7639 28.3561C19.4951 28.3113 19.2208 28.3964 19.0316 28.5923L16.499 31.2045C16.3512 31.3579 16.4027 31.6131 16.5998 31.6937C17.9892 32.2659 19.5142 32.576 21.1141 32.5604V32.5626Z" fill="#37FA85"/>
<path d="M15.0508 23.2828L10.2008 28.1328C9.21659 29.117 9.21658 30.7128 10.2008 31.697C11.1851 32.6813 12.7808 32.6813 13.7651 31.697L18.6151 26.8471C19.5993 25.8628 19.5993 24.267 18.6151 23.2828C17.6308 22.2985 16.0351 22.2986 15.0508 23.2828Z" fill="#37FA85"/>
<path d="M28.1297 10.2345L23.2797 15.0844C22.2954 16.0687 22.2954 17.6645 23.2797 18.6487C24.2639 19.633 25.8597 19.633 26.844 18.6487L31.6939 13.7987C32.6782 12.8145 32.6782 11.2187 31.6939 10.2345C30.7097 9.25021 29.1139 9.25021 28.1297 10.2345Z" fill="#37FA85"/>
</g>
<defs>
<clipPath id="clip0_365_1066">
<rect width="42" height="42" fill="white"/>
</clipPath>
</defs>
</svg>
