<svg width="42" height="42" viewBox="0 0 42 42" fill="none" xmlns="http://www.w3.org/2000/svg">
<g clip-path="url(#clip0_760_13)">
<path d="M21.5944 10.4263C21.5944 8.75265 22.9396 7.3892 24.591 7.3892H29.953V0H24.591C18.91 0 14.3035 4.66874 14.3035 10.4263C14.3035 11.9287 14.6192 13.3568 15.1834 14.6459C10.7716 16.536 7.8418 20.5521 7.15962 25.6344C6.36256 31.2143 8.56863 37.2335 13.3728 40.1414C17.6605 42.878 24.3647 42.697 27.9859 38.9007V41.4209H35.4489V13.4634H24.5941C22.9427 13.4634 21.5974 12.0999 21.5974 10.4263H21.5944ZM28.1516 20.8558V27.8735C28.1516 31.7507 25.0499 34.8912 21.2276 34.8912C17.4055 34.8912 14.3035 31.7473 14.3035 27.8735C14.3035 23.9995 17.4055 20.8558 21.2276 20.8558H28.1516Z" fill="#BFF009"/>
</g>
<defs>
<clipPath id="clip0_760_13">
<rect width="42" height="42" fill="white"/>
</clipPath>
</defs>
</svg>
