<svg width="42" height="42" viewBox="0 0 42 42" fill="none" xmlns="http://www.w3.org/2000/svg">
<g clip-path="url(#clip0_456_25)">
<g clip-path="url(#clip1_456_25)">
<path d="M11.2982 35.8372C7.42768 35.8372 5.0716 32.699 6.03638 28.8277L9.74624 13.949C10.711 10.0785 14.6321 6.93953 18.5034 6.93953H38.7295C35.8923 3.26882 31.3342 1 25.7201 1C14.46 1 3.21871 10.1275 0.611447 21.3884C-1.995 32.6492 5.01859 41.7767 16.2795 41.7767C21.8936 41.7767 27.502 39.5079 32.0389 35.8372H11.2982Z" fill="black"/>
<path d="M21.3904 12.6677C20.4223 12.6677 19.4421 13.4523 19.2015 14.4203L18.178 18.5241H33.93L32.502 24.2524H16.75L15.7265 28.3562C15.4851 29.3242 16.0739 30.1087 17.0419 30.1087H37.4148C39.2799 27.4648 40.6663 24.5085 41.3889 21.3882C42.1115 18.268 42.0935 15.3117 41.4525 12.6677H21.3904Z" fill="black"/>
</g>
</g>
<defs>
<clipPath id="clip0_456_25">
<rect width="42" height="42" fill="white"/>
</clipPath>
<clipPath id="clip1_456_25">
<rect width="42" height="40.7767" fill="white" transform="translate(0 1)"/>
</clipPath>
</defs>
</svg>
